<svg width="73" height="70" viewBox="0 0 73 70" fill="none" xmlns="http://www.w3.org/2000/svg">
<path d="M34.0498 0.00281161C38.2572 0.0100471 40.5208 0.00833599 41.781 0.0794876C42.4025 0.114599 43.1953 0.18179 43.9954 0.442614C44.8759 0.729717 45.556 1.21191 45.571 1.22239C46.5405 1.8413 47.4484 2.81444 48.0501 3.74547L48.2887 4.14042C48.6351 4.75998 48.8502 5.42637 48.9914 6.07758C49.1516 6.13791 49.3124 6.20465 49.4686 6.27867C50.877 6.94589 52.2036 8.21095 52.9487 9.52221C53.3277 10.1893 53.6249 11.0498 53.7737 11.6228C53.9706 12.3816 54.0298 12.9657 54.0574 14.0013C54.0823 14.9378 54.0867 16.534 54.0937 19.4279C54.0962 20.4387 54.0996 21.4007 54.1025 22.2533C54.5438 22.4875 54.9807 22.7856 55.3944 23.1662C56.526 24.2076 57.0599 25.478 57.3352 26.5732C59.414 25.6027 61.8191 25.6741 63.8706 26.9566L64.3376 27.2749L64.5616 27.4485C65.1129 27.8995 65.8519 28.6298 66.3075 29.0862C66.8776 29.6572 67.6968 30.4991 68.1072 31.0233C69.0282 32.2003 69.5941 33.6016 69.5941 35.2477C69.594 36.4883 69.2609 37.5049 68.807 38.3698C68.9841 38.4453 69.1602 38.525 69.3322 38.6128C70.0738 38.9912 71.0604 39.6398 71.7997 40.7077L71.9452 40.9276L72.1416 41.2661C73.0624 42.9626 72.9974 44.7123 73 46.2876C73.0018 47.3387 72.9846 48.2802 72.8909 49.0755C72.7871 49.9559 72.5621 50.9339 71.9743 51.9125C71.1479 53.2883 69.9101 54.0375 68.9627 54.4385C68.6182 54.5842 68.2664 54.7016 67.9137 54.7987C68.0296 55.0697 68.1433 55.3617 68.2309 55.674C68.508 56.6625 68.4925 57.5095 68.4389 58.1507C68.4132 58.4576 68.3583 59.0784 68.1159 59.7768C67.9322 60.3062 67.6926 60.7337 67.5107 61.0239L67.3521 61.267C66.8861 61.9647 65.999 62.877 65.4724 63.3821C64.6857 64.1365 63.7613 65.0243 62.7823 65.6013C61.3239 66.461 60.0089 66.538 59.0112 66.4983C58.7828 66.4892 58.0715 66.4749 57.3221 66.2654C56.9762 66.1686 56.6681 66.0387 56.4099 65.9167C56.1624 66.4072 55.8397 66.9095 55.406 67.3851C54.5797 68.2913 53.6201 68.8204 52.7523 69.1472C52.2734 69.3276 51.6926 69.5191 50.8071 69.5885C50.2655 69.6309 49.5486 69.6282 48.7077 69.6275C47.874 69.6269 47.1759 69.6263 46.652 69.587C45.8119 69.524 45.224 69.3539 44.6588 69.1284C43.1664 68.533 41.8443 67.3365 41.106 65.8979C39.9643 66.4596 38.9372 66.5128 38.2238 66.5128C37.9737 66.5128 37.3262 66.5204 36.6133 66.3536C35.8138 66.1665 35.2244 65.8343 34.9692 65.691C34.1869 65.2518 33.3312 64.4901 32.8291 64.0302C32.5483 63.7729 32.2548 63.4909 31.9591 63.1998H23.787C18.4131 63.1996 15.5467 63.1997 13.9461 63.1448C13.1683 63.1181 12.4369 63.0736 11.7754 62.948C10.9021 62.7823 10.3231 62.5094 9.95393 62.326C9.09938 61.9014 8.38782 61.3168 7.86762 60.7982C7.35083 60.283 6.75522 59.5669 6.3298 58.699C5.77748 57.5722 5.54504 56.5101 5.43505 55.3427C4.73553 55.1235 4.16273 54.8322 3.65572 54.5209C2.63033 53.8911 1.74365 53.023 1.10967 51.8734C0.511564 50.7889 0.255192 49.6653 0.136352 48.6733C0.0686503 48.1076 0.0472843 46.7296 0.0316006 45.3603C0.0137807 43.8043 0.00422643 41.7595 0.00104801 39.5213C-0.00530443 35.0469 0.0170095 29.75 0.0737923 25.9584C0.134865 21.8836 0.124041 20.8479 0.459337 19.5523C0.972698 17.5689 1.96452 16.1003 3.3211 14.6899C3.85774 14.132 6.71639 11.2747 9.41562 8.58763C10.7799 7.22951 12.1255 5.89295 13.1503 4.87825C14.0516 3.98587 14.9422 3.10301 15.1828 2.89625C16.2275 1.99966 17.3918 1.22883 19.015 0.752211C20.4237 0.338602 21.979 0.212562 23.6371 0.133016L25.0266 0.0635737C25.216 0.0534224 25.3722 0.0442299 25.4848 0.0375328C25.6433 0.0281111 25.6267 0.0274216 25.5532 0.0346394C25.6567 0.0244726 25.7397 0.0200899 25.7656 0.0187255C25.8034 0.0167396 25.8353 0.0151174 25.8558 0.0143854C25.8972 0.0129124 25.936 0.0120742 25.9635 0.0114919C26.0201 0.0102952 26.0846 0.00932606 26.1497 0.00859848C26.2835 0.00710504 26.4639 0.00677638 26.6793 0.00570504C27.1126 0.00355062 27.7186 0.00226951 28.4499 0.00136489C29.9142 -0.000446045 31.8988 -0.00090089 34.0498 0.00281161Z" fill="#062A12" fill-opacity="0.5"/>
</svg>
