<svg width="71" height="70" viewBox="0 0 71 70" fill="none" xmlns="http://www.w3.org/2000/svg">
<path d="M32.042 0.0870845C33.1174 -0.0776511 34.3684 0.0269624 35.1085 0.110267C35.9564 0.205737 37.0535 0.382984 37.9796 0.675929C38.7158 0.908859 39.5725 1.27414 40.2377 1.5847C40.6247 1.76542 41.2358 2.06057 41.8071 2.40537C41.9535 2.31609 42.1081 2.22712 42.2625 2.15036L42.7305 1.9448C43.8819 1.49741 45.4145 1.32901 46.9788 2.02517C48.4424 2.67672 49.2631 3.79069 49.6971 4.69583L49.8609 5.0683L49.9807 5.40677C50.087 5.73787 50.152 6.03102 50.1761 6.13781C50.2341 6.39482 50.2915 6.68545 50.3463 6.97857C50.4566 7.56939 50.5742 8.28183 50.674 8.98157C50.759 9.57752 50.8929 10.4945 50.9703 11.0093C51.046 11.5125 51.1484 12.2364 51.1783 12.5857C51.1786 12.5882 51.1795 12.5907 51.1799 12.5935C51.1859 12.6423 51.1949 12.7106 51.2066 12.7944C51.2301 12.9621 51.2593 13.1605 51.2886 13.3415L51.5738 15.1266C51.587 15.214 51.5966 15.2993 51.6085 15.3816C52.4768 16.1402 53.3154 16.9636 53.8776 17.6257C53.9341 17.6922 53.9874 17.751 54.0289 17.7972C54.3874 18.124 54.6591 18.4678 54.8609 18.7802C54.925 18.862 54.9764 18.9304 55.0106 18.9765C55.2132 19.2497 55.4972 19.6577 55.871 20.199C56.2451 20.741 56.6248 21.3647 57.0622 22.1231C57.3031 22.5406 57.6128 23.1782 57.8139 23.6069C57.9268 23.8475 58.0421 24.1022 58.1369 24.3224C58.1816 24.4263 58.2409 24.5662 58.2961 24.7119C58.314 24.7593 58.3402 24.8359 58.3717 24.9298C58.4337 25.0616 58.495 25.1978 58.5498 25.3347C58.59 25.4355 58.649 25.5895 58.7058 25.7721C58.7338 25.8624 58.7752 26.0077 58.8145 26.1863C58.8156 26.1915 58.8163 26.1972 58.8177 26.2033C58.8234 26.2218 58.8289 26.2435 58.8366 26.2667C59.03 26.853 59.2202 27.4556 59.3534 28.027L59.4653 28.5865C59.4653 28.5865 59.4676 28.5929 59.47 28.6066C59.4726 28.621 59.4752 28.6403 59.4795 28.6638C59.4882 28.7113 59.4998 28.7699 59.5126 28.8354C59.5384 28.9679 59.5667 29.1105 59.5914 29.2264L59.7206 29.9481C59.9897 31.7308 60.0299 34.1433 59.8734 35.8783C59.8356 36.298 59.779 36.757 59.708 37.2322C59.7846 37.2934 59.855 37.3508 59.9049 37.3929C60.0296 37.4982 60.1784 37.6266 60.3304 37.7607C60.6408 38.0347 61.0427 38.3962 61.465 38.7823C62.2769 39.5249 63.2846 40.444 63.7026 40.8209C64.1569 41.2305 64.9771 41.9829 65.5384 42.5055C66.0831 43.0127 66.8027 43.6799 67.1346 43.9861C67.4834 44.3078 68.1205 44.9005 68.556 45.3075C68.7774 45.5144 69.4436 46.112 69.9364 46.799C70.621 47.7534 71.3363 49.3611 70.8267 51.3335C70.4574 52.7617 69.5605 53.7511 69.2194 54.1263C68.7791 54.6105 68.2093 55.1531 67.6861 55.6517C66.7869 56.5086 65.5035 57.7139 64.8198 58.3425C64.1708 58.9391 63.0178 60.0033 62.2639 60.704C60.6405 62.213 59.731 63.1243 58.4631 63.7317C58.2476 63.8349 57.3793 64.2698 56.2712 64.3638C54.7061 64.4967 53.5133 63.936 52.7998 63.4597C52.1392 63.0184 51.4298 62.338 50.9514 61.3269C50.5825 60.5469 50.4755 59.8169 50.4298 59.4475C50.3916 59.1383 50.3664 58.7772 50.3479 58.3734C47 58.3451 41.4314 58.3401 38.4161 58.3657C38.2817 58.6354 38.1434 58.92 37.9922 59.2142C37.5164 60.1397 37.1165 60.878 36.3439 61.687L35.9894 62.0378C35.7452 62.2672 35.3269 62.65 34.7729 62.9945C34.1409 63.3874 33.5548 63.5958 33.0962 63.7271C32.7126 64.906 32.0125 65.7355 31.4732 66.2571C30.7784 66.929 29.9592 67.3824 29.4719 67.6326C28.8776 67.9377 28.2164 68.2189 27.5479 68.4641C27.4264 68.5087 27.2915 68.559 27.176 68.6032C27.1185 68.6252 27.0701 68.6448 27.0342 68.6588C26.9921 68.6754 26.9877 68.6764 27.0074 68.6681L27.0058 68.6697C26.3034 68.9636 25.0586 69.3384 24.3254 69.4888C22.9788 69.765 21.1968 69.7058 19.6139 68.6527C19.2577 68.8353 18.9306 68.9715 18.67 69.0653C18.3189 69.1916 17.9022 69.3148 17.4456 69.3961C17.0772 69.4616 16.284 69.5769 15.3482 69.4038C14.8252 69.3069 14.1646 69.1273 13.596 68.9401L13.0665 68.7531C12.878 68.6808 12.5479 68.5551 12.3369 68.4749C11.3612 68.1043 10.2915 67.6588 9.41227 67.0886C8.80867 66.6971 7.26353 65.5801 6.7949 63.5756L5.26167 63.5988L3.50783 61.7148C3.05278 61.2258 2.69804 60.6198 2.63012 60.5078C2.45411 60.2175 2.26176 59.8801 2.07544 59.5418C1.70529 58.8696 1.28132 58.0548 0.955066 57.358C0.511764 56.4111 -0.624978 53.9661 0.783306 51.3335L0.986582 50.9858C1.01039 50.948 1.03779 50.9129 1.06222 50.8761C0.702817 50.387 0.387283 49.7917 0.192389 49.0693C-0.208968 47.5814 0.119975 46.2617 0.261723 45.7202C0.429291 45.0801 0.69403 44.3288 0.918823 43.6801C1.22766 42.7889 1.55203 41.8606 1.93362 41.1269C2.51701 40.0052 3.26655 39.2257 4.20905 38.6201C4.96511 38.1342 5.74411 37.8411 6.50969 37.685C6.60181 37.1411 6.7765 36.5423 7.10218 35.9417L7.244 35.6975C7.41386 35.4217 7.59483 35.1905 7.75297 35.0051C7.74523 34.6027 7.74087 34.1587 7.74037 33.6512C7.73841 31.717 7.74933 31.0277 7.98777 29.7395C8.09573 29.1562 8.23835 28.4993 8.37226 27.9436C8.44867 27.6265 8.60644 26.9887 8.80087 26.4491C8.80181 26.4464 8.80307 26.444 8.80402 26.4413C8.83741 26.349 8.86771 26.2582 8.90329 26.174C8.8621 26.2715 8.83823 26.3413 8.83081 26.3625C8.82081 26.3911 8.81441 26.41 8.8119 26.4182C8.81111 26.4207 8.80957 26.4231 8.80875 26.4259C9.01575 25.575 9.4042 24.631 9.71955 23.9299C10.0878 23.1111 10.5467 22.2048 11.0164 21.4138C11.0825 21.3024 11.1371 21.2031 11.1787 21.1294C11.2314 21.0136 11.2761 20.9275 11.3032 20.8759C11.4851 20.5306 11.6758 20.2688 11.8059 20.1047C11.8284 20.0763 11.8522 20.049 11.8752 20.0212C11.9677 19.8739 12.0719 19.7225 12.1888 19.5715C12.2271 19.522 12.2799 19.4603 12.3416 19.3876C12.4704 19.2058 12.6121 19.0196 12.7356 18.8621C12.865 18.697 13.0203 18.5065 13.1721 18.332C13.1781 18.3251 13.1844 18.3179 13.191 18.3103C13.2561 18.2205 13.3124 18.1495 13.3517 18.1002C13.543 17.8602 13.7467 17.6431 13.8906 17.4928C14.2005 17.169 14.6371 16.7403 15.1875 16.21C16.143 15.2896 17.0306 14.5642 18.317 13.615L18.3201 13.6135C18.4236 13.5373 18.5923 13.4286 18.7724 13.3137C18.7755 13.2907 18.7788 13.2681 18.7819 13.2457C18.8732 12.5849 19.0196 11.6868 19.2105 11.0093C19.4315 10.2249 19.7335 9.391 20.085 8.65546L20.1717 8.47L20.1953 8.41745C20.4894 7.74093 20.9476 7.11669 21.3456 6.53655C21.8885 5.74549 22.5728 4.98188 23.2634 4.32645C23.6858 3.92549 24.1046 3.52224 24.5067 3.19668C24.9863 2.80837 25.4436 2.5286 25.7626 2.32655C27.7804 1.04857 29.5935 0.462304 32.042 0.0870845ZM58.9027 26.7582C58.899 26.7204 58.8976 26.6886 58.8949 26.6654C58.8939 26.6571 58.8927 26.6488 58.8917 26.6407C58.8962 26.6782 58.8988 26.7174 58.9027 26.7582ZM10.8021 22.4199C10.7952 22.4681 10.79 22.5252 10.7832 22.5884C10.7919 22.5073 10.8026 22.4285 10.8147 22.3519C10.8112 22.3741 10.8055 22.3965 10.8021 22.4199ZM10.8746 22.0335C10.8689 22.0582 10.8651 22.0862 10.8588 22.1154C10.868 22.0717 10.8772 22.029 10.8872 21.9871C10.8835 22.0024 10.8783 22.0176 10.8746 22.0335ZM55.6456 21.4153L55.6377 21.1526C55.6363 21.1275 55.6334 21.1023 55.6314 21.0768C55.6392 21.1869 55.6456 21.2997 55.6456 21.4153ZM15.6508 17.6458C15.2349 17.6847 14.841 17.7758 14.4721 17.9085C14.793 17.7947 15.1909 17.6916 15.6524 17.6473L15.6508 17.6458ZM53.657 17.4928C53.6207 17.4653 53.58 17.432 53.5325 17.3985C53.528 17.3953 53.5231 17.3925 53.5183 17.3892C53.5662 17.4225 53.6113 17.4586 53.657 17.4928ZM51.9347 16.8869C52.3374 16.9759 52.6823 17.1085 52.9652 17.2408C52.6569 17.092 52.3143 16.9695 51.9347 16.8869ZM51.7487 16.8498C51.7983 16.8588 51.8473 16.8675 51.8953 16.8776C51.8468 16.8675 51.7983 16.8555 51.7487 16.8467V16.8498ZM43.8462 3.85352C43.8183 3.82517 43.7905 3.80023 43.7658 3.77625L43.7627 3.7747C43.7891 3.80029 43.8184 3.82522 43.8462 3.85352ZM42.2625 2.70056C42.2657 2.70258 42.2696 2.70424 42.2736 2.70675C42.268 2.703 42.264 2.6995 42.261 2.69747C42.2557 2.69398 42.2499 2.69129 42.2499 2.69129C42.2542 2.69426 42.2583 2.69759 42.2625 2.70056Z" fill="#062A12" fill-opacity="0.5"/>
</svg>
