<svg width="68" height="65" viewBox="0 0 68 65" fill="none" xmlns="http://www.w3.org/2000/svg">
<path d="M60.8246 0.000286338C61.3767 0.00606981 61.8942 0.102865 62.1266 0.143599C62.1731 0.151737 62.2157 0.156942 62.2514 0.162509C62.4276 0.172097 62.6502 0.194946 62.8994 0.248099C63.134 0.298168 63.8879 0.47237 64.635 1.07414C65.1856 1.32767 65.7675 1.74406 66.2509 2.42765C66.4233 2.67142 66.5598 2.91457 66.6665 3.15417C67.1732 3.96333 67.5212 4.87381 67.7089 5.57855C68.3239 7.88822 67.8804 10.1874 67.1464 13.1005C67.1113 13.2398 67.0796 13.3634 67.0518 13.4737C67.052 13.4855 67.0538 13.4971 67.0539 13.5085C67.0544 14.117 66.917 14.584 66.8436 14.8033C66.725 15.1577 66.573 15.4313 66.4813 15.5876C66.475 15.6702 66.4684 15.7555 66.4562 15.8424C66.4238 16.0719 66.3666 16.3134 66.2841 16.5589C66.2485 16.7035 66.204 16.8637 66.1403 17.0317C66.1005 17.1363 66.0124 17.3532 65.8575 17.6208C65.8527 17.636 65.8474 17.6515 65.8424 17.6676C65.819 17.7431 65.8003 17.8152 65.7821 17.8786C65.7565 18.2123 65.6881 18.5786 65.5476 18.9614C65.4575 19.207 65.3401 19.4489 65.1975 19.6819C65.1164 19.9257 65.0032 20.2631 64.8775 20.6254L64.4469 21.8486C64.3552 22.1048 64.2775 22.3343 64.2215 22.5094C64.1712 22.8677 64.0673 23.2812 63.8582 23.7126C63.7751 23.8843 63.6746 24.0558 63.5594 24.2252C63.4936 24.3784 63.4163 24.5635 63.336 24.7626C63.2283 25.0299 63.131 25.2849 63.0593 25.4802C63.0191 25.7032 62.9591 25.9436 62.8652 26.1927C62.7462 26.5084 62.5757 26.8257 62.359 27.1273C62.2293 27.4234 62.0524 27.8266 61.9012 28.1693C61.8546 28.4588 61.7886 28.6818 61.7443 28.8142C61.5935 29.2647 61.3946 29.5877 61.3247 29.6999C61.2247 29.8606 61.1083 30.0213 60.9766 30.1786C60.9647 30.2038 60.9517 30.2295 60.9393 30.2563C60.8975 30.3463 60.8613 30.4326 60.8276 30.5091C60.7585 30.8506 60.5644 31.5933 59.9523 32.3194C59.9069 32.3881 59.8594 32.4549 59.8104 32.5204C59.7489 32.6271 59.6699 32.7685 59.582 32.9295C59.8334 33.1732 60.0617 33.4547 60.2541 33.7764C60.2941 33.8431 60.3306 33.9105 60.3658 33.9774C61.3879 35.1496 62.2238 36.6225 62.5563 38.242L62.6025 38.4898C62.8172 39.7578 62.7813 41.4268 62.5834 42.6071C62.1531 45.1748 60.9545 47.8281 59.3627 50.0623C59.2365 50.3811 59.0587 50.7154 58.8052 51.0446C58.7226 51.152 58.6368 51.2512 58.5507 51.3452C58.2847 51.7528 57.9238 52.1485 57.463 52.4768C57.4596 52.4806 57.4564 52.4848 57.4529 52.4887C56.8853 53.1338 56.0763 53.9194 55.339 54.5578C55.0217 54.9976 54.5758 55.4133 53.9525 55.7531C53.8381 55.8154 53.7243 55.8698 53.6124 55.9183C53.0425 56.331 52.3536 56.7745 51.7711 57.1165C51.2835 57.558 50.7263 57.8519 50.2065 58.0162C49.979 58.1738 49.7373 58.3101 49.483 58.4193C49.0898 58.5881 48.7098 58.68 48.3601 58.7238C47.4498 59.0477 46.2722 59.3553 45.1675 59.527C45.0161 59.5827 44.89 59.6191 44.8073 59.6414C44.6186 59.8074 44.4227 59.971 44.2429 60.1152C43.7771 60.653 43.2351 60.994 42.7105 61.2059C42.1832 61.5333 41.4132 61.9428 40.7213 62.2649C40.3898 62.5188 40.0684 62.6873 39.8157 62.7943C39.2734 63.0239 38.772 63.0949 38.4382 63.1158C37.0205 63.5382 35.3664 63.8452 33.8632 63.9687C33.5902 64.0636 33.3827 64.1065 33.2937 64.1239C32.5026 64.279 31.852 64.1702 31.6033 64.1229C31.4153 64.0872 31.1707 64.0302 30.905 63.9388C30.8667 63.9257 30.8098 63.9025 30.737 63.8741C30.5601 63.8461 30.3855 63.8163 30.2148 63.7806C29.7255 63.6781 29.1851 63.5281 28.6542 63.3039C28.3523 63.1763 27.9343 62.9746 27.4981 62.6639C26.9184 62.3492 26.2023 61.7881 25.7423 60.8029C25.5556 60.4029 25.4504 60.0162 25.3982 59.6514C25.3933 59.6312 25.3888 59.6109 25.3841 59.5907C24.4387 59.8264 23.6687 59.8197 22.8707 59.7837C20.0031 59.6542 17.0337 58.4722 14.2438 56.7921C10.9993 54.8382 8.4918 52.6189 5.91063 49.4961C5.37117 49.0742 5.00631 48.5746 4.76963 48.0997C4.69297 48.0098 4.62213 47.9215 4.56035 47.834C4.39221 47.5959 4.26087 47.3549 4.15687 47.1194C2.33657 44.4096 0.896238 40.8481 0.375665 37.6986C-0.0805925 34.9378 -0.123771 31.4442 0.259955 28.6539C0.932747 23.763 2.68772 18.8642 5.24555 14.9546L5.481 14.6043C6.08475 13.7238 7.03504 12.4535 7.56579 11.8425C8.45389 10.8204 10.0522 9.24557 11.1397 8.31742C11.342 8.07116 11.5862 7.83218 11.8833 7.6128C12.0786 7.46858 12.2757 7.35047 12.4699 7.25153C12.8891 6.92978 13.5847 6.44117 14.0828 6.11299C14.0891 6.10885 14.0958 6.10409 14.1019 6.10005C14.4205 5.75725 14.8063 5.45851 15.257 5.23022C15.4914 5.11154 15.7209 5.02232 15.9402 4.95653C19.7022 2.72135 24.8149 0.958777 29.0687 0.459087C29.5057 0.407757 29.966 0.366691 30.4402 0.336674C30.8521 0.206563 31.1801 0.171457 31.2813 0.160518C31.4864 0.138359 31.6627 0.133657 31.7894 0.133647L32.0148 0.138623C32.1004 0.142568 32.196 0.149443 32.2986 0.160518C32.3816 0.169492 32.6155 0.196955 32.9234 0.27696C34.3278 0.296192 35.7134 0.404196 36.8606 0.604391C38.0037 0.803921 38.3834 0.891156 39.7161 1.24333C39.8326 1.27411 39.9403 1.2972 40.029 1.31797C40.2432 1.32894 40.4792 1.35538 40.7293 1.41152C41.0991 1.49455 41.5109 1.64925 41.9146 1.88426C42.9442 2.23388 43.9429 2.65315 45.0981 3.20493C45.2266 3.26628 45.3437 3.31928 45.4422 3.36317C45.8522 3.45907 46.2915 3.62725 46.7321 3.90955C46.7702 3.93392 46.8063 3.96029 46.8428 3.98519C47.1716 4.12131 47.5138 4.30852 47.8369 4.55943C48.1457 4.7316 48.4154 4.93295 48.6499 5.15359C48.9149 5.27366 49.1875 5.42997 49.4559 5.63528C49.8086 5.90519 50.0859 6.19577 50.3041 6.49317C50.5253 6.68269 50.7702 6.90205 51.0235 7.13807C51.1506 6.92503 51.304 6.71078 51.4914 6.50212C51.6189 6.30134 51.7708 6.10479 51.9492 5.91494C52.0054 5.78966 52.0681 5.66306 52.1403 5.53774C52.2825 5.29137 52.5513 4.90502 52.9614 4.53057C53.0291 4.44178 53.1015 4.35717 53.1757 4.2748C53.3522 4.02956 53.5582 3.79933 53.7935 3.59207C53.9301 3.4015 54.0907 3.21337 54.2785 3.03176C54.4635 2.85287 54.6546 2.7003 54.8469 2.57096C54.9731 2.43527 55.1013 2.31312 55.2293 2.20671C55.3006 2.1474 55.3717 2.09087 55.4436 2.03852C55.4888 1.98882 55.5349 1.9414 55.5804 1.8962C56.1664 1.31454 56.7779 1.05944 57.0233 0.965659C57.0466 0.956759 57.07 0.949002 57.0927 0.940778C57.1435 0.910875 57.1941 0.88027 57.2467 0.852203C57.3621 0.790554 57.4769 0.736683 57.5898 0.688985C58.0099 0.451727 58.3657 0.345073 58.5034 0.305822C58.8879 0.196232 59.2469 0.15903 59.4925 0.14559C59.7647 0.086329 60.2439 -0.00579368 60.8246 0.000286338ZM31.6194 64.0423C31.7298 64.0634 31.827 64.0794 31.9092 64.0881C32.0597 64.1041 32.4134 64.1333 32.8721 64.0642C32.9284 64.0557 33.0174 64.0385 33.1317 64.0135C32.6309 64.0322 32.126 64.0211 31.6315 63.9806L31.6194 64.0423ZM31.1988 63.9378C31.3525 63.9863 31.4947 64.0185 31.6194 64.0423L31.6315 63.9806C31.4865 63.9688 31.3416 63.9546 31.1988 63.9378ZM42.2637 59.6922C42.2941 59.6985 42.3244 59.7036 42.3543 59.7091C42.3238 59.703 42.2936 59.6968 42.2637 59.6902V59.6922ZM41.1298 59.2742C41.4909 59.4712 41.844 59.5949 42.1702 59.6703C41.7588 59.5701 41.4041 59.4211 41.1298 59.2742ZM47.2845 55.9461C47.2674 56.1711 47.2287 56.4373 47.1527 56.7244C47.2186 56.4838 47.2655 56.2246 47.2845 55.9461ZM23.6324 56.2208L23.8054 56.4796L23.8014 56.4726C23.7376 56.3846 23.6795 56.296 23.6253 56.2079C23.6279 56.2121 23.6298 56.2167 23.6324 56.2208ZM51.7721 53.4362C51.7338 53.315 51.6905 53.1917 51.6372 53.0679L51.6161 53.0241C51.6692 53.1446 51.723 53.2825 51.7721 53.4362ZM53.3638 52.0578C53.3459 52.047 53.3297 52.0379 53.3166 52.0299L53.3105 52.0269C53.3281 52.0377 53.3463 52.0473 53.3638 52.0578ZM56.3753 31.4734C56.4681 31.5055 56.5609 31.5307 56.652 31.555C56.5608 31.5306 56.4688 31.5034 56.3763 31.4714L56.3753 31.4734ZM56.3703 31.4714L56.3723 31.4695C56.3017 31.445 56.2301 31.42 56.159 31.3908C56.2299 31.42 56.3002 31.4471 56.3703 31.4714ZM56.1308 31.3789C56.0745 31.3553 56.0193 31.3279 55.9628 31.3013C55.9604 31.3012 55.9581 31.3013 55.9557 31.3013C56.0143 31.329 56.0728 31.3545 56.1308 31.3789ZM55.8229 31.2336C55.8514 31.2484 55.879 31.2644 55.9075 31.2784H55.9135C55.8834 31.2637 55.8541 31.247 55.8239 31.2316L55.8229 31.2336ZM60.4886 28.9565C60.5134 29.0454 60.5337 29.1336 60.552 29.2202C60.5513 29.217 60.5516 29.2135 60.5509 29.2103L60.4886 28.9535V28.9565ZM60.0962 27.2955L60.0972 27.2965C60.082 27.2755 60.0513 27.2338 60.0096 27.181C60.0033 27.173 59.9948 27.1637 59.9855 27.1521C60.0361 27.2166 60.0742 27.2651 60.0962 27.2955ZM65.1663 15.3875C65.2075 15.4538 65.2627 15.5484 65.3242 15.6662C65.321 15.66 65.3184 15.6535 65.3152 15.6473L65.1663 15.3875ZM65.6281 13.2478C65.6566 13.2875 65.6848 13.3262 65.7106 13.3652C65.6907 13.3349 65.6641 13.2946 65.6301 13.2468L65.6281 13.2478ZM65.6271 13.2458H65.6291C65.5965 13.2001 65.5567 13.148 65.5104 13.0905L65.4973 13.0756C65.5432 13.1327 65.5866 13.1894 65.6271 13.2458ZM64.8312 12.4128C65.0013 12.5488 65.1558 12.6911 65.292 12.8368C65.1913 12.7288 65.0748 12.6127 64.9389 12.4984C64.9111 12.475 64.8746 12.4466 64.8312 12.4128ZM51.0818 11.3917L51.0798 11.3877L51.0607 11.3549L51.0818 11.3917ZM48.7274 9.96552C48.6242 10.1243 48.526 10.2512 48.4507 10.3427C48.556 10.216 48.6503 10.0885 48.7344 9.96055C48.7321 9.9622 48.7297 9.96386 48.7274 9.96552ZM49.2576 8.76727C49.1901 9.0277 49.1154 9.21642 49.0755 9.31166C49.0398 9.39712 49.0017 9.4789 48.9628 9.55648C48.9653 9.55506 48.9674 9.55293 48.9699 9.55151C49.1018 9.28664 49.195 9.02372 49.2576 8.76727ZM53.3115 8.5095C53.5012 8.5536 53.6799 8.61017 53.8468 8.67272C53.9296 8.70379 54.0107 8.73615 54.0873 8.77025C54.0076 8.73426 53.9285 8.70148 53.8498 8.67172C53.6669 8.60262 53.4867 8.54892 53.3115 8.5095ZM65.9088 7.53119C65.9692 7.46503 66.0269 7.39906 66.0809 7.33214C66.0183 7.40952 65.9595 7.47558 65.9088 7.53119ZM54.2392 7.29134L54.366 7.50929L54.364 7.50531C54.3163 7.42859 54.2688 7.34699 54.2231 7.26049C54.2285 7.2707 54.2337 7.28111 54.2392 7.29134ZM54.0742 6.944C54.0504 6.88791 54.0288 6.82985 54.0068 6.77083H54.0048C54.026 6.82828 54.0495 6.88582 54.0742 6.944ZM54.0018 6.76287L54.0038 6.76387C53.991 6.72959 53.9765 6.6956 53.9645 6.66036C53.976 6.6945 53.9891 6.72842 54.0018 6.76287ZM55.4688 6.19062C55.5221 6.30244 55.5798 6.41592 55.6469 6.52899L55.6489 6.53198L55.6952 6.60961C55.6802 6.58553 55.666 6.55665 55.6479 6.52601C55.5965 6.4392 55.5332 6.3272 55.4688 6.19062ZM52.1997 5.67011C52.2013 5.66868 52.2031 5.66756 52.2047 5.66613C52.2087 5.65749 52.2128 5.6489 52.2168 5.64025C52.2112 5.65008 52.2054 5.65998 52.1997 5.67011ZM42.0897 5.15956C42.1237 5.11959 42.159 5.07988 42.1953 5.04013L42.1963 5.03814C42.1857 5.04978 42.1469 5.09143 42.0897 5.15956ZM55.5664 4.61417C55.684 4.62909 55.7917 4.64651 55.8873 4.66592C55.7779 4.64326 55.6708 4.62541 55.5664 4.61218V4.61417ZM55.1538 4.58033C55.2853 4.58471 55.4092 4.59474 55.5241 4.6082C55.3963 4.59335 55.2727 4.58337 55.1538 4.58033ZM60.7794 4.01803C60.7703 4.00166 60.7625 3.98572 60.7542 3.97125L60.6818 3.85183C60.7162 3.90722 60.7485 3.96289 60.7794 4.01803ZM57.946 3.74633C58.048 3.80034 58.1272 3.84572 58.1794 3.8777L58.1814 3.8787C58.1029 3.83054 58.0239 3.78784 57.946 3.74633ZM57.1118 3.41193C57.4517 3.50758 57.7272 3.63236 57.9228 3.73439V3.7324C57.6471 3.58772 57.3754 3.48438 57.1118 3.41193ZM57.7276 3.17407C57.6229 3.13493 57.5193 3.10052 57.4167 3.07157C57.5276 3.10359 57.6315 3.13825 57.7276 3.17407ZM56.646 1.24432C56.4268 1.36515 56.1922 1.51938 55.9598 1.71905C56.0361 1.67899 56.112 1.64237 56.1872 1.60858C56.2376 1.57345 56.2914 1.53747 56.3472 1.5001C56.4415 1.41056 56.5416 1.3258 56.646 1.24432ZM56.9649 1.12191C56.968 1.12024 56.971 1.1186 56.974 1.11693L56.977 1.11395C56.9729 1.11635 56.9691 1.11946 56.9649 1.12191ZM31.7894 0.183409C31.553 0.183436 31.1952 0.203818 30.7732 0.317765C31.3792 0.286187 32.0037 0.271959 32.6276 0.27497C32.4177 0.228666 32.2275 0.204983 32.0651 0.193361L31.7894 0.183409ZM51.8485 53.7049C51.8289 53.6237 51.8057 53.5418 51.7801 53.4591C51.8045 53.5371 51.8274 53.6192 51.8485 53.7049Z" fill="#062A12" fill-opacity="0.5"/>
</svg>
