<svg width="72" height="69" viewBox="0 0 72 69" fill="none" xmlns="http://www.w3.org/2000/svg">
<path d="M35.1667 0.0240221C37.4932 -0.145777 39.8921 0.58958 41.7035 2.07145C42.5601 2.45738 43.1245 3.17907 43.3858 3.90739C43.7746 4.47646 44.0923 5.10336 44.3371 5.76304C44.9108 6.52337 44.9804 7.31731 44.9926 7.61038C45.005 7.90958 44.9772 8.21053 44.9109 8.50399C44.9567 9.30511 44.8967 10.1046 44.7279 10.8666C44.7332 11.0248 44.7294 11.2042 44.7041 11.3963C44.6662 11.6851 44.5347 12.4034 43.9462 13.0799C43.6156 13.745 43.1545 14.4402 42.6527 15.006C42.4892 15.3379 42.2848 15.6122 42.0582 15.8364C42.0587 15.8976 42.0579 15.9587 42.0551 16.0199C42.0558 16.0335 42.0567 16.0463 42.0572 16.0582C42.0621 16.1769 42.0605 16.2962 42.053 16.4148C42.0566 16.4826 42.0592 16.5455 42.0592 16.6025C42.0592 16.6884 42.0539 16.7873 42.0447 16.8969C42.0507 16.9624 42.0553 17.0184 42.0572 17.0628C42.0612 17.1612 42.0596 17.2597 42.0551 17.3582C42.0558 17.3718 42.0567 17.3846 42.0572 17.3966C42.0637 17.5547 42.0572 17.7136 42.0416 17.8714C42.0495 17.9496 42.055 18.0154 42.0572 18.0663C42.0607 18.1519 42.0591 18.2376 42.0561 18.3233C42.4659 18.3453 42.9447 18.3726 43.5037 18.4021C44.842 18.473 46.5901 18.5368 47.3656 18.5452C47.7761 18.5497 48.1693 18.5615 48.4885 18.5784C48.6882 18.5443 48.8527 18.5335 48.9455 18.5296H48.9476C49.1003 18.5234 49.5442 18.5094 50.0767 18.6686C50.105 18.669 50.133 18.6689 50.1604 18.6696C50.1984 18.6706 50.2459 18.6721 50.3 18.6748C50.6474 18.6174 50.929 18.6229 50.97 18.6229L51.2947 18.6333C51.4701 18.6464 51.6975 18.6757 51.9327 18.737C51.9638 18.7451 52.0553 18.7707 52.186 18.8168C54.1659 18.8943 55.0211 18.9508 56.0572 19.1081L56.4646 19.1776C57.3231 19.3398 58.3432 19.625 59.1302 19.9696C59.1701 19.9776 59.2116 19.9833 59.2532 19.9934C59.359 20.0191 60.0323 20.1804 60.648 20.7315C60.7652 20.7736 60.8842 20.8245 61.0047 20.885C61.5659 21.1664 61.9717 21.5685 62.2517 22.0035C62.3329 22.0897 62.4371 22.2005 62.5598 22.3218C63.0551 22.8112 63.7338 23.5755 64.1087 24.138C64.1149 24.1473 64.1224 24.1562 64.1284 24.165C64.5792 24.6103 64.7737 25.0644 64.8222 25.1757C64.9162 25.3917 64.9768 25.5986 65.0176 25.7801C65.0244 25.7961 65.0315 25.8131 65.0393 25.8309C65.441 26.3235 65.5885 26.8024 65.6339 26.9588C65.7623 27.4017 65.7606 27.7706 65.761 27.8307C65.7611 27.8365 65.76 27.8426 65.76 27.8483L65.8303 28.2225L65.9161 28.6963C66.0161 29.3401 66.0864 30.1603 66.1302 31.007C66.4991 31.0815 66.8902 31.182 67.2427 31.3232C67.4878 31.3642 67.8294 31.4477 68.1919 31.6363C68.3454 31.7161 68.5321 31.8314 68.7275 31.9898C69.1367 32.1928 69.5649 32.5161 69.9073 32.9974C70.0339 33.1755 70.1344 33.3575 70.2154 33.5375C70.2889 33.6304 70.3669 33.7336 70.446 33.8423C70.47 33.8627 70.4945 33.883 70.5184 33.9045C71.2882 34.5976 71.5216 35.4034 71.5637 36.0401L71.7829 36.6558L71.9628 37.1638L71.9918 41.7169C72.0311 47.8984 71.9711 50.294 70.8544 52.6434C70.8254 52.7045 70.8018 52.7617 70.782 52.8072C70.7 53.1237 70.5641 53.4653 70.3374 53.8034C70.2091 53.9947 70.0407 54.1962 69.8308 54.3881C69.6617 54.7339 69.4059 55.1018 69.0263 55.4227C68.7077 55.6921 68.3647 55.8748 68.0285 55.9929C67.9748 56.0483 67.9272 56.0959 67.8859 56.1328C67.4633 56.5092 67.043 56.6825 66.8726 56.7476C66.6233 56.8428 66.387 56.8956 66.1839 56.929C66.0341 57.0214 65.8861 57.0968 65.7424 57.1571C65.7121 57.3372 65.663 57.5532 65.5739 57.7843C65.4854 58.0136 65.3134 58.3596 65.0259 58.7027C64.931 59.1449 64.727 59.6599 64.3021 60.1458C64.2925 60.1568 64.2809 60.166 64.2711 60.1769C64.1546 60.5146 63.9633 60.8978 63.6404 61.2623C63.5686 61.3433 63.4926 61.4185 63.4149 61.4904C63.3827 61.5517 63.3484 61.614 63.3105 61.6759C63.0607 62.0838 62.752 62.3913 62.4213 62.6214C62.1086 63.0248 61.733 63.3106 61.3511 63.5036C61.3048 63.5402 61.2499 63.5806 61.1929 63.628C61.1571 63.6577 61.1241 63.6869 61.0937 63.713C60.9151 63.9507 60.7212 64.1453 60.5353 64.2945C60.4634 64.3523 60.3905 64.4043 60.3182 64.4532C60.0713 64.7684 59.8002 64.9936 59.582 65.1405C59.3401 65.3033 59.0975 65.4132 58.8799 65.4919C58.7975 65.5468 58.699 65.6109 58.5956 65.6847C58.493 65.7579 58.4028 65.8286 58.3278 65.8858C58.2137 66.0204 58.0861 66.1518 57.94 66.2746C57.6247 66.5396 57.2808 66.7267 56.9288 66.8489C56.8658 66.8834 56.7878 66.9254 56.7024 66.9754C55.1962 67.857 53.2573 68.5558 51.5356 68.7989C51.4877 68.8153 51.4588 68.825 51.4529 68.8269C51.2623 68.8877 51.105 68.9176 51.0331 68.9305C50.7793 68.9762 50.5424 68.9874 50.4737 68.9907C50.3591 68.9961 50.2311 68.9988 50.0973 69L49.6838 68.999C48.0532 68.9751 46.9629 68.9551 46.2809 68.9357C45.9491 68.9263 45.6692 68.9158 45.46 68.9015C45.3756 68.8958 45.201 68.8832 45.0143 68.8528C44.9873 68.8484 44.8707 68.8297 44.7083 68.7875C44.6496 68.7822 44.577 68.7743 44.4932 68.7688C44.2641 68.754 43.9482 68.7271 43.6185 68.7025C43.3078 68.7739 43.0358 68.7926 42.8357 68.7927C42.5321 68.7927 42.0621 68.7532 41.5453 68.5449L41.5443 68.5439C40.8751 68.4924 40.1572 68.4412 38.5975 68.3365C38.3167 68.3177 38.0136 68.2945 37.7083 68.2733C37.3792 68.3535 37.0905 68.3738 36.8811 68.3738C36.6571 68.3738 36.3433 68.3524 35.9867 68.2577C35.8152 68.2797 35.664 68.2899 35.54 68.2899C35.2364 68.2899 34.7664 68.2514 34.2496 68.0432C34.2387 68.0387 34.2272 68.0319 34.2144 68.0266C32.4411 67.9027 29.5977 67.7094 28.0406 67.6098C27.7214 67.6852 27.4415 67.7052 27.2372 67.7052C27.126 67.7052 26.993 67.6961 26.8432 67.6793C26.6019 67.6796 26.4294 67.6537 26.3645 67.644C26.3136 67.6364 26.2649 67.6253 26.2177 67.616C25.9256 67.6246 25.6266 67.6129 25.3595 67.5725C25.3206 67.5666 25.2529 67.5539 25.1672 67.5362C24.7476 67.5413 24.3261 67.4689 23.9274 67.3185C23.1375 67.2646 22.2397 67.2071 21.3673 67.1609C20.8652 67.1344 19.9267 67.0786 19.2725 67.0355C18.6538 66.9947 17.8952 66.9643 17.6191 66.964C16.5397 66.9627 14.9253 66.7069 13.7759 66.3752C13.356 66.3693 13.0275 66.2846 12.8649 66.2342C12.1652 66.0169 11.7171 65.5986 11.6727 65.5572L11.5942 65.4836C11.2116 65.2808 10.8363 65.0552 10.4744 64.8077C10.0582 64.6952 9.57086 64.4805 9.11779 64.0603C8.85888 63.8201 8.61709 63.5103 8.43124 63.1407C7.77989 62.6395 7.47142 61.9757 7.3528 61.6521C6.50061 60.3691 5.87346 58.6928 5.60745 57.1788C5.47957 56.4509 5.421 54.9219 5.38928 53.2499L5.38618 53.1223C5.21031 53.065 5.02475 52.9985 4.83921 52.9202C4.45315 52.845 4.02817 52.6885 3.60671 52.3873C3.26872 52.1458 3.01578 51.8761 2.82399 51.5995C2.52683 51.3357 2.23165 51.0299 1.96786 50.6986C1.95677 50.6898 1.9448 50.6817 1.93373 50.6727C1.35679 50.201 1.05354 49.6596 0.901827 49.154C0.497541 48.5063 0.428221 47.8649 0.419994 47.5378V47.5347L0.350718 47.2351C0.201279 46.4954 0.134673 45.4872 0.0911902 44.5428C0.0349483 43.3212 0.00381767 41.7555 0.000200366 39.9452C-0.00770906 36.0229 0.210376 33.3878 2.11882 31.149C2.17994 31.0157 2.25288 30.8803 2.33802 30.7437C2.79605 30.0093 3.41543 29.6696 3.72044 29.5308C3.89378 29.452 4.05491 29.3982 4.18987 29.3608C4.61275 29.1136 5.03368 28.9218 5.46269 28.774C5.48295 28.7259 5.5122 28.6617 5.55058 28.5854C5.61816 28.1479 5.69658 27.7394 5.78943 27.3631C5.78319 27.2064 5.78051 26.8502 5.89386 26.4208C5.96848 26.1381 6.16091 25.5912 6.61868 25.0856C6.64062 25.0382 6.65945 24.9949 6.67555 24.958C6.75872 24.6461 6.8957 24.3112 7.11912 23.9794C7.26881 23.7572 7.47016 23.5196 7.7302 23.3025C8.03041 22.912 8.49755 22.4166 8.82104 22.0875C9.00546 21.8999 9.20484 21.7036 9.38353 21.5401C9.46642 21.4643 9.58755 21.3559 9.72164 21.2509C9.78227 21.2034 9.90804 21.1072 10.0711 21.0073C10.1016 20.9886 10.1425 20.9644 10.1921 20.9368C10.7966 20.2489 11.5354 20.0045 12.0233 19.9177C12.3971 19.7495 12.7888 19.6003 13.0965 19.4906C13.477 19.355 13.901 19.2178 14.3135 19.0988C14.3432 19.0786 14.3721 19.0583 14.4014 19.0397C14.7209 18.8366 15.3394 18.5203 16.1736 18.5203L16.3742 18.5255C16.4149 18.5278 16.4602 18.5309 16.5097 18.5359C16.5519 18.5288 16.6004 18.5215 16.6544 18.512C16.9196 18.4654 17.2635 18.3999 17.6098 18.3306C17.9573 18.2611 18.2853 18.1919 18.5197 18.1388C18.5648 18.1286 18.6023 18.1182 18.6335 18.1108C18.7119 18.0824 18.7791 18.0623 18.8289 18.0476C19.0241 17.9899 19.1922 17.9592 19.2942 17.9429C19.5073 17.9089 19.7187 17.8922 19.9104 17.8879C19.861 17.8891 19.8535 17.8908 19.9363 17.8848C20.0004 17.8802 20.0896 17.8735 20.1989 17.8641C20.4164 17.8455 20.69 17.8203 20.963 17.7926C22.6418 17.6222 24.7102 17.6461 27.5122 17.8154C28.1272 17.8525 28.7093 17.8808 29.1469 17.8973C29.3678 17.9056 29.5378 17.9103 29.6505 17.9118C29.6547 17.9118 29.6589 17.9117 29.6629 17.9118C29.749 17.9035 29.8374 17.8972 29.9276 17.8942V17.7832L29.9234 16.3309C29.6769 16.1872 29.4231 15.9973 29.1883 15.7431C29.1499 15.7015 29.1141 15.6582 29.0787 15.6156C28.8755 15.4427 28.6802 15.2303 28.5007 14.9708C28.3241 14.7154 28.1992 14.4594 28.1119 14.2119C27.0123 12.5986 26.4728 10.3762 26.6251 8.49052L26.6364 8.37441C26.6023 8.1741 26.5907 8.00925 26.5868 7.9162C26.5795 7.73658 26.5605 7.15391 26.8236 6.49804C26.8694 6.38375 27.0146 6.02834 27.3292 5.64486C27.7841 4.57023 28.4375 3.57996 29.2545 2.74425C29.2859 2.71208 29.312 2.67991 29.3372 2.65302C29.7022 2.06511 30.2516 1.60472 30.9109 1.35304C31.2652 1.01137 31.6548 0.794406 32.0007 0.664685C32.3581 0.530723 32.6917 0.480939 32.9664 0.467717C33.4756 0.304008 34.1723 0.137863 34.6932 0.071709L35.1667 0.0240221ZM49.325 68.7429L49.4449 68.7864C49.3918 68.7679 49.3253 68.7407 49.2474 68.7077C49.2764 68.7201 49.3016 68.7337 49.325 68.7429ZM41.9413 68.575C42.2637 68.6829 42.5136 68.7112 42.5669 68.717C42.6913 68.7305 42.7861 68.7325 42.8357 68.7325C42.8855 68.7325 42.9804 68.7305 43.1046 68.717C43.1328 68.7139 43.2135 68.7031 43.33 68.6807C43.1599 68.6677 42.9918 68.6559 42.8357 68.6434L42.6155 68.6278C42.3659 68.6071 42.1485 68.5915 41.9413 68.575ZM36.2121 68.2235C36.4209 68.2764 36.5714 68.2948 36.6122 68.2992C36.7364 68.3127 36.8313 68.3148 36.8811 68.3148C36.9307 68.3148 37.0255 68.3127 37.1499 68.2992C37.1819 68.2957 37.2852 68.2847 37.4322 68.2536C37.073 68.2285 36.7196 68.2027 36.4054 68.18C36.3393 68.1969 36.2748 68.2113 36.2121 68.2235ZM34.5856 68.0525C34.9366 68.1781 35.2146 68.2091 35.2712 68.2152C35.3956 68.2287 35.4904 68.2308 35.54 68.2308C35.5897 68.2308 35.6846 68.2287 35.8088 68.2152C35.814 68.2147 35.8208 68.2121 35.8295 68.2111C35.7519 68.1864 35.6721 68.1595 35.5917 68.1271C35.5889 68.126 35.5863 68.1231 35.5834 68.1219C35.38 68.1062 35.0305 68.0838 34.5856 68.0525ZM36.0467 68.1769C36.0714 68.172 36.0976 68.1665 36.1252 68.1603C36.0699 68.1562 36.0164 68.1527 35.965 68.1489C35.9929 68.1585 36.0198 68.1685 36.0467 68.1769ZM27.3261 67.6399C27.3746 67.638 27.4356 67.6372 27.506 67.6295C27.535 67.6264 27.6224 67.6159 27.748 67.5912C27.7059 67.5885 27.6652 67.5853 27.626 67.5829C27.5223 67.6088 27.4218 67.6254 27.3261 67.6399ZM25.6138 67.502C25.7517 67.5347 25.8413 67.5476 25.8486 67.5487C25.8968 67.5559 25.9417 67.5572 25.9799 67.5611C25.8795 67.5338 25.7951 67.504 25.7286 67.4802C25.6886 67.4876 25.6506 67.4966 25.6138 67.502ZM24.2645 67.3413C24.4885 67.409 24.69 67.441 24.8508 67.4564C24.7796 67.4343 24.694 67.406 24.6005 67.3683C24.5981 67.3673 24.5953 67.3653 24.5923 67.3641C24.4861 67.3564 24.3767 67.3492 24.2645 67.3413ZM25.4226 67.4502C25.4482 67.4472 25.4753 67.442 25.5042 67.4377C25.4524 67.4333 25.3983 67.4289 25.3419 67.4243C25.3695 67.4334 25.3964 67.4423 25.4226 67.4502ZM29.8573 64.5382C29.832 65.015 29.7033 65.4538 29.5109 65.8288C29.7484 65.3766 29.8497 64.9412 29.8655 64.5382C29.8628 64.538 29.86 64.5384 29.8573 64.5382ZM8.72282 63.3533C8.84957 63.5579 9.01435 63.7664 9.22636 63.9628C9.33049 64.0593 9.50747 64.2108 9.75576 64.3568C9.81445 64.3912 9.92012 64.4498 10.0649 64.5143C9.5885 64.158 9.13938 63.7665 8.73005 63.3481L8.72282 63.3533ZM8.72178 63.3501L8.72799 63.345C8.7256 63.3425 8.72313 63.3401 8.72075 63.3377C8.71769 63.3359 8.71449 63.3343 8.71144 63.3325C8.715 63.3384 8.71822 63.3444 8.72178 63.3501ZM60.9758 61.1037C61.1191 61.1469 61.2591 61.1791 61.3956 61.199C61.2461 61.1755 61.1059 61.1427 60.9758 61.1037ZM60.6108 60.9699C60.7269 61.021 60.8423 61.0615 60.9551 61.0964C60.8306 61.0581 60.7152 61.015 60.6098 60.9689L60.6108 60.9699ZM61.4742 60.5097C61.4494 60.4522 61.422 60.3945 61.3925 60.3365L61.3884 60.3282C61.4181 60.3861 61.447 60.4466 61.4742 60.5097ZM7.71883 58.8074C7.7166 58.8108 7.71481 58.8145 7.71262 58.8178C7.71998 58.8066 7.72791 58.7957 7.73537 58.7846C7.72944 58.7934 7.7234 58.8006 7.71883 58.8074ZM65.0983 58.0859C65.0986 58.0755 65.1001 58.0646 65.1003 58.0538C65.1004 58.0507 65.0992 58.0476 65.0993 58.0445C65.0991 58.0581 65.0986 58.0719 65.0983 58.0859ZM65.851 56.9705L65.852 56.9715C65.8551 56.9713 65.8584 56.9707 65.8613 56.9705L65.8624 56.9694C65.8585 56.9697 65.8548 56.9702 65.851 56.9705ZM64.8449 55.3574C64.8415 55.3543 64.8382 55.3514 64.8356 55.3491L64.8336 55.3481C64.8372 55.3513 64.8413 55.3542 64.8449 55.3574ZM64.9545 54.5094C64.9528 54.5074 64.9512 54.5052 64.9494 54.5032C64.9452 54.4985 64.9398 54.4941 64.9349 54.4887C64.9413 54.4958 64.9483 54.5023 64.9545 54.5094ZM68.9085 53.1607C68.9016 53.1231 68.8952 53.085 68.8867 53.0467L68.8475 52.8881C68.8727 52.9803 68.8915 53.0717 68.9085 53.1607ZM5.15043 51.1558C5.17338 51.1465 5.19665 51.1377 5.21971 51.1278V51.1247C5.19701 51.1344 5.17447 51.1461 5.15043 51.1558ZM5.29519 51.0925L5.29415 51.0936C5.31186 51.0854 5.33016 51.0783 5.34792 51.0697C5.33097 51.0779 5.31316 51.0843 5.29519 51.0925ZM69.9672 39.0257C69.984 39.0157 69.9996 39.0097 70.0107 39.0029H70.0086C69.9952 39.0112 69.9807 39.0177 69.9672 39.0257ZM65.7362 28.2422C65.7379 28.2246 65.7412 28.2084 65.7424 28.1935C65.7428 28.1886 65.7431 28.1837 65.7435 28.179C65.7414 28.2009 65.7385 28.222 65.7362 28.2422ZM10.0122 24.957C10.0431 24.9994 10.0755 25.0416 10.1094 25.0835C10.0806 25.0479 10.0487 25.0048 10.0132 24.956C10.0045 24.9439 9.99432 24.9325 9.9853 24.9197C9.99412 24.9322 10.0031 24.9446 10.0122 24.957ZM60.9458 23.3906C60.6264 23.487 60.2946 23.643 59.9728 23.8892C60.2198 23.7026 60.5432 23.5154 60.9458 23.3906ZM45.7939 20.829C45.8133 20.7696 45.8344 20.7112 45.857 20.6538L45.858 20.6507C45.8353 20.7083 45.8139 20.7678 45.7939 20.829ZM19.1856 20.3013C19.1769 20.2847 19.1687 20.2679 19.1598 20.2516L19.0812 20.1168C19.119 20.1781 19.1529 20.2401 19.1856 20.3013ZM14.9887 18.8448C14.9175 18.8721 14.7945 18.9225 14.6444 19.0065C14.7267 18.9847 14.8077 18.9628 14.8874 18.9433C14.9156 18.9364 14.9415 18.9278 14.966 18.9215C14.9806 18.9141 14.995 18.9068 15.0094 18.8997L14.9887 18.8448ZM15.5253 18.6986C15.2819 18.7418 15.0968 18.8043 14.9908 18.8448L15.0115 18.8987C15.2172 18.7986 15.3983 18.736 15.5253 18.6986ZM50.7157 18.6903C50.6899 18.693 50.6598 18.6979 50.6257 18.7028C50.6827 18.7096 50.7929 18.7233 50.9307 18.7525C50.9411 18.7533 50.9525 18.7548 50.9638 18.7556C51.1534 18.7693 51.4215 18.7829 51.7321 18.7961L51.6214 18.7629C51.451 18.7186 51.311 18.6996 51.2233 18.6903L50.97 18.6769C50.8955 18.6769 50.8104 18.6803 50.7157 18.6903ZM48.9869 18.596C48.9747 18.5965 48.9623 18.5974 48.9496 18.5981C48.9236 18.5995 48.8968 18.602 48.869 18.6043C48.9506 18.6114 49.0345 18.6196 49.1161 18.6302C49.1559 18.6354 49.2557 18.6509 49.386 18.6769C49.3945 18.6766 49.4038 18.6772 49.4129 18.6769C49.5311 18.6723 49.6507 18.669 49.7675 18.6675C49.5123 18.609 49.25 18.5851 48.9869 18.596ZM41.9682 18.3192C41.9748 18.3196 41.9813 18.3199 41.9879 18.3202C41.9895 18.2763 41.9922 18.2382 41.992 18.2062C41.9845 18.2439 41.977 18.2817 41.9682 18.3192ZM41.9041 18.2186C41.9041 18.2297 41.9041 18.2408 41.9041 18.2518C41.914 18.2118 41.9222 18.1727 41.93 18.1347C41.922 18.1628 41.9128 18.1907 41.9041 18.2186ZM41.9031 17.6319V17.9211C41.92 17.8529 41.9333 17.7874 41.9444 17.7252C41.9421 17.7121 41.9419 17.6983 41.9393 17.6848C41.934 17.658 41.9251 17.6256 41.9165 17.5883C41.9123 17.6028 41.9076 17.6173 41.9031 17.6319ZM41.9786 17.4774C41.9798 17.4648 41.9796 17.4523 41.9806 17.4401H41.9703C41.9732 17.4526 41.9758 17.4651 41.9786 17.4774ZM41.9631 17.4132C41.9652 17.4219 41.9683 17.4314 41.9703 17.4401H41.9806C41.9826 17.4162 41.9846 17.3924 41.9858 17.3706C41.985 17.3592 41.9838 17.3467 41.9827 17.3333C41.9771 17.3598 41.9695 17.3861 41.9631 17.4132ZM41.9351 17.1084C41.926 17.1414 41.9163 17.1741 41.9062 17.2069C41.9101 17.2193 41.9129 17.2319 41.9165 17.2442C41.9285 17.1946 41.9385 17.1489 41.9465 17.1073L41.9351 17.1084ZM41.9362 17.1063L41.9465 17.1053C41.9476 17.0996 41.9486 17.0941 41.9496 17.0887C41.9483 17.0809 41.9479 17.0728 41.9465 17.0648C41.9429 17.0786 41.94 17.0926 41.9362 17.1063ZM41.9062 16.9073C41.9075 16.902 41.9091 16.8969 41.9103 16.8917C41.9089 16.8856 41.9077 16.8793 41.9062 16.873V16.9073ZM44.823 7.65807C44.8511 7.84725 44.8716 8.03714 44.8882 8.2272C44.9376 7.92597 44.9277 7.71022 44.9254 7.65392L44.823 7.65807ZM27.1441 6.11343C26.9592 6.39503 26.8756 6.61711 26.8639 6.64628C26.7074 7.03639 26.6356 7.45372 26.653 7.87474C26.6555 7.93537 26.6609 8.00183 26.6685 8.07274C26.7543 7.40359 26.9154 6.74608 27.1441 6.11343ZM44.5035 6.25338C44.645 6.71181 44.7525 7.183 44.823 7.65807L44.9254 7.65392C44.9231 7.59714 44.9155 7.43685 44.8747 7.22889C44.8545 7.12546 44.8117 6.9379 44.7248 6.71263C44.6891 6.61997 44.621 6.45349 44.5035 6.25338ZM28.9329 5.05603L28.9753 5.22708V5.225C28.9546 5.15135 28.9321 5.05679 28.9112 4.9451C28.9179 4.98145 28.9246 5.01854 28.9329 5.05603ZM33.7543 1.62879L33.7574 1.62983C33.7322 1.61429 33.706 1.60083 33.6809 1.58629C33.7067 1.60127 33.7316 1.61481 33.7543 1.62879Z" fill="#062A12" fill-opacity="0.5"/>
</svg>
