<svg width="70" height="69" viewBox="0 0 70 69" fill="none" xmlns="http://www.w3.org/2000/svg">
<path d="M17.8984 0.180899C19.6226 -0.0748626 22.3952 -0.0524616 24.1425 0.204115C24.968 0.325453 25.8998 0.517112 26.6976 0.71177C27.355 0.872203 28.3894 1.14389 29.1611 1.49956L29.1595 1.50111C29.128 1.48662 29.1236 1.48332 29.1753 1.50576C29.2143 1.52267 29.2677 1.54593 29.3332 1.57386C29.4643 1.62974 29.6273 1.69876 29.788 1.76577C30.2897 1.97509 30.8616 2.2484 31.323 2.48392C31.5589 2.60432 31.8055 2.73537 32.0305 2.86311C32.0678 2.88432 32.1692 2.94272 32.3068 3.02717C32.455 3.09803 32.58 3.16306 32.6748 3.21754C32.9531 3.37763 33.2152 3.56136 33.4549 3.7577C33.779 3.96684 34.1025 4.18957 34.3724 4.39072C34.5263 4.5055 34.728 4.66058 34.9235 4.83028C34.9672 4.86824 35.0371 4.92902 35.1209 5.00827C35.1489 5.03106 35.1743 5.04949 35.1935 5.06553C35.2101 5.07935 35.2257 5.09467 35.2425 5.10887C35.3366 5.0307 35.4225 4.95695 35.5031 4.89528L35.6768 4.76063C35.7316 4.71763 35.7798 4.67942 35.8173 4.64919L35.8568 4.61669C35.8494 4.62308 35.8364 4.63507 35.8189 4.65074C35.8099 4.65876 35.7988 4.66971 35.7857 4.68169C35.7726 4.69372 35.7547 4.7097 35.7352 4.72813C35.7161 4.74619 35.6903 4.77026 35.661 4.79932C35.6461 4.81403 35.6292 4.83122 35.6104 4.8504C35.5915 4.86975 35.5687 4.89392 35.5441 4.92005C35.6465 4.81097 35.7546 4.7086 35.86 4.61359C36.2103 4.29761 36.546 4.06699 36.678 3.97903C36.7581 3.92564 36.9863 3.76986 37.1738 3.64007C37.3378 3.52656 37.5207 3.40747 37.6997 3.29957C37.7472 3.27097 37.8154 3.233 37.8955 3.18814C37.9291 3.16593 37.9535 3.15062 37.965 3.14325C38.0754 3.07231 38.1764 3.01279 38.2477 2.97145C38.394 2.88664 38.5482 2.80205 38.6835 2.73001C38.9615 2.58205 39.2899 2.41572 39.5995 2.26259C39.9078 2.1101 40.2369 1.95234 40.517 1.82459C40.6504 1.7637 40.8172 1.68897 40.9828 1.62183C41.0595 1.59076 41.1967 1.53558 41.3602 1.48099C41.4145 1.46288 41.5007 1.44117 41.6066 1.41134C42.38 1.09336 43.4328 0.797636 44.2801 0.587952C45.1198 0.380168 46.2547 0.234838 47.1242 0.149945C47.9757 0.0668199 49.1324 -0.0151214 50.0015 0.035413C50.612 0.0709131 51.4071 0.14915 52.0418 0.222688C52.364 0.260029 52.693 0.301699 52.9703 0.343411C53.1019 0.363196 53.2735 0.3908 53.4473 0.425441C53.5291 0.441756 53.6744 0.471131 53.8436 0.516757C53.906 0.533575 53.998 0.563565 54.1105 0.600334C54.1398 0.607269 54.1779 0.615953 54.2211 0.625098C55.182 0.828583 56.2874 1.22678 57.152 1.5785C57.9094 1.88661 58.8212 2.29736 59.5903 2.74549L59.9108 2.93895L59.9124 2.9405C59.9146 2.94187 59.9291 2.95058 59.9582 2.96836C59.988 2.98655 60.0242 3.0101 60.0656 3.03491C60.1501 3.08561 60.2388 3.13776 60.3072 3.1773C60.5037 3.29099 60.721 3.43088 60.9405 3.59055C60.9428 3.59194 60.9446 3.59389 60.9468 3.59519C61.2847 3.79894 61.614 4.0522 61.9195 4.34893C61.9282 4.35654 61.9463 4.37078 61.9732 4.39382C62.0118 4.42679 62.0596 4.46828 62.1138 4.51299C62.1673 4.55713 62.2233 4.60241 62.278 4.6461C63.8125 5.87129 65.5764 7.97512 66.5323 9.67776L66.5339 9.67931C66.7536 10.0709 67.0234 10.5969 67.2272 11.0104C67.3316 11.2223 67.438 11.4449 67.5256 11.6372C67.5665 11.7269 67.6229 11.8542 67.6772 11.9885C67.6936 12.0291 67.7178 12.0967 67.7483 12.1804C68.0287 12.7572 68.2393 13.3714 68.3642 13.7576C68.5542 14.3453 68.7455 15.0305 68.879 15.6706L69.0606 16.4754L69.1585 16.949C69.3615 18.1011 69.401 19.5551 69.3985 20.6156C69.3955 21.8616 69.3294 23.5529 69.0606 24.748C69.0439 24.8224 69.0277 24.8968 69.0179 24.9508C68.9827 25.3083 68.9251 25.5689 68.9216 25.5853C68.8849 25.7602 68.8422 25.9329 68.8048 26.0775C68.7277 26.3747 68.6303 26.7149 68.5316 27.0433C68.3916 27.5085 68.2104 28.08 68.0325 28.5771L67.8573 29.0429C67.6248 29.6274 67.1883 30.6166 66.8355 31.3568L66.5213 31.9898C66.2754 32.4558 66.0166 32.92 65.7964 33.293C65.6908 33.472 65.567 33.6765 65.4427 33.8641C65.4185 33.9006 65.3802 33.9473 65.34 34.005C65.316 34.0469 65.2971 34.0863 65.2785 34.1179C65.175 34.2934 65.051 34.4945 64.931 34.6844C64.6981 35.0533 64.3876 35.5302 64.1383 35.8808C63.3656 36.9677 63.0879 37.3711 62.5749 37.9145C62.6329 37.853 62.6714 37.8084 62.676 37.8031C62.6789 37.7997 62.6821 37.7974 62.6839 37.7954C62.6717 37.8099 62.6465 37.8393 62.6096 37.8851L62.3507 38.2163C62.109 38.531 61.7249 39.011 61.46 39.3013C61.3381 39.4348 60.7682 40.0594 60.1951 40.6881C59.7897 41.1326 59.3297 41.6097 58.8433 42.1058C59.0429 42.2051 59.2547 42.3135 59.4466 42.4184L59.8177 42.6336L59.8208 42.6351C59.9317 42.7054 60.1909 42.8685 60.3972 42.9988C60.5354 43.0861 60.9292 43.3374 61.1663 43.5142C61.1712 43.5179 61.1826 43.5247 61.1979 43.5359C61.2253 43.556 61.2616 43.583 61.3052 43.6148C61.3924 43.6784 61.5032 43.7583 61.6148 43.8392C62.4833 44.4699 62.8875 44.8329 63.8114 45.7275C65.5707 47.4309 66.8874 49.2545 67.8446 51.4339L68.0231 51.8379C68.0496 51.8976 68.073 51.9494 68.091 51.9896C68.109 52.0299 68.1169 52.0479 68.1178 52.0499L68.252 52.3688C68.3852 52.7078 68.5083 53.0821 68.5695 53.2664C68.6989 53.6567 68.8483 54.123 68.9721 54.5371C69.393 55.9443 69.5366 57.5701 69.5343 58.8723C69.5331 59.5538 69.4913 60.2841 69.3843 60.9819C69.3027 61.5142 69.1023 62.6443 68.4431 63.6981C68.2199 64.0551 67.894 64.5616 67.4593 65.0493C67.0723 65.4834 66.685 65.8096 66.327 66.0677L65.9812 66.3045C64.5781 67.2155 63.2043 67.6286 61.6779 67.8971L60.6688 68.0751L60.244 68.1494H30.5334L29.0095 67.9002C27.4354 67.6427 25.9154 67.2659 24.4299 66.3014C23.1743 65.4862 22.1462 64.3555 21.5084 62.8686C20.9221 61.5016 20.7842 60.1072 20.7851 58.9017C20.786 57.6755 21.0046 55.6796 21.3457 54.483C21.4854 53.9932 21.6388 53.4852 21.7942 53.0173C21.2043 52.5819 20.6587 52.1744 20.3272 51.9168C19.9566 51.6289 19.6053 51.3572 19.5423 51.3086L19.5407 51.307C19.4135 51.2086 18.9397 50.8247 18.5332 50.4945C18.0978 50.1406 17.5554 49.6992 17.3283 49.5148C17.1189 49.3447 16.7564 49.0475 16.5561 48.8632C16.5749 48.8805 16.5903 48.8943 16.5987 48.9019C16.5892 48.8936 16.5716 48.8784 16.545 48.8554C16.4922 48.8098 16.4184 48.7461 16.3271 48.6681C16.1454 48.5129 15.9093 48.312 15.6639 48.1048C14.6953 47.287 14.217 46.8626 13.2682 45.9503L12.1265 44.8422C10.1872 42.9511 8.79184 41.4576 7.49951 39.8538L7.49478 39.8492C7.49198 39.8457 7.48828 39.8409 7.48372 39.8353C7.47431 39.8237 7.46195 39.8082 7.4474 39.7904C7.41835 39.7547 7.38086 39.7092 7.33844 39.6573C7.2536 39.5535 7.14907 39.4265 7.04629 39.3013C6.87513 39.0928 6.69804 38.8615 6.54095 38.6342C6.53762 38.6294 6.53498 38.6238 6.53148 38.6187C6.35188 38.409 6.19193 38.2012 6.06246 38.0105L5.34867 36.9812C4.79333 36.1865 4.18071 35.2413 3.78529 34.5436C3.42296 33.9041 2.37929 31.8273 2.11452 31.1896C2.02045 30.963 1.89442 30.6716 1.84606 30.5628C1.69405 30.2209 1.51442 29.7342 1.40231 29.3014C1.40591 29.3153 1.40824 29.3268 1.41021 29.3339C1.4056 29.3184 1.39694 29.2926 1.38652 29.2596C1.36438 29.1897 1.34254 29.1224 1.32809 29.0816C0.550046 26.8889 -0.000201148 23.6825 5.51606e-08 21.3569C0.000217323 19.5424 0.429524 16.5501 0.990144 14.8642C1.04859 14.6885 1.1352 14.3992 1.16543 14.2869L1.16701 14.2838C1.23832 14.0193 1.33146 13.729 1.44811 13.4434C1.47038 13.3889 1.5017 13.3195 1.53812 13.2391C1.56401 13.1635 1.58318 13.0983 1.60129 13.0503C1.67595 12.8522 1.75819 12.6588 1.82553 12.507C1.96615 12.1902 2.14087 11.8254 2.31349 11.4778C2.62357 10.8534 3.09295 9.95085 3.46629 9.37596C4.20026 8.24592 5.31119 6.83327 6.23143 5.91988C6.70571 5.44912 7.28385 4.93717 7.76008 4.5424C7.99739 4.34568 8.26568 4.13233 8.52124 3.94652C8.60783 3.88357 8.73529 3.79444 8.88603 3.69734C8.93596 3.65823 8.98 3.62432 9.0171 3.59674C9.28169 3.40005 9.54967 3.2324 9.74826 3.1123C10.1668 2.85919 10.6545 2.59386 11.1158 2.35855C11.879 1.96928 13.211 1.32807 14.2237 1.05846C14.1968 1.06639 14.1996 1.06485 14.2237 1.05846C14.2463 1.05179 14.2783 1.04102 14.3168 1.02905C14.3971 1.00412 14.477 0.977942 14.5316 0.959407C15.4951 0.631766 16.8463 0.337044 17.8984 0.180899ZM10.0451 40.4265L10.3768 40.4373C10.2215 40.4373 10.072 40.4273 9.92829 40.4141C9.96708 40.4176 10.0058 40.4239 10.0451 40.4265ZM9.13712 40.2779C9.24507 40.3062 9.35559 40.3311 9.46875 40.3522C9.34858 40.3298 9.23423 40.3036 9.12607 40.2748L9.13712 40.2779ZM69.0337 24.7403C69.0343 24.7317 69.0379 24.723 69.0385 24.7139C69.0415 24.6606 69.0464 24.5738 69.0464 24.4663C69.0464 24.5602 69.0389 24.6519 69.0337 24.7403ZM68.0436 13.8179L68.0357 13.5332C68.0333 13.4941 68.0294 13.4565 68.0262 13.4202C68.0367 13.5426 68.0436 13.6764 68.0436 13.8179ZM67.9662 12.9899C67.9637 12.9763 67.9637 12.9628 67.9615 12.9512C67.958 12.9331 67.9524 12.9159 67.9488 12.8986C67.9544 12.9267 67.9604 12.9571 67.9662 12.9899ZM3.1773 11.2224C3.1426 11.2472 3.10941 11.2732 3.07624 11.2982C3.11572 11.2684 3.15593 11.2381 3.19783 11.2085L3.1773 11.2224ZM36.6385 8.03872C36.6022 7.62857 36.5216 7.25141 36.4 6.90578C36.3879 6.87135 36.375 6.83588 36.3621 6.80208C36.3526 6.79956 36.3432 6.79677 36.3337 6.79434C36.3498 6.83591 36.3654 6.87874 36.3811 6.92281C36.493 7.23692 36.5939 7.61319 36.6385 8.03872ZM62.706 5.81463C62.8313 6.13372 62.9467 6.52765 63.0013 6.98317C62.9519 6.55373 62.8472 6.16523 62.706 5.81463ZM62.1469 4.57954C62.0917 4.51893 62.0467 4.47273 62.0206 4.44644L61.9338 4.36131C62.0059 4.4319 62.0779 4.50378 62.1469 4.57954ZM30.4371 2.53345C30.4224 2.53246 30.4077 2.53121 30.3928 2.53035L30.1133 2.52261C30.2247 2.52263 30.3327 2.52656 30.4371 2.53345ZM42.4199 1.24728C42.3801 1.25185 42.3429 1.25942 42.3077 1.26431C42.3683 1.25625 42.4325 1.24756 42.5004 1.24109C42.4711 1.24396 42.4437 1.24455 42.4199 1.24728ZM54.8196 0.891307C54.7239 0.843078 54.6487 0.807737 54.6032 0.787609C54.6017 0.78694 54.6 0.786726 54.5985 0.786061C54.6664 0.8164 54.7406 0.85137 54.8196 0.891307ZM36.6638 8.50458L36.6543 8.19968C36.6518 8.15484 36.6453 8.11065 36.6417 8.06658C36.6555 8.20743 36.6638 8.35355 36.6638 8.50458Z" fill="#062A12" fill-opacity="0.5"/>
</svg>
