<svg width="61" height="63" viewBox="0 0 61 63" fill="none" xmlns="http://www.w3.org/2000/svg">
<path d="M18.4572 0.000641204C21.0713 -0.00229574 23.6761 0.00490287 25.6291 0.0212825C26.6023 0.0294448 27.4306 0.0398174 28.0217 0.0537188C28.3102 0.0605051 28.5771 0.0691383 28.7863 0.0802576C28.8767 0.0850656 29.0325 0.0941984 29.1946 0.112694C29.2456 0.118518 29.4658 0.142526 29.7297 0.207054C29.7916 0.222173 30.077 0.290555 30.4358 0.452784C30.8044 0.324897 31.1602 0.258051 31.469 0.231627C31.678 0.179139 31.8835 0.140483 32.0715 0.115643L32.3303 0.0900868C32.3745 0.0870425 32.4125 0.0843426 32.4368 0.0832064C32.4858 0.0809161 32.5326 0.0802793 32.5676 0.0792747C32.6404 0.0771917 32.7266 0.0748469 32.8167 0.0733772C32.9998 0.0703876 33.2484 0.0681906 33.5471 0.0655138C34.1474 0.0601366 34.9815 0.0544738 35.9671 0.0497871C37.9399 0.0404063 40.5384 0.0331992 43.1322 0.0281629C45.7259 0.0231269 48.3189 0.0205277 50.2807 0.0222654C51.2606 0.0231337 52.0879 0.0251032 52.6801 0.0281629C52.9748 0.0296858 53.2197 0.0317593 53.3988 0.0340604C53.4863 0.0351839 53.5715 0.036096 53.644 0.0379921C53.6782 0.0388897 53.7286 0.0403603 53.7826 0.0429067C53.8085 0.0441279 53.8543 0.0466228 53.9096 0.0507701C53.9176 0.0513742 53.9644 0.0541034 54.0346 0.0615822L54.3012 0.0989331L54.3041 0.099916C54.7219 0.172711 55.2213 0.319707 55.725 0.601205C55.811 0.649241 55.9155 0.713924 56.0336 0.793857C56.3691 0.908371 56.7187 1.07612 57.0659 1.32365C57.2805 1.47667 57.4683 1.63901 57.6332 1.80626C57.9111 1.98711 58.1767 2.20917 58.4174 2.47661C58.5148 2.55682 58.6113 2.64195 58.7036 2.73414C58.871 2.90148 59.0128 3.07579 59.1362 3.24919C59.1667 3.27839 59.1944 3.30282 59.2163 3.32487C59.559 3.67046 59.7656 4.00834 59.8198 4.09646C60.0936 4.54066 60.2833 5.06023 60.3706 5.60819C60.4897 5.96346 60.5526 6.30438 60.5737 6.6265C60.7281 7.24958 60.7716 7.78279 60.7915 8.59725C60.8039 9.1052 60.807 9.8364 60.8091 10.9199C60.9101 11.3099 60.9338 11.6279 60.9409 11.7996C60.9577 12.2084 60.913 12.6184 60.812 13.0164C60.812 13.1277 60.813 13.2416 60.813 13.3575C60.813 15.4705 60.8169 16.7696 60.8296 17.5369C60.8306 17.5975 60.8324 17.6531 60.8335 17.704C60.9099 18.0136 60.9557 18.3539 60.9536 18.7272C60.9527 18.8765 60.9405 19.0202 60.9253 19.1587C61.0379 19.7291 61.048 20.41 60.812 21.1491C60.813 21.3862 60.8154 21.6064 60.8198 21.7929C60.9071 22.1283 60.9536 22.4675 60.9536 22.7985C60.9536 22.8149 60.9519 22.8317 60.9516 22.8486C60.9588 23.1833 60.9222 23.4887 60.8686 23.7529C60.9994 24.2586 61.0688 24.8824 60.937 25.5526C60.92 25.741 60.8892 25.9281 60.8462 26.1129C60.8619 26.1686 60.878 26.22 60.8891 26.2672C61.0341 26.8807 61.0016 27.3858 60.977 27.6285C60.9411 27.9824 60.863 28.2809 60.7944 28.4964C60.7722 29.0084 60.7227 29.4767 60.603 29.9777L60.4907 30.3886C60.4204 30.6203 60.339 30.856 60.2573 31.0668C60.1753 31.4329 60.0354 31.8183 59.811 32.2089C59.7202 32.3669 59.6226 32.5133 59.521 32.6493C59.3386 32.9341 59.0959 33.2413 58.7749 33.53L58.7719 33.5329C58.7624 33.5414 58.6411 33.6521 58.4965 33.7639C58.4924 33.7671 58.418 33.8262 58.2934 33.9104C58.25 33.9518 58.2095 33.9931 58.1694 34.0303C58.1348 34.0623 58.0818 34.1085 58.0209 34.162C57.8273 34.3757 57.6185 34.5662 57.3969 34.7281L57.1391 34.9021C57.058 34.9524 56.7071 35.1729 56.2153 35.3297C56.1675 35.3449 56.1021 35.3635 56.0219 35.3847C55.6475 35.5648 55.3391 35.6463 55.2397 35.6708C54.9605 35.7394 54.7298 35.7624 54.6762 35.7681C54.5828 35.7779 54.5007 35.7834 54.4477 35.7867C54.3401 35.7935 54.2243 35.7988 54.1166 35.8025C53.7892 35.8135 53.1996 35.8236 52.1967 35.8438C52.1849 36.2088 52.1513 36.5723 52.0971 36.9299C52.0971 36.9299 51.3143 39.5585 50.2807 40.9213C49.0202 42.5831 47.0345 44.1455 47.0345 44.1455C47.0293 44.1466 47.0241 44.1474 47.0189 44.1484L46.7738 44.1936C46.5512 44.2649 46.3925 44.298 46.3597 44.3047C46.3137 44.3142 46.2684 44.319 46.2259 44.3263C46.2049 44.3348 46.1847 44.345 46.1644 44.3529L46.1605 44.3548C45.8753 44.4645 45.4582 44.5838 44.9525 44.6183C44.6449 44.6937 44.2294 44.7586 43.7513 44.7293C43.3439 44.7044 42.7593 44.6029 42.1468 44.2821C41.8345 44.2498 41.5257 44.1845 41.2278 44.0855C41.1581 44.0623 41.0179 44.0145 40.8343 43.9322C40.8343 43.9322 38.1578 42.4738 37.0093 41.6371C36.1043 40.9777 35.6748 40.9972 35.6748 40.9972C35.2001 40.9972 34.3458 41.09 34.0422 41.6371C33.8508 41.9822 33.6378 42.2677 33.4622 42.4834C33.3956 42.604 33.3219 42.7257 33.2385 42.847C32.7678 43.5327 32.1967 43.947 31.6584 44.1995C31.8083 44.2655 31.965 44.3447 32.1243 44.4413C32.2508 44.5181 32.3903 44.6158 32.5354 44.7323C32.5843 44.7629 32.635 44.7922 32.6838 44.8257C33.4437 45.3465 33.8615 46.003 34.093 46.534C34.1875 46.6957 34.2675 46.857 34.3333 47.0146C34.5121 47.4432 34.5915 47.8489 34.6243 48.1941C34.7127 48.5864 34.7387 48.8962 34.7434 48.9411C34.7722 49.2158 34.7927 49.5193 34.8079 49.812C34.8387 50.4071 34.8564 51.1263 34.8626 51.8339C34.8687 52.5439 34.8634 53.2833 34.844 53.9216C34.8393 54.0774 34.8318 54.2571 34.8225 54.4484C34.8225 54.4484 34.3418 56.9825 33.5093 58.3601C32.5227 59.9925 29.9924 61.7378 29.9924 61.7378C29.7573 61.8617 29.5271 61.9566 29.3137 62.0218C29.2757 62.0334 29.2368 62.0411 29.1994 62.0513C29.037 62.1098 28.8597 62.1626 28.6682 62.2037C28.4289 62.279 28.2433 62.3175 28.1467 62.3344C27.6591 62.4196 27.2256 62.403 26.8869 62.36C26.8464 62.36 26.8048 62.3601 26.7619 62.359C26.4249 62.399 26.1131 62.3972 25.842 62.3757C25.7174 62.384 25.5873 62.3921 25.467 62.3973C25.2424 62.4071 24.9788 62.4083 24.7023 62.3865C24.652 62.3825 24.5919 62.3755 24.5246 62.3678C24.1885 62.3761 23.7026 62.3797 23.0881 62.3816C22.5942 62.3831 22.1387 62.3799 21.7814 62.358C21.7749 62.3576 21.7681 62.3565 21.7609 62.356C21.5666 62.3738 21.3913 62.3795 21.2453 62.3786C21.1625 62.3781 21.0673 62.374 20.9621 62.3678L20.9611 62.3688C20.6051 62.3892 20.162 62.3774 19.9015 62.3668C19.8602 62.3652 19.8174 62.3611 19.7736 62.359C19.5703 62.3803 19.393 62.3907 19.2726 62.3934C18.9741 62.4001 18.6512 62.3858 18.34 62.3619C18.3241 62.3635 18.3121 62.366 18.3038 62.3668C18.022 62.3954 17.7639 62.3967 17.5568 62.3894L17.5558 62.3885C17.3828 62.3823 17.1197 62.3752 16.9816 62.3717C16.9756 62.3717 16.9547 62.3706 16.921 62.3698C16.6527 62.3953 16.3421 62.4028 16.0021 62.3619C15.9871 62.3601 15.9702 62.3565 15.9513 62.3541C15.9458 62.3537 15.9402 62.3534 15.9347 62.3531L15.8126 62.3639C15.4422 62.3945 14.9947 62.4034 14.5431 62.356C14.4469 62.3625 14.3747 62.368 14.339 62.3698C14.2337 62.3752 13.9005 62.3963 13.4913 62.3698C13.1498 62.391 12.7985 62.384 12.5079 62.3619C12.3096 62.3856 12.0793 62.4001 11.8253 62.3904C11.669 62.3969 11.5292 62.3948 11.4122 62.3904C11.3125 62.3866 11.1891 62.3767 11.0489 62.3609C10.9616 62.3636 10.8689 62.3623 10.7716 62.359C10.4864 62.3967 10.223 62.3992 9.98933 62.3865C9.86915 62.394 9.77436 62.3987 9.71296 62.3993C9.44395 62.4018 9.18623 62.3845 8.95905 62.358C8.9472 62.3566 8.93528 62.3536 8.92292 62.3521C8.64175 62.395 8.41014 62.4032 8.25885 62.4032C7.94506 62.4032 7.52518 62.3697 7.05865 62.2371C6.44835 62.1325 5.9489 61.8974 5.57328 61.6572C5.5457 61.6464 5.51751 61.6361 5.4893 61.6247C5.4893 61.6247 2.45661 60.9002 1.35646 59.4363C0.42738 58.1999 0.26465 55.622 0.26465 55.622C0.209741 55.371 0.179496 55.1423 0.16504 54.9517C0.156702 54.8417 0.138155 54.5785 0.155275 54.2735C0.15676 54.247 0.161102 54.1804 0.1709 54.0838C-0.0324815 53.3627 -0.0056833 52.701 0.114259 52.1494C0.079932 51.9916 0.03273 51.7417 0.020508 51.4417C0.0182487 51.3869 -4.52176e-05 51.115 0.0537113 50.7271C0.0241534 50.5357 0.00195314 50.3219 0.00195314 50.0921C0.00194886 50.0118 -0.00194938 49.6922 0.0888679 49.2576C0.0944782 49.1846 0.102269 49.106 0.113282 49.0227C0.0472639 48.7 0.022895 48.4102 0.0166017 48.1872C0.0102791 47.9644 0.013322 47.5745 0.113282 47.108C0.0455604 46.8227 0 46.5035 0 46.1536C1.29571e-05 45.9793 0.0148275 45.7879 0.0449222 45.5855C0.00715832 45.247 0.0160924 44.9272 0.0546879 44.632C0.0205104 44.4239 0 44.2003 0 43.9627C9.91814e-06 43.7236 0.0186631 43.4927 0.0546879 43.2707C0.0440541 43.1835 0.0352157 43.0921 0.0302737 42.9974C0.0202262 42.8049 -0.000341713 42.2636 0.20215 41.6007C0.206069 41.1398 0.208956 40.472 0.209963 39.5071C0.211021 38.4858 0.205416 37.6808 0.196291 37.1284C0.00601801 36.4764 -0.0989226 35.5987 0.227541 34.6721C0.260134 33.9077 0.334093 32.9436 0.67188 31.9789C0.726881 31.8219 0.786475 31.671 0.849616 31.5268C0.829065 31.4704 0.812791 31.4131 0.794928 31.3567C0.753267 31.2797 0.717079 31.2093 0.687505 31.1464C0.495782 30.7386 0.34003 30.2345 0.295901 29.6602C0.29322 29.6436 0.288653 29.627 0.286135 29.6101C0.273539 29.5256 0.233671 29.267 0.243166 28.9034C0.200476 28.7555 0.172178 28.6324 0.155275 28.5456C0.0982536 28.2528 0.0841549 28.011 0.0791022 27.888V27.886C0.0776953 27.8514 0.0777869 27.8026 0.077149 27.7416C0.0270853 27.4806 0 27.2219 0 26.97C5.93204e-06 26.494 0.076881 26.0666 0.20215 25.6863C0.206037 25.2886 0.210119 24.7135 0.209963 23.8806C0.209787 22.9036 0.203611 22.1781 0.192384 21.7025C0.190845 21.6373 0.187083 21.5798 0.185548 21.5295C0.130496 21.2644 0.0971176 20.9742 0.0996101 20.6606C0.101729 20.3966 0.128181 20.148 0.171876 19.9146C0.0834517 19.521 0.0511611 19.1003 0.090821 18.6614C0.0943053 18.6228 0.100023 18.5849 0.104493 18.5473C0.0715547 18.2188 0.0646451 17.7516 0.189455 17.2165C0.201502 16.6603 0.208277 15.7462 0.209963 14.3601C0.211093 13.4413 0.206125 12.6809 0.200197 12.0994C0.181423 12.0228 0.165498 11.9573 0.155275 11.9048C0.0982541 11.612 0.0841528 11.3702 0.0791022 11.2472V11.2452C0.0780706 11.2198 0.07801 11.1868 0.077149 11.1469C0.0398063 10.9069 0.0210366 10.6507 0.0302737 10.3793C0.0313478 10.3478 0.0333734 10.3162 0.0351565 10.2849C0.0295333 10.2223 0.0232992 10.1567 0.020508 10.0883C0.0186162 10.0419 0.00705702 9.83503 0.0371097 9.532C0.0390663 9.38186 0.0481739 9.17446 0.0849616 8.92947C0.084422 8.75054 0.0939267 8.30656 0.222658 7.80993C0.24134 7.73789 0.276156 7.61002 0.334963 7.44723C0.448594 6.66391 0.650966 5.84786 0.990242 5.08626C1.06592 4.79281 1.17944 4.47559 1.35646 4.15249C1.58999 3.72632 1.88302 3.36927 2.21095 3.07816C2.26418 3.01719 2.30642 2.97272 2.32717 2.95038C2.45385 2.81395 2.5946 2.67391 2.709 2.56311C2.80774 2.46749 2.95276 2.32889 3.11428 2.1837C3.40381 1.81624 3.72395 1.52922 4.0098 1.3325C4.36652 1.08703 4.73011 0.922608 5.07719 0.810566C5.17112 0.744373 5.2356 0.703308 5.25102 0.693599C5.25596 0.69046 5.28881 0.668616 5.31645 0.651333C5.34352 0.634406 5.41257 0.591647 5.49809 0.543212C5.50258 0.540669 6.21033 0.0969226 7.19732 0.0212825C7.54302 -0.00516822 7.91065 0.0145481 8.28522 0.0891039C8.40935 0.0852844 8.5422 0.0786641 8.68171 0.075343C9.31732 0.0602144 10.1835 0.0473975 11.1895 0.0370092C13.2063 0.016186 15.8429 0.00357889 18.4572 0.000641204ZM8.08405 62.2784C8.03909 62.2823 7.9944 62.2828 7.95025 62.2852C8.04342 62.2924 8.13562 62.297 8.22662 62.297C8.3107 62.297 8.40426 62.2941 8.50592 62.2862C8.4497 62.2751 8.39165 62.2627 8.33209 62.2489C8.25144 62.2609 8.16879 62.271 8.08405 62.2784ZM17.6466 61.8292C17.6785 61.8468 17.7112 61.8626 17.7433 61.8793C17.7126 61.8634 17.6823 61.8448 17.6505 61.8272L17.6466 61.8292ZM17.5441 61.7692L17.546 61.7682C17.5287 61.7579 17.5099 61.7495 17.4923 61.7387C17.5094 61.7492 17.5269 61.759 17.5441 61.7692ZM17.5841 61.5589L17.5773 61.7505L17.5783 61.7496L17.5851 61.5569L17.5841 61.5589ZM20.924 61.7446L20.925 61.7437L20.923 61.7034L20.922 61.7024L20.924 61.7446ZM17.587 61.4812L17.5841 61.554L17.5851 61.553L17.588 61.4802L17.587 61.4812ZM26.5461 61.1883L26.5471 61.1873L26.5412 61.035L26.5461 61.1883ZM28.552 59.4367C28.5974 59.4637 28.6425 59.4897 28.6877 59.5144L28.6887 59.5124C28.6423 59.4874 28.5966 59.4631 28.552 59.4367ZM0.258791 54.6696C0.243758 55.1023 0.303818 55.4325 0.346682 55.6132L0.386722 55.6083L0.440433 55.6024C0.439914 55.6001 0.439973 55.5978 0.439456 55.5955L0.43848 55.5916C0.429817 55.5538 0.388532 55.3859 0.350589 55.1512C0.314408 55.0091 0.29492 54.906 0.288088 54.8681C0.275134 54.7963 0.266628 54.7286 0.258791 54.6696ZM1.83693 55.2574C1.80509 55.3241 1.77511 55.3902 1.74806 55.4559L1.75099 55.4549C1.77909 55.3867 1.80875 55.321 1.83888 55.2574C1.84702 55.2402 1.85503 55.2231 1.8633 55.2063C1.85475 55.2235 1.84514 55.2402 1.83693 55.2574ZM0.146485 52.7372L0.140626 52.9603L0.155275 53.2945C0.164879 53.4058 0.180076 53.5239 0.20215 53.6474C0.200691 53.5684 0.198376 53.4864 0.197267 53.4026C0.19361 53.1263 0.191138 52.8008 0.190431 52.4433C0.186629 52.4304 0.182516 52.4173 0.178712 52.404C0.164178 52.513 0.152352 52.624 0.146485 52.7372ZM0.137696 51.2972C0.131019 51.5231 0.144506 51.7329 0.168947 51.9233C0.176426 51.8962 0.183551 51.8692 0.191408 51.8427C0.191815 51.6872 0.191435 51.5278 0.192384 51.366C0.192455 51.3538 0.192315 51.3417 0.192384 51.3296C0.177505 51.2808 0.160771 51.2276 0.145509 51.1694C0.142736 51.2132 0.138924 51.2558 0.137696 51.2972ZM0.178712 50.8559C0.183398 50.8892 0.188346 50.921 0.193361 50.9512C0.19366 50.8806 0.194125 50.8121 0.194337 50.7458C0.188004 50.7829 0.183875 50.8197 0.178712 50.8559ZM33.3557 50.1894C33.17 50.461 32.9943 50.6546 32.886 50.7635C33.0711 50.5773 33.228 50.3861 33.3616 50.1934L33.3557 50.1894ZM33.5628 50.6504C33.5722 50.6382 33.5804 50.6293 33.5852 50.6229C33.6019 50.6009 33.6141 50.5835 33.6204 50.5748C33.6055 50.5955 33.5853 50.6202 33.5628 50.6504ZM33.7737 49.4188C33.6505 49.7226 33.5002 49.9785 33.3567 50.1885L33.3626 50.1914C33.5397 49.9354 33.6728 49.6755 33.7737 49.4188ZM0.152345 49.9693C0.15811 50.0257 0.167724 50.0842 0.176759 50.1452C0.182615 50.1249 0.190014 50.1049 0.196291 50.0843C0.195944 49.9286 0.192548 49.7906 0.191408 49.6685C0.173062 49.7807 0.159866 49.8818 0.152345 49.9693ZM0.172853 47.5366C0.180685 47.5018 0.189277 47.4668 0.198244 47.4314C0.198336 47.4255 0.198153 47.4196 0.198244 47.4137C0.197078 47.41 0.195496 47.4065 0.194337 47.4029C0.185 47.449 0.179852 47.4939 0.172853 47.5366ZM28.3362 47.5012H28.3381C28.3571 47.4019 28.3733 47.3051 28.384 47.2102C28.3717 47.3122 28.3538 47.4091 28.3362 47.5012ZM0.140626 46.2411C0.140626 46.4466 0.159712 46.6404 0.186525 46.822C0.192437 46.8014 0.198765 46.7808 0.20508 46.76C0.205827 46.6319 0.206555 46.4926 0.207033 46.3413C0.18469 46.2703 0.16148 46.2009 0.143556 46.131C0.142326 46.1684 0.140629 46.2051 0.140626 46.2411ZM0.185548 45.6838C0.192647 45.7307 0.199777 45.7786 0.208986 45.8273C0.208994 45.8198 0.209954 45.8121 0.209963 45.8046C0.210063 45.7111 0.209919 45.6211 0.209963 45.5343C0.200504 45.5847 0.192944 45.6346 0.185548 45.6838ZM0.140626 45.0999C0.140626 45.1054 0.141579 45.111 0.141603 45.1166C0.145397 45.1022 0.149356 45.0878 0.153321 45.0734C0.149993 45.0615 0.144852 45.05 0.141603 45.038C0.14131 45.0586 0.140627 45.0792 0.140626 45.0999ZM28.1174 44.9259C28.1358 44.9566 28.1563 44.9971 28.1819 45.0429C28.1736 45.0277 28.1686 45.0152 28.1643 45.0075L28.1164 44.923L28.1174 44.9259ZM0.178712 44.5396C0.186739 44.5975 0.197104 44.6557 0.208009 44.7146C0.207636 44.6074 0.20864 44.5074 0.208009 44.4148C0.207884 44.3964 0.207168 44.3784 0.207033 44.3607C0.196387 44.4197 0.186814 44.4793 0.178712 44.5396ZM45.0746 44.4158C44.9171 44.4622 44.7693 44.4931 44.6361 44.517C44.8586 44.4978 45.0626 44.4597 45.2464 44.4109C45.1911 44.4126 45.1337 44.4144 45.0746 44.4158ZM44.3871 44.4256C44.3646 44.4257 44.342 44.4246 44.3197 44.4246L44.3167 44.4984C44.3217 44.4989 44.3265 44.4998 44.3314 44.5003C44.4099 44.4906 44.5001 44.4783 44.598 44.459C44.6404 44.4507 44.693 44.4366 44.7552 44.4217C44.6356 44.4232 44.5121 44.4254 44.3871 44.4256ZM45.7357 44.3853L45.5414 44.4207C45.5269 44.4268 45.5132 44.4353 45.4984 44.4413C45.4928 44.4436 45.4852 44.4458 45.4769 44.4492C45.5669 44.4314 45.6577 44.4096 45.7494 44.3843C45.7448 44.3847 45.7402 44.385 45.7357 44.3853ZM27.2883 44.1651C27.3099 44.179 27.3286 44.1916 27.343 44.2005C27.3252 44.1895 27.3083 44.1758 27.2902 44.1642C27.2422 44.1332 27.1924 44.1001 27.1428 44.0649C27.2008 44.1061 27.2495 44.1403 27.2883 44.1651ZM0.141603 43.9627L0.140626 44.0069L0.144532 44.1553C0.161665 44.0872 0.17974 44.021 0.19922 43.9568C0.183127 43.9027 0.165366 43.8413 0.148439 43.773C0.143986 43.8437 0.142287 43.9073 0.141603 43.9627ZM40.7816 43.7818C40.837 43.8124 40.8729 43.8331 40.8841 43.8388C40.9483 43.8716 41.0084 43.8991 41.0403 43.9135C41.0565 43.9205 41.15 43.961 41.2913 44.0059C41.3252 44.0167 41.5074 44.0777 41.7845 44.1239C41.699 44.0914 41.6064 44.0545 41.5101 44.0098C41.3701 43.9612 41.2634 43.9218 41.2103 43.9007C41.0573 43.8401 40.9026 43.7727 40.7542 43.7061L40.7816 43.7818ZM24.6525 42.6652C24.4142 42.6464 24.1767 42.6481 23.9435 42.6721L23.9445 42.6741C24.1604 42.6528 24.3995 42.6479 24.6525 42.6652ZM43.5667 41.0424C43.5611 41.0331 43.5566 41.0232 43.5511 41.0139L43.5492 41.0129C43.5551 41.023 43.561 41.0328 43.5667 41.0424ZM43.4994 40.9264C43.5161 40.9566 43.5332 40.9859 43.5492 41.0129C43.5461 41.0077 43.5444 41.0024 43.5413 40.9972C43.5268 40.9723 43.5131 40.9463 43.4994 40.9215V40.9264ZM53.2416 35.6324L53.2865 35.6442C53.2715 35.6405 53.255 35.6352 53.2367 35.6305L53.2416 35.6324ZM2.85158 34.8009C2.79879 34.7532 2.74545 34.7038 2.69338 34.6515L2.68947 34.6485C2.72549 34.6848 2.78032 34.7369 2.85158 34.8009ZM38.0638 34.4873C38.0228 34.4992 37.9926 34.5084 37.9788 34.5129C38.0282 34.4969 38.0801 34.4843 38.1321 34.4696C38.1027 34.4775 38.0792 34.4828 38.0638 34.4873ZM57.0375 34.1639C56.5789 34.245 56.142 34.2457 55.7729 34.1993C56.2184 34.2596 56.642 34.2419 57.0375 34.1639ZM4.23148 32.0418C3.69168 32.0207 3.12854 32.1186 2.56838 32.3662L2.56936 32.3691C3.06523 32.1556 3.63227 32.0299 4.23148 32.0418ZM4.89261 32.0389H4.89652C4.86479 32.0322 4.83255 32.028 4.80082 32.0222C4.83923 32.0291 4.87031 32.0342 4.89261 32.0389ZM4.36136 31.9661C4.30949 31.9625 4.25778 31.9588 4.20609 31.9573H4.16702C4.23546 31.959 4.3004 31.9619 4.36136 31.9661ZM59.8335 31.9425V31.9445C59.8528 31.912 59.8709 31.8791 59.8891 31.8462C59.871 31.8782 59.8527 31.9104 59.8335 31.9425ZM0.881843 31.2427C0.899007 31.2746 0.917643 31.3076 0.937507 31.342C0.940602 31.3355 0.943186 31.3288 0.946296 31.3223C0.919717 31.2821 0.893696 31.2424 0.869147 31.2024C0.872945 31.2164 0.878135 31.2296 0.881843 31.2427ZM59.3315 31.1759L59.3276 30.9881C59.3269 30.9729 59.3256 30.9576 59.3247 30.9419C59.3293 31.0211 59.3315 31.0993 59.3315 31.1759ZM0.448246 29.8647L0.486332 30.0101L0.448246 29.8627V29.8647ZM60.2378 29.2022C60.2178 29.1159 60.1946 29.0265 60.1665 28.9348L60.1635 28.9279C60.1889 29.0102 60.214 29.102 60.2378 29.2022ZM58.8012 29.1766C58.8036 29.1807 58.8067 29.1843 58.809 29.1884C58.8016 29.1752 58.7952 29.1613 58.7876 29.1481C58.7631 29.1059 58.737 29.0651 58.7114 29.0243C58.743 29.0747 58.7723 29.1258 58.8012 29.1766ZM58.5678 28.8139C58.587 28.8406 58.6067 28.867 58.6254 28.8945C58.6067 28.8671 58.5891 28.8397 58.5698 28.8129L58.5678 28.8139ZM58.5668 28.812L58.5688 28.811C58.5568 28.7943 58.5439 28.7783 58.5317 28.7618C58.5438 28.7781 58.5549 28.7953 58.5668 28.812ZM57.7748 28.5957C57.4972 28.6607 57.2048 28.697 56.9028 28.6999C56.9056 28.7023 56.9087 28.7043 56.9116 28.7068C57.196 28.709 57.4878 28.677 57.7846 28.6055C57.7813 28.6023 57.7782 28.5989 57.7748 28.5957ZM56.7719 28.7009C56.8005 28.7022 56.8291 28.7051 56.8578 28.7058C56.8559 28.7041 56.8539 28.7026 56.852 28.7009C56.8253 28.7008 56.7987 28.6987 56.7719 28.6979V28.7009ZM0.149415 28.0531C0.16613 28.233 0.199001 28.4379 0.255861 28.6606C0.259259 28.6205 0.263762 28.5795 0.268557 28.5377C0.265164 28.4899 0.261943 28.4413 0.258791 28.3922C0.217021 28.2795 0.180512 28.1666 0.149415 28.0531ZM58.27 28.4443C58.1497 28.4892 58.0256 28.5291 57.8979 28.5633C57.9018 28.5673 57.9058 28.5711 57.9096 28.5751C58.0313 28.5413 58.153 28.499 58.2758 28.4512C58.2738 28.449 58.272 28.4466 58.27 28.4443ZM58.7622 28.2232C58.6076 28.3058 58.4424 28.38 58.27 28.4443C58.272 28.4466 58.2738 28.449 58.2758 28.4512C58.4372 28.3883 58.6007 28.314 58.7631 28.2252L58.7622 28.2232ZM58.767 28.2202L58.768 28.2222C58.7759 28.2179 58.7835 28.2129 58.7915 28.2084C58.7835 28.2128 58.775 28.216 58.767 28.2202ZM58.8891 28.1514C58.9192 28.1337 58.9509 28.118 58.9809 28.0993H58.979C58.9497 28.1175 58.9192 28.1339 58.8891 28.1514ZM60.813 27.0004C60.813 27.4213 60.8132 27.7953 60.8061 28.1436C60.8297 28.0313 60.8508 27.916 60.8647 27.7976C60.9003 27.4957 60.9137 27.0669 60.8149 26.566C60.8139 26.696 60.813 26.8409 60.813 27.0004ZM58.7797 26.5129C58.7953 26.5047 58.8091 26.4995 58.8188 26.4942C58.8706 26.4661 58.9119 26.4419 58.9379 26.4264C58.9002 26.4488 58.8466 26.4778 58.7797 26.5129ZM60.8276 19.7072C60.8195 19.9667 60.8132 20.2892 60.811 20.6301C60.8644 20.3532 60.8833 20.1023 60.8833 19.891C60.8833 19.7691 60.8756 19.6496 60.8657 19.5322C60.8534 19.5916 60.8421 19.6501 60.8276 19.7072ZM1.80275 17.3678C1.79138 17.3761 1.78071 17.3851 1.76954 17.3934C1.86443 17.3226 1.95399 17.262 2.03517 17.2115L1.80275 17.3678ZM60.81 11.8399C60.8102 12.1159 60.8119 12.41 60.812 12.7235C60.9027 12.2667 60.8889 11.9283 60.8852 11.8369L60.81 11.8399ZM60.81 11.8379L60.8852 11.835C60.8819 11.7531 60.871 11.5446 60.8188 11.2767C60.8165 11.265 60.8127 11.2525 60.81 11.2393C60.8103 11.4288 60.8099 11.6281 60.81 11.8379ZM0.197267 11.7485C0.196935 11.7255 0.196635 11.7029 0.196291 11.6807C0.186735 11.6485 0.179809 11.6153 0.1709 11.5824C0.178274 11.6361 0.186925 11.6914 0.197267 11.7485ZM4.1348 9.68436C4.14266 9.68647 4.15037 9.68916 4.15823 9.69124C4.15069 9.68925 4.14336 9.68537 4.13577 9.68337L4.1348 9.68436ZM2.96682 9.6303C2.91161 9.59949 2.85512 9.56825 2.79983 9.53397L2.79592 9.532C2.82612 9.55078 2.8849 9.58511 2.96682 9.6303ZM3.87405 9.60572V9.60376C3.81377 9.58294 3.75223 9.56173 3.69046 9.53692C3.75166 9.5614 3.81276 9.58462 3.87405 9.60572ZM60.3286 8.29844C60.2632 8.47753 60.1904 8.63563 60.1215 8.77122C60.2087 8.60078 60.2773 8.44121 60.3286 8.29844ZM0.250002 8.01831C0.195761 8.22698 0.165807 8.42055 0.149415 8.59332C0.176205 8.4777 0.209329 8.35705 0.250002 8.23258C0.257955 8.13146 0.265689 8.0291 0.276369 7.92591L0.250002 8.01831ZM3.93948 6.55474C3.5451 6.57066 3.14388 6.65054 2.74611 6.80244C2.57802 6.86663 2.41002 6.94239 2.24416 7.03342L2.05177 7.14646C2.59419 6.81069 3.24636 6.5927 3.93948 6.55474ZM4.05276 6.4476C3.48646 6.45362 2.99054 6.56463 2.55959 6.7474C2.60748 6.72813 2.65506 6.71026 2.70217 6.69333C3.25673 6.4941 3.75139 6.45149 4.05276 6.4476ZM59.7163 4.16625C59.8389 4.38297 59.9331 4.59693 60.0063 4.80318C60.063 4.90014 60.1176 5.00097 60.1684 5.1069C60.0777 4.80908 59.9404 4.4838 59.7329 4.15544L59.7163 4.16625ZM57.851 4.19476L57.8461 3.99817C57.8454 3.98368 57.8441 3.96929 57.8432 3.95492C57.8477 4.03328 57.851 4.11323 57.851 4.19476ZM59.6635 4.07287C59.6813 4.10252 59.6975 4.13275 59.7143 4.16232L59.7299 4.15249C59.6663 4.05199 59.5965 3.95104 59.519 3.85073C59.5684 3.92237 59.6173 3.99591 59.6635 4.07287ZM57.6743 3.00641C57.7688 3.03406 57.8643 3.06521 57.9604 3.10077C57.8715 3.06651 57.7756 3.03414 57.6733 3.00346L57.6743 3.00641ZM53.7026 3.03491C53.6858 3.04864 53.6695 3.06305 53.6527 3.07718C53.6681 3.06429 53.685 3.05119 53.7026 3.03688C53.7108 3.03017 53.7192 3.02322 53.7279 3.01624C53.7196 3.02294 53.7109 3.02811 53.7026 3.03491ZM57.476 2.95235C57.5393 2.96766 57.603 2.98569 57.6674 3.00444L57.6665 3.00149C57.6049 2.98315 57.5413 2.96456 57.475 2.94841L57.476 2.95235ZM54.4154 2.56901C54.2143 2.67191 54.012 2.79595 53.8129 2.94841C53.9647 2.83347 54.1688 2.69556 54.4154 2.56901ZM56.7358 2.84029C56.7303 2.84001 56.7247 2.83956 56.7192 2.83931L56.5424 2.83538C56.6044 2.83539 56.669 2.83664 56.7358 2.84029ZM34.9309 2.79213C34.9166 2.76447 34.9039 2.73705 34.8899 2.71153L34.7942 2.54738C34.8399 2.62176 34.8851 2.70393 34.9309 2.79213ZM54.5473 2.50315C54.5107 2.52011 54.4746 2.53878 54.4379 2.55721C54.4727 2.5396 54.5173 2.51801 54.5707 2.49332L54.5473 2.50315ZM5.42777 1.78267C5.40543 1.78123 5.38366 1.77878 5.36234 1.77776L5.17484 1.77383C5.25763 1.77384 5.34202 1.77705 5.42777 1.78267ZM7.13189 0.13825C6.86507 0.158484 6.24647 0.232828 5.55571 0.627743C5.51318 0.652063 5.463 0.683266 5.40629 0.719155C5.43226 0.713078 5.45775 0.705979 5.48344 0.700479C5.79149 0.574162 6.22141 0.410539 6.52153 0.314192L6.52251 0.313209C6.89673 0.193189 7.21764 0.155185 7.24908 0.151028C7.31422 0.142365 7.37456 0.137252 7.42486 0.132352C7.33758 0.131125 7.2708 0.130948 7.23541 0.132352C7.18411 0.134391 7.14666 0.137127 7.13189 0.13825ZM5.96977 0.624795C5.96516 0.625272 5.96063 0.626274 5.9561 0.62676C5.97381 0.625029 5.99137 0.623333 6.00883 0.621846C5.99497 0.623135 5.98182 0.623548 5.96977 0.624795Z" fill="#062A12" fill-opacity="0.5"/>
</svg>
