<svg width="92" height="70" viewBox="0 0 92 70" fill="none" xmlns="http://www.w3.org/2000/svg">
<path d="M20.6407 0.247952C24.4797 -0.795509 27.2916 1.72655 28.3758 2.77244C28.3826 2.77874 28.503 2.89205 28.7588 3.1289L29.627 3.92957L31.7828 5.91296C32.6581 6.71944 33.4314 7.46202 34.0225 8.0627C34.3119 8.3568 34.6062 8.66609 34.8615 8.96025C34.9862 9.10398 35.1511 9.30092 35.3175 9.52694C35.3849 9.61847 35.725 10.0658 36.0124 10.7133L36.1309 11.0021L36.2221 11.2635C37.5459 11.0786 39.1438 10.9338 40.1964 10.9345C40.9112 10.935 41.9154 11.0161 42.8428 11.1319C43.8506 10.7971 45.0778 10.522 46.1258 10.3331L46.5635 10.2618C47.5774 10.1128 48.5687 10.0827 49.8009 10.0827C51.966 10.0827 53.2171 10.2113 56.0131 10.642C56.0624 10.6496 56.1114 10.6549 56.159 10.6621C56.3651 10.1717 56.6535 9.64262 57.0764 9.08821C57.5105 8.51912 58.0599 7.97484 58.4315 7.60387C59.6525 6.38521 61.2012 4.94315 62.517 3.77053C63.1756 3.18365 63.8105 2.63417 64.3409 2.19661C64.6026 1.98073 64.8752 1.76221 65.1325 1.5696C65.256 1.47716 65.7919 1.0666 66.4384 0.759795C67.2255 0.386398 68.4079 0.0114707 69.6521 0.00848266L69.6539 0.00665465C70.2228 0.00539855 71.191 0.0538438 72.3131 0.509358C73.2706 0.898149 73.9983 1.44624 74.469 1.83284C75.3434 2.55119 76.524 3.73523 78.1423 5.3609C81.8545 9.09021 84.7597 12.0408 86.7984 14.1536C87.8146 15.2068 88.6364 16.0749 89.2442 16.7366C89.6694 17.1995 90.4219 18.014 90.862 18.709C91.1039 19.0912 91.4515 19.6955 91.6955 20.4895C91.9499 21.3171 92.0001 22.0464 92.0001 22.5826C92.0001 22.885 92.0206 24.0022 91.4858 25.2954C91.0548 26.3373 90.4184 27.1253 90.0212 27.5932C89.2148 28.5432 87.7591 30.0101 85.4159 32.3789C84.5539 33.2503 83.8913 33.9103 83.3713 34.3824C82.8629 34.8439 82.1371 35.4611 81.1517 35.9198C80.8146 36.0767 80.4612 36.2163 80.123 36.3274C80.0844 36.3401 79.6964 36.4777 79.1417 36.576C78.6842 37.6983 78.2014 38.7414 77.5003 40.1315L77.4984 40.1333C77.1321 40.8594 76.6275 41.6977 76.1889 42.3763C75.8628 42.8808 75.365 43.6082 74.8666 44.208C75.2676 45.8908 75.2054 47.6982 74.562 49.4763C73.7389 51.7503 72.2617 53.5236 70.1117 54.7117C70.0637 54.7382 69.9744 54.788 69.8527 54.8525C69.3721 56.6675 68.3746 58.354 66.8798 59.6364C65.7281 60.6243 64.3913 61.2839 62.9913 61.6253C62.5464 62.4517 61.9744 63.225 61.275 63.9121C59.5755 65.5816 57.2175 66.5458 54.813 66.5956C54.0786 67.4245 53.1572 68.1985 51.9932 68.7618C50.5179 69.4758 49.0111 69.6849 47.625 69.6173C47.1849 69.5958 46.7232 69.5439 46.2717 69.4583C45.9871 69.4043 45.3974 69.2814 44.736 68.9976C44.4944 68.921 44.3069 68.8504 44.1888 68.8002C43.7715 68.6227 43.437 68.428 43.2204 68.292C43.2006 68.2796 43.1816 68.2662 43.162 68.2536C42.471 68.6467 41.8067 68.9078 41.1594 69.1055C37.9943 70.0718 34.6098 69.1759 32.2898 67.027C31.5719 66.362 31.029 65.6527 30.6119 64.9047C27.7841 64.1397 25.5786 62.1345 24.5128 59.5614C22.7517 58.82 21.0988 57.5341 20.0589 55.8323C19.5543 55.0064 19.2317 54.1398 19.0375 53.2987C18.8166 53.1813 18.5927 53.052 18.3754 52.9075C16.9354 51.9491 15.7483 50.5421 15.0322 48.9937C14.7939 48.4781 14.5306 47.7981 14.3993 46.9043C14.3018 46.2392 14.3027 45.5902 14.3027 45.2079C14.3027 44.9062 14.2852 44.0684 14.4468 43.2227C14.5998 42.4224 14.8774 41.7635 15.0468 41.3965C14.7803 40.9585 14.5171 40.4605 14.279 39.9871C13.784 39.0029 13.2262 37.7707 12.7378 36.5523C12.1912 36.443 11.8085 36.2973 11.7164 36.2634C11.348 36.1277 11.0089 35.9709 10.7279 35.8265C10.4556 35.6867 10.1078 35.4901 9.75209 35.2416C9.58092 35.122 9.30213 34.9174 9.00248 34.6347C8.96165 34.5962 8.87646 34.5161 8.76355 34.397C8.67592 34.3186 8.59136 34.2432 8.52097 34.1777C8.28257 33.9558 7.98102 33.6657 7.65645 33.3496C6.99807 32.7084 6.14523 31.863 5.30182 31.017C4.45827 30.1709 3.60374 29.3056 2.93989 28.6205C2.61067 28.2808 2.30994 27.9655 2.07537 27.7138C1.96132 27.5914 1.8379 27.4566 1.72518 27.3281C1.67042 27.2657 1.59103 27.1752 1.50632 27.0704C1.48014 27.038 1.23235 26.7395 0.995629 26.3373C0.229773 25.0364 0.00343614 23.7788 0.00343614 22.6027C0.00274843 22.5366 -0.076418 21.1863 0.565192 19.7126C1.05041 18.5987 1.79786 17.7256 2.26688 17.1936C3.30555 16.0156 5.30658 14.0122 8.92223 10.377C11.4321 7.85338 14.1265 5.13167 14.9155 4.32259C16.4304 2.76922 17.9861 1.10605 20.265 0.359461L20.6407 0.247952ZM46.1295 69.2663L46.507 69.281C46.3741 69.281 46.2452 69.273 46.1203 69.2645C46.1234 69.2647 46.1264 69.2661 46.1295 69.2663Z" fill="#062A12" fill-opacity="0.5"/>
</svg>
