<svg width="68" height="71" viewBox="0 0 68 71" fill="none" xmlns="http://www.w3.org/2000/svg">
<path d="M30.328 2.01461C31.6649 0.684847 33.7286 -0.421859 36.0862 0.156977L36.5618 0.294419C38.7646 1.03989 39.9283 2.91568 40.483 4.29904C41.5952 7.07324 41.5512 10.877 39.9361 14.1963C40.7351 14.436 41.5186 14.7202 42.2807 15.0412C42.6694 13.3691 43.4692 11.5776 44.5322 9.96309C45.7823 8.06467 47.5754 6.26053 49.8919 5.61414C51.1258 5.26993 52.523 5.26276 53.8785 5.82103C55.2189 6.37318 56.2004 7.34599 56.8674 8.4194L56.8834 8.44544L56.898 8.47148L57.01 8.66824L57.0245 8.69428L57.0391 8.72177C57.8153 10.2311 57.4417 11.7022 57.3154 12.1607C57.1167 12.8816 56.7921 13.553 56.4951 14.0892C55.8845 15.1913 55.0248 16.372 54.1491 17.4226C53.267 18.4807 52.2485 19.5505 51.2533 20.3942C51.0189 20.5929 50.7667 20.7932 50.5028 20.9874C50.6989 21.2225 50.8864 21.4644 51.07 21.7093C51.9855 20.8261 53.1017 20.1773 54.1622 19.7533L54.1782 19.7461L54.613 19.5797L54.6276 19.5724C56.9318 18.7115 59.3302 18.2597 61.3981 18.3919C62.4709 18.4605 63.805 18.7086 64.9906 19.461C66.3395 20.3175 67.4311 21.8273 67.4311 23.8201C67.4309 27.0861 64.8586 29.1183 63.1172 30.0701C61.3246 31.0497 59.1128 31.6602 56.8325 31.7845C56.9145 31.7935 56.997 31.8007 57.0783 31.8106C58.635 31.9998 60.4805 32.3959 62.406 32.9477L63.235 33.1936L63.2569 33.1994L63.2772 33.2067L63.5245 33.2906L63.5478 33.2993L63.5725 33.3079C65.2401 33.937 66.2426 35.2172 66.7665 36.3606C67.3159 37.5601 67.4726 38.8489 67.3962 39.976C67.3208 41.0887 66.993 42.3927 66.2021 43.5351C65.3608 44.7502 63.852 45.9189 61.7471 45.9193C60.4653 45.9193 59.102 45.5212 58.0819 45.1627C56.9522 44.7655 55.762 44.2394 54.6785 43.6812C53.6629 43.1579 52.632 42.5496 51.7812 41.9234C51.374 42.8263 50.9259 43.7421 50.43 44.6664C48.2487 48.7323 47.338 52.0345 47.3379 54.4725C47.3378 56.6504 47.1304 58.6456 46.3561 60.5995C45.6783 62.3097 44.6624 63.7455 43.4181 65.1438L43.4108 65.151L43.4036 65.1597L42.8829 65.7283L42.8712 65.7413C40.5011 68.2655 37.6112 70.4524 34.0223 70.4201C30.4444 70.3878 27.5812 68.161 25.2316 65.6024C23.7083 63.9436 22.4535 62.313 21.6987 60.2639C20.9523 58.2368 20.8261 56.1513 20.8682 53.836C20.9221 50.8569 20.2132 48.0975 17.7441 43.4685C17.367 42.7616 17.0107 42.082 16.678 41.4271C16.5407 41.5509 16.4071 41.6656 16.2794 41.7686C15.1704 42.6634 13.7615 43.4137 12.4339 43.9691C11.0928 44.53 9.56628 45.0031 8.13303 45.2017C7.42307 45.3 6.58211 45.3536 5.72882 45.2393C4.93203 45.1326 3.66448 44.8179 2.62065 43.7796C0.337239 41.5075 0.338243 38.4377 1.59963 36.1711C2.7874 34.0368 5.00734 32.5827 7.50762 32.097L8.30612 31.9509C10.1629 31.6343 11.9748 31.4959 13.5683 31.7975C13.6513 31.8132 13.7346 31.8324 13.8185 31.8511C13.8223 31.7445 13.8278 31.6384 13.8345 31.5328C13.7798 31.5383 13.7263 31.5484 13.6731 31.553C12.3254 31.67 10.809 31.5566 9.21515 31.2593C6.90708 30.8282 4.49639 30.1201 2.85337 28.6942C1.93258 27.8948 1.07295 26.7066 0.870944 25.1222C0.673688 23.5727 1.18186 22.2367 1.79016 21.2579L1.80034 21.2406L1.81198 21.2232L1.94433 21.0221L1.97051 20.9845C2.91793 19.6439 4.27769 18.9751 5.38557 18.6538C6.58953 18.3048 7.85571 18.2511 9.00862 18.347C11.3042 18.5382 13.8631 19.3826 15.9813 20.8586C16.4861 21.2103 17.0044 21.6241 17.4866 22.0985C17.7246 21.7304 17.972 21.3728 18.2284 21.025C17.2357 20.52 16.3206 19.8462 15.5508 19.1645C14.5103 18.2431 13.5106 17.1106 12.7437 15.8876C12.0247 14.7409 11.2616 13.1205 11.2616 11.31C11.2617 9.78067 11.7121 7.87913 13.3356 6.55743C14.9696 5.22742 16.9054 5.20477 18.2895 5.52734C20.9517 6.14804 23.295 8.29901 24.8084 10.8471C25.5396 12.0788 26.2213 13.4009 26.5493 14.7374C27.2916 14.4538 28.0595 14.2066 28.8532 13.9923C28.7322 13.7239 28.6261 13.4597 28.5361 13.2038C28.1132 12.0007 27.905 10.706 27.8642 9.47264C27.8233 8.23774 27.9475 6.93302 28.2845 5.70384C28.6102 4.51641 29.2106 3.12644 30.328 2.01461ZM54.3251 31.7165C54.3674 31.7129 54.4094 31.7093 54.4501 31.7064C54.4767 31.7045 54.5034 31.7037 54.5301 31.702C54.4617 31.6917 54.3934 31.6808 54.3251 31.6688C54.325 31.6847 54.3252 31.7006 54.3251 31.7165Z" fill="#062A12" fill-opacity="0.5"/>
</svg>
