<svg width="63" height="63" viewBox="0 0 63 63" fill="none" xmlns="http://www.w3.org/2000/svg">
<path d="M46.5037 1.01114e-05C47.0335 -0.000542768 47.7582 0.0213408 48.323 0.124034C48.3371 0.126598 48.3641 0.131544 48.4021 0.136729C48.4397 0.141856 48.4803 0.146606 48.5183 0.150401C48.5571 0.154266 48.5854 0.156379 48.6003 0.157237H48.5369L48.8308 0.158213C48.8535 0.15892 49.1833 0.163191 49.5544 0.259776C49.6501 0.284686 49.831 0.338478 50.0486 0.43751C50.4703 0.530786 50.9355 0.72814 51.3777 1.12013C51.3941 1.1347 51.4096 1.15037 51.4255 1.16505C51.6225 1.28891 51.8367 1.4467 52.0447 1.65235C52.503 2.10579 52.7381 2.59132 52.8464 2.82521C52.9783 3.10992 53.298 3.81012 53.2712 4.69728C53.2517 5.34316 53.0595 5.86706 52.864 6.24903C52.7887 6.52037 52.6671 6.81727 52.4685 7.11427C52.2174 7.48961 51.9309 7.76166 51.6355 7.95899C51.427 8.20042 51.1834 8.47479 50.9812 8.69435C50.9296 8.75032 50.8849 8.80477 50.8454 8.8506C50.8083 8.92352 50.7687 8.99721 50.7244 9.06935C50.6153 9.24681 50.4413 9.47905 50.199 9.70704C50.0256 9.91169 49.8313 10.0849 49.6247 10.2285C49.6167 10.2374 49.6079 10.2463 49.5994 10.2559C49.587 10.2697 49.5754 10.2832 49.5642 10.2959C49.4399 10.5277 49.2796 10.7495 49.0808 10.9561C48.906 11.2681 48.6792 11.5381 48.4177 11.7637C48.3699 11.8434 48.3182 11.9241 48.2595 12.0039C48.2446 12.0242 48.2269 12.0428 48.2117 12.0625C48.2306 12.2064 48.2415 12.3505 48.2478 12.4854C48.2756 12.5355 48.3014 12.586 48.3259 12.6367C48.4425 12.804 48.5327 12.9727 48.6052 13.1367C48.8032 13.3154 48.9749 13.5194 49.1179 13.7412C49.1526 13.7748 49.1856 13.8088 49.2175 13.8428C49.3897 13.9251 49.564 14.0291 49.7351 14.1563C49.7574 14.1603 49.78 14.1634 49.8025 14.168C49.8788 14.1836 50.0722 14.2272 50.321 14.3262C50.5114 14.2513 50.6878 14.2042 50.8337 14.1748C50.9171 14.1109 51.0045 14.0492 51.0974 13.9922C51.1036 13.9884 51.1098 13.9842 51.116 13.9805C51.1205 13.9753 51.125 13.9701 51.1296 13.9649C51.3369 13.7297 51.5567 13.5471 51.7781 13.4053C51.9285 13.2632 52.0855 13.1452 52.2429 13.0469C52.2876 13.0018 52.3406 12.9524 52.3943 12.8955C52.4356 12.8517 52.4713 12.8082 52.5056 12.7705C52.7127 12.39 52.9986 12.0662 53.3357 11.8115C53.4754 11.6267 53.6453 11.4481 53.8503 11.2832C53.976 11.1821 54.1029 11.0957 54.2292 11.0225C54.3035 10.9184 54.385 10.8131 54.4792 10.7109C54.7052 10.4663 54.9435 10.2811 55.1824 10.1416C55.8491 9.28924 56.7253 9.0221 57.2556 8.93556C57.6551 8.87039 58.0655 8.87568 58.2829 8.87794L58.6335 8.88771C58.7524 8.89348 58.8716 8.90238 58.9851 8.91407C59.0731 8.92315 59.2822 8.94595 59.5173 9.00392C59.5762 9.01843 59.9073 9.0967 60.2829 9.3047C60.6454 9.44909 61.057 9.69044 61.4128 10.0957C61.8193 10.4648 62.1519 10.9687 62.3044 11.6143C62.3744 11.76 62.4489 11.9291 62.5183 12.1104C62.6094 12.2712 62.6656 12.4002 62.6921 12.4658C62.848 12.8511 62.8928 13.2136 62.8933 13.2168C62.9238 13.4164 62.9423 13.6339 62.9538 13.7959C62.9794 14.1544 62.998 14.6176 62.9997 15.0488C63.0017 15.5324 62.9829 16.1332 62.9597 16.5928C62.9484 16.8164 62.9345 17.0538 62.9158 17.2442C62.9111 17.2913 62.8907 17.5117 62.8376 17.7442C62.823 17.8082 62.7852 17.9675 62.7117 18.1602C62.695 18.2037 62.6694 18.2638 62.6365 18.3359C62.5655 18.6353 62.4776 18.9613 62.3796 19.2881C62.3817 19.8854 62.217 20.34 62.1765 20.4453C62.0725 20.7158 61.9387 20.9483 61.7986 21.1455C61.7446 21.4247 61.6482 21.7191 61.487 22.0137C61.3527 22.2591 61.194 22.463 61.03 22.6358C60.955 22.8461 60.8787 22.9912 60.8454 23.0527C60.7715 23.1897 60.6908 23.3071 60.6199 23.4043C60.4455 23.6907 60.2732 23.8737 60.2458 23.9033L60.2419 23.9072C60.1185 24.0405 59.9886 24.1535 59.8611 24.2529C59.663 24.4995 59.4383 24.7656 59.2751 24.9551C59.1602 25.0887 59.0627 25.2092 58.9929 25.2969C58.8275 25.5749 58.6319 25.8012 58.4431 25.9795C58.4402 25.9828 58.4373 25.986 58.4343 25.9893C58.1464 26.3079 57.81 26.5455 57.4529 26.709C56.5601 27.4455 55.7975 27.9394 54.7146 28.4981C54.7107 28.5001 54.7067 28.5019 54.7029 28.5039C54.3159 28.8609 53.9295 29.0283 53.7693 29.0918C53.6086 29.1555 53.4526 29.1983 53.3122 29.2295C53.1171 29.2984 52.9062 29.3511 52.6785 29.3779C52.635 29.4074 52.6041 29.4294 52.5867 29.4404C52.3458 29.5933 52.1229 29.6897 51.9695 29.7481L51.9675 29.749C51.8224 29.8041 51.5899 29.8808 51.2976 29.9238C51.146 29.9461 50.7737 29.9911 50.3025 29.9053C50.2255 29.9122 50.1584 29.9185 50.116 29.9209C49.97 29.9291 49.7888 29.9349 49.6013 29.9395C49.2157 29.9489 48.6967 29.955 48.1335 29.9561C47.4408 29.9573 46.969 29.9655 46.6609 29.9785C46.6082 29.9807 46.5643 29.9843 46.5281 29.9863C46.5127 29.9917 46.4975 29.9958 46.4831 30.001C46.3879 30.0668 46.2876 30.1318 46.1785 30.1904C46.0788 30.244 45.9788 30.2886 45.8806 30.3291C45.7209 30.4649 45.5443 30.5869 45.3513 30.6904C45.2703 30.7339 45.1893 30.7708 45.1101 30.8047C45.0868 30.8246 45.0623 30.8458 45.0369 30.8682C45.1622 30.9997 45.2992 31.1415 45.4402 31.2852C45.706 31.556 45.9647 31.8099 46.1599 31.9961C46.2295 32.0385 46.2984 32.0853 46.3679 32.1358C46.6053 32.1381 47.4137 32.1696 48.1882 32.7315C48.4073 32.8904 48.6169 33.0914 48.8025 33.3291C48.8296 33.3493 48.8575 33.3691 48.8845 33.3906C49.0321 33.5084 49.1839 33.6575 49.3298 33.834C49.6149 34.0285 49.8438 34.2515 50.0251 34.4902C50.2393 34.65 50.4187 34.8263 50.5681 35.0127C50.6759 35.1083 50.7765 35.2118 50.8699 35.3223C51.0504 35.4604 51.2247 35.6278 51.3835 35.8301C51.5791 36.0047 51.7412 36.1958 51.8738 36.3945C52.1498 36.6386 52.3903 36.9434 52.5691 37.292C52.6414 37.3818 52.6955 37.4567 52.7302 37.5088C52.9115 37.7815 53.0222 38.0522 53.0886 38.2539C53.1866 38.4488 53.2533 38.6381 53.3015 38.8106C53.314 38.8226 53.3265 38.8346 53.3386 38.8467L53.5369 39.0635L53.6355 39.1885C53.7683 39.2896 53.9078 39.4119 54.0427 39.5606C54.2873 39.7069 54.5351 39.9024 54.7585 40.1641C54.8557 40.2493 54.9456 40.3388 55.0281 40.4326C55.225 40.6006 55.387 40.7865 55.5222 40.9795C55.8186 41.202 56.0479 41.4604 56.2234 41.7295C56.2965 41.8059 56.3889 41.9044 56.4978 42.0108C56.8581 42.3627 57.3653 42.905 57.7136 43.3662C58.0023 43.6043 58.2279 43.8626 58.3699 44.0899L58.3718 44.0928C58.4951 44.2907 58.6791 44.6442 58.7761 45.1035C58.9164 45.4207 58.9713 45.6849 58.9851 45.749C59.0403 46.006 59.0638 46.2553 59.0759 46.4043C59.0899 46.5771 59.1003 46.7688 59.1062 46.9697L59.112 47.5928C59.1027 48.9317 58.7926 49.9674 58.1335 51.083C58.0661 51.3127 57.9662 51.5518 57.821 51.792C57.5877 52.1782 57.2981 52.4683 56.9939 52.6846C56.6251 53.0893 55.9623 53.7915 55.3845 54.4004C54.7112 55.11 53.9742 55.8792 53.5163 56.3506C53.3539 56.5856 53.145 56.816 52.8738 57.0254C52.7984 57.0836 52.7219 57.1353 52.6462 57.1836C52.6321 57.1961 52.617 57.2094 52.6013 57.2236C52.3975 57.4081 52.1222 57.6343 51.8591 57.834C51.4227 58.3584 50.8461 58.683 50.3191 58.8242C50.2234 58.8499 50.1296 58.8677 50.0398 58.8828C48.5522 59.5236 46.8403 59.5869 45.3152 59.0674C44.8851 58.9208 44.4434 58.713 44.1023 58.5303C43.9933 58.4719 43.878 58.406 43.7615 58.3359C43.3827 58.2086 42.7846 57.9249 42.3113 57.292C42.2163 57.2186 42.1199 57.1388 42.0271 57.0479C41.8229 56.8478 41.6656 56.6382 41.5408 56.4297C41.2933 56.3072 41.0304 56.1366 40.782 55.8955C40.6759 55.7925 40.5812 55.6834 40.4949 55.5713C40.2673 55.3987 40.0466 55.178 39.8464 54.8965C39.8039 54.8366 39.7659 54.7757 39.7292 54.7158C39.7247 54.7115 39.7203 54.7066 39.7156 54.7022C39.6328 54.6246 39.5584 54.5605 39.5056 54.5156C39.1835 54.3248 38.8855 54.077 38.6413 53.7754C38.6126 53.7696 38.5842 53.7641 38.5564 53.7578C38.5527 53.7575 38.5484 53.7582 38.5447 53.7578C37.9893 53.7048 37.3119 53.4792 36.74 52.9258C36.6717 52.8598 36.6088 52.7923 36.5505 52.7246C36.3537 52.5869 36.1629 52.4143 35.9841 52.2002C35.7927 52.0323 35.6152 51.8298 35.4597 51.5879C35.2968 51.482 35.15 51.3661 35.0212 51.2442C34.5343 51.0859 34.132 50.8201 33.8279 50.5186C33.5522 50.2452 33.368 49.955 33.2419 49.6983C33.0744 49.5275 32.871 49.2797 32.7029 48.9473C32.5511 48.752 32.4274 48.5459 32.3298 48.334C32.1806 48.1169 32.058 47.8947 31.9626 47.6826C31.8975 47.5379 31.7014 47.097 31.6531 46.5147C31.6306 46.4948 31.6097 46.4769 31.5915 46.46C31.4917 46.3667 31.3987 46.2659 31.3113 46.1602C31.0288 45.9519 30.8085 45.7168 30.6404 45.4883C30.5165 45.3826 30.4151 45.2849 30.3415 45.2061C30.0899 45.466 29.8583 45.71 29.6843 45.9004C29.5562 46.1253 29.3898 46.3514 29.1706 46.5674C29.1394 46.5982 29.1075 46.6275 29.0759 46.6563C28.9468 46.8801 28.7981 47.065 28.6492 47.2217C28.6431 47.2369 28.6389 47.2533 28.6326 47.2686C28.5912 47.3676 28.5213 47.5138 28.4167 47.6846C28.4135 47.7226 28.41 47.7673 28.406 47.8193C28.3866 48.0746 28.3659 48.4047 28.3474 48.7608C28.3284 49.1262 28.313 49.4935 28.3025 49.8164L28.2878 50.6055C28.2885 50.701 28.2884 50.8758 28.2761 51.0625C28.329 51.5216 28.2828 52.0564 28.029 52.626C27.9378 52.8307 27.8299 53.012 27.7136 53.1748C27.697 53.5655 27.6089 53.864 27.5593 54.0117C27.5026 54.1806 27.4368 54.3258 27.3787 54.4395L27.2439 54.6777C27.1391 54.8457 27.0122 55.0105 26.865 55.167C26.7386 55.4029 26.6031 55.6428 26.489 55.8379C26.3753 56.0323 26.2271 56.2783 26.0769 56.5127C25.9723 56.8012 25.817 57.0959 25.5925 57.374C25.4108 57.5991 25.2099 57.7795 25.0076 57.9248C24.9691 57.9688 24.9382 58.0079 24.9128 58.0361C24.7342 58.2351 24.5236 58.4556 24.3152 58.6611C24.2598 58.7157 24.2115 58.768 24.1697 58.8115C23.9858 59.1068 23.7347 59.3992 23.3894 59.6504C23.2007 59.7877 23.0089 59.8931 22.8201 59.9756C22.6571 60.0963 22.4771 60.223 22.3162 60.335C22.2988 60.3555 22.2835 60.3781 22.2654 60.3984C21.8576 60.855 21.3842 61.1053 20.9949 61.2383C20.937 61.2758 20.8805 61.3098 20.8259 61.3408C20.6307 61.4927 20.4377 61.6073 20.2663 61.6885C19.935 61.8454 19.6164 61.9175 19.3581 61.9512C19.1474 62.0804 18.9344 62.1787 18.7331 62.2451C18.3852 62.3599 18.0658 62.3928 17.8113 62.3955L17.7478 62.4102C17.0692 62.5818 16.2031 62.7212 15.3953 62.7979C14.9617 62.9608 14.5911 62.99 14.4187 62.9971C14.0053 63.014 13.588 62.9487 13.1931 62.8047C12.3716 62.7277 11.4658 62.5796 10.7703 62.4053C10.7327 62.3959 10.6971 62.3889 10.6658 62.3818C10.5021 62.3747 10.272 62.353 10.0144 62.2842C9.93011 62.2617 9.62576 62.1741 9.26732 61.9658C9.21021 61.9605 9.14832 61.9535 9.08373 61.9434C8.94841 61.9222 8.69771 61.8734 8.40307 61.752C8.22571 61.6789 7.93289 61.5379 7.6267 61.2832C7.58801 61.2731 7.54868 61.2638 7.50951 61.252C6.99816 61.0977 6.57956 60.8321 6.25072 60.5049C5.67878 60.3094 5.29529 59.9884 5.0974 59.793L5.09154 59.7871C4.93147 59.6281 4.80012 59.4632 4.69018 59.2979C4.67335 59.2835 4.65776 59.2708 4.64428 59.2588C4.49548 59.1267 4.37195 58.9902 4.26928 58.8604C4.06425 58.674 3.87722 58.4506 3.72143 58.1875C3.40231 57.9186 3.12291 57.5731 2.94018 57.1318C2.86912 57.0265 2.78352 56.9001 2.69115 56.7695C2.59029 56.627 2.49438 56.4968 2.41869 56.3955C2.34701 56.3264 2.28122 56.2559 2.22045 56.1846C1.81117 55.8223 1.55941 55.4036 1.41576 55.042C1.34578 54.8658 1.29934 54.6947 1.26635 54.5342C1.13352 54.333 1.04635 54.1557 0.994863 54.0361C0.885402 53.7819 0.802502 53.4945 0.760488 53.1836C0.748575 53.1473 0.738869 53.1175 0.732168 53.0947L0.603271 52.7174L0.605215 52.3193V52.3135C0.604713 52.3106 0.603808 52.3078 0.603262 52.3047C0.595737 52.2627 0.585423 52.2096 0.572988 52.1514C0.562585 52.1027 0.55204 52.0535 0.540762 52.0068C0.493855 51.9191 0.451072 51.8331 0.442129 51.8145L0.443105 51.8135C0.238274 51.386 0.166311 50.9867 0.140371 50.8301C0.104185 50.6116 0.0778809 50.3514 0.0817772 50.0752V50.0576C0.00464593 49.6777 0.0114647 49.3548 0.0114647 49.3174C0.0114614 49.2922 0.00988362 49.1393 0.030996 48.9268C0.00779339 48.7322 0.00414005 48.5654 0.00951159 48.4404C0.0106509 48.4139 0.0145696 48.388 0.0163475 48.3623C0.00891501 48.2848 0.00456129 48.221 0.00267566 48.1758V48.1738C-0.000571306 48.0949 -0.00477223 47.9315 0.0163475 47.7158C0.0151564 47.66 0.0124579 47.6263 0.0124413 47.6231C0.0120841 47.5531 0.0116329 47.3261 0.0475975 47.0557C0.0508832 46.7581 0.0905503 46.538 0.100332 46.4795C0.106543 46.4424 0.11933 46.3753 0.134512 46.2988C0.134512 46.2988 0.772724 43.8988 1.49976 42.5C2.09211 41.3603 3.32592 39.7647 3.32592 39.7647C3.44087 39.6214 3.5542 39.4819 3.66478 39.3526C3.83852 39.1493 4.23488 38.6876 4.67943 38.3672L4.84838 38.2334C4.91664 38.1769 4.99579 38.1073 5.07787 38.0342C5.08737 38.0213 5.09641 38.008 5.10619 37.9951C5.31831 37.7161 5.55571 37.4976 5.80346 37.3272C5.88037 37.2614 5.96312 37.1972 6.0515 37.1348C6.23553 37.0048 6.42021 36.9051 6.59936 36.8281C6.81609 36.6715 7.02263 36.5639 7.17943 36.4942C7.25234 36.4347 7.32307 36.3808 7.39135 36.334L7.53002 36.2451C7.61263 36.1945 7.83086 36.0635 8.12865 35.958C8.19759 35.9336 8.30287 35.8993 8.43725 35.8672C8.61739 35.7971 8.78753 35.7504 8.9392 35.7188C8.96009 35.7112 8.98444 35.7039 9.00854 35.6943C9.1043 35.6563 9.21871 35.6153 9.33764 35.5723C9.98195 35.1375 10.6258 35.0571 11.0085 35.0557C11.161 34.9737 11.2861 34.9216 11.3621 34.8926C11.5809 34.8092 11.7666 34.7673 11.8757 34.7461C12.0951 34.7036 12.2781 34.6924 12.3747 34.6885H12.6394C12.7591 34.6932 12.9073 34.7054 13.074 34.7344C13.3102 34.708 13.5422 34.6847 13.7624 34.667C14.1196 34.5372 14.4172 34.5036 14.5046 34.4942C14.6572 34.4777 14.7905 34.4737 14.8894 34.4736C14.9562 34.4736 15.039 34.4763 15.1326 34.4824C15.22 34.4493 15.3205 34.4069 15.4216 34.3594C15.581 34.1784 15.7727 34.0049 16.0046 33.8477C16.1736 33.6342 16.3605 33.4587 16.5554 33.3135C16.6986 33.125 16.8563 32.9628 17.0242 32.8242C17.1078 32.7411 17.1988 32.6593 17.2986 32.5801C17.3185 32.5643 17.3401 32.5503 17.3601 32.5352C17.4018 32.4801 17.444 32.4272 17.487 32.377C17.2855 32.1945 17.1265 32 16.9988 31.8027C16.7852 31.6753 16.5216 31.4863 16.2751 31.2139C16.2261 31.1597 16.154 31.0747 16.072 30.9619C16.0379 30.9345 16.0014 30.9085 15.9675 30.8789C15.72 30.6628 15.5291 30.432 15.3816 30.1973C15.2694 30.1433 15.1862 30.0965 15.1374 30.0674C14.8936 29.9216 14.7156 29.7685 14.6072 29.667C14.4571 29.5266 14.3286 29.3768 14.2175 29.2266C14.2014 29.2131 14.1846 29.2004 14.1687 29.1865C14.0805 29.1097 13.9936 29.0253 13.9109 28.9336C13.575 28.725 13.1937 28.4011 12.8953 27.9229C12.8601 27.8665 12.8208 27.7984 12.78 27.7197C12.5833 27.5342 12.397 27.3638 12.2458 27.2295C11.9288 27.0614 11.6178 26.826 11.3542 26.5176C11.3296 26.4937 11.3044 26.4696 11.28 26.4443C11.1294 26.2888 11.0048 26.129 10.9011 25.9688C10.693 25.8298 10.5026 25.6656 10.3347 25.4795C10.2603 25.4076 10.1881 25.3305 10.1189 25.2481C9.86823 25.0646 9.6281 24.8302 9.42162 24.5303C9.37984 24.4696 9.34203 24.4082 9.30639 24.3477C9.06177 24.2135 8.6377 23.9357 8.28881 23.4443C7.8502 23.0709 7.58965 22.6368 7.43725 22.2588C7.38349 22.1896 7.33612 22.1258 7.29564 22.0713C7.23761 21.9931 7.18097 21.91 7.12182 21.8262C6.79593 21.582 6.54941 21.2988 6.38451 21.0459C6.0528 20.5371 5.95407 20.054 5.91869 19.8311C5.82012 19.5924 5.77191 19.3862 5.74584 19.25C5.47335 18.818 5.35249 18.3858 5.31127 18.0068C5.29204 17.9503 5.27168 17.8833 5.24486 17.8115C5.12359 17.4868 4.99209 17.1243 4.864 16.7744C4.56618 16.4132 4.34315 15.9771 4.24193 15.4736C4.13397 15.2945 4.04198 15.102 3.9724 14.8955C3.94534 14.8479 3.91583 14.7938 3.88646 14.7354C3.86969 14.7022 3.62798 14.2542 3.56811 13.6445C3.56276 13.59 3.55742 13.5117 3.55541 13.415C3.40889 13.1802 3.33973 13.0049 3.33471 12.9932C3.27012 12.8421 3.22776 12.7097 3.20189 12.624C3.14804 12.4458 3.10641 12.2645 3.07787 12.0947C3.0757 12.0818 3.07387 12.0647 3.07104 12.0469C3.04975 11.9709 3.03328 11.9051 3.02221 11.8516C2.97267 11.7589 2.91421 11.64 2.8601 11.4971C2.80566 11.3946 2.76104 11.3002 2.72729 11.2168C2.65106 11.0285 2.60324 10.8467 2.57006 10.6826C2.44891 10.3761 2.39695 10.0976 2.37475 9.89649C2.00434 9.33615 1.91249 8.79599 1.88744 8.63478C1.87591 8.5605 1.86835 8.48651 1.86205 8.4131C1.80244 8.30469 1.72784 8.16088 1.66381 7.98731C1.61214 7.8472 1.53006 7.59466 1.49389 7.26856C1.46717 7.0277 1.44739 6.56755 1.61791 6.02833C1.63018 5.89903 1.64457 5.77489 1.66283 5.66017C1.68974 5.49114 1.74634 5.19393 1.85912 4.8672C1.87978 4.77614 1.89959 4.70108 1.91674 4.64552C1.98915 4.4109 2.07598 4.2331 2.12865 4.13282C2.30104 3.8047 2.503 3.57828 2.51732 3.56153C2.62527 3.43534 2.72875 3.33408 2.77025 3.29396C2.84972 3.21712 2.93898 3.13817 3.02611 3.06153C3.22706 2.80911 3.42539 2.63772 3.54564 2.54493C4.08863 2.12614 4.64801 2.00551 4.67748 1.99806C4.95881 1.92697 5.21725 1.90386 5.31127 1.89552C5.57495 1.87214 5.8922 1.8623 6.20678 1.85841C6.58016 1.85377 6.96245 1.86512 7.29662 1.89454C7.40646 1.88446 7.50127 1.87892 7.57689 1.87892L7.80834 1.88868C8.20862 1.92073 8.80165 2.04685 9.3601 2.43751C9.38802 2.44659 9.41627 2.45465 9.44408 2.46388C9.50083 2.48272 9.55605 2.49731 9.60229 2.51075C9.79177 2.52785 10.0976 2.57155 10.4285 2.69923C10.5332 2.73964 10.781 2.84131 11.0681 3.042C11.0727 3.04373 11.0771 3.04612 11.0818 3.04786C11.6141 3.07482 12.0706 3.23248 12.447 3.45118C12.6191 3.51378 12.802 3.59585 12.9841 3.70411C13.3121 3.77848 13.6511 3.9095 13.9773 4.11817C14.0199 4.14542 14.0635 4.17818 14.1101 4.21192C14.3598 4.21577 14.7758 4.25117 15.2312 4.43165C15.3383 4.47408 15.7031 4.62072 16.0886 4.94923C16.2147 4.98653 16.3351 5.02814 16.448 5.07618C16.5142 5.10438 16.6537 5.16454 16.8288 5.26856C16.8375 5.27235 16.8464 5.27703 16.8562 5.28126C16.9331 5.31462 17.0279 5.35164 17.1335 5.39552C17.4148 5.42414 17.6389 5.48103 17.7761 5.52247C17.9489 5.57466 18.1663 5.65413 18.3992 5.77735L18.6365 5.91603L18.7869 6.01759C19.0159 6.06031 19.2871 6.13743 19.5681 6.2754C19.66 6.32056 19.7595 6.37726 19.864 6.44435C20.0085 6.51935 20.1554 6.60914 20.2986 6.71778C20.684 6.8479 21.041 7.05512 21.3513 7.32423C21.6196 7.50965 21.8874 7.75998 22.1179 8.09767C22.2092 8.19401 22.3322 8.32144 22.4685 8.45607C22.5903 8.57642 22.7069 8.68503 22.7995 8.77149C22.9809 8.88702 23.1564 9.02713 23.3201 9.19337C23.4263 9.2812 23.5225 9.37158 23.6081 9.46388C23.7532 9.59909 23.8942 9.7584 24.0232 9.94337C24.0729 9.97613 24.1229 10.0107 24.1726 10.0479C24.4131 10.2277 24.6073 10.4278 24.7654 10.6348C25.0038 10.8126 25.1984 11.0118 25.3572 11.2217C25.4465 11.3051 25.5318 11.3944 25.612 11.4902C25.6856 11.5646 25.7565 11.6441 25.824 11.7285C26.1029 11.9193 26.3298 12.1437 26.5124 12.3838C26.78 12.5834 26.9968 12.8135 27.1687 13.0586C27.3102 13.1736 27.4343 13.2949 27.5427 13.4199C27.5641 13.4412 27.5838 13.4638 27.6042 13.4854C28.0047 13.7637 28.3105 14.1212 28.5203 14.5C28.531 14.5194 28.5404 14.5393 28.5505 14.5586C28.7828 14.8054 29.1423 15.1742 29.6579 15.6846C30.1136 16.1355 30.5257 16.5332 30.8191 16.8086C30.8671 16.8536 30.9111 16.8928 30.949 16.9277C31.0341 16.9828 31.1202 17.0426 31.2048 17.1104C31.4097 17.2746 31.5762 17.4508 31.7146 17.6299C31.7165 17.6313 31.7186 17.6324 31.7204 17.6338C31.8359 17.7192 31.9542 17.822 32.071 17.9404C32.2137 17.7913 32.3712 17.6549 32.5437 17.5361C32.6107 17.3373 32.7139 17.0963 32.8777 16.8467C32.8856 16.6047 32.8748 16.2926 32.8318 15.9326C32.7487 15.237 32.7267 14.1403 32.7322 13.3233C32.735 12.8957 32.7463 12.4611 32.7693 12.1133C32.7794 11.96 32.798 11.724 32.8386 11.4902C32.8456 11.4503 32.8668 11.3284 32.9119 11.1641C32.9213 11.0285 32.9392 10.8865 32.9695 10.7402C32.9735 10.4865 33.0107 10.0647 33.197 9.60353C33.2389 9.49977 33.3655 9.19082 33.6345 8.8506C33.7779 8.48487 33.943 8.09537 34.1033 7.77149C34.144 7.68906 34.1769 7.61452 34.2038 7.55567C34.3188 7.16149 34.5172 6.78154 34.8064 6.44239C34.9065 6.11163 35.0432 5.85245 35.1443 5.69044C35.3079 5.42827 35.497 5.21305 35.6892 5.03712C35.8414 4.85563 36.0021 4.70424 36.1677 4.57911C36.3154 4.32012 36.493 4.0965 36.6794 3.91407C36.822 3.77463 36.9666 3.66151 37.1033 3.56935C37.5017 3.08104 37.9694 2.82033 38.3171 2.68165C38.502 2.45491 38.7349 2.23757 39.0105 2.05372C39.4223 1.70762 39.8086 1.56622 39.8923 1.53419C39.9752 1.50247 40.0571 1.47626 40.1365 1.45314C40.3957 1.28095 40.6195 1.18884 40.7331 1.14552C40.8207 1.11215 40.9032 1.08582 40.9773 1.06446C41.1813 0.958384 41.3633 0.889844 41.4968 0.84962C41.6601 0.800445 41.8127 0.772723 41.946 0.753916C42.2411 0.550672 42.5514 0.409945 42.8494 0.320323C43.1202 0.238865 43.5095 0.16277 43.9646 0.19044C44.1255 0.171022 44.2579 0.165648 44.3425 0.163096C44.3145 0.16395 44.3115 0.163674 44.3425 0.161143C44.3687 0.159009 44.4055 0.155287 44.4499 0.150401C44.5435 0.140103 44.6341 0.127598 44.6912 0.118174C45.2499 0.0259059 45.9565 0.000593439 46.5037 1.01114e-05ZM13.5232 62.833C13.9667 62.9579 14.3085 62.9424 14.3806 62.9395L14.3767 62.8584C14.3322 62.8592 14.288 62.8612 14.2449 62.8613C14.0239 62.8618 13.7801 62.8511 13.5232 62.833ZM15.0369 62.8281C14.8069 62.8446 14.5842 62.8549 14.3767 62.8584L14.3806 62.9395C14.4345 62.9373 14.5848 62.9302 14.779 62.8926C14.8386 62.8811 14.9276 62.86 15.0369 62.8281ZM12.3992 61.9082C12.4073 61.903 12.4171 61.899 12.4255 61.8936C12.4314 61.8898 12.4376 61.8848 12.4451 61.8799C12.4297 61.8899 12.4141 61.8988 12.3992 61.9082ZM9.25072 61.5947C9.25836 61.5942 9.26639 61.5944 9.27416 61.5938H9.26928C9.26335 61.5942 9.25709 61.5943 9.25072 61.5947ZM19.0681 59.2344L19.0662 59.2373L18.3992 60.501L19.1599 59.0625L19.0681 59.2344ZM18.4001 60.4961L18.4021 60.4932L18.6999 59.5723L18.4001 60.4961ZM5.54857 58.9619C5.5525 58.9622 5.55635 58.9636 5.56029 58.9639L5.78002 58.9727C5.70786 58.9727 5.63006 58.9672 5.5476 58.959L5.54857 58.9619ZM5.42455 58.9483C5.43587 58.9496 5.44725 58.9509 5.45873 58.9522L5.45678 58.9473C5.44548 58.9458 5.43403 58.945 5.4226 58.9434L5.42455 58.9483ZM4.61693 58.7315C4.76765 58.7966 5.04366 58.9001 5.40893 58.9463L5.40795 58.9414C5.16458 58.9053 4.89118 58.835 4.614 58.7227C4.61519 58.7255 4.61575 58.7286 4.61693 58.7315ZM20.7097 58.6514C20.7164 58.6781 20.7251 58.7047 20.7312 58.7324C20.7252 58.7045 20.7186 58.6766 20.7117 58.6484L20.7097 58.6514ZM4.57494 58.7139C4.58618 58.7189 4.59874 58.7237 4.61205 58.7295C4.61076 58.7266 4.60943 58.7237 4.60814 58.7207C4.59496 58.7153 4.58228 58.7087 4.56908 58.7031C4.57088 58.7068 4.57314 58.7102 4.57494 58.7139ZM20.7087 58.6494L20.7107 58.6455C20.689 58.5577 20.6622 58.4693 20.6306 58.3799L20.6199 58.3535C20.6519 58.4438 20.6819 58.5428 20.7087 58.6494ZM8.57592 58.5967C8.57031 58.6031 8.565 58.6098 8.55932 58.6162C8.57758 58.5958 8.60369 58.567 8.63354 58.5303C8.61522 58.5525 8.5952 58.5746 8.57592 58.5967ZM47.2527 57.8526L47.3181 57.9258L47.2058 57.794C47.2234 57.8158 47.2384 57.8359 47.2527 57.8526ZM6.14623 57.5674L6.14525 57.5693L6.1433 57.5703C6.10196 57.6883 6.07013 57.805 6.04564 57.9199C6.07333 57.7948 6.10778 57.6766 6.14623 57.5674ZM3.62475 57.4561C3.62764 57.4698 3.63125 57.4838 3.63451 57.4981C3.62266 57.4415 3.61043 57.3838 3.60131 57.3242L3.62475 57.4561ZM22.5085 56.7129C22.5236 56.7354 22.54 56.7579 22.5554 56.7822C22.5405 56.7584 22.5253 56.7346 22.5095 56.7109C22.4855 56.6749 22.4614 56.6382 22.4353 56.6026C22.4597 56.6358 22.4823 56.6739 22.5085 56.7129ZM24.5095 56.3496C24.5254 56.4043 24.542 56.4694 24.5583 56.543C24.5573 56.5381 24.5565 56.5332 24.5554 56.5283L24.5095 56.3496ZM2.04467 55.7803C2.0504 55.7871 2.05858 55.7984 2.07006 55.8115C2.07463 55.8168 2.08205 55.8226 2.08959 55.8311C2.06925 55.8072 2.05187 55.7883 2.03979 55.7734C2.04137 55.7758 2.04307 55.778 2.04467 55.7803ZM40.115 54.8057C40.1241 54.8088 40.1329 54.8133 40.1423 54.8164C40.2502 54.8527 40.4531 54.9109 40.7204 54.9434C40.5195 54.9173 40.3145 54.8703 40.112 54.7998C40.1129 54.8018 40.1141 54.8037 40.115 54.8057ZM39.737 54.6426C39.7543 54.6516 39.7718 54.6625 39.7908 54.6719C39.8484 54.7004 39.9402 54.7407 40.0574 54.7842C40.0564 54.7816 40.0554 54.779 40.0544 54.7764C39.9463 54.7364 39.8396 54.6898 39.7341 54.6377L39.737 54.6426ZM1.0808 53.9766C1.12778 54.0905 1.17879 54.1844 1.2224 54.2608C1.21417 54.1874 1.20868 54.1173 1.2058 54.0508C1.20235 54.0422 1.19847 54.0339 1.19506 54.0254C1.11411 53.9149 1.0458 53.8067 0.989004 53.7041C1.02664 53.8332 1.0605 53.9274 1.0808 53.9766ZM40.1199 53.4815L40.1316 53.5234L40.1326 53.5225L40.1199 53.4815ZM38.3611 53.2471C38.4285 53.2468 38.4992 53.244 38.573 53.2383L38.6101 53.2334C38.5357 53.24 38.4522 53.2454 38.3611 53.2471ZM28.1218 51.8721C28.0869 51.9775 28.0209 52.1494 27.9128 52.3496C27.8816 52.4747 27.8469 52.606 27.8113 52.7373C27.8556 52.6564 27.8931 52.5845 27.9206 52.5225C28.0227 52.2932 28.0847 52.0727 28.1218 51.8721ZM15.2996 52.3555C15.2998 52.3575 15.3013 52.3603 15.3015 52.3623L15.3005 52.3565C15.2991 52.344 15.2982 52.3307 15.2966 52.3184C15.2981 52.3307 15.2982 52.3431 15.2996 52.3555ZM13.6033 51.6904C13.6094 51.6036 13.6127 51.5211 13.6111 51.4434C13.612 51.5279 13.609 51.6104 13.6033 51.6904ZM40.572 51.8057C40.5529 51.8288 40.5354 51.8528 40.5173 51.876C40.5374 51.8502 40.5547 51.8265 40.572 51.8057ZM33.5701 49.9863C33.68 50.1408 33.7896 50.2663 33.8835 50.3594C33.9518 50.427 34.1389 50.6074 34.4372 50.7852C34.3467 50.6944 34.2604 50.5932 34.1765 50.4824C34.1506 50.457 34.1254 50.4308 34.1003 50.4043C34.0355 50.3442 33.9725 50.2818 33.9128 50.2158C33.8904 50.2027 33.8656 50.1892 33.8406 50.1738C33.8139 50.1575 33.7712 50.1301 33.7214 50.0967C33.7044 50.0853 33.6475 50.0453 33.5701 49.9863ZM34.9988 50.1358C35.0421 50.1376 35.087 50.1398 35.1326 50.1397L35.1316 50.1387C35.0867 50.1388 35.0425 50.1374 34.9988 50.1358ZM14.0925 49.8867C14.021 49.9098 13.9258 49.945 13.8162 49.9951C13.8686 49.9893 13.9238 49.9833 13.9783 49.9746C14.0162 49.944 14.0543 49.9147 14.0925 49.8867ZM33.3747 49.6133C33.4711 49.7289 33.5727 49.8271 33.6726 49.9141C33.6353 49.8605 33.6001 49.8053 33.5662 49.749C33.5616 49.7443 33.5572 49.7392 33.5525 49.7344C33.5168 49.6982 33.4819 49.6668 33.4529 49.6387C33.4323 49.6251 33.4122 49.6114 33.3923 49.5977L33.3747 49.6133ZM0.0583397 49.3174L0.0720116 49.5684C0.0755047 49.601 0.0821667 49.6353 0.0876366 49.6719L0.0934959 49.2813C0.0830571 49.2379 0.0753081 49.1951 0.0671288 49.1533C0.0622781 49.2218 0.0583403 49.2772 0.0583397 49.3174ZM9.97045 49.6465C10.0402 49.6566 10.1085 49.6648 10.1755 49.6699C10.1045 49.6644 10.0361 49.656 9.97045 49.6465ZM33.3738 49.6123L33.3913 49.5967C33.3702 49.582 33.3492 49.5676 33.3288 49.5527C33.3485 49.5787 33.3636 49.5997 33.3738 49.6123ZM56.7449 48.5957C56.5057 48.6735 56.2718 48.7198 56.0574 48.7402C56.2953 48.7195 56.525 48.6695 56.7449 48.5957ZM57.1872 48.2549C57.2185 48.2373 57.2508 48.2221 57.282 48.2031L57.281 48.2022C57.25 48.2211 57.2181 48.2374 57.1872 48.2549ZM10.6072 48.166C10.5951 48.1616 10.5833 48.1576 10.572 48.1533H10.5701C10.5822 48.158 10.5951 48.1616 10.6072 48.166ZM11.5749 47.9082C11.5727 47.9069 11.5704 47.9057 11.5681 47.9043C11.476 47.8798 11.404 47.8607 11.3728 47.8506C11.4418 47.8728 11.5094 47.8922 11.5749 47.9082ZM0.0690819 47.7822C0.0698173 47.7904 0.0692081 47.7992 0.0700585 47.8076C0.0724169 47.8309 0.0776952 47.8611 0.0827538 47.8975C0.092682 47.8538 0.103726 47.8132 0.114004 47.7754L0.11498 47.7549C0.103691 47.7015 0.0950423 47.6546 0.0886131 47.6152C0.0805135 47.6707 0.0738502 47.7263 0.0690819 47.7822ZM17.7663 47.7734C17.7148 47.8049 17.638 47.8482 17.5408 47.8975C17.6157 47.8601 17.692 47.8192 17.7683 47.7725L17.7663 47.7734ZM33.8708 47.292C33.8268 47.3808 33.7901 47.4698 33.7576 47.5576C33.8014 47.4434 33.8439 47.3535 33.8747 47.292H33.8708ZM10.5163 47.3584C10.5408 47.3774 10.5618 47.3924 10.5769 47.4033C10.5557 47.3881 10.531 47.3681 10.5017 47.3457C10.5076 47.3503 10.5121 47.3551 10.5163 47.3584ZM34.0085 47.0469H34.0124C34.0434 46.9975 34.0746 46.9509 34.1052 46.9072C34.0718 46.9543 34.0381 46.9997 34.0085 47.0469ZM11.1443 46.6426L11.1462 46.6397L11.2497 46.3643L11.1443 46.6426ZM34.3601 46.5899C34.3987 46.548 34.4329 46.5149 34.4587 46.4893L34.4597 46.4873C34.4253 46.5213 34.392 46.5555 34.3601 46.5899ZM11.3054 46.2383L11.3249 46.3877L11.3259 46.3867L11.3054 46.2383ZM25.7849 46.1406L25.7878 46.1387L25.8113 46.1006L25.7849 46.1406ZM31.2995 46.0049C31.331 46.0288 31.3629 46.053 31.3962 46.0762C31.3547 46.034 31.3134 45.9909 31.2712 45.9483C31.2575 45.9344 31.2439 45.9201 31.2302 45.9063C31.2556 45.9437 31.2785 45.9769 31.2995 46.0049ZM31.0447 45.7871L31.0427 45.7842L31.0388 45.7822C31.0406 45.784 31.0428 45.7854 31.0447 45.7871ZM30.7322 45.4287C30.7471 45.4389 30.7617 45.4513 30.7781 45.4619C30.7809 45.4637 30.7875 45.4668 30.7966 45.4727C30.7602 45.4366 30.7242 45.4017 30.6892 45.3672C30.7033 45.3874 30.7171 45.4083 30.7322 45.4287ZM32.1667 45.4639C32.1499 45.465 32.133 45.466 32.116 45.4668C32.1321 45.466 32.1484 45.4659 32.1648 45.4649C32.1851 45.4635 32.2055 45.4617 32.2263 45.46C32.2066 45.4616 32.1867 45.4626 32.1667 45.4639ZM15.4392 45.2402C15.4028 45.2865 15.3753 45.3241 15.3601 45.3457C15.3874 45.307 15.4243 45.2598 15.4695 45.2041C15.4572 45.2191 15.4465 45.2309 15.4392 45.2402ZM30.3972 45.1475C30.4154 45.1663 30.4336 45.1845 30.4519 45.2022C30.439 45.1799 30.4251 45.1571 30.4119 45.1328C30.407 45.1378 30.402 45.1425 30.3972 45.1475ZM32.406 44.7422L32.4265 44.8526L32.4275 44.8516L32.406 44.7422ZM32.3747 44.5801C32.3962 44.5713 32.4186 44.5622 32.4402 44.5527C32.4191 44.5621 32.3972 44.5708 32.3747 44.5801ZM55.116 44.2988C55.1602 44.2428 55.2021 44.1871 55.241 44.1309C55.1967 44.1953 55.1536 44.2511 55.116 44.2988ZM55.1238 43.5586C55.0748 43.6485 55.0245 43.7314 54.9744 43.8067C54.8818 43.9455 54.7905 44.059 54.7126 44.1465C54.7049 44.1552 54.6986 44.1647 54.6912 44.1729L54.696 44.168C54.702 44.1615 54.7068 44.153 54.7126 44.1465C54.8132 44.0344 54.9007 43.9218 54.9773 43.8076C55.0326 43.7251 55.0801 43.6415 55.1238 43.5586ZM28.3259 44.0713C28.3221 44.069 28.3179 44.0667 28.3142 44.0645L28.3122 44.0635C28.3167 44.0662 28.3214 44.0686 28.3259 44.0713ZM55.365 43.9317C55.3488 43.9594 55.3352 43.9878 55.3191 44.0137C55.3553 43.9555 55.3879 43.897 55.4187 43.8389C55.4014 43.8712 55.3825 43.9015 55.365 43.9317ZM55.6296 43.3203C55.49 43.3377 55.3462 43.3651 55.199 43.4072C55.1668 43.4165 55.1347 43.427 55.1023 43.4375C55.0003 43.4706 54.8971 43.5103 54.7927 43.5576C54.8889 43.5149 54.9911 43.4768 55.0984 43.4424C55.1309 43.432 55.1635 43.4206 55.197 43.4111C55.3331 43.3726 55.4773 43.3428 55.6287 43.3233L55.6296 43.3203ZM55.9929 43.2969C55.8785 43.2964 55.7603 43.3046 55.6384 43.3193L55.6374 43.3223C55.7519 43.3078 55.8705 43.3007 55.9929 43.2998V43.2969ZM55.2517 43.2852C55.2473 43.296 55.2443 43.3071 55.24 43.3174C55.2542 43.2828 55.2674 43.2483 55.28 43.2139C55.2705 43.2388 55.261 43.2625 55.2517 43.2852ZM56.0115 43.2998C56.0222 43.2998 56.0329 43.2987 56.0437 43.2988C56.033 43.2986 56.0223 43.298 56.0115 43.2979V43.2998ZM52.1326 40.8076C52.1244 40.8125 52.1163 40.8173 52.1081 40.8223L52.1326 40.8076ZM4.57982 40.5703L4.62377 40.7285C4.60289 40.6604 4.58179 40.5832 4.56322 40.4981C4.56852 40.522 4.57382 40.5461 4.57982 40.5703ZM6.81713 40.0567C6.83957 40.1003 6.86417 40.1436 6.88939 40.1875C6.86482 40.1443 6.84158 40.1003 6.81908 40.0557L6.81713 40.0567ZM6.49291 38.7363C6.49226 39.1379 6.57671 39.589 6.81713 40.0567L6.81908 40.0557C6.64261 39.7059 6.53074 39.3156 6.50072 38.9092L6.49291 38.7363ZM50.5378 39.2686C50.5716 39.2488 50.6061 39.2293 50.6423 39.21L50.6413 39.209C50.6067 39.2275 50.5726 39.2482 50.5378 39.2686ZM50.4197 38.9443C50.4499 38.9113 50.4775 38.8762 50.5056 38.8428H50.5037C50.4648 38.8889 50.4375 38.9249 50.4197 38.9443ZM50.6453 38.6651C50.6543 38.6525 50.6639 38.6405 50.6726 38.6279H50.6706C50.6618 38.6405 50.6539 38.6532 50.6453 38.6651ZM10.3962 38.1426C10.4111 38.1685 10.4262 38.1939 10.4402 38.2197C10.425 38.1908 10.4123 38.1638 10.3992 38.1406L10.3376 38.0381C10.359 38.0724 10.3765 38.1084 10.3962 38.1426ZM49.8328 36.8164C49.8167 36.8595 49.8022 36.9024 49.7849 36.9434C49.8031 36.9005 49.82 36.8579 49.8357 36.8154L49.8328 36.8164ZM48.2244 36.9336C48.2476 36.913 48.2733 36.8919 48.2995 36.8701L48.2976 36.8672C48.2726 36.8883 48.2491 36.9114 48.2244 36.9336ZM49.0349 36.4131C48.7856 36.5197 48.5352 36.6671 48.2976 36.8672L48.2995 36.8701C48.4785 36.7219 48.7252 36.5495 49.0349 36.4131ZM49.8982 36.6211L49.9011 36.6201C49.9094 36.5917 49.9163 36.5633 49.9236 36.5352C49.9158 36.5643 49.9066 36.5927 49.8982 36.6211ZM47.237 36.043C47.241 36.0358 47.2449 36.0287 47.2488 36.0215C47.2503 36.0187 47.2512 36.0155 47.2527 36.0127C47.247 36.0233 47.2425 36.0331 47.237 36.043ZM12.4109 34.7471C12.4 34.7475 12.3889 34.7484 12.3777 34.749C12.1806 34.7594 11.9267 34.7934 11.6423 34.8858C11.5626 34.9117 11.4692 34.9447 11.3679 34.9893C11.8153 34.9017 12.3305 34.8224 12.8386 34.7608C12.6971 34.7449 12.5539 34.7412 12.4109 34.7471ZM14.8894 34.5254C14.715 34.5254 14.4387 34.5426 14.1101 34.6406C14.2418 34.6315 14.3582 34.6218 14.4451 34.6133C14.5533 34.5884 14.6497 34.5709 14.7195 34.5596C14.7945 34.5474 14.8717 34.5366 14.949 34.5274C14.9281 34.5269 14.908 34.5254 14.8894 34.5254ZM44.5759 34.5772L44.5788 34.5752C44.5883 34.5579 44.5983 34.5408 44.6081 34.5234L44.6062 34.5225C44.5966 34.5394 44.5864 34.5575 44.5759 34.5772ZM44.9499 31.8379C44.9469 31.7592 44.939 31.6804 44.9294 31.6016H44.9275C44.9383 31.6837 44.947 31.7626 44.9499 31.8379ZM44.821 31.1104C44.8691 31.2726 44.9028 31.4303 44.9236 31.5791L44.9265 31.5801C44.9059 31.4203 44.8724 31.2612 44.8249 31.1045C44.8237 31.1065 44.8223 31.1084 44.821 31.1104ZM18.6579 29.8242C18.4849 30.0554 18.3602 30.2896 18.2732 30.5205C18.3607 30.2982 18.4648 30.1089 18.5671 29.9541L18.5681 29.9531C18.5985 29.9072 18.6286 29.8642 18.6579 29.8242ZM15.9343 29.9365L16.1218 29.9483C16.0537 29.9462 15.9835 29.9406 15.9119 29.9336C15.9193 29.9344 15.9268 29.9358 15.9343 29.9365ZM14.5652 29.4756C14.7084 29.6186 14.8643 29.7458 15.031 29.8555C14.9081 29.741 14.7931 29.6377 14.6999 29.5567C14.6545 29.5315 14.6102 29.5037 14.5652 29.4756ZM52.4031 29.4375C52.0264 29.5495 51.4575 29.6913 51.0037 29.7647C50.9098 29.795 50.8477 29.8148 50.8298 29.8193C50.8024 29.8264 50.7748 29.8301 50.7488 29.8359C50.8532 29.8437 50.9237 29.8438 50.948 29.8438C51.6524 29.8437 52.168 29.5921 52.4412 29.4268L52.4031 29.4375ZM18.4314 29.4512C18.4239 29.4605 18.4182 29.4711 18.4109 29.4805C18.4186 29.4705 18.4269 29.4615 18.4343 29.4522C18.4984 29.3718 18.547 29.3152 18.571 29.2891C18.5219 29.3427 18.4748 29.3966 18.4314 29.4512ZM43.6589 29.3223L43.6628 29.3262C43.6573 29.3156 43.6509 29.3055 43.6453 29.2949C43.6499 29.3037 43.6541 29.313 43.6589 29.3223ZM51.1619 28.8945C51.1774 28.9035 51.1938 28.9107 51.2087 28.919C51.1766 28.9014 51.144 28.8829 51.1111 28.8633C51.1304 28.8749 51.147 28.886 51.1619 28.8945ZM13.1345 28.0596C13.3027 28.2976 13.4897 28.4856 13.6726 28.6328C13.6472 28.5965 13.6226 28.5593 13.5984 28.5215C13.4762 28.3946 13.3142 28.2342 13.1345 28.0596ZM44.5788 28.5264C44.5768 28.5222 44.5751 28.5179 44.573 28.5137L44.49 28.3594C44.5107 28.3954 44.5421 28.4527 44.5788 28.5264ZM14.9939 27.9619C14.9544 28.1568 14.9389 28.3375 14.9353 28.4971C14.9423 28.2684 14.972 28.0668 15.0066 27.9072L14.9939 27.9619ZM47.4675 28.3574L47.5486 28.4971L47.5466 28.4932C47.5008 28.4196 47.4591 28.3433 47.4197 28.2656C47.4355 28.2969 47.4511 28.3277 47.4675 28.3574ZM44.8591 28C44.867 28.0137 44.8747 28.0313 44.8855 28.0508L44.8591 27.9981V28ZM47.7478 27.8975C47.7557 27.8363 47.7625 27.7735 47.7673 27.709L47.7683 27.6924C47.7639 27.757 47.7574 27.8256 47.7478 27.8975ZM47.0984 27.0703L47.0994 27.0762C47.0972 27.0395 47.0969 27.0027 47.0964 26.9658C47.0967 27.0004 47.0965 27.0353 47.0984 27.0703ZM13.2595 25.5078C13.268 25.5036 13.2774 25.5014 13.2859 25.4971L13.5017 25.376C13.4621 25.4002 13.3779 25.449 13.2595 25.5078ZM8.78686 23.8067C8.82543 23.8389 8.8873 23.8866 8.96752 23.9424C8.92073 23.8962 8.87489 23.8527 8.83178 23.8106C8.79717 23.7921 8.76239 23.7738 8.72826 23.7539C8.74662 23.7703 8.76544 23.7888 8.78686 23.8067ZM59.4099 23.834V23.832L59.3738 23.7686L59.4099 23.834ZM61.8415 20.832C61.8373 20.8813 61.8318 20.931 61.8249 20.9815C61.961 20.7718 62.0396 20.591 62.0818 20.4815L61.9919 20.4463C61.9412 20.5825 61.8909 20.712 61.8415 20.832ZM62.2478 19.71C62.1651 19.9655 62.0784 20.2144 61.9929 20.4443L62.0828 20.4795C62.0855 20.4722 62.0952 20.4479 62.1072 20.4131C62.1175 20.3831 62.1417 20.3107 62.1667 20.2139C62.1822 20.154 62.228 19.9656 62.2478 19.71ZM32.49 17.708C32.3912 17.7827 32.2911 17.8679 32.1931 17.9668C32.2297 17.9473 32.2661 17.9288 32.3025 17.9111C32.376 17.8351 32.4381 17.767 32.49 17.708ZM6.19311 17.0322C6.18724 17.0412 6.18303 17.0509 6.17748 17.0596C6.18577 17.0467 6.19496 17.0339 6.20385 17.0205L6.20189 17.0195C6.1988 17.0242 6.19555 17.0285 6.19311 17.0322ZM6.22143 16.9912L6.22338 16.9922C6.23365 16.9771 6.24459 16.9619 6.25561 16.9463C6.24334 16.9636 6.23062 16.9777 6.22143 16.9912ZM49.1218 16.7832L49.1179 16.9365C49.1179 16.8805 49.1204 16.8207 49.1247 16.7578L49.1218 16.7832ZM28.2156 16.6836L28.2165 16.6846C28.2185 16.6795 28.2195 16.674 28.2214 16.669C28.2195 16.674 28.2173 16.679 28.2156 16.6836ZM4.43822 15.7578C4.52416 16.0299 4.63561 16.2478 4.72436 16.3955C4.68445 16.2858 4.64486 16.1797 4.60814 16.0781C4.58343 16.0098 4.55992 15.943 4.53686 15.8789C4.50294 15.8395 4.4702 15.7991 4.43822 15.7578ZM25.2654 14.9609C25.2169 15.0199 25.1811 15.0638 25.1599 15.0869C25.1977 15.0457 25.233 15.0037 25.2673 14.9619C25.2841 14.9415 25.3002 14.9209 25.3162 14.9004C25.2988 14.9227 25.2809 14.9421 25.2654 14.9609ZM48.4109 15.0801V15.082C48.4439 14.9968 48.4706 14.9127 48.4939 14.8311C48.4652 14.9277 48.4374 15.0116 48.4109 15.0801ZM52.741 14.4317C52.7384 14.4304 52.736 14.4286 52.7341 14.4277L52.6785 14.4024C52.6938 14.409 52.7147 14.4197 52.741 14.4317ZM53.5935 14.2647L53.7439 14.3486L53.7458 14.3496C53.6952 14.3186 53.6447 14.2896 53.5945 14.2627L53.5935 14.2647ZM53.5925 14.2637V14.2617C53.5757 14.2527 53.5585 14.2449 53.5417 14.2363C53.5593 14.2452 53.5759 14.2549 53.5925 14.2637ZM4.72436 14.0742H4.72631L4.84252 14.0274L4.84154 14.0264L4.72436 14.0742ZM61.5574 13.1963C61.5127 13.2929 61.4619 13.3868 61.407 13.4785C61.463 13.3851 61.5135 13.2912 61.5574 13.1963ZM45.6326 13.2149H45.6345C45.6594 13.2023 45.6848 13.19 45.7107 13.1777C45.6849 13.19 45.6585 13.2016 45.6326 13.2149ZM46.03 13.0479C45.9253 13.0831 45.8183 13.1268 45.7107 13.1777C45.8098 13.131 45.9168 13.0866 46.03 13.0479ZM3.31908 12.6641C3.36846 12.7878 3.44323 12.9484 3.55541 13.1231C3.54107 13.0747 3.52244 13.0212 3.50365 12.9649C3.49554 12.9533 3.48706 12.9422 3.47924 12.9307C3.418 12.8407 3.36575 12.7508 3.31908 12.6641ZM46.5427 11.8809C46.454 11.8717 46.3694 11.86 46.2898 11.8447H46.2878C46.3752 11.8615 46.4605 11.8723 46.5427 11.8809ZM48.6413 11.3359C48.6371 11.3413 48.6331 11.347 48.6287 11.3525C48.6261 11.3558 48.6234 11.3591 48.6208 11.3623C48.6056 11.3994 48.5882 11.4361 48.571 11.4736C48.642 11.3982 48.7053 11.3219 48.7624 11.2461C48.7225 11.2776 48.6818 11.3071 48.6413 11.3359ZM33.0408 11.044C33.0413 11.0495 33.0422 11.055 33.0427 11.0606C33.0442 11.0174 33.0446 10.9754 33.0476 10.9346C33.0446 10.9715 33.0423 11.008 33.0408 11.044ZM47.071 10.6582C47.0444 10.6507 47.0192 10.6456 46.9968 10.6387H46.9949C47.0201 10.6465 47.0461 10.6512 47.071 10.6582ZM33.4802 9.25782C33.3177 9.50996 33.243 9.70567 33.2322 9.73243C33.1425 9.95437 33.0831 10.186 33.0525 10.4219C33.0961 10.2852 33.1507 10.1455 33.2185 10.0059C33.2255 9.99147 33.2341 9.97722 33.2419 9.96192C33.3099 9.73729 33.3946 9.49184 33.4802 9.25782ZM22.6228 10.1524C22.6263 10.1222 22.6301 10.0927 22.6326 10.0635H22.6296C22.627 10.0935 22.6262 10.1232 22.6228 10.1524ZM58.072 10.0791C58.0778 10.0821 58.084 10.084 58.0896 10.0869C58.0836 10.0839 58.078 10.0802 58.072 10.0772V10.0791ZM58.0701 10.0781V10.0762C58.0559 10.0691 58.0412 10.0635 58.0271 10.0567C58.0419 10.0639 58.0562 10.0711 58.0701 10.0781ZM22.6306 10.0508H22.6335C22.6366 10.0128 22.6388 9.97571 22.6404 9.93946C22.6386 9.97725 22.6337 10.0142 22.6306 10.0508ZM3.87963 8.39259C3.93055 8.40875 3.98206 8.42309 4.03393 8.43653C3.98439 8.42378 3.93424 8.40786 3.88256 8.39161L3.87963 8.39259ZM3.87963 8.39259L3.88256 8.39161C3.86744 8.38685 3.85096 8.38302 3.83568 8.37794C3.85003 8.38274 3.8652 8.388 3.87963 8.39259ZM16.2458 7.1211C16.2495 7.11702 16.2528 7.11248 16.2566 7.10841L16.2576 7.10646C16.2545 7.10976 16.2512 7.11523 16.2458 7.1211ZM16.3747 6.63478C16.3709 6.63783 16.3668 6.64171 16.362 6.64552C16.4325 6.59129 16.4829 6.55405 16.5046 6.53907L16.5066 6.53712C16.482 6.55403 16.4342 6.58806 16.3747 6.63478ZM2.68529 6.25782C2.72964 6.34855 2.77961 6.43958 2.83666 6.53028C2.9502 6.7108 3.08828 6.89123 3.26049 7.06251C3.14132 6.94383 2.9882 6.76349 2.84057 6.53028C2.7874 6.4463 2.73431 6.35598 2.68529 6.25782ZM49.5378 6.09181L49.5369 6.09278C49.547 6.09003 49.6061 6.07311 49.6872 6.04493C49.6872 6.04493 49.6909 6.04277 49.6931 6.042C49.6282 6.0629 49.5751 6.08167 49.5378 6.09181ZM35.1111 6.03517C35.1191 6.02326 35.1265 6.01091 35.1345 5.99903C35.1416 5.97902 35.1483 5.95869 35.156 5.93849C35.141 5.96913 35.1262 6.00143 35.1111 6.03517ZM17.5124 5.55274C17.826 5.67816 18.1887 5.8281 18.49 5.95509C18.4041 5.89475 18.3346 5.84939 18.2898 5.82325C18.219 5.78199 18.1558 5.75007 18.1072 5.72657L18.0105 5.68263L17.8015 5.60939C17.7829 5.604 17.6666 5.5696 17.487 5.542C17.4955 5.54538 17.504 5.54935 17.5124 5.55274ZM17.4363 5.74122C17.452 5.75679 17.4684 5.77188 17.4841 5.7881C17.4672 5.77069 17.4521 5.75387 17.4372 5.73927L17.4363 5.74122ZM17.4353 5.74024L17.4372 5.73927C17.4243 5.72651 17.4123 5.71372 17.4011 5.70314C17.3906 5.69315 17.379 5.68419 17.3689 5.67481C17.3913 5.69571 17.4129 5.71807 17.4353 5.74024ZM15.7156 4.86036C15.7114 4.8596 15.7071 4.85917 15.7029 4.85841C15.6784 4.85405 15.6493 4.8495 15.6169 4.84474C15.5915 4.841 15.562 4.83685 15.529 4.83302C15.5923 4.8403 15.6544 4.84973 15.7156 4.86036ZM14.2761 4.34181C14.4802 4.38712 14.645 4.43632 14.7331 4.4629C14.9962 4.54225 15.2863 4.64405 15.5603 4.75685C15.6276 4.78456 15.6952 4.81139 15.7576 4.83595C15.427 4.59081 15.1412 4.48328 15.1013 4.46778C14.8105 4.35234 14.5056 4.28746 14.196 4.27345C14.223 4.29445 14.2485 4.31875 14.2761 4.34181ZM3.63061 4.1836C3.36013 4.27252 3.08997 4.40938 2.82787 4.60353C3.05251 4.43929 3.32023 4.28973 3.63061 4.1836ZM13.3376 3.95021C13.3605 3.96864 13.3824 3.98844 13.405 4.00782C13.4471 4.02812 13.492 4.05315 13.5417 4.07618C13.6537 4.12806 13.7645 4.1758 13.864 4.21778C13.8781 4.21701 13.8911 4.21538 13.9031 4.21485C13.8699 4.19193 13.8431 4.17171 13.822 4.15821C13.6359 4.03919 13.4718 3.96619 13.3503 3.91993L13.3376 3.95021ZM52.6257 4.02638C52.6223 4.01967 52.6195 4.01259 52.616 4.00587L52.5056 3.81349L52.6257 4.02638ZM13.3357 3.94825L13.3474 3.91896C13.3178 3.90774 13.2853 3.89644 13.2507 3.88478C13.2788 3.90578 13.3079 3.92589 13.3357 3.94825ZM10.1619 3.55079C10.1547 3.53712 10.1486 3.52305 10.1413 3.50978L10.0554 3.36329C10.0888 3.41675 10.1246 3.4797 10.1619 3.55079ZM4.93627 2.5381C4.93299 2.53793 4.92975 2.53727 4.9265 2.53712L4.7849 2.53321C4.83549 2.53321 4.88607 2.53557 4.93627 2.5381ZM7.87475 2.10255C7.87042 2.10231 7.86624 2.10081 7.86205 2.1006L7.73021 2.09669C7.78048 2.09669 7.82884 2.10037 7.87475 2.10255ZM46.7693 1.92189C46.7536 1.94952 46.7376 1.98153 46.7195 2.01661C46.7542 1.95143 46.7899 1.88497 46.8308 1.81935L46.7693 1.92189ZM40.2165 1.54103C40.1937 1.5573 40.1711 1.57441 40.1482 1.59181C40.1718 1.58748 40.1956 1.58389 40.2195 1.58009C40.2479 1.56507 40.2776 1.55064 40.3074 1.53517C40.3187 1.52456 40.3302 1.51423 40.3415 1.50392C40.2982 1.51584 40.2565 1.52777 40.2165 1.54103ZM40.4822 1.37208C40.488 1.37102 40.4939 1.37017 40.4997 1.36915C40.5089 1.36196 40.5179 1.35469 40.5271 1.34767C40.5123 1.35568 40.4972 1.36362 40.4822 1.37208ZM44.2087 1.36915C44.2026 1.36449 44.1979 1.35935 44.1941 1.35646C44.1699 1.33828 44.1527 1.32646 44.1482 1.32325C44.16 1.33158 44.1799 1.34807 44.2087 1.36915ZM42.6921 0.490244C42.6801 0.494875 42.5367 0.549125 42.3572 0.651377C42.3371 0.662806 42.314 0.679178 42.2859 0.696299C42.2936 0.693718 42.3015 0.691161 42.3093 0.688487C42.4459 0.641841 42.5844 0.59815 42.7175 0.556651L42.6921 0.490244ZM43.1931 0.370127C43.0288 0.39285 42.906 0.424437 42.8513 0.439463C42.7666 0.462768 42.7083 0.483882 42.6941 0.489268L42.7195 0.555674C42.7749 0.538386 42.8295 0.521706 42.8826 0.50587C42.888 0.503151 42.8932 0.500487 42.8982 0.498057C43.0084 0.444039 43.1116 0.401783 43.2009 0.369151L43.1931 0.370127Z" fill="#062A12" fill-opacity="0.5"/>
</svg>
