<svg width="66" height="63" viewBox="0 0 66 63" fill="none" xmlns="http://www.w3.org/2000/svg">
<path d="M31.9402 0C33.492 9.0364 27.3537 1.01978 31.9402 1.03488C34.222 1.0424 45.7115 24.132 46.4378 24.149C46.7716 24.1569 47.102 24.1679 47.3764 24.1941C47.4594 24.2021 47.8343 24.2344 48.2625 24.3618C48.4459 24.4164 49.0322 24.5976 49.6352 25.0717C50.3506 25.6341 51.1397 26.6803 51.1741 28.1211L51.1711 28.4143C51.1649 28.5478 51.1473 28.8163 51.0742 29.1418C51.0378 29.3041 22.2136 64.7746 48.6829 29.1418C48.5604 29.4166 48.3493 29.56 47.6702 30.1213C46.8782 30.7758 47.7423 32.4662 46.4408 32.25C46.2241 32.2456 22.7753 61.0732 45.4943 32.2363C44.4124 32.2257 27.4499 18.5771 24.8304 18.5709C20.2392 18.5601 32.4466 9.38839 31.9402 0C35.4521 0 37.606 2.35085 37.7061 2.46892C38.1299 2.96896 38.6349 3.66149 39.2528 4.53093C39.536 4.92941 39.7573 5.23566 39.9263 5.47222C40.3299 5.80647 40.6465 6.19652 40.8807 6.61844C41.0013 6.77882 41.1132 6.95272 41.214 7.14008C41.2891 7.27972 41.3518 7.41838 41.4059 7.55385C41.4224 7.57821 41.4389 7.6048 41.4573 7.63131C41.46 7.63523 41.4625 7.63923 41.4652 7.64308C41.6722 7.83228 41.8703 8.05107 42.0507 8.30689C42.1334 8.42432 42.2057 8.5432 42.2712 8.65987C42.336 8.7314 42.3981 8.80705 42.4591 8.88539C42.6471 9.08564 42.8063 9.29375 42.9388 9.50017C43.0526 9.67752 43.1936 9.93604 43.3156 10.2571C43.3364 10.2864 43.3566 10.3166 43.3779 10.3464C43.5101 10.5309 43.637 10.7023 43.7428 10.8425C44.1409 11.1962 44.4554 11.6185 44.6804 12.074C45.054 12.4637 45.3081 12.8724 45.4755 13.2732C45.6381 13.5252 45.8574 13.8582 46.0877 14.1988C46.3366 14.5669 46.5782 14.9173 46.7523 15.1616C46.7691 15.1853 46.7852 15.2071 46.7998 15.2273C46.8315 15.2618 46.8619 15.2958 46.8908 15.3293C47.0494 15.134 47.2063 14.9474 47.3615 14.7773C47.4767 14.6511 47.6211 14.5016 47.7858 14.3459C48.2596 13.785 48.8756 13.3659 49.561 13.129C49.717 13.0752 49.8701 13.0359 50.017 13.0035C50.4867 12.7995 50.8704 12.7362 50.915 12.728C51.3618 12.645 51.7777 12.6505 51.8327 12.6506C51.887 12.6506 52.3031 12.6449 52.7505 12.728C52.7875 12.7349 53.0793 12.7825 53.4616 12.9271C53.4959 12.9349 53.5299 12.945 53.5644 12.9535C54.0312 13.0083 54.5594 13.1443 55.0885 13.4242C55.1591 13.4616 55.2694 13.5239 55.404 13.6124C55.8452 13.8401 56.2872 14.1771 56.6867 14.6704C56.7727 14.7766 56.85 14.8842 56.9211 14.991C57.0489 15.1078 57.1755 15.2362 57.2979 15.3793C57.5254 15.6455 57.6993 15.9198 57.8339 16.1882C57.9784 16.3834 58.1124 16.5947 58.2285 16.8207C58.4731 17.0695 58.7035 17.3691 58.907 17.7316C59.0061 17.9082 59.0867 18.0831 59.1522 18.2532C59.2513 18.3509 59.3487 18.4566 59.444 18.5709C59.7579 18.9475 59.968 19.3367 60.1086 19.7053C60.3801 19.9337 60.6486 20.2204 60.8849 20.5819C61.0359 20.8129 61.1539 21.0456 61.2469 21.2742C61.3961 21.4954 61.5233 21.7303 61.6257 21.9762L61.7849 22.1341C61.8454 22.1977 62.1414 22.5057 62.4001 22.9714C62.4136 22.9958 62.4314 23.0311 62.4544 23.0754C62.6812 23.3801 62.8443 23.6869 62.9608 23.9804C63.1858 24.209 63.3925 24.4753 63.571 24.7834C63.6447 24.8851 63.7095 24.9887 63.7698 25.0913C63.8431 25.1806 63.9155 25.2735 63.9834 25.3727C64.0182 25.4235 64.0487 25.4765 64.0803 25.5276C64.3278 25.8597 64.4975 26.1966 64.6154 26.5101C64.6191 26.5164 64.6224 26.5232 64.6263 26.5297C64.7529 26.6434 64.9832 26.8616 65.2029 27.1641C65.3358 27.3472 65.7181 27.8944 65.8862 28.7113C65.9466 29.0046 65.975 29.3337 65.9604 29.6811C66.0091 30.0724 66.0182 30.499 65.9614 30.9518C65.7876 32.3358 65.0836 33.3509 64.3849 34.0238C63.7058 34.6778 62.8963 35.1538 61.8868 35.4171C61.8239 35.4335 61.7603 35.4477 61.6969 35.4622C61.692 35.7638 61.6861 36.0567 61.685 36.3084C61.681 37.2374 61.6377 38.1461 61.5564 39.0342C61.585 39.2203 61.5965 39.3724 61.601 39.4764C61.6269 40.0815 61.5199 40.6883 61.2865 41.2501C61.2799 41.266 61.2654 41.2969 61.2459 41.3413C60.9568 42.9513 60.5194 44.4892 59.9187 45.9576C59.8803 46.2992 59.7941 46.6938 59.6141 47.1087C59.4666 47.4483 59.2488 47.8113 58.9475 48.1559C58.9009 48.2541 58.8504 48.3554 58.7912 48.4569C58.6906 48.6296 58.5544 48.8231 58.3858 49.0217C58.2867 49.274 58.1583 49.5322 57.9872 49.7884C57.879 49.9505 57.7632 50.0981 57.643 50.2336C57.6011 50.312 57.5555 50.3903 57.5065 50.4689C57.2864 50.8221 57.0301 51.1129 56.7589 51.3533C56.6152 51.6221 56.4347 51.8893 56.206 52.1446C56.0119 52.3614 55.8066 52.5421 55.5998 52.6957C55.4126 53.0092 55.1663 53.3216 54.8422 53.6183C54.7931 53.6633 54.7435 53.7063 54.6939 53.7477C54.5431 53.9132 54.3872 54.0568 54.232 54.1811C54.0433 54.4016 53.8435 54.5863 53.6465 54.74C53.3749 54.9808 53.0974 55.1684 52.8188 55.3126C50.1709 57.5692 47.3084 59.3086 44.0989 60.6074C44.0005 60.6772 43.9072 60.7387 43.82 60.7908C43.7173 60.852 43.4284 61.0231 43.0298 61.1604C42.9928 61.1732 27.922 62.7639 27.4157 61.7487C27.4157 61.7487 10.7505 43.0845 0.0721671 31.1254C7.20895 24.1549 12.5477 18.9406 18.1506 13.4683C22.3181 9.3979 26.6318 5.18476 31.9402 0ZM32.2686 61.1967H32.2923C32.2888 61.1936 32.285 61.191 32.2815 61.1879C32.2773 61.191 32.2728 61.1936 32.2686 61.1967ZM0.0721671 31.1254C10.7505 43.0845 27.4157 61.7487 27.4157 61.7487C27.0659 61.3867 11.182 60.3978 10.9866 59.924C10.9465 59.8268 10.9117 59.7305 10.8808 59.6357C10.8128 59.464 10.7745 59.343 10.7621 59.3014C10.646 58.9099 10.6122 58.5737 10.6019 58.4719C10.5717 58.1736 10.5676 57.8792 10.5722 57.6433L10.5821 57.3864C10.6169 56.775 10.7402 56.0842 11.0578 55.3597C11.1298 55.1955 11.208 55.0396 11.2892 54.892C11.2648 54.8764 11.2395 54.8612 11.2151 54.8449C10.9876 54.6935 10.6339 54.4268 10.2943 54.0105C10.2497 53.9558 10.1986 53.8889 10.143 53.8115C10.0068 53.6923 9.8716 53.5609 9.74346 53.4124C9.57912 53.2544 9.43329 53.0865 9.30435 52.9124C9.12745 52.7716 8.95348 52.6093 8.78612 52.4211C8.4301 52.1141 8.11845 51.7394 7.87527 51.2975C7.84431 51.2412 7.81579 51.1847 7.78824 51.1288C7.57026 50.9118 7.36767 50.6613 7.19188 50.3718C7.12585 50.3042 7.0611 50.2343 6.99903 50.161C6.77866 49.9009 6.61416 49.6365 6.48772 49.3884C6.29789 49.1614 6.17374 48.9691 6.11191 48.8658C5.9975 48.6745 5.90486 48.481 5.82708 48.2902C5.59216 47.9004 5.43862 47.4851 5.34841 47.0675C5.20392 46.7678 5.02801 46.3757 4.87963 46.0223C4.82434 45.9476 4.77132 45.8721 4.72238 45.7958C4.65176 45.6857 4.44789 45.3627 4.29217 44.9114C4.27893 44.873 4.26495 44.8264 4.24865 44.7731C4.06153 44.3386 3.94076 43.8403 3.92822 43.2808C3.78282 42.7543 3.65596 42.2412 3.54054 41.6904C3.53269 41.6529 3.523 41.618 3.51582 41.5855C3.30881 41.0989 3.24456 40.6834 3.22011 40.4677C3.19149 40.2151 3.19044 39.9814 3.20231 39.7784C3.19578 39.7166 3.19014 39.6436 3.17956 39.5646C3.09271 38.9155 3.02899 38.2908 2.97979 37.6085C2.85106 37.2108 2.81594 36.8949 2.80474 36.7957C2.78172 36.5918 2.77606 36.4169 2.77606 36.2917C2.77606 36.1665 2.78172 35.9916 2.80474 35.7877C2.81076 35.7344 2.82449 35.6185 2.85517 35.4612C2.82774 35.4552 2.80386 35.4503 2.78496 35.4465C2.49058 35.4034 0.578541 34.1375 0.0721671 31.1254ZM37.9988 60.9643C38.0242 60.983 38.0455 60.9992 38.0631 61.0114L38.1125 61.0457C38.0758 61.0209 38.0382 60.993 37.9988 60.9643ZM23.3044 60.8172L23.3094 60.7515L23.3084 60.7506L23.3044 60.8172ZM21.3097 58.9945L21.1366 59.6691L21.1356 59.672L21.1366 59.671L21.1376 59.6681L21.3097 58.9945ZM40.9756 58.9111C40.94 59.1681 40.881 59.4076 40.8055 59.6298C40.8801 59.4092 40.9398 59.1708 40.9756 58.9131V58.9111ZM30.0928 57.7512L30.0919 57.7522C30.1358 57.728 30.1728 57.708 30.2006 57.6914L30.1997 57.6904C30.1641 57.7115 30.1282 57.7313 30.0928 57.7512ZM12.031 55.9431C11.5165 56.4928 11.2359 57.0711 11.0974 57.6169C11.1911 57.2787 11.3089 57.0185 11.3881 56.8628C11.5989 56.4492 11.8459 56.1428 12.031 55.9431ZM15.0504 56.0578C15.0183 56.0637 14.9852 56.071 14.9505 56.0765C14.9839 56.0713 15.0174 56.065 15.0514 56.0588C15.0924 56.0514 15.1342 56.0452 15.176 56.0363C15.1372 56.0445 15.0943 56.0499 15.0504 56.0578ZM12.1507 55.8206C12.1672 55.8042 12.1818 55.7883 12.1961 55.7745L12.1971 55.7725C12.181 55.788 12.1664 55.805 12.1507 55.8206ZM49.024 55.2293C49.655 55.5686 50.2449 55.6738 50.6351 55.7039C50.6443 55.7046 50.6536 55.7042 50.6628 55.7049C49.946 55.6326 49.3523 55.3972 49.024 55.2293ZM15.085 55.6235L15.086 55.6225L15.0425 55.4195L15.085 55.6235ZM13.8102 54.942C13.6858 54.964 13.5589 54.9821 13.4294 54.993C13.5523 54.9835 13.6796 54.9661 13.8112 54.943L13.8102 54.942ZM13.5016 54.7626C13.5319 54.7578 13.5621 54.7515 13.5926 54.7459L13.5906 54.7449C13.5615 54.7505 13.532 54.7575 13.5016 54.7626ZM14.2295 54.5714C14.1049 54.6166 13.8812 54.6889 13.5916 54.7439L13.5926 54.7459C13.863 54.6963 14.1441 54.6156 14.4313 54.4929V54.491C14.3688 54.5174 14.3015 54.5453 14.2295 54.5714ZM35.9437 54.4733C35.97 54.5117 35.9986 54.549 36.0268 54.5871C36.0003 54.5512 35.9735 54.5127 35.9457 54.4723L35.9437 54.4733ZM14.4332 54.49L14.4342 54.492C14.4744 54.4747 14.5144 54.4559 14.5549 54.437C14.517 54.4545 14.4762 54.4718 14.4332 54.49ZM13.2148 54.4488C13.2261 54.4445 13.2371 54.4403 13.2484 54.4361L13.2474 54.4351C13.2364 54.4392 13.2258 54.4446 13.2148 54.4488ZM14.186 54.2174C14.0151 54.29 13.8174 54.3604 13.5946 54.4174C13.5815 54.4208 13.5682 54.4238 13.555 54.4272C13.5674 54.4242 13.5802 54.4225 13.5926 54.4194C13.7862 54.3709 13.984 54.3039 14.186 54.2174ZM14.6113 54.4106C14.6168 54.4079 14.6225 54.4054 14.6281 54.4027H14.6261C14.6211 54.4051 14.6164 54.4081 14.6113 54.4106ZM14.6686 54.3812H14.6706C14.7143 54.3593 14.7581 54.3364 14.8021 54.3125C14.7662 54.332 14.7213 54.355 14.6686 54.3812ZM50.4768 54.3557L50.4778 54.3537C50.4622 54.3471 50.4464 54.3417 50.4313 54.3351C50.4467 54.3418 50.4616 54.3492 50.4768 54.3557ZM11.5978 53.8164C11.6245 53.9658 11.6586 54.1092 11.6997 54.2468C11.7016 54.2442 11.7037 54.2416 11.7056 54.239C11.6638 54.1012 11.6281 53.9601 11.6008 53.8154L11.5978 53.8164ZM14.2196 54.2027H14.2226C14.2504 54.1905 14.2787 54.1785 14.3066 54.1654L14.3057 54.1615C14.2775 54.1746 14.2495 54.1897 14.2196 54.2027ZM14.3086 54.1605L14.3096 54.1645C14.3655 54.1384 14.4215 54.1106 14.4777 54.0811C14.4259 54.108 14.3686 54.1327 14.3086 54.1605ZM15.6813 53.9801L15.5468 54.0664L15.6823 53.9811V53.6791L15.6813 53.9801ZM14.6864 53.9654C14.6777 53.9706 14.6679 53.9748 14.6587 53.9801C14.6683 53.9745 14.6788 53.9702 14.6884 53.9644L14.6864 53.9654ZM11.5968 53.8154L11.6008 53.8134C11.5969 53.7928 11.5915 53.7724 11.5879 53.7517C11.5914 53.773 11.5931 53.7943 11.5968 53.8154ZM11.585 53.7409H11.5869C11.5763 53.6781 11.567 53.6147 11.5592 53.5507C11.5666 53.6151 11.575 53.6785 11.585 53.7409ZM52.345 53.4183C52.2544 53.4002 52.1734 53.3826 52.1037 53.3644H52.1017C52.184 53.3859 52.2655 53.4025 52.345 53.4183ZM29.8911 52.3329L29.9692 52.2848L29.9682 52.2838L29.8911 52.3329ZM13.3117 52.3191C13.3067 52.3299 13.3018 52.3407 13.2969 52.3515L13.2989 52.3495C13.3036 52.3392 13.309 52.3293 13.3137 52.3191C13.3253 52.2941 13.335 52.269 13.3463 52.2456C13.3343 52.2701 13.3231 52.2947 13.3117 52.3191ZM13.4403 52.0662C13.4107 52.1196 13.3827 52.1729 13.3562 52.226C13.3838 52.1699 13.4128 52.1199 13.4383 52.074L13.4403 52.0662L13.4413 52.0652L13.4393 52.0711C13.4546 52.0436 13.4681 52.0174 13.4818 51.9936C13.4678 52.0177 13.4546 52.0411 13.4413 52.0652L13.468 51.9583L13.4403 52.0662ZM53.7524 51.5073C53.6518 51.4865 53.563 51.4658 53.4893 51.4455H53.4873C53.5768 51.4702 53.6655 51.4894 53.7524 51.5073ZM11.675 51.2788C11.6479 51.3392 11.6231 51.3995 11.5998 51.4592C11.5939 51.4742 11.5886 51.4894 11.583 51.5043C11.5224 51.5252 11.4592 51.5459 11.3931 51.5651C11.4559 51.547 11.5202 51.5272 11.584 51.5053C11.6954 51.467 11.8076 51.4219 11.9212 51.371C11.8218 51.4151 11.7091 51.4622 11.584 51.5053C11.5898 51.49 11.5968 51.4743 11.6028 51.4592C11.6272 51.397 11.6517 51.3362 11.6779 51.2778L11.675 51.2788ZM52.6516 51.3024L52.7683 50.868L52.9819 50.0679L52.6516 51.3024ZM54.9609 50.815C54.9762 50.8861 54.99 50.9656 55.0034 51.0523C55.0029 51.0488 55.003 51.0451 55.0024 51.0415L54.9609 50.815ZM11.8055 51.019C11.8119 51.007 11.8188 50.9954 11.8253 50.9837H11.8233C11.8169 50.9953 11.8117 51.0074 11.8055 51.019ZM11.853 50.9307C11.8432 50.9477 11.8337 50.9647 11.8243 50.9817H11.8263C11.8696 50.9028 11.9131 50.8285 11.9568 50.7601L11.853 50.9307ZM52.8741 49.6894C52.9324 49.7319 52.9901 49.7736 53.0492 49.812C53.0528 49.8143 53.0565 49.8165 53.0601 49.8188C52.9932 49.7758 52.9326 49.7307 52.8751 49.6884L52.8741 49.6894ZM54.4803 49.2982C54.5438 49.3903 54.61 49.491 54.6731 49.6021C54.6163 49.5015 54.5547 49.4003 54.4852 49.3001L54.4803 49.2982ZM54.0659 49.3835L54.0669 49.3825L54.1311 49.154L54.1301 49.1531L54.0659 49.3835ZM9.26875 48.8579C9.17604 49.0244 9.10036 49.1908 9.03831 49.3551C9.01461 49.4178 8.99275 49.4802 8.97304 49.5423C8.99559 49.474 9.01652 49.4113 9.03831 49.3551C9.08902 49.2242 9.13682 49.1273 9.16491 49.0687C9.19995 48.9957 9.23487 48.9252 9.27172 48.8589L9.26875 48.8579ZM53.8542 49.0129L53.8552 49.0119L53.8562 49.0099L53.8542 49.0129ZM54.1173 48.8462L54.1183 48.8471L54.0817 48.8677C54.0519 48.8531 54.0231 48.8404 53.9966 48.8266C54.0247 48.8412 54.0526 48.8558 54.0807 48.8697C54.097 48.8777 54.1139 48.8845 54.1301 48.8923C54.1138 48.8845 54.0982 48.8763 54.0827 48.8687L54.1183 48.8471C54.1261 48.8556 54.1348 48.8637 54.143 48.8726C54.1349 48.8638 54.1275 48.8541 54.1193 48.8452C54.0718 48.7943 54.0216 48.7444 53.9699 48.6942C54.005 48.7282 54.0553 48.7795 54.1173 48.8462ZM9.26974 48.857L9.27271 48.8579C9.29819 48.8121 9.32403 48.768 9.34985 48.7256C9.32279 48.7699 9.29442 48.8127 9.26974 48.857ZM53.9244 48.7403L53.9254 48.7393L53.9373 48.6971L53.9244 48.7403ZM9.62775 48.3226C9.53519 48.4395 9.45483 48.5588 9.3805 48.6765C9.46746 48.5381 9.55233 48.4193 9.62775 48.3226ZM54.7671 48.4363C54.7771 48.4481 54.7873 48.4602 54.7977 48.4726C54.7878 48.4609 54.7792 48.448 54.769 48.4363L54.768 48.4353C54.7525 48.4173 54.7366 48.3993 54.7206 48.3814C54.7359 48.3986 54.7509 48.4174 54.7671 48.4363ZM42.7143 47.9853C42.6645 47.9581 42.614 47.9307 42.564 47.901L42.562 47.9C42.5901 47.9167 42.6421 47.9465 42.7143 47.9853ZM56.5898 47.2891C56.6321 47.3551 56.6795 47.4352 56.7302 47.5274C56.6866 47.448 56.6403 47.3674 56.5888 47.2872L56.5898 47.2891ZM35.0071 47.0744C35.6863 47.3938 36.3308 47.4787 36.8951 47.446C36.3886 47.4632 36.0023 47.3941 35.8626 47.3636C35.5153 47.2877 35.2247 47.1751 35.0071 47.0744ZM7.4322 46.8724H7.43616L7.43912 46.8714H7.43517L7.4322 46.8724ZM43.2038 46.7792C43.1311 46.7415 43.0577 46.7027 42.9853 46.6596L42.9833 46.6586C43.0327 46.6881 43.1074 46.7298 43.2038 46.7792ZM5.30687 45.4281C5.25824 45.7092 5.25107 45.9274 5.24951 46.0419C5.24924 46.0617 5.24948 46.0815 5.24951 46.1007L5.25149 46.1027C5.25445 45.8703 5.27527 45.643 5.3128 45.4242L5.30687 45.4281ZM5.32467 45.3261C5.31786 45.3602 5.3125 45.3937 5.30687 45.4261L5.31379 45.4222C5.31945 45.3893 5.32521 45.3566 5.33159 45.3242L5.32467 45.3261ZM5.42753 44.928C5.38401 45.0686 5.35035 45.2018 5.32566 45.3251L5.33159 45.3222C5.35826 45.1869 5.38899 45.0549 5.42753 44.928ZM6.96639 45.0447C6.92489 45.0961 6.89403 45.1367 6.87936 45.1565C6.92809 45.0908 6.98417 45.0227 7.04452 44.9516C7.00905 44.9926 6.98247 45.0248 6.96639 45.0447ZM8.3391 44.174L8.19273 44.2564C8.24213 44.227 8.2919 44.1998 8.34108 44.173L8.3391 44.174ZM19.9379 42.7964C19.7663 42.8413 19.5923 42.9024 19.4148 42.9768C19.5658 42.9151 19.741 42.8533 19.9379 42.8013V42.7964ZM61.509 39.5127C61.4551 40.0091 61.3879 40.4989 61.3082 40.9825C61.5785 40.2479 61.5522 39.6447 61.5466 39.5117L61.509 39.5127ZM44.6062 40.4314C44.8513 40.4304 45.0583 40.4512 45.2125 40.4736C45.3808 40.498 45.5377 40.5346 45.6832 40.5736C45.6837 40.5703 45.6837 40.567 45.6842 40.5638C45.3067 40.4609 44.9448 40.4239 44.6062 40.4314ZM61.509 39.5127L61.5466 39.5117C61.5447 39.4688 61.5411 39.392 61.5307 39.293L61.509 39.5127ZM2.82946 35.4534C2.83673 35.4544 2.84594 35.4549 2.85616 35.4563C2.83879 35.454 2.82097 35.451 2.80276 35.4484C2.81067 35.4497 2.81952 35.4519 2.82946 35.4534ZM20.8646 34.7111C20.7682 34.6654 20.6915 34.6251 20.6391 34.5964L20.6371 34.5954C20.7134 34.6372 20.7893 34.6756 20.8646 34.7111ZM19.5582 33.6943L19.6521 33.7982L19.6491 33.7943C19.6082 33.7502 19.5692 33.7054 19.5315 33.661C19.5412 33.6725 19.5494 33.6842 19.5582 33.6943ZM45.9275 33.6041L45.9285 33.6051C45.9489 33.5732 45.9741 33.5283 46.0056 33.4737C45.9802 33.5171 45.9554 33.5606 45.9275 33.6041ZM60.8345 33.3884C60.8422 33.3902 60.8502 33.3914 60.8582 33.3933C60.7348 33.3612 60.6398 33.335 60.613 33.3266L60.8345 33.3884ZM62.8609 31.3538C62.8137 31.3819 62.7665 31.4085 62.7195 31.4342C62.7725 31.4056 62.821 31.3784 62.8639 31.3528L62.8609 31.3538ZM3.31406 25.7708L3.42483 25.9541C3.3835 25.8897 3.33738 25.8124 3.28835 25.7237C3.29693 25.7393 3.30518 25.7552 3.31406 25.7708ZM60.2648 25.6757C60.1246 25.7302 59.9827 25.7946 59.8396 25.8698C59.9818 25.7956 60.1227 25.7334 60.2599 25.6806C60.2615 25.679 60.2632 25.6773 60.2648 25.6757ZM43.909 25.8433C43.8322 25.804 43.7554 25.7675 43.6785 25.7345C43.7588 25.7697 43.8359 25.8056 43.909 25.8433ZM60.9502 25.4796C60.7366 25.5206 60.5151 25.5799 60.2896 25.6659C60.2872 25.6681 60.285 25.6705 60.2826 25.6727C60.5204 25.5827 60.7482 25.5239 60.9571 25.4835L60.9502 25.4796ZM63.029 25.661C63.0192 25.658 63.0073 25.6542 62.9934 25.6502C62.9851 25.6478 62.973 25.6445 62.9578 25.6404C62.9867 25.6488 63.0108 25.6553 63.029 25.661ZM61.3418 25.4256C61.2165 25.4368 61.0877 25.4536 60.9561 25.4786L60.9631 25.4825C61.098 25.4566 61.2247 25.4371 61.3418 25.4256ZM61.418 25.4815C61.4299 25.4602 61.4412 25.4381 61.4526 25.4168L61.4536 25.4158C61.4593 25.4052 61.4639 25.3941 61.4694 25.3835C61.4517 25.4173 61.4354 25.4505 61.418 25.4815ZM4.31591 24.5471C4.6499 24.6075 4.95144 24.7052 5.21786 24.8226C5.40369 24.9045 5.57202 24.9963 5.72323 25.0893C5.79062 25.1308 5.85479 25.1722 5.9151 25.2139L5.91707 25.2158C5.9187 25.2139 5.92037 25.2119 5.92202 25.2099L5.92004 25.209C5.85619 25.1636 5.79228 25.1207 5.72818 25.0805C5.56205 24.9763 5.39548 24.8886 5.22973 24.8158C4.91877 24.6791 4.61074 24.5954 4.31591 24.5471ZM19.9112 25.0825C19.8596 25.115 19.8084 25.1496 19.7569 25.1854C19.8048 25.1526 19.8552 25.1174 19.9112 25.0825C19.9433 25.0625 19.9785 25.0439 20.0131 25.0236L20.0111 25.0207C19.9777 25.0404 19.9446 25.0614 19.9112 25.0825ZM20.5214 24.7716C20.3544 24.8397 20.1839 24.9184 20.0151 25.0178L20.0171 25.0217C20.1637 24.936 20.3329 24.8497 20.5214 24.7716ZM58.6943 24.4657C58.7206 24.4502 58.7542 24.4341 58.7922 24.4138L58.7903 24.4108C58.7584 24.4287 58.7263 24.4467 58.6943 24.4657ZM58.7903 24.4108L58.7922 24.4138C58.8623 24.3764 58.9514 24.3301 59.0573 24.2834L59.0464 24.2765C58.9615 24.317 58.876 24.3627 58.7903 24.4108ZM59.7664 24.0137C59.6239 24.0505 59.4795 24.0973 59.3332 24.1539C59.2876 24.1716 59.2417 24.1901 59.1957 24.2098C59.1467 24.2309 59.0968 24.252 59.0474 24.2755L59.0593 24.2824C59.0989 24.2649 59.1407 24.2464 59.1849 24.2284C59.3422 24.1646 59.5278 24.1008 59.7347 24.0441L59.7664 24.0137ZM6.29981 24.1382L6.30278 24.1392C6.28094 24.1262 6.25831 24.1145 6.23652 24.102L6.29981 24.1382ZM0.0721671 31.1254C-0.434181 29.6193 1.88541 23.9039 2.01454 23.7941C2.02696 23.7752 2.03899 23.7573 2.05014 23.7402C2.08888 23.6529 2.13098 23.5636 2.17871 23.4744C2.25173 23.338 2.38565 23.1103 2.59309 22.8518C2.71412 22.585 2.83214 22.3969 2.88188 22.3194C3.01438 22.113 3.17047 21.9143 3.3467 21.7262C3.40985 21.6205 3.47874 21.5145 3.55538 21.4095C3.71907 21.1852 3.89529 20.9898 4.07855 20.8202C4.16514 20.7003 4.26983 20.5543 4.3792 20.3937C4.47762 20.2491 4.56728 20.1109 4.64425 19.9917C4.76587 19.6501 4.96195 19.2434 5.28412 18.8386C5.39183 18.7033 5.50834 18.5764 5.63126 18.4571C5.70091 18.3505 5.7767 18.2428 5.86169 18.1365C5.95452 18.0204 6.06253 17.9023 6.18311 17.7835C6.20937 17.7464 6.23986 17.7069 6.27014 17.6629C6.32625 17.5816 6.3753 17.5047 6.4175 17.4404C6.52791 17.1929 6.67187 16.9357 6.86057 16.6805C6.97312 16.5283 7.11334 16.3646 7.28089 16.2L7.32242 16.1431C7.47255 15.9247 7.67301 15.6418 7.86538 15.3823C7.95446 15.2019 8.06099 15.0194 8.18779 14.8371C8.42521 14.4957 8.69026 14.2239 8.96117 14.0037C9.48739 13.511 10.0218 13.2749 10.2953 13.1712C10.5865 13.0608 10.8443 13.0021 11.0291 12.9692C11.352 12.8583 11.5817 12.822 11.5968 12.8192C11.7663 12.7874 11.9032 12.7735 11.9677 12.7672C12.1933 12.7453 12.3936 12.7449 12.4414 12.7447L13.0042 12.7574L13.4086 12.7839C14.0787 12.8458 14.958 13.0167 15.8158 13.4683C16.1035 13.5707 16.3962 13.7109 16.6852 13.9007C17.3091 14.3107 17.7094 14.8145 17.9659 15.2617C18.1019 15.007 18.275 14.7506 18.494 14.4988C18.5144 14.4754 18.5358 14.4529 18.5563 14.4302C18.6162 14.3219 18.6804 14.2121 18.7541 14.1037C18.9348 13.8379 19.138 13.6079 19.3534 13.4065C19.469 13.2529 19.6144 13.0557 19.7658 12.8418C19.9043 12.6461 20.0312 12.4594 20.1338 12.3064C20.2795 11.9549 20.4917 11.5887 20.7954 11.2347C20.9267 11.0817 21.0624 10.9448 21.1999 10.8219C21.3244 10.5477 21.4898 10.2685 21.7062 9.99239C21.7846 9.89243 21.865 9.79889 21.9466 9.71098C22.0223 9.55873 22.1087 9.4038 22.2116 9.25014C22.4308 8.9229 22.671 8.65371 22.9217 8.43239C22.9699 8.36945 23.0243 8.30183 23.079 8.22844C23.2263 8.03048 23.3567 7.84818 23.438 7.72838C23.4447 7.71842 23.4509 7.71013 23.4558 7.70289C23.5745 7.47409 23.7157 7.24918 23.881 7.03614C23.9786 6.82771 24.0997 6.61647 24.2489 6.40567C24.4228 6.16007 24.6076 5.94819 24.7998 5.76638C24.8117 5.74907 24.8217 5.7338 24.8304 5.72127C24.9501 5.55038 25.0952 5.37028 25.2656 5.19082C25.3067 5.1357 25.3604 5.05966 25.4179 4.9751C25.5515 4.62892 25.7478 4.26508 26.034 3.90929C26.1398 3.77785 26.2493 3.65607 26.3624 3.54552C26.483 3.35036 26.6255 3.15376 26.7975 2.96211C26.8219 2.93495 26.848 2.90978 26.8727 2.88367C26.9917 2.67047 27.1388 2.45497 27.3187 2.24242C27.3687 2.18342 28.4284 0 31.9402 0C26.6318 5.18476 22.3181 9.3979 18.1506 13.4683C12.5477 18.9406 7.20895 24.1549 0.0721671 31.1254ZM58.7101 24.0833L58.632 24.1245C58.6573 24.1107 58.69 24.0951 58.7279 24.0755L58.727 24.0745C58.7213 24.0774 58.7158 24.0804 58.7101 24.0833ZM60.516 23.9C60.276 23.9124 60.0256 23.9464 59.7684 24.0127L59.7347 24.0441C59.9699 23.9797 60.2331 23.9269 60.516 23.9ZM4.95974 23.6303C5.0792 23.653 5.19151 23.683 5.29797 23.7127C5.56687 23.7877 5.79407 23.8765 5.97048 23.9608C5.74419 23.8512 5.52106 23.7696 5.3039 23.7088C5.18564 23.6756 5.06934 23.6483 4.95479 23.6274L4.95974 23.6303ZM59.2877 23.8343C59.327 23.8207 59.3759 23.8072 59.4321 23.7902L59.4341 23.7872C59.3856 23.8018 59.3368 23.8174 59.2877 23.8343ZM59.4341 23.7872L59.4321 23.7902C59.4773 23.7764 59.5273 23.7595 59.5824 23.7451C59.5332 23.7578 59.4839 23.7722 59.4341 23.7872ZM4.95974 23.6303L4.95281 23.6264C4.90374 23.6175 4.85474 23.6117 4.80644 23.6048C4.85826 23.6126 4.91006 23.6209 4.95974 23.6303ZM18.852 23.4793C18.7898 23.5177 18.7282 23.559 18.6661 23.6019L18.6681 23.6039C18.7262 23.5636 18.7875 23.521 18.854 23.4803C18.8908 23.4578 18.9293 23.4358 18.9687 23.4136C18.9303 23.4355 18.8904 23.4557 18.852 23.4793ZM19.3198 23.2381C19.3525 23.224 19.3903 23.2073 19.4335 23.1901L19.4306 23.1881C19.3933 23.2032 19.3572 23.2217 19.3198 23.2381ZM7.91384 21.9429C7.98284 21.9854 8.04691 22.0304 8.10867 22.0733L8.11065 22.0694C8.04587 22.0238 7.98194 21.9795 7.9168 21.9389L7.91384 21.9429ZM7.50539 21.7203C7.61106 21.7706 7.71091 21.8238 7.80505 21.8782C7.84155 21.8992 7.87714 21.9205 7.91186 21.9419L7.91483 21.938C7.88011 21.9164 7.84675 21.8934 7.81197 21.8733C7.713 21.8159 7.61418 21.7638 7.51528 21.7174L7.50539 21.7203ZM7.01782 21.5252C7.16614 21.5739 7.30713 21.6279 7.43912 21.6879C7.46125 21.698 7.48275 21.709 7.5044 21.7193L7.5133 21.7164C7.48914 21.705 7.46424 21.6957 7.44011 21.685C7.29807 21.6219 7.15725 21.5686 7.01782 21.5252ZM60.7831 21.3948H60.785C60.745 21.3726 60.6598 21.3278 60.5417 21.2732C60.6454 21.3225 60.7277 21.3641 60.7831 21.3948ZM58.9673 20.8212C58.9424 20.8196 58.9174 20.8174 58.8921 20.8163L58.7101 20.8123C58.7981 20.8123 58.8838 20.816 58.9673 20.8212ZM55.4465 19.9848C55.4475 19.9866 55.4475 19.9889 55.4485 19.9907C55.4516 19.9885 55.4552 19.9869 55.4584 19.9848L55.4544 19.9799C55.4518 19.9816 55.4491 19.9831 55.4465 19.9848ZM56.3643 19.5249C56.0635 19.6286 55.7571 19.7763 55.4554 19.9789L55.4584 19.9848C55.7033 19.823 56.009 19.656 56.3643 19.5249ZM16.4073 19.8005L16.4102 19.7995C16.4152 19.7965 16.4204 19.793 16.426 19.7897C16.4197 19.7934 16.4136 19.7967 16.4073 19.8005ZM16.5605 19.7132C16.574 19.7059 16.5885 19.6993 16.6031 19.6916L16.6011 19.6906C16.5875 19.6979 16.5742 19.7058 16.5605 19.7132ZM16.6021 19.6897L16.6041 19.6906C16.6598 19.6613 16.7238 19.6288 16.7959 19.5955L16.7949 19.5945C16.7311 19.6244 16.6665 19.6555 16.6021 19.6897ZM16.7969 19.5936L16.7989 19.5945C16.8614 19.5657 16.9299 19.5367 17.0036 19.5073L17.0026 19.5043C16.9344 19.5318 16.8658 19.5614 16.7969 19.5936ZM49.4443 18.2993C49.5027 18.3368 49.5579 18.3747 49.6105 18.412L49.6115 18.4111C49.5563 18.3718 49.5011 18.334 49.4453 18.2983L49.4443 18.2993ZM15.2759 18.2483C15.2461 18.267 15.2165 18.2863 15.1868 18.3062C15.1574 18.3258 15.1282 18.3462 15.0988 18.3669L15.1008 18.3699C15.129 18.3504 15.1579 18.3295 15.1888 18.3091C15.2174 18.2902 15.246 18.2696 15.2768 18.2503C15.3294 18.2174 15.385 18.1834 15.444 18.1502L15.445 18.1473C15.3886 18.1791 15.3322 18.2128 15.2759 18.2483ZM49.3761 18.2571C49.3988 18.2711 49.4215 18.2843 49.4433 18.2983C49.4209 18.284 49.3986 18.2689 49.3761 18.2552V18.2571ZM49.3702 18.2532L49.3692 18.2512C49.309 18.2146 49.2488 18.18 49.1882 18.1473C49.2516 18.1819 49.3121 18.2176 49.3702 18.2532ZM10.8037 18.215C10.8002 18.1655 10.7987 18.1151 10.7967 18.064L10.7948 18.063C10.7964 18.1068 10.7991 18.1577 10.8037 18.215ZM15.4736 18.1306V18.1336C15.5221 18.1069 15.5726 18.0802 15.625 18.0542L15.6269 18.0522L15.6279 18.0502C15.5766 18.0757 15.525 18.1022 15.4736 18.1306ZM10.7928 18.0042C10.793 18.0153 10.7944 18.027 10.7948 18.0395L10.7957 18.0404C10.7953 18.0277 10.7941 18.015 10.7938 18.0022L10.7928 18.0042ZM15.8623 17.9424V17.9453C15.9255 17.9188 15.9978 17.8913 16.0779 17.863C16.0066 17.8876 15.9342 17.9126 15.8623 17.9424ZM15.2046 17.5708C15.2113 17.5673 15.2185 17.5645 15.2254 17.561H15.2234C15.2171 17.5642 15.2109 17.5675 15.2046 17.5708ZM50.9011 16.9589C50.8867 16.9888 50.8721 17.0183 50.8586 17.0482C50.8608 17.0475 50.8633 17.0477 50.8655 17.0472C50.8775 17.0196 50.8913 16.9926 50.9041 16.9648C50.9029 16.9629 50.9022 16.9607 50.9011 16.9589ZM10.4209 16.8422C10.5824 16.8993 10.7346 16.9614 10.8749 17.0305C10.8427 17.0146 10.811 16.9983 10.7789 16.9834C10.6589 16.928 10.5388 16.8796 10.4209 16.8383V16.8422ZM51.1375 16.5275C51.054 16.6615 50.982 16.7959 50.9169 16.9285L50.9209 16.9295C50.9835 16.7969 51.0542 16.662 51.1375 16.5275ZM10.413 16.8393V16.8364C10.3703 16.8215 10.3278 16.8074 10.2854 16.7942C10.3289 16.8079 10.3709 16.8245 10.413 16.8393ZM55.1152 15.6813C55.1649 15.6788 55.2168 15.6793 55.2705 15.6784L55.2714 15.6764C55.2201 15.6767 55.168 15.6789 55.1152 15.6813ZM20.1179 15.3372C19.774 15.4212 19.4685 15.5427 19.2071 15.6784C19.4654 15.5461 19.774 15.4232 20.1179 15.3372ZM55.2705 15.6784C55.2822 15.6782 55.2951 15.6775 55.307 15.6774C55.2955 15.6774 55.283 15.6763 55.2714 15.6764L55.2705 15.6784ZM12.2436 15.6039L12.2476 15.6058C12.2245 15.5921 12.2004 15.5806 12.1774 15.5676L12.2436 15.6039ZM15.0385 15.1313C14.7124 15.1838 14.3715 15.2859 14.0198 15.4489C14.183 15.3744 14.3853 15.2939 14.6182 15.2283C14.7172 15.2004 14.861 15.1658 15.0405 15.1352L15.0385 15.1313ZM11.8411 15.398C11.8759 15.4137 11.9114 15.4268 11.9449 15.4431C11.9063 15.4242 11.8677 15.4064 11.8292 15.3891L11.8411 15.398ZM11.8292 15.3921L11.8174 15.3832C11.7168 15.3385 11.6165 15.3004 11.5177 15.2656C11.6262 15.3041 11.7297 15.3475 11.8292 15.3921ZM15.0425 15.1313L15.0444 15.1342C15.0801 15.1281 15.1168 15.12 15.1552 15.1146C15.1178 15.1194 15.0803 15.1252 15.0425 15.1313ZM12.9379 14.3008C12.748 14.3984 12.5613 14.5151 12.3791 14.6508C12.5366 14.5343 12.7237 14.4129 12.9379 14.3008C12.9503 14.2942 12.9628 14.2886 12.9755 14.2821L12.9765 14.2811C12.9636 14.2876 12.9507 14.2942 12.9379 14.3008ZM41.5443 14.591C41.5998 14.5541 41.6577 14.5182 41.7184 14.4822C41.6601 14.5167 41.6019 14.5527 41.5443 14.591ZM56.5443 14.64C56.5397 14.6353 56.5359 14.6299 56.5314 14.6253L56.3781 14.4772C56.4349 14.5287 56.4887 14.5848 56.5443 14.64ZM14.1316 13.1663C14.124 13.1626 14.1172 13.1586 14.1108 13.1555C14.1056 13.153 14.1002 13.1511 14.095 13.1487C14.1071 13.1544 14.1193 13.1603 14.1316 13.1663ZM13.8181 13.03C13.8141 13.0285 13.8102 13.0266 13.8062 13.0251L13.5975 12.9516L13.8181 13.03ZM51.2393 12.7486C51.1788 12.7599 51.0021 12.7929 50.7795 12.8633C50.7516 12.8721 50.7172 12.8846 50.6766 12.8986C50.8746 12.8598 51.0677 12.8348 51.2512 12.8153L51.2393 12.7486ZM51.6102 12.6996C51.5329 12.7054 51.4042 12.7176 51.2423 12.7476L51.2542 12.8153C51.4838 12.7909 51.6988 12.7764 51.8911 12.7731C52.0485 12.7704 52.2253 12.7752 52.4162 12.7859L52.4241 12.7476C52.2625 12.7177 52.1337 12.7054 52.0562 12.6996C51.9722 12.6933 51.8973 12.6908 51.8327 12.6908C51.7683 12.6908 51.6942 12.6933 51.6102 12.6996ZM52.4192 12.7859C52.4993 12.7904 52.5819 12.7947 52.6665 12.8025C52.5516 12.7733 52.466 12.7558 52.4271 12.7486L52.4192 12.7859ZM22.3422 12.328C22.5377 12.3363 22.7291 12.3574 22.9138 12.3917C22.714 12.3538 22.5227 12.336 22.3422 12.328ZM22.2818 12.325C22.0476 12.3181 21.8324 12.33 21.641 12.3544C21.857 12.3286 22.0716 12.319 22.2818 12.325ZM39.7493 10.3924C39.7833 10.3799 39.818 10.3697 39.8522 10.3581L39.8502 10.3571C39.8169 10.3685 39.7831 10.3799 39.7493 10.3924ZM39.8522 10.3562L39.8541 10.3571C39.9648 10.3196 40.0758 10.2858 40.1874 10.2581C40.0803 10.2847 39.968 10.3166 39.8522 10.3562ZM41.0558 10.1385C41.0607 10.1383 41.0656 10.1386 41.0706 10.1385L41.0676 10.1375C41.0637 10.1376 41.0598 10.1384 41.0558 10.1385ZM41.0736 10.1375L41.0765 10.1385C41.1079 10.1377 41.1393 10.1365 41.1705 10.1365C41.1544 10.1365 41.1366 10.1363 41.1171 10.1365C41.1034 10.1367 41.0889 10.1372 41.0736 10.1375ZM42.9912 9.78844C43.0168 9.82642 43.0435 9.86702 43.0723 9.90904C43.023 9.80937 42.9711 9.71219 42.9141 9.61881C42.9415 9.6756 42.9671 9.73214 42.9912 9.78844ZM23.0117 8.94912C22.9788 9.14134 22.9544 9.36847 22.9543 9.61881C22.9544 9.41218 22.979 9.18306 23.0255 8.94128C23.0209 8.94382 23.0163 8.94658 23.0117 8.94912ZM27.0863 9.05894V9.0609L27.5769 8.75204L27.0863 9.05894ZM23.1917 8.27649C23.1861 8.29182 23.1795 8.30751 23.1739 8.32355C23.1531 8.38321 23.0796 8.58715 23.0236 8.88637C23.0285 8.8838 23.0334 8.88107 23.0384 8.87852C23.0802 8.67768 23.1382 8.46925 23.2144 8.25884C23.2065 8.26477 23.1991 8.27091 23.1917 8.27649ZM27.7064 8.03724C27.684 8.0239 27.6615 8.01178 27.6392 7.999C27.6656 8.01412 27.6878 8.02619 27.7064 8.03724ZM23.3351 7.93233C23.312 7.98039 23.2714 8.07088 23.2243 8.19118C23.2321 8.18559 23.2393 8.17905 23.2471 8.17354C23.3039 8.0258 23.368 7.87706 23.4429 7.73034C23.4204 7.76967 23.3794 7.84022 23.3351 7.93233Z" fill="#062A12" fill-opacity="0.5"/>
</svg>
