<svg width="66" height="72" viewBox="0 0 66 72" fill="none" xmlns="http://www.w3.org/2000/svg">
<path d="M54.1482 0.0106886C55.0755 -0.0335569 56.2227 0.0432689 57.3238 0.553223C62.7176 3.05234 59.8304 13.8357 59.0735 18.0011C58.8865 19.0301 58.6899 20.0902 58.2709 21.0552C58.4211 27.5135 58.4765 33.9911 58.8609 40.4389C58.9135 41.3214 58.9959 42.1874 59.1689 43.0532C61.2141 44.3074 63.3543 45.1488 64.3921 47.5309C66.3597 52.0482 65.6985 60.57 62.129 63.7215C59.5994 65.9543 56.0102 67.5515 52.1353 68.6752C39.1958 72.4275 23.7577 72.2987 11.0903 67.8376C7.58098 66.6016 4.51214 65.2923 2.57591 62.8665C-0.800595 58.6356 -0.904901 49.5405 2.54265 45.3072C4.60267 42.778 7.73898 41.8944 10.7534 41.0798C11.3838 40.8933 9.45798 40.7771 8.87929 40.4649C7.44762 39.6592 6.03202 38.6643 5.04434 37.3428C0.901324 31.7981 8.36843 25.7243 11.7815 22.3125C14.9989 19.096 20.5558 12.0372 26.2002 13.7361L27.117 14.0601C29.5151 15.0189 31.5762 16.5713 33.5607 18.1935C35.0876 16.3978 36.6824 14.636 38.1056 12.7552C37.6174 12.2358 37.1395 11.7024 36.81 11.0639C36.4421 10.3511 36.0793 9.16317 36.5482 7.80148C37.3168 5.57299 39.7254 4.69118 41.7251 3.89957C43.1537 3.33406 45.1407 2.60081 47.7248 1.62961C50.1119 0.732805 52.3127 0.0983514 54.1482 0.0106886Z" fill="#062A12" fill-opacity="0.5"/>
</svg>
