<svg width="81" height="70" viewBox="0 0 81 70" fill="none" xmlns="http://www.w3.org/2000/svg">
<path d="M17.7203 0.782871C24.5293 -1.01419 32.9201 0.330816 38.497 4.32154L39.9752 5.36607C40.1999 5.5198 40.3911 5.644 40.5561 5.748C40.9638 5.46244 41.5185 5.03496 42.3828 4.35771L42.7168 4.10309C46.195 1.52427 50.3368 0.706244 55.5737 0.710535C64.1221 0.716209 72.9152 3.4223 77.0358 10.6596L77.4206 11.3743L77.4294 11.3916L77.4366 11.409L77.7662 12.1034L77.7735 12.1193L77.7808 12.1367C78.2355 13.1608 78.5337 13.6741 78.941 14.4688C79.3735 15.3129 79.776 16.1997 80.152 17.5272C81.4737 22.1938 81.1935 26.423 79.7135 30.3711C78.4595 33.7157 76.3995 36.7103 74.0648 39.5057L74.0532 39.5187L73.0542 40.6848L73.044 40.6964C69.8568 44.3331 62.5628 51.3495 56.0123 57.3495C52.7091 60.3751 49.5244 63.206 47.0542 65.2949C45.8265 66.3331 44.729 67.227 43.8625 67.8773C43.4378 68.196 42.9982 68.5105 42.589 68.7627C42.3904 68.8851 42.1164 69.0442 41.8034 69.1866C41.6325 69.2643 40.8568 69.6278 39.8402 69.6278C38.789 69.6276 37.9812 69.2436 37.7811 69.1504C37.4388 68.9909 37.1299 68.8074 36.888 68.6542C36.398 68.3438 35.8561 67.9469 35.3111 67.5243C34.2022 66.6644 32.7867 65.4678 31.1827 64.0522C27.9593 61.2073 23.7964 57.3149 19.4599 53.0528C11.2647 44.9964 6.01804 39.387 3.11063 34.5854C1.60007 32.0907 0.636453 29.688 0.226751 27.1594C-0.181013 24.6418 0.00139639 22.2455 0.454731 19.8376L0.457636 19.8202L0.461992 19.8014L0.610107 19.1099L0.613011 19.0911L0.617367 19.0723C1.53027 15.287 3.90369 11.4512 6.5739 8.40128C9.39915 5.17444 13.1717 2.12998 17.0668 0.966604L17.7203 0.782871Z" fill="#062A12" fill-opacity="0.5"/>
</svg>
