<svg width="68" height="67" viewBox="0 0 68 67" fill="none" xmlns="http://www.w3.org/2000/svg">
<path d="M26.6022 0.0133415C29.2418 0.0381655 30.9474 0.0571695 32.1432 0.188146C33.7069 0.359431 34.6116 0.740728 35.5827 1.22526C35.8645 1.36592 36.151 1.51885 36.3952 1.66178C36.5059 1.7266 36.676 1.82935 36.8503 1.95182C36.8519 1.95298 36.8534 1.95449 36.8552 1.95572C36.9259 1.99818 36.9833 2.03407 37.0231 2.06022C37.206 2.18032 37.3685 2.30374 37.4811 2.39225C37.7216 2.58131 37.9826 2.80686 38.2272 3.0319C39.1707 3.89983 39.9914 4.87875 40.6774 5.95865L40.8962 6.32389C41.1266 6.72513 41.3812 7.21163 41.5671 7.57779C41.7047 7.84885 41.8434 8.13012 41.9548 8.36979C42.0078 8.48396 42.0731 8.62826 42.1325 8.77408C42.1602 8.84217 42.2081 8.96269 42.2555 9.10709C42.2606 9.12257 42.2638 9.14158 42.2702 9.16178C42.3643 9.36149 42.4535 9.57071 42.527 9.77506C42.5672 9.88658 42.6189 10.0392 42.6657 10.2145C42.6723 10.2392 42.6896 10.3098 42.7126 10.4147C42.8793 10.8493 43.0288 11.3612 43.112 11.734L43.2956 12.5231C43.4697 13.2312 43.617 14.0711 43.7438 15.0016C44.329 14.4143 44.8943 13.8442 45.4089 13.3239C45.1367 13.0133 44.8951 12.7278 44.7389 12.5182C44.6191 12.3575 44.1655 11.7791 43.8825 11.028C43.5508 10.1472 43.5641 9.35867 43.5641 9.1149C43.5641 8.32369 43.7077 7.28016 44.3444 6.24674C44.9523 5.2602 45.7709 4.67681 46.3649 4.32877L46.6559 4.16471C46.9687 3.99649 47.3541 3.81938 47.8688 3.66959C48.3343 3.53415 48.9011 3.42599 49.4762 3.3151C50.5403 3.11002 53.596 2.58954 55.5544 2.27799L57.6667 1.93326C58.2204 1.84062 59.1523 1.68537 59.738 1.58756C61.0793 1.36352 62.872 1.08947 64.652 1.90592L65.0085 2.08365C65.367 2.27888 65.8867 2.59667 66.3893 3.12369C66.8751 3.63299 67.1653 4.15113 67.3356 4.48111L67.4548 4.71744C67.598 5.014 67.7969 5.48304 67.9069 6.0524C68.0492 6.78881 67.9904 7.43466 67.9704 7.68424C67.93 8.18629 67.8232 8.89147 67.7175 9.38346C67.6624 9.64007 67.53 10.3429 67.4303 10.9235C67.3264 11.5295 67.1683 12.4397 67.0778 12.9518C66.7146 15.0064 66.5633 15.8985 66.3932 16.9821C66.2877 17.6548 66.1235 18.6319 66.0241 19.1764C65.9825 19.4049 65.9388 19.6597 65.902 19.8825C65.8836 19.9937 65.8675 20.0927 65.8551 20.1725C65.849 20.2122 65.8442 20.2448 65.8405 20.2702C65.8387 20.2826 65.8376 20.2923 65.8366 20.2995L65.8346 20.3092C65.6728 21.5719 65.2172 23.1042 64.0778 24.3161C62.835 25.6378 61.0219 26.2804 59.1462 25.8932L58.7702 25.8014C57.6955 25.5009 56.8908 24.9406 56.1511 24.2907C54.7312 25.7005 52.8823 27.5839 51.0661 29.4811C49.5592 31.0553 46.377 34.348 44.8239 35.9401L44.5436 36.2253L44.2897 43.4997C44.2051 45.8221 44.247 47.4102 44.3669 48.4352L44.4548 49.2487C44.4636 49.2392 44.4736 49.2306 44.4821 49.2213C44.5092 49.1919 44.5324 49.1637 44.5544 49.1393C44.6307 49.0187 44.6976 48.9232 44.7438 48.861C44.8457 48.7239 44.9527 48.5982 45.0563 48.484C45.0539 48.487 45.0524 48.4899 45.0524 48.4899C45.0543 48.4875 45.0667 48.473 45.0895 48.443C45.144 48.3713 45.2211 48.2643 45.3112 48.1354C45.3998 48.0087 45.49 47.8771 45.568 47.7575C45.6504 47.6313 45.7008 47.5479 45.7214 47.5124C45.8121 47.3551 45.9086 47.1949 45.9968 47.0553C46.0291 47.0041 46.0709 46.9402 46.1169 46.8717C46.179 46.7518 46.2649 46.5821 46.36 46.3883C46.4613 46.1821 46.5649 45.9679 46.6501 45.7858C46.6926 45.6949 46.7277 45.6182 46.7546 45.5583C46.7842 45.4922 46.7923 45.4708 46.7878 45.4821C46.7905 45.4749 46.8011 45.4488 46.819 45.4001C46.8415 45.3389 46.869 45.2604 46.9011 45.1696C46.9654 44.9873 47.0377 44.7767 47.1003 44.5876C47.3813 43.7379 47.7798 42.6489 48.5163 41.6979C49.3898 40.5702 50.4417 39.9914 51.363 39.6286L52.7096 39.0983L62.8659 39.0915L64.1217 39.6647C65.0189 40.0746 66.2598 40.8571 66.9645 42.3962C67.5278 43.6262 67.5023 44.8297 67.3981 45.6637L67.3503 45.9977C67.1229 47.4097 66.3992 49.5882 65.7282 51.1657C64.9744 52.9379 63.8432 55.3182 63.2155 56.3581L63.2165 56.359L62.7507 57.1442C62.6491 57.3175 62.5425 57.4925 62.4469 57.6422C62.4015 57.7135 62.3411 57.8056 62.2761 57.8991C62.2456 57.9429 62.1909 58.0203 62.1218 58.109C62.1051 58.1304 62.0809 58.1575 62.0534 58.1911C62.0139 58.2462 61.9546 58.332 61.8884 58.4303C61.6279 58.8168 61.3467 59.2226 61.1188 59.5446C61.0063 59.7035 60.8967 59.857 60.8034 59.9831C60.7588 60.0433 60.7017 60.1198 60.6423 60.195C60.614 60.2308 60.5658 60.2912 60.5065 60.36C60.5051 60.3616 60.4585 60.4162 60.3796 60.4997C60.3746 60.5056 60.369 60.512 60.363 60.5192L60.1218 60.8122C59.4678 61.618 58.1066 62.9829 57.3044 63.6344C55.9114 64.7658 54.2129 65.7453 52.5427 66.278L51.5016 66.611C50.6948 66.8705 49.9369 66.9099 49.1335 66.9352C48.2672 66.9625 46.8515 66.9739 44.4528 66.987C41.7361 67.0017 40.23 67.0123 39.2096 66.9665C37.9866 66.9115 37.3113 66.7671 36.3991 66.5817C34.7402 66.2444 32.7434 65.2483 31.3971 64.2575C29.3589 62.7573 27.8906 60.9108 26.738 58.5797C25.7113 56.5034 25.0718 54.6302 24.5817 52.3024L24.5065 51.9186C24.3278 50.9434 24.1255 49.4404 23.9675 48.11C23.8077 46.7654 23.6432 45.1787 23.6178 44.2741C23.0252 43.8176 22.4321 43.2798 21.778 42.6491L18.1921 46.2145C16.5611 47.8355 15.0412 49.3361 13.9059 50.4479C13.3394 51.0028 12.8625 51.4666 12.5134 51.8024C12.3402 51.9689 12.1886 52.1135 12.069 52.2253C12.0107 52.2797 11.9463 52.3389 11.8844 52.3942C11.8542 52.4213 11.8105 52.4603 11.7604 52.5026C11.7362 52.5231 11.6089 52.6319 11.4411 52.7487C10.5586 53.3626 9.57081 53.6298 8.73699 53.6989C7.49858 53.8013 6.32257 53.5273 5.19304 52.8014C4.37738 52.2772 3.6112 51.5223 2.93328 50.8337C2.29297 50.1832 1.74299 49.6335 1.39421 49.2067C1.14775 48.9051 0.903929 48.5565 0.693042 48.1247C0.532073 47.795 0.410297 47.4407 0.399097 47.4098L0.27898 47.0602C0.150136 46.6563 0.0113367 46.0938 0.000659279 45.4333C-0.0137373 44.5398 0.210983 43.822 0.348316 43.4196L0.464526 43.1169C0.754355 42.4344 1.16327 41.9214 1.34734 41.6921C1.64205 41.3249 2.0149 40.9128 2.445 40.4577C3.31405 39.538 4.66313 38.1865 6.6823 36.194C7.70041 35.1893 9.2639 33.6288 10.1471 32.735C11.7625 31.1002 12.9296 29.9219 13.6999 29.151C14.0829 28.7677 14.3783 28.4746 14.5846 28.2731C14.6843 28.1758 14.7839 28.0806 14.8688 28.0016C14.9054 27.9676 14.9761 27.9013 15.0593 27.8307C15.0906 27.8041 15.1794 27.73 15.2975 27.6432C15.6449 27.3231 16.0129 27.0405 16.3952 26.7848L12.6764 26.8073C10.6463 26.8194 9.47218 26.8262 8.75066 26.8014C8.03089 26.7767 7.55227 26.712 7.07878 26.5934L6.59734 26.4567C5.86068 26.2251 4.90678 25.8147 4.08269 25.0094L3.77605 24.7106L2.56023 23.5221L2.57878 20.8903C2.58503 19.9934 2.65044 19.155 2.96062 18.1921C2.99658 18.0804 3.03308 17.9579 3.06121 17.859C3.07527 17.8096 3.08391 17.7775 3.08757 17.7633C3.08931 17.7566 3.08801 17.7617 3.08464 17.776C3.08241 17.7856 3.07161 17.8311 3.05925 17.8971C3.14207 17.4548 3.32012 16.915 3.41667 16.6422C3.50122 16.4034 3.64639 15.9926 3.73894 15.7301L4.00652 15.0124C4.69344 13.2618 5.77698 11.0491 6.62371 9.75748C7.23137 8.83067 8.08034 7.62105 8.59832 7.01627L8.65691 6.94401C8.71615 6.86879 8.79016 6.77239 8.86296 6.6774C9.96226 5.24326 11.8033 3.57138 13.3395 2.58756L13.6852 2.38151C14.0637 2.16817 14.5142 1.94361 14.8073 1.80045C15.0452 1.68426 15.2969 1.56532 15.5143 1.46842C15.6175 1.42246 15.752 1.3641 15.8903 1.31022C15.955 1.28503 16.0715 1.24083 16.2116 1.19694C16.2495 1.18507 16.3033 1.17255 16.3678 1.15494C16.401 1.14336 16.4529 1.12632 16.5134 1.10319C17.8284 0.59931 18.9742 0.363036 20.8493 0.0797477L21.1569 0.045568C21.4739 0.019436 21.7962 0.0155239 21.9079 0.0133415C22.2268 0.00711433 22.6402 0.00366562 23.113 0.00162273C24.0626 -0.0024792 25.3009 0.00111288 26.6022 0.0133415ZM60.0114 60.8463L60.0075 60.8503C60.0525 60.813 60.0904 60.7799 60.1188 60.7546C60.1478 60.7288 60.1723 60.7057 60.1921 60.6872L60.196 60.6833C60.1401 60.7357 60.0781 60.791 60.0114 60.8463ZM60.2536 60.6276C60.2643 60.617 60.2741 60.6081 60.2819 60.6003C60.3032 60.579 60.3211 60.5606 60.3337 60.5475L60.2536 60.6276ZM61.6784 58.5924C61.6958 58.5762 61.7124 58.5629 61.7253 58.5504C61.735 58.541 61.7436 58.531 61.7526 58.5221C61.7296 58.5447 61.7047 58.5679 61.6784 58.5924ZM61.8434 58.4303C61.8481 58.4254 61.8529 58.4211 61.8571 58.4167C61.8663 58.4068 61.875 58.3966 61.8835 58.3874C61.8713 58.4005 61.8581 58.415 61.8434 58.4303ZM46.6208 46.2438C46.5939 46.2715 46.5703 46.2991 46.5475 46.3239C46.5812 46.2876 46.6163 46.2475 46.6559 46.2077C46.6435 46.2202 46.6317 46.2326 46.6208 46.2438ZM16.1647 27.1579C16.1298 27.1722 16.0971 27.1887 16.0651 27.2028C16.1085 27.1837 16.1539 27.1625 16.2028 27.1432C16.1895 27.1485 16.1767 27.153 16.1647 27.1579ZM16.6628 26.9919C16.6219 27.0025 16.5831 27.015 16.5456 27.026C16.6003 27.01 16.6601 26.992 16.7253 26.9762C16.703 26.9817 16.6821 26.9868 16.6628 26.9919ZM23.3669 19.8424C23.2512 20.1026 23.16 20.323 23.1022 20.4723C23.0622 20.6483 23.0279 20.759 23.0251 20.7682C22.9787 20.9208 22.9294 21.054 22.8932 21.1481C22.8364 21.2958 22.7702 21.4462 22.7028 21.5924C22.6544 21.7658 22.6146 21.8759 22.6081 21.8942C22.5392 22.0883 22.4652 22.2606 22.4098 22.3835C22.2952 22.6378 22.162 22.8988 22.0387 23.1266C21.9135 23.3581 21.7693 23.609 21.6227 23.8424C21.5352 23.9819 21.263 24.4189 20.8923 24.8063L20.8913 24.8073C20.7747 24.9291 20.6484 25.0466 20.5182 25.1588H21.6647C22.1611 25.1588 22.6571 25.1651 23.0954 25.2047C23.1882 25.2132 23.2884 25.2257 23.3952 25.2399C23.3948 25.1366 23.3956 25.0329 23.3952 24.9294C23.3885 23.1203 23.3777 21.2981 23.3669 19.8424ZM38.28 3.68326C38.4021 3.965 38.5149 4.31317 38.5729 4.71744C38.5198 4.33301 38.4166 3.98895 38.28 3.68326ZM16.8171 1.05533C16.7562 1.06512 16.7031 1.07679 16.6598 1.08561C16.7078 1.07613 16.7667 1.06377 16.8356 1.05338C16.8293 1.05437 16.8229 1.05439 16.8171 1.05533ZM17.0427 1.02604C17.0103 1.02933 16.9801 1.03519 16.9518 1.03873C16.9973 1.03319 17.0454 1.02653 17.0964 1.02213C17.0768 1.02385 17.0588 1.0244 17.0427 1.02604Z" fill="#062A12" fill-opacity="0.5"/>
</svg>
