<svg width="64" height="63" viewBox="0 0 64 63" fill="none" xmlns="http://www.w3.org/2000/svg">
<path d="M50.1126 8.72935C50.0935 8.71316 50.079 8.70143 50.0726 8.69615C50.0926 8.7117 50.1221 8.73389 50.1595 8.76256C50.245 8.82816 50.3576 8.91331 50.4739 9.00084C50.6078 9.10153 50.9119 9.33212 51.1732 9.55455L51.4114 9.76939L51.4134 9.77037C51.3925 9.75007 51.3765 9.73493 51.3685 9.7274L51.4398 9.78892C51.5172 9.85594 51.6168 9.94095 51.7161 10.0243L52.1302 10.3905C52.5934 10.8147 53.1762 11.3844 53.636 11.8436C53.9659 12.1731 54.2911 12.5045 54.5442 12.7723C54.6656 12.9007 54.8014 13.0471 54.9202 13.1844C54.9665 13.2379 55.0471 13.3355 55.137 13.453C55.1953 13.5181 55.2464 13.5772 55.2835 13.6219C55.367 13.7224 55.4503 13.8291 55.5247 13.9256C55.6769 14.1229 55.852 14.3589 56.0208 14.5956C56.1629 14.7948 56.3048 14.9929 56.4183 15.1512C56.4751 15.2306 56.5247 15.2994 56.5628 15.3524C56.5818 15.3788 56.5976 15.4002 56.6097 15.4169C56.6157 15.4252 56.6198 15.4325 56.6233 15.4374C56.6251 15.4397 56.6273 15.4422 56.6273 15.4422L56.8646 15.7909C57.1195 16.1853 57.4088 16.6831 57.5618 16.9676L57.7874 17.37C58.057 17.8409 58.3634 18.4411 58.598 18.9276C58.7166 19.1737 58.837 19.4311 58.9349 19.659C58.9813 19.7673 59.0423 19.9143 59.0989 20.0711C59.1019 20.0794 59.1043 20.089 59.1077 20.0985C59.153 20.1976 59.1943 20.2915 59.2249 20.3651C59.302 20.5504 59.3876 20.7712 59.471 20.9911C59.6393 21.4347 59.8378 21.985 60.0003 22.4706C60.3403 23.4867 60.6461 24.5647 60.8001 25.4305L60.8089 25.4813C62.0458 26.0881 62.975 27.1353 63.472 28.1961C63.6848 28.6504 63.8826 29.1955 63.9573 29.9559C64.001 30.4002 63.9998 30.941 64.0003 31.4217C64.001 32.1202 64.0559 33.1994 63.6253 34.3192L63.5325 34.5438C62.9815 35.7877 62.0939 36.6852 60.9398 37.2782C60.9056 37.2957 60.869 37.3124 60.8314 37.3309C60.6103 38.4626 60.3056 39.6484 60.0023 40.4383C59.9865 40.4983 59.9755 40.5475 59.9661 40.579C59.9341 40.6869 59.9004 40.7843 59.8782 40.8485C59.8307 40.9861 59.7757 41.136 59.7239 41.2713C59.6279 41.5225 59.4857 41.8779 59.3587 42.1532C59.3587 42.1532 59.3574 42.1564 59.3558 42.16C59.3536 42.1648 59.3508 42.1721 59.347 42.1805C59.3393 42.1974 59.3287 42.2193 59.3167 42.246C59.2927 42.2995 59.2628 42.3677 59.2278 42.4461C59.1579 42.6032 59.0719 42.7955 58.9886 42.9842C58.6834 43.676 58.2608 44.53 57.8899 45.1669L57.7347 45.4256C57.7324 45.4293 57.7258 45.4397 57.7161 45.4559C57.7068 45.4716 57.697 45.4887 57.6878 45.5047C57.6784 45.5213 57.6726 45.5326 57.6702 45.537C57.6692 45.5388 57.6702 45.5366 57.6732 45.5311C57.6758 45.5262 57.6827 45.5129 57.6927 45.493L57.6917 45.494C57.3489 46.1757 56.391 47.584 55.8538 48.3094C55.7897 48.396 55.7193 48.4924 55.6585 48.576C55.6282 48.6177 55.6013 48.6544 55.5804 48.6835C55.5591 48.713 55.5491 48.7274 55.5491 48.7274C55.4601 48.855 55.362 48.984 55.262 49.1053C55.219 49.1575 55.1582 49.228 55.0853 49.3075C55.0833 49.3101 55.0813 49.3126 55.0794 49.3153C54.4721 50.1482 53.3547 51.346 52.4788 52.1747C52.2194 52.4201 51.9096 52.7147 51.7952 52.826L51.7962 52.827C51.6302 52.9887 51.4365 53.16 51.2278 53.3182C51.1924 53.3451 51.1459 53.3765 51.0931 53.4139C50.9992 53.495 50.9045 53.5779 50.8187 53.6483C50.5781 53.8454 50.276 54.0845 49.9857 54.3094C49.6951 54.5345 49.388 54.7678 49.1351 54.953C49.014 55.0416 48.8735 55.1424 48.7415 55.2313C48.6828 55.2709 48.5723 55.3444 48.4417 55.4208C48.4168 55.4353 48.3772 55.4556 48.3284 55.4823C48.3247 55.4848 48.3215 55.4885 48.3177 55.4911L48.3167 55.492C47.8795 55.792 47.5833 55.9826 47.181 56.2147C47.0731 56.277 46.9047 56.3771 46.8206 56.4276C46.6801 56.512 46.5069 56.6121 46.3167 56.7196L45.7083 57.0575C45.3684 57.2435 44.7258 57.5294 44.3216 57.702C43.8876 57.8874 43.4732 58.0643 43.387 58.1024L43.388 58.1034C43.1971 58.188 43.0004 58.2594 42.8108 58.3192C42.8013 58.3234 42.7923 58.3281 42.7835 58.3319C42.5984 58.4122 42.403 58.486 42.2151 58.5477L41.7796 58.6971C41.1043 58.942 39.6277 59.3569 38.7532 59.5663C38.5529 59.6142 38.3272 59.6615 38.0901 59.7098C37.7205 60.5425 37.2102 61.0991 36.8353 61.4569C36.1522 62.1085 35.3168 62.5955 34.2474 62.826C33.4774 62.992 32.6615 62.9999 32.0491 62.9999C31.4408 62.9999 30.5992 62.9945 29.8079 62.8172C28.8219 62.5963 28.0655 62.1605 27.4583 61.6288L27.2073 61.3954C26.7892 60.9842 26.3688 60.4529 26.0618 59.744C25.7398 59.6807 25.4391 59.6139 25.1839 59.5467C25.1378 59.5346 25.0928 59.5246 25.0579 59.5165C24.9588 59.5026 24.8771 59.4874 24.8255 59.4774C24.7206 59.4571 24.6284 59.4361 24.5687 59.4217C24.4437 59.3916 24.3127 59.3566 24.1985 59.3251C23.9626 59.26 23.6811 59.1776 23.4105 59.0956C23.1075 59.0037 22.4834 58.8125 22.0228 58.6346C22.0117 58.6316 22.0009 58.6305 21.9915 58.6278C21.8554 58.589 21.7378 58.5486 21.6585 58.5204C21.4923 58.4612 21.3209 58.3922 21.1624 58.3231L21.1614 58.3221C20.9981 58.2508 20.7846 58.1591 20.6946 58.121H20.6927C20.1797 57.9031 19.2745 57.4821 18.7708 57.2284C18.204 56.9427 17.8544 56.7671 17.598 56.6278L17.3675 56.4979C16.8127 56.17 16.0843 55.7025 15.4759 55.2977C15.1669 55.0921 14.8652 54.8873 14.6126 54.7088C14.4546 54.5972 14.0639 54.3232 13.764 54.0448C13.8097 54.0872 13.846 54.1184 13.8626 54.1327C13.8824 54.1497 13.8976 54.1622 13.9056 54.1688C13.915 54.1766 13.9215 54.1823 13.9241 54.1844C13.9161 54.178 13.8943 54.1606 13.8567 54.1317C13.7831 54.075 13.6827 53.9987 13.5775 53.9208C13.3194 53.7297 13.0267 53.5221 12.6478 53.1815C12.361 52.9237 11.9821 52.5518 11.389 51.9745C10.2524 50.868 9.54927 50.143 8.94366 49.3211C8.84465 49.1868 8.8087 49.1404 8.79327 49.121L8.78546 49.1112L8.76788 49.0917C8.65505 48.9659 8.5218 48.795 8.40558 48.6395L8.14483 48.2801C8.0193 48.1038 7.79012 47.7926 7.6546 47.6141C7.54716 47.4726 7.43923 47.3244 7.34601 47.1913C7.30046 47.1262 7.24572 47.0469 7.19171 46.9637C7.18657 46.9559 7.10013 46.8265 6.99933 46.6415C6.64075 46.1089 6.30053 45.5377 5.97394 44.9276L5.63702 44.2762C5.46866 43.9398 5.30192 43.6077 5.26397 43.5331L5.263 43.5311C5.12035 43.25 4.94084 42.8086 4.84991 42.577C4.81046 42.4765 4.76529 42.3625 4.72491 42.2645C4.70491 42.216 4.68781 42.1753 4.67511 42.1454L4.66729 42.1268C4.40929 41.5601 4.0874 40.5322 3.87628 39.829C3.64474 39.0577 3.36852 38.0773 3.2464 37.4588C3.24188 37.436 3.23425 37.4081 3.22784 37.3778C3.10745 37.3191 2.99078 37.2562 2.87726 37.1893C1.91835 36.6242 1.09897 35.8308 0.549131 34.6874C0.332999 34.2377 0.117935 33.6775 0.0413181 32.8729C-0.00136565 32.4244 0.000548324 31.8606 0.000302473 31.3387C4.64451e-05 30.8311 -0.00556162 30.2156 0.0452243 29.7401C0.0816466 29.3991 0.155553 28.9861 0.324521 28.5321C0.469655 28.1421 0.652057 27.827 0.673154 27.7889L0.877256 27.4461C1.39056 26.6474 2.16052 25.87 3.30987 25.3895C3.32382 25.3837 3.33792 25.3776 3.35187 25.3719C3.52627 24.488 3.75691 23.5536 3.96026 22.9129C4.20844 22.1311 4.64529 20.913 4.91436 20.2948L5.24054 19.5878C5.64118 18.7483 6.21347 17.616 6.48761 17.1395L6.87628 16.4784C7.00269 16.2679 7.12339 16.0704 7.23272 15.8973C7.33766 15.7312 7.45635 15.5489 7.56964 15.3876C7.57784 15.3759 7.58717 15.3617 7.59796 15.3465C7.6275 15.2968 7.65407 15.2496 7.68097 15.2079C7.75476 15.0934 7.83567 14.9821 7.9212 14.8729C8.00875 14.7337 8.08735 14.6199 8.14093 14.5467C8.21986 14.439 8.30472 14.3314 8.38897 14.2274L8.59894 13.9735C8.61387 13.9547 8.63681 13.9263 8.66632 13.8885C8.72843 13.8089 8.80782 13.7062 8.88702 13.6024C9.35432 12.9896 9.52993 12.8034 10.3968 11.8846C10.8729 11.38 11.4136 10.8441 11.8607 10.4237C12.0801 10.2173 12.3115 10.006 12.5198 9.82994C12.5941 9.76719 12.7009 9.68054 12.8235 9.58775C12.9047 9.51491 12.9774 9.45307 13.0306 9.40904C13.2141 9.25716 13.4259 9.09487 13.6321 8.94517C13.9381 8.72303 14.2992 8.45702 14.4271 8.36021C14.7816 8.09183 15.1153 7.84732 15.3968 7.6522C15.535 7.55644 15.6878 7.4535 15.8392 7.35924C15.8573 7.34793 15.9099 7.31725 15.9866 7.27232C16.0178 7.2493 16.0463 7.22736 16.0726 7.20885C16.2738 7.06714 16.4907 6.9367 16.7122 6.82506C16.7141 6.82409 16.7196 6.82064 16.7298 6.81529C16.7438 6.80794 16.7631 6.79861 16.7864 6.78599C16.8335 6.76057 16.8915 6.72813 16.9573 6.69127L17.3587 6.45982C17.8056 6.19418 19.101 5.57572 19.6165 5.35045L20.0316 5.16002C20.1905 5.08207 20.3639 5.00484 20.5374 4.93736C20.6207 4.90497 20.7486 4.85727 20.8997 4.81138C20.9104 4.80813 20.9223 4.80532 20.9349 4.80162C21.5986 4.5212 22.3478 4.29851 23.4925 3.97154C24.208 3.76719 24.6633 3.66187 26.014 3.37095C26.1737 2.975 26.3887 2.57697 26.678 2.1981L26.8607 1.97252C27.2953 1.46625 27.7808 1.09957 28.1819 0.850447C28.6349 0.569248 29.296 0.242295 30.096 0.0955638C30.5629 0.0100254 31.1371 0.00615625 31.2728 0.00376689C31.5853 -0.00174197 31.9556 -0.00130635 32.3206 0.00572002C32.8925 0.0166878 33.5043 0.0414684 34.0296 0.118025C34.251 0.150294 34.7565 0.23038 35.3021 0.461775C35.3754 0.492847 35.8381 0.685424 36.3489 1.1024C36.3751 1.12142 36.4005 1.13777 36.4222 1.15416C36.7059 1.36867 36.9257 1.58619 37.0677 1.73717C37.3555 2.04323 37.656 2.42932 37.9056 2.85924C38.014 3.04617 38.1041 3.23668 38.181 3.42467C39.4615 3.67787 40.815 4.03438 41.9046 4.40709C41.9897 4.43619 42.2206 4.5129 42.4124 4.57603C43.4259 4.90965 44.3039 5.28876 45.4593 5.85826C45.8307 6.04135 46.2623 6.26824 46.6126 6.45982C46.7875 6.55548 46.9655 6.65521 47.1185 6.74498C47.192 6.78811 47.2868 6.8444 47.3831 6.90611C47.3918 6.91169 47.401 6.91889 47.4114 6.92564C47.5912 7.01525 47.7824 7.12183 47.973 7.25279C47.9916 7.26562 48.0119 7.28069 48.0345 7.29674C48.1279 7.35154 48.2192 7.40748 48.306 7.46568C48.3887 7.52115 48.6874 7.71979 48.973 7.90806L48.8636 8.0731C48.8522 8.06002 48.8409 8.04692 48.8294 8.03404C48.9538 8.18364 49.1023 8.38217 49.2425 8.62974C49.3382 8.79882 49.4671 9.05633 49.5735 9.38853C49.6322 9.57158 49.6823 9.77741 49.7171 10.0038L49.722 9.99791C49.6917 9.77876 49.6464 9.57199 49.5862 9.37681V9.37388C49.4278 8.86097 49.174 8.43004 48.8636 8.0731L48.973 7.90806C49.336 8.14745 49.5889 8.31389 49.8528 8.51842L50.1126 8.72935ZM22.9163 58.785L23.14 58.7919C23.0455 58.7918 22.9558 58.7867 22.8724 58.7811C22.8868 58.7821 22.9014 58.7842 22.9163 58.785ZM22.4769 58.7352C22.4855 58.7367 22.4954 58.7373 22.5062 58.7391C22.4856 58.7359 22.4665 58.7315 22.4485 58.7284C22.4579 58.7301 22.4672 58.7335 22.4769 58.7352ZM47.2142 55.8973C47.2783 55.8837 47.3305 55.8726 47.3675 55.8631C47.3813 55.8596 47.3942 55.854 47.4075 55.8504C47.3509 55.8654 47.2864 55.8821 47.2142 55.8973ZM47.7142 55.7557C47.7351 55.7483 47.7544 55.7432 47.7708 55.7372C47.7833 55.7325 47.7949 55.7261 47.8069 55.7215C47.7775 55.7327 47.7467 55.7443 47.7142 55.7557ZM52.5511 50.9833C52.5157 51.1736 52.4691 51.3453 52.4202 51.496C52.4742 51.333 52.518 51.1622 52.5511 50.9833ZM54.6478 49.7215C54.7188 49.6632 54.7723 49.6168 54.803 49.5887C54.81 49.5823 54.8169 49.5754 54.8235 49.5692C54.7721 49.6162 54.713 49.6676 54.6478 49.7215ZM6.94464 46.5379C6.95003 46.5483 6.95564 46.5576 6.96026 46.5663C6.93278 46.5135 6.90424 46.4575 6.87726 46.3993C6.90622 46.4618 6.93046 46.5106 6.94464 46.5379ZM60.098 39.9745C60.0998 39.9624 60.103 39.95 60.1048 39.9374C60.1104 39.8977 60.1179 39.8355 60.1253 39.7557C60.118 39.8352 60.1074 39.9085 60.098 39.9745ZM55.8509 14.8846C55.8374 14.835 55.8234 14.7884 55.8099 14.745C55.8017 14.7188 55.7944 14.6936 55.7864 14.6698C55.8072 14.7327 55.8293 14.8045 55.8509 14.8846ZM10.2718 13.6112C9.91159 13.6714 9.58857 13.7785 9.30011 13.912C9.56151 13.7944 9.91235 13.6695 10.3343 13.6034L10.2718 13.6112ZM12.2806 10.1629C11.8396 10.6905 11.5259 11.3662 11.4407 12.1971C11.5416 11.324 11.9011 10.7337 11.9593 10.6336C12.0804 10.4254 12.2009 10.2642 12.2806 10.1629ZM49.7171 10.0038C49.7461 10.1928 49.7659 10.3967 49.7659 10.6131C49.7659 10.3981 49.749 10.1933 49.722 9.99791L49.7171 10.0038ZM16.5316 6.994C16.5108 7.00316 16.4904 7.01287 16.47 7.02232C16.5465 6.98806 16.6264 6.95223 16.7103 6.92076L16.5316 6.994ZM21.4222 4.68931C21.4098 4.69152 21.3979 4.6949 21.386 4.69713C21.4094 4.69292 21.4348 4.68784 21.4622 4.68345C21.447 4.68602 21.4333 4.68733 21.4222 4.68931ZM34.223 0.307478C34.2193 0.307183 34.2158 0.305809 34.2122 0.305525L33.9066 0.293806L34.223 0.307478ZM50.1253 8.7401L50.1273 8.74205C50.1221 8.73764 50.1173 8.73329 50.1126 8.72935L50.1253 8.7401Z" fill="#062A12" fill-opacity="0.5"/>
</svg>
