<svg width="66" height="69" viewBox="0 0 66 69" fill="none" xmlns="http://www.w3.org/2000/svg">
<path d="M54.9894 0.00168771C56.0967 -0.00388595 56.9762 -0.0126895 58.043 0.283799L58.5123 0.429919L58.9976 0.613653C60.1184 1.07497 61.1552 1.77384 62.0237 2.7823C62.9697 3.88104 63.5306 5.13339 63.901 6.32388C64.2991 7.60397 64.5118 8.37043 64.6456 9.39673L64.8382 10.6727C65.2629 13.2403 65.2683 15.389 65.267 35.5955C65.2663 46.0284 65.2634 51.4572 65.2105 54.4276C65.165 56.981 65.0884 58.0902 64.802 59.1989L64.6659 59.6792C64.6386 59.7679 64.6163 59.8469 64.6021 59.8991C64.593 59.9451 64.588 59.9804 64.5833 60.0018C64.5483 60.1599 64.5113 60.2865 64.4891 60.3591C64.4442 60.5062 64.3989 60.6283 64.3733 60.6962C64.3182 60.8417 64.2583 60.9822 64.211 61.0912L63.8619 61.8449C63.3317 62.9317 62.772 63.6684 61.9686 64.5185C61.7206 64.7809 61.464 65.0399 61.2385 65.2534C61.1335 65.3529 60.9881 65.4884 60.83 65.6194C60.7605 65.6771 60.6105 65.7987 60.4172 65.929C60.3503 65.9742 60.2265 66.0496 60.0652 66.1388C59.7765 66.337 59.5307 66.4776 59.409 66.5439C59.1019 66.7113 58.7749 66.8691 58.4689 67.0054C57.8934 67.2617 57.1334 67.5587 56.4278 67.7432L56.4264 67.7447L55.6253 67.953L55.0749 68.0977H54.5041L11.5193 68.1469H11.0716L9.69985 67.8705C8.41427 67.6117 7.10039 67.2039 5.91328 66.4846C5.81592 66.4256 5.57577 66.2822 5.38166 66.1648C4.89602 65.8714 4.45745 65.4836 4.2764 65.3229C4.00692 65.0835 3.71355 64.8038 3.44347 64.5243C2.53433 63.5833 2.06294 62.8889 1.49949 61.7162C1.35155 61.4083 1.20806 61.095 1.09389 60.825C1.03917 60.6956 0.973673 60.5354 0.914264 60.3722C0.886236 60.2951 0.840477 60.1646 0.795481 60.009C0.773156 59.9319 0.738373 59.803 0.70567 59.6445C0.703174 59.6323 0.701886 59.6171 0.698427 59.5996C0.544943 59.1372 0.447509 58.637 0.405816 58.4118C0.339357 58.0529 0.275685 57.6422 0.226193 57.2472C0.124415 56.4353 0.0920267 55.2242 0.0682989 52.3095C0.0435153 49.2652 0.0300881 44.0968 0.0147018 35.1094C-0.001039 25.9141 -0.00591462 20.7535 0.00890751 17.7877C0.0228603 14.9963 0.0476341 13.8477 0.171147 13.0266C0.372579 11.6894 0.78162 10.2065 1.40968 8.98152C1.89151 8.04188 2.56884 7.16592 3.18273 6.4946C3.76355 5.85943 4.61909 5.04142 5.61198 4.48509C7.29438 3.54248 8.50223 3.11373 10.401 2.78664C11.2757 2.63597 12.0632 2.59847 14.2991 2.57686C16.6081 2.55455 20.7642 2.55227 28.6008 2.55227C36.5801 2.55227 40.6682 2.55055 42.804 2.52912C43.4271 2.52286 43.8475 2.51396 44.1295 2.50597C44.1391 2.50207 44.1488 2.49826 44.1584 2.4944L44.5177 2.36275C44.5269 2.35958 44.5478 2.35333 44.5829 2.34105C44.6376 2.3219 44.709 2.29574 44.7929 2.26582C44.9602 2.20616 45.1642 2.13262 45.3622 2.06038C45.7962 1.9019 46.3963 1.69255 46.7195 1.59164C46.9339 1.5247 47.3901 1.38081 47.7306 1.27336C48.8545 0.918716 50.3726 0.546958 51.762 0.270779C52.816 0.0612388 53.764 0.00780338 54.9894 0.00168771ZM64.6514 59.5837C64.6539 59.5642 64.659 59.5433 64.6615 59.5215C64.6649 59.4924 64.6666 59.4572 64.6702 59.4173C64.6651 59.4762 64.6578 59.5317 64.6514 59.5837ZM64.6775 59.3464C64.6777 59.3426 64.6786 59.3387 64.6789 59.3349C64.684 59.262 64.6905 59.1562 64.6905 59.0281C64.6905 59.1408 64.6846 59.2475 64.6775 59.3464ZM51.7519 50.4085C51.7502 50.4116 51.7526 50.4079 51.7576 50.3984V50.3955C51.7547 50.4008 51.7533 50.4058 51.7519 50.4085ZM31.6906 15.4903C31.4048 15.5339 31.1337 15.6034 30.8779 15.6958L30.8794 15.7016C31.1115 15.6183 31.3841 15.5421 31.692 15.4932L31.6906 15.4903Z" fill="#062A12" fill-opacity="0.5"/>
</svg>
