<svg width="100" height="100" viewBox="0 0 100 100" fill="none" xmlns="http://www.w3.org/2000/svg">
<g clip-path="url(#clip0_479_598)">
<mask id="mask0_479_598" style="mask-type:alpha" maskUnits="userSpaceOnUse" x="0" y="0" width="100" height="100">
<path d="M83.3333 -6.10352e-05H16.6667C7.46192 -6.10352e-05 0 7.46186 0 16.6666V83.3333C0 92.538 7.46192 99.9999 16.6667 99.9999H83.3333C92.5381 99.9999 100 92.538 100 83.3333V16.6666C100 7.46186 92.5381 -6.10352e-05 83.3333 -6.10352e-05Z" fill="#C4C4C4"/>
</mask>
<g mask="url(#mask0_479_598)">
<path d="M83.3333 -1.52588e-05H16.6667C7.46192 -1.52588e-05 0 7.46191 0 16.6667V83.3333C0 92.5381 7.46192 100 16.6667 100H83.3333C92.5381 100 100 92.5381 100 83.3333V16.6667C100 7.46191 92.5381 -1.52588e-05 83.3333 -1.52588e-05Z" fill="#FCFCFC"/>
<path fill-rule="evenodd" clip-rule="evenodd" d="M58.9155 -4.16665L58.9157 21.6071L58.9336 21.8394C58.9814 22.1413 59.1243 22.4115 59.3626 22.6498C59.5532 22.8404 59.7643 22.97 59.9955 23.0388L60.173 23.0788L60.4053 23.0965H68.568L68.8218 23.08C69.1491 23.0354 69.4318 22.9021 69.6701 22.6796C69.8689 22.4942 70.0011 22.2736 70.0674 22.0175L70.1047 21.819L70.117 21.6071L70.1193 -4.13932L70.9628 -4.12082L72.5703 -4.06934L74.0768 -3.99882L75.4884 -3.90923C76.6268 -3.82663 77.6724 -3.72425 78.6405 -3.60254L78.6309 -3.47073L78.5924 -2.49315L78.5609 -0.893713L78.5436 1.748L78.5449 3.46435L78.5603 5.55827L78.5828 6.80693L78.6028 7.4861C78.8014 12.8088 80.5293 16.8405 83.7863 19.5813C87.0434 22.3221 91.4922 23.6925 97.1324 23.6925C99.5709 23.6925 101.785 23.4363 103.774 22.924C103.834 23.5417 103.886 24.1888 103.932 24.8684L104.016 26.2723L104.08 27.7686C104.089 28.0259 104.098 28.2873 104.106 28.5529L104.143 30.1984C104.152 30.7642 104.158 31.3477 104.162 31.9498L104.165 33.9081C102.063 33.285 99.7184 32.9736 97.1324 32.9736C91.5716 32.9736 87.1328 34.3936 83.8161 37.2338C80.6376 39.9554 78.9093 43.7806 78.6309 48.7094L78.5924 49.6871L78.5609 51.2863L78.5436 53.9281L78.5449 55.6446L78.5603 57.7386L78.5828 58.9871L78.6028 59.6663C78.8014 64.989 80.5293 69.0206 83.7863 71.7615C87.0434 74.5021 91.4922 75.8725 97.1324 75.8725C99.6378 75.8725 101.906 75.6023 103.937 75.0615C103.526 81.2148 102.559 84.7106 101.085 87.8411L100.706 88.6175L100.306 89.3865C97.7878 94.0942 94.0932 97.7888 89.3855 100.306C87.3851 101.376 85.3916 102.234 82.7722 102.866L82.773 86.8404L82.7616 86.6284C82.7228 86.2865 82.5878 85.9996 82.3561 85.7677C82.1707 85.5825 81.9501 85.4588 81.6941 85.3971L81.4953 85.3623L81.2836 85.3509H65.2564L64.4764 85.3611C61.3909 85.4444 58.7116 86.0269 56.4382 87.1086C53.9757 88.2802 52.1089 89.9188 50.8378 92.024C49.5666 94.1292 48.9312 96.5323 48.9312 99.2334C48.9312 101.021 49.198 102.666 49.732 104.166L32.8672 104.165C32.2926 104.165 31.7341 104.162 31.1914 104.157L29.6091 104.133L28.1161 104.093C27.8747 104.085 27.6366 104.077 27.4018 104.068L26.0347 104.004L24.7457 103.925C24.3289 103.896 23.9241 103.865 23.5309 103.83L22.3853 103.72C21.0878 103.583 19.9232 103.414 18.8601 103.215L17.9729 103.036L17.1312 102.843C16.8576 102.776 16.5909 102.706 16.3303 102.634L15.5659 102.411C15.1921 102.296 14.8304 102.175 14.4782 102.049L13.7859 101.789L13.8048 101.2C13.9637 96.1946 16.2874 93.6923 20.7758 93.6923C22.6426 93.6923 24.1422 94.0796 25.2743 94.8542L25.8626 95.2611C26.7734 95.9046 27.7837 96.7165 28.5412 97.9404L28.7837 98.3638C29.4549 99.6336 30.0993 99.799 30.6149 99.7927L30.8434 99.7811L31.0516 99.7657C31.0843 99.7638 31.1162 99.7627 31.1472 99.7627C31.2145 99.7627 31.3272 99.7309 31.4851 99.6671L31.7561 99.5479L32.2897 99.2792L32.9762 98.9032L33.8155 98.4196L35.1722 97.6077L36.368 96.8736C37.2124 96.3509 37.8543 95.4123 37.7112 93.9304C37.568 92.4488 34.2353 89.269 31.1472 87.4648L30.4284 87.0502L29.7445 86.6719C27.5059 85.4702 25.5932 84.8552 21.4714 84.6579L20.8362 84.6315L20.1421 84.6163L19.4595 84.6207C14.4964 84.7252 10.4633 86.3884 7.45947 88.9554C5.64005 90.5102 4.29509 92.4294 3.42461 94.7127C1.98676 93.1211 0.738626 91.3411 -0.30668 89.3865L-0.706976 88.6175L-1.08622 87.8411C-2.56084 84.7109 -3.5267 81.2148 -3.93826 75.0617C-1.90511 75.6027 0.363365 75.8725 2.86653 75.8725C8.50686 75.8725 12.9456 74.5021 16.1828 71.7615C19.4201 69.0206 21.138 64.989 21.3366 59.6663L21.4128 57.2448L21.4451 55.7542L21.4557 54.5423L21.447 53.4713L21.3928 51.115L21.3366 49.3586C21.1778 44.1154 19.4399 40.0738 16.1233 37.2338C12.8066 34.3936 8.3877 32.9736 2.86653 32.9736C0.278688 32.9736 -2.06614 33.2811 -4.16797 33.8963L-4.15789 31.2673L-4.13611 29.7527L-4.09991 28.3196L-4.04939 26.9644L-3.98466 25.6829L-3.90564 24.4717C-3.8913 24.2754 -3.87641 24.0819 -3.86089 23.8911L-3.76078 22.7779L-3.64668 21.7252L-3.51862 20.7294C-3.49614 20.5679 -3.47307 20.4086 -3.44941 20.2514L-3.30066 19.3336C-3.24876 19.0357 -3.19455 18.7457 -3.13811 18.4629L-2.96195 17.6357L-2.7722 16.8481L-2.56899 16.0963C-2.53399 15.9737 -2.49843 15.8525 -2.46232 15.7326L-2.23895 15.0274C-2.20062 14.9122 -2.1617 14.7979 -2.12224 14.6848L-1.87893 14.0175L-1.62239 13.3708C-1.57854 13.2645 -1.53416 13.1589 -1.48922 13.054L-1.21306 12.4309L-0.923844 11.8189L-0.621682 11.2141L-0.30668 10.6127C2.21099 5.90498 5.90553 2.21037 10.6132 -0.307338L11.5163 -0.775028L12.1243 -1.07069L12.7413 -1.35347C12.8451 -1.3995 12.9495 -1.44495 13.0544 -1.48989L13.6923 -1.75305C13.8 -1.7958 13.9086 -1.83802 14.0179 -1.87967L14.6853 -2.12298L15.3769 -2.35298C15.6119 -2.42744 15.8516 -2.49963 16.0967 -2.56963L16.8485 -2.77296L17.6361 -2.96271L18.4633 -3.13882C18.746 -3.19527 19.036 -3.24948 19.3339 -3.30136L20.2518 -3.45013C20.4089 -3.47377 20.5682 -3.49684 20.7296 -3.51934L21.7255 -3.64738L22.7782 -3.76144L23.8914 -3.86161L25.0691 -3.94769L26.3149 -4.01952L27.6326 -4.07717L29.0264 -4.12059L30.4997 -4.14957L32.0564 -4.164L37.4016 -4.16665C37.3599 0.772747 36.9716 4.69192 36.2378 7.60677L36.0964 8.14158C35.2224 11.2796 33.733 13.0273 31.6278 13.3848C30.8084 13.5486 30.3272 13.9287 30.1839 14.5251L30.1487 14.732L30.1382 14.9339V21.5475L30.1514 21.7427C30.1955 22.0627 30.3501 22.3552 30.6149 22.62C30.9326 22.9377 31.2901 23.0965 31.6874 23.0965C36.2155 23.0171 39.6611 22.0936 42.0247 20.326C44.388 18.5584 46.0066 15.8077 46.8805 12.074C47.6689 8.7051 48.1016 4.10748 48.1786 -1.71889L48.1882 -2.70132L48.1911 -4.16665H58.9155ZM71.6316 93.9304L71.6309 104.101L69.9189 104.142L68.0909 104.163L65.0124 104.166C63.6209 104.088 62.5503 103.665 61.8005 102.898C60.9666 102.044 60.5495 100.822 60.5495 99.2334C60.5495 97.6444 60.9864 96.3636 61.8601 95.3904C62.5811 94.5875 63.5318 94.1159 64.7124 93.9752L65.1143 93.9407L65.4947 93.9304H71.6316ZM49.8093 32.9736C44.2086 32.9736 39.7699 34.3738 36.493 37.174C33.2159 39.9744 31.4782 43.9565 31.2797 49.1202L31.2612 49.7429L31.2299 51.8073L31.2216 53.394V55.5529L31.2462 58.4048L31.2699 59.4392L31.2797 59.7259C31.4782 65.0088 33.1962 69.0206 36.4334 71.7615C39.6707 74.5021 44.1293 75.8725 49.8093 75.8725C53.3445 75.8725 56.5122 75.2967 59.3126 74.1446C62.1128 72.9927 64.3272 71.3246 65.9557 69.1398C67.5843 66.9552 68.4384 64.3734 68.5178 61.3942C68.5178 61.0367 68.3886 60.7388 68.1305 60.5004C67.9755 60.3573 67.8028 60.2573 67.6122 60.2L67.4155 60.1573L67.207 60.1429H58.7466L58.4801 60.1521C58.0553 60.1823 57.727 60.2886 57.4953 60.4706C57.2636 60.6527 57.0732 60.9659 56.9243 61.4098L56.8399 61.6921C56.3234 63.5988 55.4795 64.9492 54.3076 65.7438C53.1359 66.5381 51.6366 66.9352 49.8093 66.9352C45.4612 66.9352 43.1447 64.5869 42.8597 59.8898L42.827 59.0625L42.7999 57.7692L42.7809 55.585L42.7832 52.6721L42.8103 50.4242L42.8384 49.4181C42.9972 44.4134 45.3209 41.9109 49.8093 41.9109C51.6761 41.9109 53.1757 42.2981 54.3076 43.0727C55.4397 43.8473 56.2839 45.2077 56.8399 47.1542C57.0384 47.7498 57.267 48.1571 57.5251 48.3756C57.6972 48.5213 57.9355 48.6184 58.2401 48.6669L58.4809 48.6942L58.7466 48.7031H67.207L67.4155 48.689C67.6855 48.6509 67.9239 48.5363 68.1305 48.3456C68.3886 48.1073 68.5178 47.8094 68.5178 47.4519C68.4384 44.4729 67.5843 41.8911 65.9557 39.7063C64.3272 37.5217 62.1128 35.8534 59.3126 34.7015C56.5122 33.5494 53.3445 32.9736 49.8093 32.9736ZM97.1324 41.9109C99.1978 41.9109 100.846 42.5365 102.078 43.7877C103.309 45.039 103.964 46.9554 104.044 49.5373L104.133 52.4121L104.16 53.8156V54.9146L104.122 56.7704L104.044 59.3088C103.964 61.8906 103.309 63.8073 102.078 65.0586C100.846 66.3096 99.1978 66.9352 97.1324 66.9352C95.0272 66.9352 93.3591 66.3096 92.1276 65.0586C90.9784 63.8906 90.3309 62.1432 90.1851 59.8163L90.1501 58.9484L90.1234 57.6881L90.1072 56.1598V52.6027L90.1234 51.1104L90.1501 49.8859L90.1616 49.5373C90.2409 46.9554 90.8964 45.039 92.1276 43.7877C93.3591 42.5365 95.0272 41.9109 97.1324 41.9109ZM2.86653 41.9109C4.93199 41.9109 6.58043 42.5365 7.81176 43.7877C9.04311 45.039 9.69849 46.9554 9.77792 49.5373L9.8673 52.4121L9.8938 53.8156V54.9146L9.85655 56.7704L9.77792 59.3088C9.69849 61.8906 9.04311 63.8073 7.81176 65.0586C6.58043 66.3096 4.93199 66.9352 2.86653 66.9352C0.76133 66.9352 -0.906942 66.3096 -2.13828 65.0586C-3.28753 63.8906 -3.93503 62.1432 -4.08084 59.8163L-4.11578 58.9484L-4.14255 57.6881L-4.16164 55.5909V53.16L-4.14255 51.1104L-4.11578 49.8859L-4.10443 49.5373C-4.02499 46.9554 -3.36961 45.039 -2.13828 43.7877C-0.906942 42.5365 0.76133 41.9109 2.86653 41.9109ZM14.1369 11.9025C11 11.9025 8.42938 14.4076 8.47295 17.5011C8.42938 20.6381 11 23.165 14.1369 23.165C17.1214 23.165 19.7572 20.6381 19.8008 17.5011C19.7572 14.4076 17.1214 11.9025 14.1369 11.9025ZM100.306 10.6127C100.778 11.496 101.209 12.3779 101.597 13.3129C100.43 14.2755 98.9409 14.7551 97.1324 14.7551C95.0272 14.7551 93.3591 14.1295 92.1276 12.8783C90.9784 11.7105 90.3309 9.96316 90.1851 7.63621L90.1501 6.76814L90.1234 5.50802L90.1072 3.97977L90.1064 0.562358C90.1074 0.40252 90.1084 0.246404 90.1097 0.0941191C94.4741 2.5971 97.9186 6.14966 100.306 10.6127Z" fill="#FF5700"/>
</g>
</g>
<defs>
<clipPath id="clip0_479_598">
<rect width="100" height="100" fill="white"/>
</clipPath>
</defs>
</svg>
