<svg width="100" height="100" viewBox="0 0 100 100" fill="none" xmlns="http://www.w3.org/2000/svg">
<g clip-path="url(#clip0_485_729)">
<path d="M81.8159 1.52588e-05H18.1841C8.14132 1.52588e-05 0 8.14133 0 18.1842V81.8159C0 91.8587 8.14132 100 18.1841 100H81.8159C91.8587 100 100 91.8587 100 81.8159V18.1842C100 8.14133 91.8587 1.52588e-05 81.8159 1.52588e-05Z" fill="white"/>
<mask id="mask0_485_729" style="mask-type:luminance" maskUnits="userSpaceOnUse" x="20" y="20" width="60" height="60">
<path d="M79.1719 20.8296H20.8311V79.1704H79.1719V20.8296Z" fill="white"/>
</mask>
<g mask="url(#mask0_485_729)">
<path d="M49.9986 79.1693C44.0506 79.1674 38.219 77.5006 33.1474 74.3529C28.0758 71.2052 23.962 66.6988 21.26 61.3315C21.0044 60.8702 20.8429 60.3615 20.7854 59.8359C20.7279 59.3102 20.7754 58.7779 20.9252 58.2713C21.0749 57.7645 21.3238 57.2933 21.6571 56.8861C21.9904 56.4788 22.4011 56.1438 22.8649 55.9006C23.3288 55.6577 23.8363 55.5115 24.357 55.4713C24.8777 55.4311 25.4011 55.4972 25.8958 55.6661C26.3908 55.8352 26.847 56.1031 27.2374 56.4545C27.6279 56.8056 27.9447 57.2329 28.1686 57.7108C30.2154 61.7958 33.339 65.2268 37.1931 67.6236C41.0474 70.0202 45.4815 71.289 50.004 71.289C54.5267 71.289 58.9608 70.0202 62.8152 67.6236C66.6692 65.2268 69.7929 61.7958 71.8395 57.7108C72.0742 57.2499 72.3963 56.8402 72.7872 56.5054C73.1783 56.1706 73.6306 55.917 74.1183 55.759C74.6061 55.6013 75.1197 55.5422 75.6299 55.5856C76.1401 55.6288 76.637 55.7733 77.092 56.0111C77.5472 56.2488 77.9515 56.5752 78.2822 56.9711C78.6126 57.3672 78.8631 57.8254 79.0188 58.3193C79.1747 58.8133 79.2329 59.3336 79.1902 59.8504C79.1474 60.3672 79.0047 60.8706 78.7699 61.3315C76.0665 66.7045 71.9477 71.2149 66.8697 74.3631C61.7915 77.5115 55.9524 79.1749 49.9986 79.1693Z" fill="#63B440"/>
<path d="M64.8975 45.975C64.83 44.1527 64.3384 42.3723 63.4627 40.7791C62.587 39.1857 61.3518 37.8248 59.8579 36.8068C56.8307 34.9839 53.3411 34.1023 49.8229 34.2714H49.3529H45.2975V27.783H58.415C58.8707 27.7961 59.3241 27.718 59.7495 27.553C60.1752 27.388 60.5643 27.1391 60.8945 26.8211C61.2248 26.5032 61.4895 26.122 61.6738 25.7C61.8579 25.2777 61.9579 24.823 61.9677 24.3614C61.9504 23.4109 61.5627 22.5059 60.8888 21.8441C60.215 21.1823 59.31 20.8175 58.3713 20.8294H41.7339C40.7916 20.8294 39.8879 21.2085 39.2216 21.8833C38.5554 22.5582 38.1811 23.4734 38.1811 24.428V37.6373C38.1798 38.1102 38.2707 38.5789 38.4486 39.0161C38.6266 39.4534 38.8882 39.8507 39.2184 40.1852C39.5486 40.5195 39.9409 40.7845 40.3725 40.965C40.8043 41.1452 41.2668 41.2373 41.7339 41.2359H49.9652C55.4309 41.2359 57.2345 43.8048 57.2345 46.44C57.2345 49.0752 55.8134 53.2164 50.0636 53.2164C48.5093 53.1675 46.9807 52.8043 45.567 52.1484C44.1534 51.4923 42.8836 50.5566 41.8323 49.3964C40.0723 47.7909 38.2795 47.9016 37.0989 48.9645C36.4641 49.5418 36.0684 50.3409 35.9914 51.2016C35.9143 52.062 36.1616 52.9202 36.6834 53.6039C38.1929 55.7641 40.2014 57.5173 42.5336 58.71C44.8661 59.9027 47.4514 60.4991 50.0636 60.4466C52.1791 60.51 54.2845 60.1264 56.2457 59.3198C58.2068 58.5134 59.9807 57.302 61.4541 55.763C62.6588 54.457 63.5863 52.9145 64.1786 51.2309C64.7709 49.5473 65.0157 47.7582 64.8975 45.975Z" fill="#575656"/>
</g>
</g>
<defs>
<clipPath id="clip0_485_729">
<rect width="100" height="100" fill="white"/>
</clipPath>
</defs>
</svg>
