<svg width="100" height="100" viewBox="0 0 100 100" fill="none" xmlns="http://www.w3.org/2000/svg">
<g clip-path="url(#clip0_485_767)">
<path d="M75 -1.52588e-05H25C11.1929 -1.52588e-05 0 11.1929 0 25V75C0 88.8071 11.1929 100 25 100H75C88.8071 100 100 88.8071 100 75V25C100 11.1929 88.8071 -1.52588e-05 75 -1.52588e-05Z" fill="white"/>
<path d="M69.668 27.5292H30.9482V42.6877H69.668V27.5292Z" fill="url(#paint0_linear_485_767)"/>
<path d="M14.998 71.4832V42.7182L30.9468 27.5V71.4535H14.998V71.4832Z" fill="url(#paint1_linear_485_767)"/>
<path d="M85.6474 71.4832V42.7182L69.6396 27.5V71.4535H85.6474V71.4832Z" fill="url(#paint2_linear_485_767)"/>
</g>
<defs>
<linearGradient id="paint0_linear_485_767" x1="34.8297" y1="30.2892" x2="64.5152" y2="39.3515" gradientUnits="userSpaceOnUse">
<stop stop-color="#00F0FF"/>
<stop offset="1" stop-color="#0184FF"/>
</linearGradient>
<linearGradient id="paint1_linear_485_767" x1="22.9688" y1="67.4555" x2="22.9688" y2="31.1927" gradientUnits="userSpaceOnUse">
<stop stop-color="#0184FF"/>
<stop offset="1" stop-color="#2FAAF4"/>
</linearGradient>
<linearGradient id="paint2_linear_485_767" x1="77.6634" y1="70.7988" x2="77.6634" y2="30.167" gradientUnits="userSpaceOnUse">
<stop offset="0.17" stop-color="#0184FF"/>
<stop offset="0.91" stop-color="#04BBE4"/>
</linearGradient>
<clipPath id="clip0_485_767">
<rect width="100" height="100" fill="white"/>
</clipPath>
</defs>
</svg>
