<svg width="100" height="100" viewBox="0 0 100 100" fill="none" xmlns="http://www.w3.org/2000/svg">
<g clip-path="url(#clip0_485_691)">
<path d="M83.3333 0H16.6667C7.46192 0 0 7.46192 0 16.6667V83.3333C0 92.5381 7.46192 100 16.6667 100H83.3333C92.5381 100 100 92.5381 100 83.3333V16.6667C100 7.46192 92.5381 0 83.3333 0Z" fill="white"/>
<mask id="mask0_485_691" style="mask-type:luminance" maskUnits="userSpaceOnUse" x="12" y="12" width="76" height="76">
<path d="M87.2918 12.5H12.5V87.2918H87.2918V12.5Z" fill="white"/>
</mask>
<g mask="url(#mask0_485_691)">
<path d="M49.8948 12.5C29.2745 12.5 12.5 29.277 12.5 49.8948C12.5 70.5123 29.2745 87.2918 49.8948 87.2918C70.5148 87.2918 87.2918 70.5148 87.2918 49.8948C87.2918 29.2745 70.5148 12.5 49.8948 12.5Z" fill="white"/>
<path d="M70.4039 24.2875C65.8339 36.1607 53.7055 34.6234 45.1428 34.9204L43.0628 43.0241C53.6221 34.4293 67.58 42.9504 66.0869 55.9361C65.0825 64.6829 58.8478 70.4022 52.2519 72.0475C45.0641 73.8402 37.1028 71.1586 33.5323 63.8334C33.0387 62.8093 32.6073 61.7563 32.2407 60.6804L39.8212 58.7354C39.9678 59.1732 40.1691 59.5909 40.4205 59.9779C45.4939 68.1602 55.7757 64.0691 56.9371 55.5825C58.1159 46.9459 45.9996 42.3441 40.4844 52.4368L33.7582 49.5586L33.6405 49.5095L36.1428 39.4659C36.543 37.6782 37.7339 33.015 37.8616 32.5632C38.0753 31.8657 38.1219 31.6347 38.3528 31.0013C42.66 19.6832 51.1762 18.5413 58.7348 18.5413C59.0369 18.5413 59.3364 18.5413 59.6334 18.5413C51.8116 16.0915 43.3571 16.649 35.9248 20.1048C28.4923 23.5607 22.6172 29.6659 19.4494 37.2254C16.2817 44.785 16.0492 53.2547 18.7977 60.9768C21.5461 68.6986 27.0775 75.117 34.3091 78.9752C41.5407 82.8334 49.9521 83.8538 57.8964 81.8366C65.841 79.8195 72.7464 74.91 77.2616 68.0691C81.7766 61.2284 83.5762 52.9486 82.3078 44.8509C81.0394 36.7532 76.7946 29.4202 70.4039 24.2875Z" fill="#E52322"/>
<path d="M67.4175 22.0553C66.1455 26.0068 63.9255 28.4943 60.4948 29.8327C56.9241 31.2227 52.5798 31.2595 48.3755 31.3063C46.1162 31.3234 43.955 31.3407 41.9707 31.5788C45.5366 22.9638 51.9387 22.1142 58.7659 22.1142C59.7162 22.1142 60.6691 22.1339 61.59 22.1535C62.5109 22.1732 63.3802 22.1879 64.2473 22.1879C65.4898 22.1879 66.5114 22.1511 67.4175 22.0676" fill="#00923A"/>
</g>
</g>
<defs>
<clipPath id="clip0_485_691">
<rect width="100" height="100" fill="white"/>
</clipPath>
</defs>
</svg>
