<svg width="76" height="70" viewBox="0 0 76 70" fill="none" xmlns="http://www.w3.org/2000/svg">
<path d="M30.1309 0.000821872C31.0326 -0.00774725 32.0927 0.0517665 32.9632 0.129162C33.4096 0.168865 33.8746 0.218194 34.3011 0.279561C34.5107 0.309725 35.1081 0.401921 35.7533 0.59239C36.5332 0.742981 37.0778 0.982494 37.2016 1.03557C37.6296 1.21899 38.0057 1.42487 38.3028 1.60508C38.6054 1.78863 38.9436 2.0157 39.2796 2.28488C39.4859 2.4501 40.0042 2.87371 40.5072 3.52617L40.7219 3.82095L40.9004 4.09568C41.1188 4.44602 41.4342 5.02212 41.6546 5.78215C41.8765 6.54787 41.92 7.22319 41.9374 7.52276C41.9727 8.1288 41.9715 9.04777 41.9715 10.238V11.9926C42.6399 12.27 43.2885 12.5698 44.1238 12.9832C44.6797 13.2584 45.2225 13.5187 45.8007 13.8596C46.0598 14.0123 46.331 14.1843 46.6291 14.3789L47.62 15.0347C47.87 15.2008 48.1454 15.3975 48.4043 15.6022C48.453 15.6406 48.5214 15.6938 48.6009 15.7606C48.6477 15.7939 48.6905 15.8235 48.7253 15.8488C48.9559 16.0173 49.2137 16.2149 49.4514 16.4023C49.683 16.5849 49.948 16.7995 50.2116 17.0179L50.9618 17.6596C51.0716 17.7582 51.2159 17.8982 51.377 18.0527C51.3937 18.0529 51.4104 18.0545 51.4272 18.0547C52.7726 18.0683 54.6009 18.0788 56.5823 18.0808C59.8983 18.084 61.7912 18.0877 62.8967 18.1088C63.6193 18.1227 64.6409 18.129 65.711 18.3996L66.1723 18.532L66.5555 18.6663C70.4396 20.135 71.8668 23.8599 71.867 26.7598C71.867 27.0069 71.8524 27.2555 71.8329 27.5037C72.0158 27.6071 72.1914 27.7148 72.3584 27.8246C72.6288 28.0022 73.0572 28.3034 73.4958 28.729C73.7087 28.9357 74.0753 29.3172 74.4285 29.858C74.4399 29.8755 74.4497 29.8959 74.4626 29.9161C74.4793 29.9397 74.4982 29.9611 74.5127 29.9823C74.8199 30.4293 75.0117 30.8311 75.1065 31.0391C75.3119 31.4903 75.4535 31.9167 75.5417 32.2122C75.6706 32.6435 75.8089 33.206 75.8988 33.8145L75.971 34.4341C76.1432 36.586 75.5509 39.2718 73.5319 41.2702C72.9291 41.8668 72.0858 42.5572 70.9182 43.057C70.6274 43.1814 70.3412 43.2807 70.0657 43.3638C70.0656 43.3884 70.0679 43.4131 70.0677 43.436C70.0662 43.7208 70.0714 44.4639 69.9454 45.2167C69.7615 46.3148 69.3788 47.1 69.1511 47.5348C68.9809 47.8597 68.7961 48.1601 68.6034 48.4433C68.7648 48.8593 68.9185 49.3615 69.0106 49.9513C69.1262 50.6908 69.1148 51.4422 69.1149 51.726C69.115 52.0528 69.1197 52.7364 69.0207 53.4265C68.9116 54.1865 68.711 54.8042 68.5032 55.2954L68.2965 55.7446C67.793 56.767 67.0166 57.7064 66.2947 58.3415C66.2836 58.3513 66.2724 58.3605 66.2486 58.3816C66.2287 58.3992 66.1961 58.4285 66.1603 58.4598C66.0898 58.5215 65.9643 58.6277 65.8113 58.7486C65.4738 59.0151 65.0066 59.342 64.3971 59.6309C63.2354 60.1815 62.1359 60.3173 61.4946 60.3769C60.3228 60.4858 58.3874 60.4898 55.4169 60.5133L52.38 60.5373C51.8571 61.082 51.3247 61.6072 50.9097 61.9751C50.2474 62.5622 49.6157 63.1004 49.0964 63.5152C48.8482 63.7134 48.5527 63.9406 48.2579 64.1449C48.226 64.167 48.1868 64.192 48.1436 64.2211L48.1416 64.2231C47.8223 64.4751 47.5017 64.6843 47.2269 64.8467C47.174 64.878 47.1007 64.9225 47.0283 64.9671C46.993 64.9888 46.9624 65.0072 46.9401 65.0212C46.9339 65.0251 46.9296 65.029 46.926 65.0312C46.1314 65.5504 45.0197 66.1586 44.0997 66.6335C43.2485 67.0729 42.0597 67.6588 41.1692 67.973C38.8989 68.7741 37.4849 69.1612 35.2699 69.5612C34.041 69.783 31.9399 69.8156 30.5561 69.8159C29.1425 69.8163 27.0708 69.7808 25.8483 69.5733C23.1828 69.1208 21.6075 68.7333 19.3634 67.9189C18.0137 67.4291 16.474 66.6487 15.1932 65.9196C13.9374 65.2047 12.4655 64.2746 11.38 63.3508L11.376 63.3468C11.3103 63.2908 11.2202 63.2157 11.1874 63.1883L11.1854 63.1863C9.27632 61.5896 8.1772 60.5203 6.80662 58.8168C6.30575 58.1942 5.81173 57.5388 5.39649 56.9498C5.12135 56.5595 4.70293 55.9435 4.36146 55.3135C4.14968 54.9935 4.0129 54.7439 4.00843 54.7359C3.89768 54.5375 3.78497 54.3208 3.68147 54.1203C3.47025 53.7111 3.22827 53.2228 3.00349 52.7567C2.77953 52.2923 2.55121 51.8052 2.36963 51.3991C2.28245 51.2041 2.18228 50.9758 2.09483 50.7574C2.05422 50.6559 1.98542 50.4817 1.91831 50.2801C1.91084 50.2577 1.90399 50.2304 1.89424 50.1999C1.72202 49.7957 1.56092 49.3368 1.44894 48.8864C1.45302 48.9026 1.45532 48.9143 1.45696 48.9205C1.45923 48.9291 1.46097 48.9346 1.46097 48.9346C1.4596 48.9297 1.45437 48.9132 1.44693 48.8884C1.43976 48.8646 1.43224 48.8394 1.42487 48.8162C1.41717 48.7921 1.41083 48.7741 1.41083 48.7741C1.26337 48.3413 1.11804 47.8723 1.00564 47.4767C0.950307 47.2819 0.889337 47.0585 0.837149 46.841C0.812181 46.737 0.776218 46.5805 0.742873 46.4018C0.741825 46.3962 0.718178 46.2664 0.690721 46.0589C0.680153 46.0102 0.664942 45.9484 0.648597 45.8805L0.478099 45.1305C0.120419 43.4513 0.0407314 42.2107 0.0107309 39.9788C-0.0133097 38.1946 -0.0136965 37.1277 0.193265 35.8459C0.264535 35.4039 0.336974 34.9159 0.353735 34.783C0.424967 34.2192 0.572866 33.5131 0.704762 33.0164C0.772663 32.7607 0.901719 32.2655 0.985583 31.9335C1.10178 31.4735 1.29996 30.7794 1.48304 30.2811C1.49317 30.2535 1.50355 30.2217 1.51513 30.1889L1.54322 30.1127C1.53948 30.1251 1.53368 30.1441 1.52717 30.1668L1.50109 30.259C1.64786 29.7091 1.8886 29.0901 2.00256 28.8032C2.07907 28.6106 2.17168 28.3848 2.26733 28.1715C2.28675 28.1282 2.31213 28.0737 2.34155 28.0111C2.36986 27.9365 2.39284 27.8732 2.41176 27.8266C2.50357 27.6004 2.60333 27.3791 2.68255 27.209C2.84921 26.851 3.05287 26.4393 3.2482 26.0579C3.44457 25.6746 3.66098 25.2663 3.85799 24.9129C3.94968 24.7484 4.05771 24.5605 4.1689 24.3775C3.90749 24.0701 3.65218 23.762 3.43074 23.465C3.27206 23.2522 3.05183 22.9434 2.83901 22.5747C2.67897 22.2973 2.24208 21.5181 2.04067 20.445C1.76636 18.9834 2.05282 17.7152 2.16503 17.2666C2.24625 16.9421 2.40231 16.3986 2.69659 15.8007C2.79821 15.5942 3.00116 15.2079 3.33245 14.766C3.39881 14.6657 3.45588 14.582 3.49894 14.5213C3.70139 14.2361 3.92336 13.9556 4.11073 13.7272C4.48709 13.2684 4.98125 12.7091 5.45867 12.2312L5.97819 11.7319C6.53127 11.2202 7.16624 10.6825 7.73333 10.238C8.36006 9.74689 9.01002 9.40124 9.43029 9.20121C9.67427 9.08512 9.97763 8.95301 10.3149 8.83424C10.5147 8.76387 11.2508 8.50352 12.1884 8.44521L12.5875 8.42315C12.7989 8.41594 13.0703 8.41422 13.3458 8.42917C14.0879 8.46955 15.0354 8.63284 16.0396 9.12702C16.9141 9.55744 17.5181 10.0903 17.8008 10.3503C18.0766 10.6039 18.3557 10.8945 18.5028 11.0461C18.559 11.104 18.6159 11.1631 18.6713 11.2206C18.6649 10.8863 18.6546 10.54 18.6533 10.2019C18.6509 9.59048 18.6575 8.95354 18.6733 8.41513C18.6811 8.15102 18.6908 7.86359 18.7094 7.59496C18.7124 7.5525 18.7481 6.82415 18.9502 6.08295L19.0986 5.60167C19.9045 3.25842 21.6705 1.85145 23.3069 1.1238C24.7644 0.47586 26.329 0.254589 27.5232 0.139189C28.27 0.067055 29.3817 0.00794377 30.1309 0.000821872ZM0.644586 45.6298C0.652331 45.7354 0.662506 45.8198 0.668656 45.8724C0.659513 45.785 0.648985 45.6898 0.64258 45.5877L0.644586 45.6298ZM1.54723 30.1006L1.54522 30.1066C1.54802 30.0974 1.54961 30.0898 1.55124 30.0846L1.54723 30.1006ZM3.68548 25.727C3.65786 25.8365 3.62497 25.9761 3.59522 26.1421C3.63119 25.9386 3.67341 25.7785 3.70153 25.6709C3.69666 25.6894 3.69028 25.708 3.68548 25.727ZM7.28401 20.435L7.28201 20.441C7.37317 20.3756 7.49638 20.2859 7.65309 20.1903C7.52387 20.2694 7.40078 20.3511 7.28401 20.435ZM7.74536 20.1362C7.80049 20.1039 7.86034 20.0734 7.92188 20.04L7.91987 20.0359C7.86027 20.0684 7.80255 20.1026 7.74536 20.1362ZM7.91987 20.0359L7.92188 20.04C7.96607 20.0159 8.01291 19.99 8.06029 19.9658C8.01382 19.9895 7.96494 20.0114 7.91987 20.0359ZM36.1023 0.696667C36.0324 0.671914 35.963 0.649604 35.8737 0.626481H35.8677C35.9447 0.650593 36.0252 0.669362 36.1023 0.696667ZM35.3441 0.526215C35.3193 0.522711 35.2929 0.515613 35.2659 0.512178C35.2264 0.507162 35.1705 0.502887 35.1014 0.496135C35.1842 0.503798 35.2648 0.515875 35.3441 0.526215ZM35.0111 0.488114C35.0013 0.487305 34.9913 0.48489 34.9811 0.484103L34.5237 0.466055C34.6911 0.466083 34.8538 0.47577 35.0111 0.488114Z" fill="#062A12" fill-opacity="0.5"/>
</svg>
