<svg width="62" height="61" viewBox="0 0 62 61" fill="none" xmlns="http://www.w3.org/2000/svg">
<path d="M23.6675 0.000945671C23.8918 -0.00166005 24.159 0.000185492 24.4014 0.0185238C24.4868 0.0249831 24.7473 0.0444648 25.0407 0.11911C25.0529 0.122203 25.0761 0.128678 25.109 0.137664C25.2034 0.148153 25.3026 0.162683 25.4047 0.184539C25.9581 0.303053 26.6917 0.649891 27.2015 1.34763C27.7041 1.80822 28.1098 2.36425 28.4098 3.08102C28.5881 3.50713 28.7169 3.97383 28.8265 4.45212C28.9201 4.35741 28.9993 4.27227 29.0617 4.20505C29.3164 3.81399 29.6242 3.54066 29.9021 3.35446C30.2618 3.06779 30.686 2.86561 31.1435 2.76657C32.1243 2.38901 33.1783 2.41969 34.0392 2.67477C34.2632 2.70565 34.5986 2.77584 34.9606 2.95407C35.1901 3.06717 35.5093 3.26331 35.8136 3.58493C36.3086 3.9178 36.6738 4.18827 37.1995 4.60641C37.4072 4.69176 37.6238 4.80549 37.8377 4.96286C38.0294 5.10389 38.1916 5.25389 38.3296 5.40817C38.4086 5.33693 38.4899 5.26842 38.5756 5.20602C38.7303 5.05603 38.8847 4.93761 39.0197 4.8486C39.213 4.72111 39.4122 4.62098 39.6121 4.54391C39.703 4.48504 39.7941 4.42877 39.8805 4.3779C39.9463 4.33913 40.2204 4.17458 40.5314 4.05759H40.5334C40.957 3.89854 41.418 3.82296 41.6275 3.79294C41.7631 3.77351 41.9526 3.75038 42.1525 3.74216C42.2354 3.73875 42.4353 3.73226 42.6757 3.75876C42.7832 3.77061 43.0455 3.80338 43.3589 3.91305C43.4232 3.93557 43.6427 4.01356 43.9181 4.17966C44.1441 4.2468 44.3849 4.3477 44.6276 4.49606C44.7611 4.29551 44.9062 4.11931 45.059 3.95505C45.1612 3.80655 45.2743 3.66993 45.3948 3.54782C45.8738 3.06239 46.3887 2.87031 46.561 2.80954C46.9544 2.67085 47.3094 2.63832 47.4062 2.62888C47.6914 2.60109 48.0298 2.59628 48.3334 2.5947L49.0137 2.5986C49.2264 2.60278 49.4217 2.61024 49.5885 2.62009C49.6947 2.62635 49.9929 2.64338 50.2864 2.70505C50.3235 2.71286 50.3951 2.72688 50.4884 2.7529C50.5243 2.75156 50.5614 2.74997 50.5987 2.74997C50.9109 2.75002 51.4333 2.79905 51.9963 3.0947C52.0152 3.10463 52.0333 3.11662 52.0519 3.12692C52.3566 3.25683 52.6105 3.42365 52.822 3.60446C53.5328 3.90693 54.3553 4.36325 54.9916 5.18454L55.137 5.38278L55.2804 5.60251C55.6005 6.11788 55.8659 6.74595 55.95 7.51852C55.9743 7.51633 55.9987 7.51433 56.0232 7.51266L56.3208 7.50388C57.0067 7.50831 57.6216 7.68611 58.0971 7.89841C58.5694 8.10926 59.1224 8.45081 59.5894 8.9736L59.7836 9.20895L59.8998 9.37009C60.1652 9.75728 60.3877 10.2133 60.5215 10.497C60.698 10.8713 60.8807 11.3013 61.0446 11.7265C61.2087 11.9691 61.3311 12.2195 61.4106 12.457C61.4899 12.6943 61.5303 12.9186 61.5501 13.1181C61.5556 13.1344 61.5605 13.152 61.5667 13.1699C61.8152 13.882 61.9398 14.4684 61.9591 15.248C61.9638 15.4379 61.9644 15.638 61.9581 15.8134C61.9556 15.8823 61.9501 16.0351 61.9278 16.205C61.924 16.2343 61.8909 16.5259 61.7688 16.8633C61.7559 16.8988 61.5702 17.482 61.0212 18.0107C60.8527 18.2126 60.668 18.3869 60.4844 18.539C60.5138 18.5816 60.5404 18.6267 60.5683 18.6718C60.7355 18.8705 60.9036 19.1051 61.0475 19.3633C61.1311 19.4806 61.1834 19.568 61.2037 19.6035C61.4071 19.9599 61.4892 20.2763 61.516 20.3828C61.5817 20.6448 61.6015 20.868 61.6087 20.9609C61.6266 21.1915 61.6241 21.4188 61.6146 21.6084C61.5519 22.851 61.0137 23.7973 60.4892 24.705C60.4721 24.7348 60.4579 24.7639 60.4434 24.79C60.3791 25.0151 60.2842 25.25 60.1457 25.4863C59.9659 25.793 59.7489 26.0402 59.5172 26.2402C59.4958 26.2692 59.4715 26.3003 59.4469 26.3349C59.2937 26.5505 59.1319 26.7668 58.9872 26.9482C58.935 27.0137 58.8741 27.0842 58.8125 27.1562C58.5382 27.5663 58.219 27.8305 58.0044 27.9775C57.506 28.319 57.0117 28.4407 56.68 28.4883L56.679 28.4892C56.6655 28.492 56.6469 28.4959 56.6253 28.5009C56.6039 28.5059 56.5827 28.5101 56.5648 28.5146L56.5658 28.5156C56.0627 28.6445 55.5671 28.6616 55.1858 28.6435C55.1739 28.7073 55.1608 28.7729 55.1448 28.8388C54.9999 29.4363 54.7384 29.861 54.5836 30.0947C54.0146 30.9537 53.1816 31.502 52.4013 31.8213C52.1784 31.9641 51.9507 32.0714 51.7347 32.1435C51.5693 32.1987 51.41 32.2357 51.2614 32.2597C51.3864 32.4864 51.5043 32.712 51.6049 32.9384C51.8197 33.4219 52.0934 34.1676 52.0812 35.0215C52.0662 36.0603 51.6779 36.9582 51.1501 37.6591C51.2726 37.7337 51.3848 37.8121 51.4878 37.8935C51.5041 37.9026 51.5202 37.9125 51.5366 37.9218C52.0024 38.0829 52.5457 38.3954 52.983 39.0049C53.1695 39.2648 53.2995 39.5254 53.388 39.7783C54.0104 40.9317 53.9453 42.1209 53.8692 42.9365C53.8572 43.0649 53.8415 43.1972 53.8272 43.331C53.8575 43.5053 53.8684 43.6459 53.8721 43.7353C53.8883 44.1256 53.8322 44.5193 53.7052 44.8925L53.6467 45.0508C53.6385 45.0712 53.6149 45.1264 53.5774 45.207C53.5345 45.4701 53.4913 45.7197 53.4466 45.9453C53.4545 46.2079 53.4325 46.5573 53.3119 46.9443C53.2628 47.102 53.1929 47.27 53.103 47.4404C53.0336 47.653 52.9544 47.8529 52.8786 48.0215C52.7455 48.504 52.4787 49.0073 51.9914 49.4453C51.7041 49.7034 51.4019 49.8806 51.1033 50.0009C50.6243 50.292 50.0688 50.5274 49.3445 50.6308C49.2905 50.6385 49.2355 50.6433 49.1806 50.6494C49.4872 51.3849 49.6658 52.2775 49.4695 53.2656C49.2476 54.382 48.6295 55.208 48.0514 55.7841C47.9313 55.9692 47.7855 56.1529 47.6044 56.3281C47.4981 56.4308 47.3878 56.5199 47.2784 56.6006C47.2762 56.6029 47.2747 56.606 47.2725 56.6084C46.9417 56.9711 46.5829 57.2026 46.2341 57.3506C46.1119 57.4459 45.9887 57.5386 45.8652 57.6289C45.596 57.9859 45.2859 58.2418 45.0053 58.415C44.7085 58.5983 44.1761 58.8545 43.4691 58.8769C43.1552 58.9598 42.8097 59.0166 42.4434 59.0166C41.6699 59.0166 40.966 58.8085 40.3597 58.5088C40.3182 58.6224 40.2689 58.7389 40.2084 58.8564C39.8057 59.639 39.1706 60.0816 38.5619 60.3017C38.0895 60.5756 37.5474 60.8103 36.812 60.9199C36.231 61.0065 35.5725 61.0042 34.9264 60.997C34.2213 60.9892 33.5436 60.9493 32.9413 60.872C32.4715 60.8117 31.8682 60.7077 31.2977 60.4931L31.0557 60.3945C30.6181 60.2002 30.2123 59.9418 29.8777 59.667C29.7079 59.5275 29.5097 59.3459 29.3194 59.122C29.2787 59.0742 29.2267 59.0102 29.1681 58.9316C28.8101 58.5345 28.6448 58.1382 28.5835 57.9756C28.3224 58.068 28.0971 58.1213 27.955 58.1494C27.6824 58.2032 27.4102 58.2341 27.1635 58.25C26.8373 58.271 26.2237 58.2892 25.5931 58.1406L25.3218 58.0664C24.9727 57.9556 24.5838 57.7742 24.2843 57.6103C23.9795 57.5111 23.6616 57.3577 23.3571 57.123C23.2041 57.005 23.0538 56.8606 22.9121 56.6953C22.7867 56.6041 22.6626 56.4997 22.5432 56.3779C22.3876 56.2679 22.2336 56.1369 22.0845 55.9804C21.9292 55.8176 21.8026 55.6497 21.698 55.4824C21.6455 55.431 21.5884 55.3715 21.5243 55.3115C21.4535 55.2453 21.3845 55.1878 21.3261 55.1357C21.193 55.0631 21.0605 54.9778 20.9309 54.8779C20.6735 54.6795 20.47 54.4557 20.3101 54.2285C20.0065 53.9324 19.7406 53.5442 19.5723 53.041C19.5428 52.9529 19.5184 52.8662 19.4981 52.7812C19.1211 51.9751 18.8822 50.9544 19.1702 49.789C19.2819 49.3372 19.4599 48.9292 19.665 48.5644C19.0056 48.3728 18.3309 48.0496 17.7394 47.499C16.3908 46.2432 16.1952 44.4893 16.1154 43.4355C16.0901 43.1019 16.0728 42.7731 16.0597 42.4521C14.9903 43.1066 14.0163 43.1013 13.5056 43.1064C13.2915 43.1086 13.058 43.1047 12.8458 43.0888C12.7631 43.0827 12.5693 43.0671 12.351 43.0224C12.2952 43.011 11.9536 42.9458 11.5702 42.7519C11.519 42.726 11.4155 42.6724 11.2833 42.5859C11.2028 42.5453 11.1485 42.5186 11.134 42.5107C11.0296 42.4543 10.9202 42.391 10.8109 42.3252C10.4399 42.2145 10.0451 42.0178 9.66806 41.6777C9.61827 41.6328 9.57068 41.5868 9.52556 41.541C9.16168 41.3228 8.87726 41.0507 8.66084 40.7568C8.58531 40.6894 8.49476 40.6064 8.39245 40.5205C8.31243 40.4533 8.23491 40.3935 8.16798 40.3398C8.00318 40.2621 7.83445 40.165 7.6673 40.042C7.50848 39.925 7.37002 39.8014 7.2486 39.6748C7.12851 39.5682 7.02134 39.4581 6.92751 39.3447C6.63773 39.1362 6.41525 38.904 6.25213 38.6963L6.25115 38.6953C6.2449 38.6873 6.21601 38.6485 6.17795 38.5976C5.9773 38.4316 5.8291 38.2716 5.73876 38.1591C5.5668 37.945 5.43688 37.7225 5.33666 37.5049C5.07191 37.1033 4.91001 36.7091 4.81646 36.4404C4.67166 36.0244 4.5366 35.4718 4.52952 34.875C4.51519 33.6673 4.97471 32.6883 5.51526 31.9218C5.29768 31.9118 5.09473 31.9 4.9082 31.8779C4.18972 31.7927 3.68291 31.6017 3.2061 31.3603C2.67846 31.0932 2.24275 30.7604 1.88462 30.3828C1.71127 30.2651 1.58012 30.1513 1.49423 30.0703C1.27504 29.8634 1.09997 29.6392 0.964272 29.4199C0.763502 29.0954 0.456199 28.4332 0.50849 27.6103C0.366227 26.9537 0.258593 26.1561 0.182513 25.457C0.0767027 24.4846 -0.000684771 23.3825 4.56891e-06 22.5C0.000755187 21.572 0.0363855 20.4459 0.67831 19.3535C0.740228 19.192 0.818513 19.0264 0.919377 18.8603C1.20088 18.3967 1.54986 18.0819 1.89731 17.8681C2.44288 17.4283 3.01726 17.2678 3.49303 17.2275C3.6728 17.1805 3.82117 17.1512 3.88733 17.1377C4.04119 17.1062 4.20964 17.0761 4.38118 17.0478C4.33564 16.9985 4.29013 16.9507 4.24747 16.9033C4.0988 16.7382 3.80176 16.4054 3.59551 16.084C2.65704 14.6211 2.59348 12.9336 3.26856 11.4482C3.3487 11.0892 3.50625 10.6985 3.79364 10.3134C3.99574 10.0426 4.2156 9.83052 4.44169 9.66501C4.50819 9.58656 4.58594 9.4945 4.66909 9.39059C5.0835 8.87272 5.71042 8.12019 6.08328 7.6943L6.2043 7.54587C6.33228 7.28629 6.50829 7.02248 6.75378 6.77048C6.83196 6.69023 6.91176 6.61702 6.99192 6.54977C7.14992 6.35875 7.31994 6.20157 7.48674 6.07419C7.66005 5.92245 7.86067 5.77874 8.09575 5.65817C8.16835 5.62094 8.24148 5.58798 8.31437 5.55759C8.63643 5.35701 9.15524 5.07975 9.67391 4.9404C10.873 4.61812 11.9661 4.93983 12.636 5.20993C13.093 5.39418 13.546 5.63404 13.9877 5.9072C13.9984 5.43929 14.0229 4.98767 14.0912 4.58786C14.217 3.8522 14.4718 3.30872 14.7705 2.85739C15.233 1.71457 16.2325 1.20779 16.9245 1.06052C16.9378 1.05767 16.9512 1.05533 16.9645 1.0527C17.2697 0.926327 17.5621 0.836548 17.7833 0.77536C18.1629 0.670396 18.5862 0.578001 19.0218 0.496063C19.8962 0.331605 20.9427 0.189492 22.0318 0.0888363L22.4583 0.05368C22.886 0.0230861 23.3117 0.00508986 23.6675 0.000945671ZM32.6865 59.6386C32.5387 59.7065 32.3546 59.777 32.1419 59.832C32.3103 59.7907 32.4808 59.7333 32.6514 59.6562L32.6865 59.6386ZM45.5187 57.874C45.2641 58.0473 45.0096 58.208 44.7555 58.3476C44.5761 58.4461 44.3382 58.5674 44.0567 58.6806C44.4697 58.5931 44.7812 58.4354 44.9692 58.3193C45.144 58.2114 45.3344 58.065 45.5187 57.874ZM44.6628 57.0595C44.8928 57.1252 45.1105 57.156 45.3089 57.167C45.0477 57.1503 44.8249 57.1054 44.6628 57.0595ZM38.0505 56.7275L38.0515 56.7256L38.0525 56.7187L38.0505 56.7275ZM38.0525 56.7187L38.0534 56.7168L38.0544 56.7138L38.0525 56.7187ZM42.4434 56.0351L42.499 56.1308L42.498 56.1279C42.4752 56.091 42.4559 56.0527 42.4356 56.0156H42.4327C42.4363 56.0223 42.4398 56.0288 42.4434 56.0351ZM27.9296 55.997L28.0223 56.0644C27.972 56.0297 27.906 55.9792 27.8281 55.916C27.8742 55.9547 27.9104 55.9824 27.9296 55.997ZM29.8464 54.3681L29.8494 54.3672C29.8627 54.3589 29.876 54.3507 29.8894 54.3427C29.8738 54.3519 29.8593 54.3602 29.8464 54.3681ZM48.5218 54.1328C48.5217 54.0633 48.5189 53.9906 48.513 53.915L48.5111 53.8974C48.5173 53.9728 48.5209 54.0515 48.5218 54.1328ZM47.8318 53.4384C47.8356 53.4479 47.8406 53.4571 47.8445 53.4668C47.8407 53.4571 47.8376 53.4471 47.8337 53.4375L47.8318 53.4384ZM47.8298 53.4336H47.8318C47.8197 53.4037 47.8051 53.3747 47.7918 53.3447C47.8044 53.3731 47.8172 53.4027 47.8298 53.4336ZM20.6254 49.1172C20.6792 49.3361 20.7644 49.5646 20.8899 49.7978C20.8101 49.645 20.7042 49.4099 20.6254 49.1172ZM52.9879 47.332C52.988 47.3297 52.9887 47.3275 52.9888 47.3252C52.9896 47.3109 52.9882 47.2946 52.9888 47.2763C52.9883 47.2948 52.9887 47.3133 52.9879 47.332ZM52.9274 46.5556C52.9452 46.6395 52.9601 46.7321 52.9713 46.831C52.967 46.7944 52.9598 46.7568 52.9537 46.7177L52.9274 46.5556ZM53.7784 43.7724C53.7332 44.1505 53.6791 44.5348 53.6232 44.9013C53.844 44.3329 53.8221 43.8621 53.8184 43.7715L53.7784 43.7724ZM36.0214 44.4511C35.891 44.4839 35.7866 44.5203 35.713 44.5488C35.6263 44.5824 35.5356 44.6254 35.4398 44.6767H35.4427C35.4095 44.6837 35.4123 44.6848 35.4603 44.6709C35.5021 44.6587 35.5591 44.6406 35.6252 44.6181C35.765 44.5706 35.8908 44.5221 35.9629 44.4902C35.9901 44.4782 36.0175 44.4602 36.0478 44.4453C36.0383 44.4476 36.0292 44.4492 36.0214 44.4511ZM33.7133 44.4091C33.7109 44.4082 33.7087 44.4071 33.7064 44.4062C33.6685 44.3983 33.6238 44.3887 33.5727 44.3808C33.6257 44.39 33.673 44.4003 33.7133 44.4091ZM31.5788 44.0166C31.369 44.0669 31.1383 44.1474 30.8995 44.2724C31.0602 44.1917 31.2943 44.0909 31.5788 44.0166ZM53.7784 43.7724L53.8184 43.7715C53.817 43.7378 53.8115 43.669 53.8009 43.5781C53.7935 43.6423 53.7861 43.7077 53.7784 43.7724ZM32.7744 43.1806C32.8396 43.3512 32.9147 43.4813 33.0086 43.6201C32.9771 43.5418 32.9393 43.4541 32.8895 43.3613L32.7763 43.1709L32.7744 43.1689C32.7743 43.1728 32.7744 43.1767 32.7744 43.1806ZM12.1841 42.3984L12.1851 42.3974L12.3637 41.6865L12.1841 42.3984ZM32.6436 42.2324C32.7344 42.2594 32.8212 42.2795 32.9022 42.2959C32.8109 42.2751 32.7242 42.2519 32.6426 42.2265L32.6436 42.2324ZM37.9353 41.8584C37.9379 41.8618 37.9404 41.8655 37.9431 41.8691C37.9449 41.8714 37.9477 41.874 37.95 41.8769C37.9449 41.8702 37.94 41.8647 37.9353 41.8584ZM10.0809 39.0888C10.0463 39.1884 10.0177 39.2874 9.99501 39.3857L9.99696 39.3847C10.0208 39.2827 10.0507 39.1853 10.0828 39.0918L10.0809 39.0888ZM36.5504 39.1621C36.5456 39.0618 36.5356 38.9612 36.5202 38.8603C36.532 38.9401 36.5441 39.0424 36.5504 39.1621ZM10.0809 39.0869L10.0828 39.0898C10.1129 39.0027 10.145 38.9191 10.1804 38.8398C10.143 38.9225 10.1095 39.0046 10.0809 39.0869ZM46.969 38.7754C46.9656 38.7815 46.9629 38.7883 46.9592 38.7949C46.981 38.756 47.0029 38.717 47.0266 38.6787L46.969 38.7754ZM8.92143 38.248C8.91505 38.2632 8.90992 38.2788 8.90386 38.2939C8.91027 38.2782 8.91696 38.263 8.92338 38.248C8.93762 38.2147 8.95032 38.1824 8.96437 38.1523C8.94953 38.1844 8.93483 38.2161 8.92143 38.248ZM8.15919 38.2168C8.15806 38.2213 8.15737 38.2259 8.15626 38.2304C8.17675 38.1471 8.19751 38.0761 8.2158 38.0195L8.15919 38.2168ZM0.626583 28.083C0.687355 28.8698 1.04175 29.5188 1.54596 29.9824C1.12346 29.4252 0.836328 28.798 0.646103 28.1562C0.639026 28.1323 0.633527 28.1076 0.626583 28.083ZM22.997 29.5498C23.0059 29.5763 23.0165 29.6024 23.0263 29.6289C23.0159 29.6013 23.0058 29.5733 22.996 29.5449L22.997 29.5498ZM22.997 29.5498L22.996 29.5449C22.9927 29.5352 22.9895 29.5254 22.9863 29.5156C22.9899 29.5268 22.9932 29.5385 22.997 29.5498ZM56.4692 28.5136C56.5073 28.5107 56.5389 28.5065 56.5619 28.5039L56.5609 28.5019C56.5277 28.5054 56.4973 28.5115 56.4692 28.5136ZM56.5609 28.5019L56.5619 28.5039C56.5644 28.5036 56.5684 28.5041 56.5707 28.5039C56.5947 28.5011 56.6144 28.499 56.6283 28.497C56.6491 28.4941 56.6648 28.4908 56.6741 28.4892C56.6343 28.4949 56.5958 28.4982 56.5609 28.5019ZM20.9289 27.4834C20.9276 27.7401 20.895 27.9793 20.8469 28.1875C20.9093 27.9273 20.9301 27.6887 20.9289 27.4834ZM40.2416 28.084L40.2426 28.083L40.2416 28.0508V28.084ZM53.4017 27.8037L53.4036 27.8027C53.3843 27.7683 53.3651 27.7334 53.3441 27.6992C53.3608 27.7263 53.3785 27.7624 53.4017 27.8037ZM21.9508 26.7754C21.9957 26.7892 22.045 26.805 22.0991 26.8203C21.9544 26.738 21.8409 26.6888 21.7868 26.667C21.842 26.701 21.8967 26.7371 21.9508 26.7754ZM53.0562 26.6836L53.0796 26.6689L53.0777 26.6699L53.0572 26.6826L53.0825 26.5898L53.0562 26.6836ZM28.0819 26.5927C28.0748 26.5847 28.0684 26.5762 28.0614 26.5683L27.955 26.456C27.9996 26.5007 28.0412 26.5469 28.0819 26.5927ZM20.0925 26.0478V26.0459C20.0413 26.0392 19.9877 26.0343 19.9324 26.0302C19.9874 26.0343 20.04 26.0412 20.0925 26.0478ZM16.9528 25.0547C16.8504 25.1001 16.7482 25.1535 16.6463 25.2148C16.7397 25.1588 16.8422 25.1051 16.9528 25.0547ZM59.2146 24.6787C59.1983 24.6179 59.18 24.5562 59.159 24.4941L59.157 24.4892C59.1781 24.5513 59.197 24.6146 59.2146 24.6787ZM29.1447 23.7675C29.1371 23.767 29.1296 23.7661 29.1222 23.7656L28.9388 23.7597C29.0042 23.7597 29.0731 23.7624 29.1447 23.7675ZM57.8824 23.2236C57.8944 23.224 57.9058 23.2254 57.9166 23.2256C57.9054 23.2254 57.8944 23.2229 57.8834 23.2226L57.8824 23.2236ZM2.33357 22.8447C2.29832 22.8249 2.26263 22.804 2.22719 22.7822L2.22524 22.7812C2.25089 22.7971 2.28744 22.8189 2.33357 22.8447ZM27.2005 21.8828C27.1863 22.0189 27.1822 22.1562 27.1879 22.2939C27.1934 22.4279 27.2109 22.5902 27.2493 22.7715C27.2525 22.6271 27.2545 22.4829 27.2513 22.3506C27.2453 22.1 27.2299 22.011 27.2367 22.0488C27.2266 21.9931 27.2127 21.9374 27.2005 21.8828ZM4.28065 19.9404C4.29124 19.9978 4.30415 20.0557 4.31871 20.1142L4.32262 20.1133C4.30855 20.0573 4.29412 19.9996 4.2826 19.9394L4.28065 19.9404ZM4.25137 19.7529C4.2584 19.8144 4.26903 19.8773 4.28065 19.9404L4.2826 19.9394C4.27116 19.8795 4.25951 19.8168 4.25137 19.7529C4.24356 19.6915 4.23892 19.6284 4.23478 19.5634C4.2376 19.6257 4.24403 19.6887 4.25137 19.7529ZM6.40145 18.8134C6.39694 18.8051 6.39308 18.7968 6.38876 18.789L6.32337 18.6777C6.35117 18.7227 6.37652 18.7683 6.40145 18.8134ZM43.4994 18.6308C43.6699 18.6539 43.8335 18.6624 43.9893 18.6582C43.7962 18.6609 43.6283 18.6458 43.4984 18.6289L43.4994 18.6308ZM57.1036 18.2138C57.3614 18.4168 57.6277 18.5567 57.8883 18.6533C57.5626 18.5306 57.3011 18.3675 57.1036 18.2138ZM5.86369 18.6054C5.83274 18.5647 5.8074 18.5289 5.78463 18.5019L5.72022 18.4306C5.77198 18.4881 5.81863 18.5473 5.86369 18.6054ZM47.0666 18.5664C47.0819 18.5617 47.0968 18.557 47.1115 18.5527C47.1158 18.5515 47.12 18.55 47.1242 18.5488L47.1154 18.5459C47.0753 18.5298 47.0341 18.5141 46.9934 18.5C47.0178 18.5217 47.0425 18.5435 47.0666 18.5664ZM49.2606 18.4023C49.291 18.4099 49.3177 18.4151 49.3387 18.4209C49.3116 18.4136 49.285 18.4066 49.2587 18.4004L49.2606 18.4023ZM48.4418 17.5263C48.3866 17.6607 48.341 17.8015 48.3061 17.9482C48.3155 17.9416 48.325 17.9352 48.3344 17.9287C48.35 17.9012 48.369 17.8736 48.3852 17.8427C48.421 17.7743 48.4492 17.7084 48.473 17.6533C48.4615 17.6085 48.4502 17.5663 48.4418 17.5263ZM46.4234 17.3652C46.4164 17.3974 46.4086 17.4286 46.4039 17.458C46.4046 17.4538 46.4024 17.4712 46.4 17.5107C46.3991 17.5266 46.3986 17.5442 46.3981 17.5634C46.409 17.5813 46.4206 17.5989 46.4312 17.6172C46.4342 17.5933 46.4389 17.5758 46.44 17.5654C46.4429 17.5394 46.4421 17.5145 46.4439 17.4912C46.4436 17.4887 46.4433 17.4859 46.443 17.4834C46.4399 17.4594 46.4339 17.4179 46.4244 17.3633L46.4234 17.3652ZM48.4857 17.4248C48.489 17.4397 48.4937 17.4545 48.4974 17.4697C48.4976 17.4598 48.4972 17.4497 48.4974 17.4394C48.4946 17.4319 48.4923 17.4244 48.4896 17.417C48.4884 17.4196 48.4869 17.4221 48.4857 17.4248ZM44.3309 17.3652C44.2516 17.3693 44.1741 17.3766 44.0987 17.3867C44.1718 17.3771 44.2485 17.3705 44.328 17.3662C44.3711 17.3638 44.4151 17.3619 44.4598 17.3613C44.4164 17.3617 44.3734 17.363 44.3309 17.3652ZM48.4193 16.8418C48.4193 16.8478 48.4202 16.854 48.4203 16.8603C48.4371 16.8855 48.4576 16.9175 48.4837 16.9531V16.9482C48.4825 16.936 48.4809 16.9252 48.4798 16.916C48.4702 16.8869 48.4593 16.8586 48.4466 16.831L48.4193 16.8418ZM48.4193 16.8261V16.8379L48.4457 16.8281C48.4381 16.8116 48.4289 16.7961 48.4203 16.7802C48.42 16.7962 48.4193 16.8115 48.4193 16.8261ZM48.3159 16.6582C48.315 16.6502 48.3137 16.6424 48.3129 16.6347L48.308 16.6328C48.3105 16.6414 48.3133 16.6498 48.3159 16.6582ZM24.0315 16.0468C23.9863 16.1952 23.9541 16.3405 23.9349 16.4824C23.9582 16.3239 23.9919 16.1781 24.0315 16.0468ZM47.9547 16.4287C47.9663 16.4331 47.9785 16.4369 47.9909 16.4414C47.9835 16.4232 47.9773 16.4048 47.9704 16.3867L47.9547 16.4287ZM47.9508 16.4277L47.9674 16.3818L47.9665 16.3789C47.9343 16.3671 47.9016 16.3574 47.8689 16.3506C47.8326 16.343 47.7894 16.3371 47.7381 16.334C47.8176 16.3732 47.8893 16.4041 47.9508 16.4277ZM46.5893 14.1845C46.6374 14.2753 46.6962 14.3984 46.7533 14.5478C46.7093 14.4304 46.6562 14.3085 46.5893 14.1845ZM38.5365 12.9365C38.3875 12.9478 38.229 12.9471 38.0642 12.9336L37.3634 13.6347C37.5181 13.6993 37.7038 13.7605 37.9168 13.8037C38.0751 13.8357 38.2497 13.8588 38.437 13.8633C38.6943 13.8693 38.9468 13.8373 39.1914 13.7783C39.2506 13.7163 39.2997 13.6448 39.3495 13.5576C39.3817 13.5013 39.4075 13.4456 39.4325 13.3925C39.4385 13.3799 39.4465 13.3679 39.452 13.3554C39.437 13.3133 39.4226 13.2716 39.4061 13.2314L39.2461 13.2929L38.5736 12.9326C38.5614 12.9337 38.5489 12.9356 38.5365 12.9365ZM37.3546 12.7861C37.2346 12.917 37.0916 13.1499 36.9701 13.3916L36.9642 13.4316C36.9718 13.4362 36.979 13.4416 36.9867 13.4463C37.0227 13.4678 37.0663 13.4885 37.1136 13.5136L37.4708 12.8906L37.504 12.833C37.4542 12.8192 37.4047 12.8029 37.3546 12.7861ZM36.9545 13.4248C36.9575 13.4266 36.9603 13.4288 36.9633 13.4306L36.9681 13.3955C36.9633 13.4051 36.9592 13.4151 36.9545 13.4248ZM39.1934 12.8095C39.0094 12.8664 38.8023 12.9123 38.5736 12.9326L39.2461 13.2929L39.4061 13.2314C39.3427 13.0762 39.2697 12.9353 39.1934 12.8095ZM57.1094 10.7685L57.1124 10.7705C57.1381 10.7558 57.1658 10.7399 57.1963 10.7246C57.1675 10.7391 57.1382 10.7529 57.1094 10.7685ZM6.83869 10.1845C6.85756 10.2119 6.87803 10.2384 6.89823 10.2656C6.87911 10.2397 6.86028 10.2121 6.84064 10.1836L6.83869 10.1845ZM6.83772 10.1836L6.83967 10.1826C6.83169 10.171 6.8233 10.1595 6.81527 10.1474C6.82311 10.1592 6.82963 10.1718 6.83772 10.1836ZM45.9228 8.02829C45.9166 8.04682 45.9126 8.06587 45.9062 8.08395C45.9126 8.06567 45.9187 8.04745 45.9247 8.02927C45.9377 7.98989 45.9499 7.95092 45.9608 7.91208C45.9493 7.95195 45.9354 7.99026 45.9228 8.02829ZM28.8519 7.1152C28.962 7.35652 29.115 7.60402 29.3243 7.84274C29.1857 7.68031 29.0033 7.43326 28.8519 7.1152ZM12.638 6.48434C12.5224 6.5279 12.4007 6.58028 12.2768 6.64743C12.3838 6.59042 12.505 6.53482 12.638 6.48434ZM34.4921 5.18942C34.5301 5.35318 34.5517 5.50392 34.5624 5.63473C34.5506 5.47873 34.5281 5.3301 34.494 5.18942H34.4921ZM9.82226 5.49704L9.82128 5.49509C9.81003 5.49342 9.79864 5.49177 9.78712 5.4902C9.79915 5.49199 9.8107 5.49519 9.82226 5.49704ZM47.9538 5.24509C47.9515 5.25499 47.9495 5.26864 47.946 5.28513C47.9556 5.24331 47.9637 5.20061 47.9752 5.15817L47.9538 5.24509ZM50.4679 5.13571C50.4727 5.16214 50.4795 5.18788 50.4835 5.21384C50.479 5.18458 50.4732 5.15572 50.4679 5.12692V5.13571ZM34.4921 5.18942H34.494C34.4805 5.13357 34.4673 5.07763 34.4511 5.02438C34.4673 5.0801 34.4797 5.13611 34.4921 5.18942ZM50.4669 5.12985V5.12106L50.4425 4.99704C50.4529 5.04169 50.4589 5.08637 50.4669 5.12985ZM34.4423 4.84177L34.4452 4.84079C34.491 4.81257 34.5664 4.76712 34.6668 4.71579C34.5928 4.75313 34.5177 4.79516 34.4423 4.84177ZM19.8905 2.13473C19.877 2.11782 19.8657 2.10146 19.8543 2.08786L19.789 2.01364C19.8247 2.0535 19.8579 2.09452 19.8905 2.13473ZM37.1145 13.5146C37.1849 13.5521 37.2664 13.5944 37.3605 13.6338L38.0583 12.9336C37.8791 12.9185 37.6933 12.8856 37.504 12.833L37.4708 12.8906L37.1145 13.5146ZM23.9486 54.6787L23.9457 54.6797C23.9198 54.6944 23.8858 54.7111 23.8461 54.7314C23.8799 54.714 23.9148 54.698 23.9486 54.6787Z" fill="#062A12" fill-opacity="0.5"/>
</svg>
