<svg width="59" height="72" viewBox="0 0 59 72" fill="none" xmlns="http://www.w3.org/2000/svg">
<path d="M29.0345 0.104846C29.8691 -0.0686477 30.5629 0.0192486 30.7715 0.0464945H30.7739C30.8436 0.0556449 30.9132 0.068562 30.9829 0.0803383C31.0816 0.0757927 31.1689 0.0733362 31.2413 0.0733362L31.4962 0.0791713C31.5932 0.0835804 31.7015 0.0912852 31.818 0.103679C31.9582 0.118595 32.4936 0.174471 33.1193 0.42111C33.3249 0.502156 33.884 0.73455 34.477 1.23803C35.4325 1.38431 36.3639 1.8146 37.1208 2.5521L37.3216 2.75867C37.4624 2.91115 37.5871 3.06658 37.6998 3.22198C37.7176 3.22857 37.736 3.23376 37.7538 3.24065C38.3348 3.39707 38.8157 3.63938 39.2067 3.90469C39.2417 3.92027 39.2771 3.93584 39.3124 3.95254C39.475 4.02958 39.6321 4.11442 39.7821 4.20695C40.0648 4.27878 40.3207 4.37172 40.5491 4.47186C40.8622 4.57798 41.1181 4.70291 41.2972 4.79863C41.4243 4.83082 41.5284 4.86209 41.6061 4.88732C41.9051 4.98447 42.1559 5.10014 42.3413 5.19542C42.3737 5.20653 42.4051 5.22083 42.4377 5.23277C43.4887 5.31732 44.2249 5.7222 44.4754 5.86646C44.5292 5.89744 44.5795 5.93097 44.6292 5.96216C44.988 5.97525 45.271 6.02129 45.4114 6.04618C45.6626 6.0907 45.9289 6.15469 46.1936 6.23874C46.3037 6.27369 46.4655 6.33058 46.6552 6.4103C46.7109 6.41316 46.7949 6.41909 46.9007 6.43014C47.0355 6.43529 47.1329 6.44193 47.1814 6.44647C47.4262 6.4694 47.6301 6.50597 47.7592 6.53167C47.8337 6.54649 48.0025 6.58189 48.2032 6.63787C48.5668 6.67217 48.8375 6.73604 48.9396 6.76157C49.0459 6.78815 49.1439 6.81915 49.2285 6.8456C49.3808 6.87503 49.5401 6.91173 49.7042 6.96113C49.7282 6.96094 49.7513 6.95997 49.7735 6.95997C49.8891 6.95997 50.0397 6.96182 50.2127 6.9728C50.6643 6.94291 51.1715 6.97283 51.709 7.11051C52.5133 7.10993 53.4145 7.30481 54.2905 7.85974C54.4457 7.95809 54.5896 8.06159 54.7227 8.16784C54.8629 8.23328 55.0053 8.30708 55.1479 8.39191C55.4565 8.5755 55.8822 8.8868 56.2871 9.33837C56.777 9.77763 57.172 10.267 57.4816 10.7575C57.8789 11.2228 58.1416 11.7086 58.3096 12.1462C58.6377 12.8462 58.7278 13.4829 58.7559 13.8524C58.8626 14.2546 58.9448 14.7605 58.9203 15.3404V15.3439C58.9199 15.3544 58.9148 15.4852 58.8933 15.6812C58.8944 15.7271 58.8961 15.7687 58.8968 15.8049C58.9091 16.3863 58.9133 17.4505 58.9203 19.3246C58.9259 20.8311 58.9055 22.6868 58.8217 23.4221C58.8143 23.4871 58.809 23.5535 58.8052 23.6076C58.8199 23.8807 58.8181 24.2184 58.7653 24.5938C58.7779 24.7658 58.7792 24.8762 58.7794 24.8913V24.8972C58.7867 25.577 58.6498 26.1576 58.4846 26.6139C58.477 26.6817 58.4721 26.7507 58.4623 26.8193C58.4465 26.9293 58.3966 27.2611 58.2767 27.6514C58.2612 27.7388 58.2468 27.8302 58.2297 27.9221C58.1611 28.292 58.069 28.7574 57.9702 29.2362C57.881 29.6683 57.8012 30.0758 57.7447 30.3775C57.7186 30.5166 57.7008 30.6195 57.6895 30.6856C57.6604 30.9585 57.6051 31.2967 57.491 31.6648C57.462 31.7582 57.3895 31.9875 57.249 32.2868C57.2069 32.4395 57.1636 32.6036 57.114 32.7734C57.1088 32.8776 57.1013 32.966 57.094 33.036C57.0296 33.6543 56.8591 34.1297 56.7699 34.3571L56.7687 34.3583C56.6844 34.5728 56.544 34.8805 56.3236 35.2254C56.2925 35.3128 56.2646 35.3972 56.2355 35.4763C56.1312 36.4618 55.7508 37.1357 55.6835 37.2595C55.6406 37.3383 55.5939 37.4112 55.5507 37.4812C55.4426 37.8036 55.2997 38.1213 55.1185 38.4242C55.0222 38.6001 54.9063 38.7824 54.7709 38.9669C54.7297 39.0422 54.6807 39.1288 54.6299 39.2248C54.5263 39.4209 54.4308 39.6072 54.3669 39.7383C54.3166 39.8751 54.2658 40.0032 54.2118 40.1199C54.1929 40.1609 54.1632 40.2172 54.1273 40.2879C53.9258 40.8649 53.5822 41.5006 53.0491 42.0595C53.0171 42.1086 52.9807 42.1612 52.9446 42.2182C52.8933 42.2991 52.8486 42.3765 52.8072 42.4446C52.6895 42.7546 52.5328 43.0721 52.3244 43.3876C52.1095 43.7128 51.8681 43.9891 51.6162 44.2278C51.5875 44.2674 51.5554 44.3102 51.5223 44.3574C51.2232 44.7831 50.7391 45.4558 50.4699 45.7776C50.213 46.2995 49.8283 46.8343 49.2649 47.3088C49.0881 47.6006 48.8692 47.8966 48.6002 48.1782C48.3739 48.5202 48.1316 48.7995 47.9072 49.0173L47.906 49.0196C47.8994 49.0261 47.8818 49.0413 47.8567 49.0652C47.7085 49.2417 47.547 49.4083 47.3728 49.5635C47.2024 49.7153 47.0281 49.847 46.8549 49.9638C46.7546 50.0604 46.6302 50.1777 46.4967 50.3139C46.3268 50.487 46.1789 50.6434 46.0609 50.7678C45.8724 51.0381 45.6978 51.2373 45.5911 51.3525C45.3772 51.5838 45.1116 51.8286 44.7913 52.0586C44.3549 52.6116 43.7367 53.1647 42.9145 53.522C42.6687 53.7155 42.3807 53.9368 42.1405 54.1219C41.9773 54.3094 41.8029 54.4792 41.6214 54.633C41.5059 54.7714 41.3807 54.9094 41.2409 55.0427C40.755 55.5053 40.2376 55.8099 39.7469 56.0101C39.7229 56.0217 39.6986 56.0327 39.6741 56.044C39.5707 56.1211 39.4602 56.2012 39.3405 56.2774C39.2228 56.3524 38.9657 56.5067 38.6124 56.659C38.3819 56.843 38.123 57.0181 37.8302 57.176C37.8079 57.188 37.7843 57.1971 37.762 57.2087C37.3807 57.5308 36.9133 57.8205 36.3421 58.0338C36.302 58.057 36.2626 58.0823 36.2211 58.1049C36.2037 58.1145 36.1845 58.1214 36.1671 58.1306C35.8312 58.3496 35.5071 58.5028 35.2228 58.6091C35.1538 58.6523 35.0852 58.6979 35.0126 58.7386C34.8111 58.8515 34.6105 58.9423 34.4159 59.0187C34.4089 59.0631 34.4023 59.1084 34.3936 59.1541C34.2863 60.2288 33.8432 60.9688 33.7019 61.1976C33.6972 61.2052 33.6913 61.2122 33.6866 61.2197C33.6494 61.4606 33.6094 61.6134 33.602 61.6422C33.4554 62.2169 33.2321 62.6286 33.1722 62.7392C33.1405 62.7976 33.1076 62.8524 33.077 62.9038C32.9908 63.1371 32.8813 63.3743 32.7435 63.6121C32.7002 64.0988 32.5786 64.6196 32.3348 65.1596C32.2106 65.4345 32.0687 65.6834 31.9155 65.91C31.7782 66.3835 31.4994 67.0739 30.9078 67.7434C30.841 67.819 30.7708 67.8909 30.6999 67.9617C30.4412 68.3246 30.1785 68.637 29.9529 68.8801C29.5646 69.2986 28.9176 69.9223 28.0925 70.3902C27.8433 70.5316 27.5664 70.6593 27.2974 70.773C27.2677 70.792 27.2463 70.8082 27.2316 70.8174C26.8568 71.0522 26.516 71.1969 26.2897 71.2819L26.2862 71.283C26.0639 71.3663 25.7012 71.4848 25.2421 71.5514C25.0569 71.5783 24.6561 71.6264 24.1322 71.5829C23.7989 71.6561 23.4911 71.692 23.2267 71.6996C22.4297 71.7228 21.7939 71.5459 21.4015 71.4032C21.3726 71.3957 21.3442 71.3867 21.3158 71.3787C21.0305 71.3211 20.7486 71.2409 20.4748 71.1336C20.4542 71.1257 20.4135 71.1085 20.3562 71.0846C19.9873 71.1079 19.5937 71.0912 19.1794 71.0169C18.8678 70.9611 18.5845 70.8772 18.3326 70.7835C17.9385 70.7257 17.4087 70.5993 16.8457 70.3179C16.4006 70.206 15.9342 70.0218 15.4669 69.7297C15.4621 69.7267 15.4575 69.7234 15.4528 69.7204C14.7874 69.6055 14.1751 69.3544 13.6417 69.0097C13.5165 68.9716 13.3919 68.9304 13.2694 68.8824C13.2374 68.8701 13.1584 68.8377 13.0451 68.7867C12.2197 68.7231 11.278 68.443 10.433 67.7948C10.1737 67.6827 9.88753 67.5351 9.59797 67.335C9.56893 67.3149 9.54003 67.2927 9.50988 67.2708C8.90831 67.0945 8.32392 66.8036 7.80806 66.406C7.79518 66.3997 7.78211 66.3938 7.7693 66.3873C6.97393 66.2439 6.09397 65.878 5.28409 65.0756C5.27133 65.063 5.26022 65.0486 5.24769 65.0359C5.14604 65.0022 5.04205 64.9666 4.93762 64.9239C4.26461 64.6488 3.46568 64.1408 2.84117 63.269C2.83133 63.2553 2.82264 63.2408 2.81298 63.227C2.80642 63.2211 2.79956 63.2155 2.79302 63.2095C2.50283 63.0223 2.24906 62.8164 2.03665 62.6085C1.72333 62.3019 1.49065 61.9877 1.31787 61.7099C1.16559 61.526 0.987783 61.2833 0.81754 60.9863C0.741313 60.8676 0.680289 60.7654 0.63667 60.6852C0.346225 60.1516 0.223071 59.6808 0.175098 59.4844C0.0612242 59.018 0.0268503 58.5969 0.0200668 58.2835C0.0171631 58.149 0.0191332 57.9652 0.035335 57.7467C0.026707 57.5957 0.0266042 57.456 0.0282881 57.3312C0.00996541 57.1265 0.0084437 56.9922 0.00832193 56.9834C0.00465676 56.833 0.00629124 56.6907 0.00832193 56.5913C0.00989804 56.5134 0.0141888 56.3852 0.0212412 56.2505C-0.0673849 55.2747 0.0840177 53.911 1.19807 52.6748C1.26683 52.536 1.33505 52.4144 1.39773 52.3118C1.5186 51.911 1.73403 51.3763 2.13531 50.832C2.21417 50.6024 2.31271 50.3679 2.43715 50.133C2.48624 50.0403 2.5593 49.9139 2.65678 49.7665C2.83613 49.3632 3.13572 48.707 3.38731 48.1724C3.40879 48.1267 3.43001 48.0812 3.45073 48.037C3.50068 47.805 3.5559 47.6227 3.59636 47.5037C3.73283 47.1022 3.90122 46.7871 4.01096 46.6004L4.09787 46.458C4.18966 46.3129 4.30318 46.1618 4.43377 46.0075C4.63715 45.5655 4.93151 45.1161 5.34752 44.6841C5.3629 44.6682 5.37905 44.6531 5.3945 44.6374C5.56019 44.4469 5.74408 44.2644 5.95003 44.0948C5.94352 44.0262 5.93832 43.9561 5.93476 43.8847L5.92888 43.6536L5.93711 43.3911C5.94208 43.3016 5.94995 43.2052 5.96177 43.1028C5.95677 43.0106 5.95237 42.9162 5.95237 42.8204C5.95238 42.7902 5.95534 42.7603 5.9559 42.7305C5.93376 42.5113 5.92476 42.2968 5.93123 42.0898C5.93088 42.0679 5.92888 42.0459 5.92888 42.0245C5.9289 41.8011 5.94573 41.5789 5.97704 41.3593C5.96252 41.2761 5.95158 41.1999 5.94298 41.1329C5.91761 40.9348 5.90797 40.741 5.90539 40.5529C5.8537 40.1326 5.85987 39.735 5.90187 39.3835C5.86584 39.2579 5.84557 39.1682 5.8361 39.1267C5.79668 38.9541 5.77294 38.7896 5.75506 38.6494C5.69999 38.3796 5.67666 38.1578 5.6658 38.0169C5.66462 38.0015 5.66391 37.9803 5.66228 37.9562C5.44024 37.6309 5.27428 37.3056 5.15255 36.9934C4.83945 36.5614 4.56963 36.0367 4.40441 35.4039C4.36924 35.2692 4.34257 35.1363 4.31984 35.006C4.31781 34.9972 4.31453 34.989 4.3128 34.9815C4.29646 34.9102 4.28419 34.8402 4.27169 34.7726C4.2028 34.631 4.15402 34.5136 4.12136 34.4306C4.11839 34.4231 4.11604 34.4148 4.11314 34.4073C3.87296 33.9158 3.71238 33.3756 3.65274 32.8003C3.31579 32.2222 3.15919 31.6807 3.08546 31.317C3.07355 31.2582 3.0666 31.1996 3.05728 31.1431C2.93501 30.9379 2.73018 30.5596 2.58044 30.0648C2.48843 29.7607 2.32357 29.1141 2.39252 28.2851C2.3967 28.2349 2.40511 28.1837 2.41131 28.131C2.37491 27.8239 2.37946 27.6292 2.3796 27.6245C2.37923 27.571 2.38196 27.5198 2.38312 27.4716C2.16863 26.9613 2.04191 26.4212 2.00612 25.874C1.99098 25.8252 1.97653 25.7823 1.96618 25.7456C1.84694 25.3226 1.79622 24.9313 1.77827 24.6054L1.77004 24.302L1.77827 24.0009C1.77438 23.8414 1.77483 23.5825 1.81585 23.261C1.81152 23.1724 1.80626 23.0803 1.80293 22.9856L1.79001 22.4277C1.7892 22.3735 1.7874 22.323 1.78649 22.276C1.65 21.7681 1.57405 21.1583 1.65964 20.466C1.67165 20.3689 1.68847 20.2742 1.70545 20.1812C1.69878 19.8111 1.69426 19.3716 1.6937 18.9418C1.69309 18.47 1.69618 17.9833 1.7031 17.5846C1.70651 17.388 1.71136 17.1903 1.71837 17.0174C1.71892 17.0029 1.72524 16.7391 1.763 16.4234C1.76426 16.4033 1.76585 16.3757 1.7677 16.3405C1.77497 16.2019 1.78287 16.0117 1.78766 15.8165C1.79167 15.6543 1.79871 15.4876 1.80763 15.3241C1.78566 15.1244 1.77987 14.9891 1.77944 14.9774V14.5888C1.78423 14.4637 1.79317 14.3415 1.80645 14.2224C1.77651 13.9344 1.77044 13.6654 1.78649 13.4288C1.78963 13.3825 1.80895 13.0352 1.90746 12.6189C1.94727 12.4506 2.08838 11.8675 2.48413 11.2208C2.61803 11.002 2.86583 10.6492 3.23932 10.2848C3.41525 10.0258 3.6355 9.75626 3.90878 9.49825C4.46843 8.84813 5.22399 8.31625 6.16026 8.03713C6.64976 7.68391 7.08682 7.50721 7.29128 7.43028C7.59356 7.31655 7.85516 7.25394 8.03003 7.21788C8.52952 7.05598 8.93101 7.01458 9.04948 7.00198C9.28289 6.97717 9.4832 6.97164 9.62615 6.97164L9.87984 6.97747C9.89937 6.97836 9.91932 6.97982 9.93974 6.98097C9.98362 6.97413 10.0275 6.9676 10.0713 6.96113C10.1738 6.92564 10.2769 6.89244 10.3802 6.86427C10.7845 6.75398 11.1696 6.70415 11.53 6.69388C11.8433 6.5804 12.0957 6.52236 12.237 6.49432C12.7287 6.39682 13.1264 6.39894 13.2377 6.39979C13.2618 6.39998 13.2853 6.40163 13.3082 6.40213C13.3689 6.39202 13.4393 6.38315 13.5113 6.36828L13.5806 6.35311C13.9873 6.14005 14.7824 5.79887 15.8321 5.79877L15.9954 5.80227C16.1781 5.76066 16.4001 5.70897 16.6296 5.64706C16.6966 5.62899 16.7596 5.60886 16.8187 5.59221C17.1313 5.41211 17.4148 5.29365 17.6314 5.21759C17.8094 5.15509 17.9824 5.10822 18.1458 5.07055C18.2736 4.97288 18.4437 4.85035 18.6509 4.72861C18.7157 4.69034 19.615 4.11566 20.9176 4.0599C21.328 3.86844 21.7163 3.67929 22.0357 3.50673C22.0599 3.4937 22.0829 3.47966 22.1062 3.46705C22.6631 2.83202 23.2691 2.48008 23.5896 2.31986C23.802 2.21369 24.0202 2.12447 24.2414 2.05145C24.6003 1.86925 24.9367 1.75252 25.2197 1.67917C25.982 1.26454 26.8201 0.875467 27.6662 0.612503C27.7475 0.567623 27.8204 0.528293 27.8846 0.496967C28.3676 0.261595 28.7904 0.15558 29.0345 0.104846ZM23.4815 71.4873C23.057 71.5581 22.7314 71.5604 22.697 71.5608H22.6946C22.6288 71.5615 22.5639 71.559 22.4996 71.5573C22.5773 71.5644 22.6593 71.5725 22.7451 71.5759C22.8045 71.5783 23.1626 71.602 23.6718 71.5223C23.6096 71.5111 23.5458 71.5014 23.4815 71.4873ZM26.7254 70.9994L26.3449 71.1278C25.9643 71.247 25.4329 71.3962 24.7382 71.4569C24.6853 71.4615 24.6323 71.4628 24.5797 71.4662C24.5577 71.4733 24.5357 71.4795 24.5139 71.4861C24.5716 71.4873 24.6129 71.4896 24.6349 71.4896C25.553 71.4895 26.2764 71.2281 26.7571 70.9866C26.7464 70.9905 26.7361 70.9956 26.7254 70.9994ZM21.9676 71.3309L22.3247 71.3449C22.1982 71.3449 22.0754 71.338 21.9617 71.3297C21.9637 71.3299 21.9656 71.3307 21.9676 71.3309ZM18.1858 70.4591C18.3196 70.5216 18.4524 70.576 18.5828 70.6237C18.6685 70.6446 18.7598 70.6643 18.8564 70.682C18.9309 70.6872 19.001 70.6908 19.0666 70.6925C18.7849 70.6143 18.5049 70.5335 18.2469 70.4556C18.2266 70.4566 18.2063 70.4584 18.1858 70.4591ZM17.7841 69.8756L17.7853 69.8744L17.7923 69.6667L17.7841 69.8756ZM19.6327 69.8686C19.6355 69.8675 19.6686 69.8563 19.715 69.8371C19.7165 69.8364 19.7177 69.8344 19.7197 69.8336C19.6866 69.847 19.6576 69.859 19.6327 69.8686ZM22.6735 69.7484L22.6746 69.7472L22.6735 69.5862L22.6711 69.5838L22.6735 69.7484ZM18.49 69.4636C18.4955 69.4616 18.5013 69.462 18.5064 69.4601H18.5041C18.4996 69.4618 18.4945 69.4619 18.49 69.4636ZM22.6664 69.1275L22.6676 69.1264L22.6606 68.523L22.6594 68.5218L22.6664 69.1275ZM18.0977 68.5919C18.109 68.6175 18.1213 68.6425 18.1329 68.6677C18.1213 68.6424 18.1113 68.6163 18.1 68.5907L18.0977 68.5919ZM19.2088 68.5498C19.2045 68.5533 19.1982 68.5584 19.19 68.565C19.1969 68.5595 19.2042 68.5543 19.2111 68.5487L19.2088 68.5498ZM14.9771 68.2114C15.0067 68.201 15.0357 68.1936 15.0628 68.1834L15.0617 68.1822C15.0429 68.1893 15.0139 68.1982 14.9771 68.2114ZM21.8184 68.0212L21.8208 68.0188L21.8196 68.0223L21.9277 67.8496L21.8184 68.0212ZM22.6441 67.1949L22.6512 67.7901L22.6523 67.7889L22.6453 67.1657L22.6441 67.1949ZM16.0882 67.5007C16.1194 67.4784 16.1434 67.4624 16.1563 67.4528C16.1808 67.4346 16.1965 67.4215 16.1997 67.419L16.0882 67.5007ZM20.9658 67.2673L20.745 66.9662L20.7438 66.965L20.9658 67.2673ZM8.78992 66.86C8.73047 66.8224 8.67148 66.7829 8.61258 66.7421C8.56076 66.7229 8.51982 66.7079 8.4916 66.6966C8.47725 66.6908 8.46347 66.6838 8.44932 66.6779C8.56216 66.7443 8.67572 66.8051 8.78992 66.86ZM12.3357 65.896C12.3452 65.8896 12.3554 65.884 12.365 65.8773C12.3734 65.8716 12.3829 65.8647 12.3932 65.8575C12.3742 65.8707 12.3548 65.8832 12.3357 65.896ZM6.22838 65.4946C6.35353 65.5665 6.50405 65.6445 6.6782 65.721C6.63037 65.6847 6.58157 65.6482 6.53374 65.6089C6.48343 65.592 6.43505 65.5756 6.38693 65.5576C6.33342 65.5376 6.28067 65.5162 6.22838 65.4946ZM10.4459 65.274V65.2763C10.4575 65.2701 10.4685 65.2629 10.48 65.2565C10.4687 65.2628 10.4573 65.2678 10.4459 65.274ZM10.4824 65.253V65.2553C10.5011 65.245 10.5199 65.2345 10.5387 65.2238C10.5201 65.2345 10.5009 65.2426 10.4824 65.253ZM15.5326 65.1795C15.532 65.1826 15.5309 65.1857 15.5303 65.1888C15.5468 65.1604 15.5625 65.1286 15.5808 65.0954C15.5652 65.1235 15.5489 65.1514 15.5326 65.1795ZM15.6665 64.9344C15.6596 64.948 15.6525 64.9616 15.6454 64.9752C15.6523 64.9617 15.6618 64.9485 15.6689 64.9344C15.6791 64.9139 15.6878 64.8919 15.6982 64.8702C15.6878 64.8916 15.6773 64.913 15.6665 64.9344ZM4.99517 64.7722L4.99282 64.7698C4.98819 64.7681 4.98335 64.7669 4.97873 64.7652C4.98419 64.7676 4.98972 64.7698 4.99517 64.7722ZM6.80505 64.6613C6.77034 64.6642 6.73563 64.6685 6.70052 64.6706C6.7687 64.6667 6.83872 64.6604 6.91075 64.6531C6.87611 64.6567 6.84013 64.6584 6.80505 64.6613ZM3.94284 64.0288C4.13981 64.164 4.37034 64.3003 4.62991 64.4256C4.61779 64.4134 4.60664 64.4004 4.59467 64.3882C4.53288 64.3454 4.47733 64.3076 4.4279 64.2739C4.28556 64.2117 4.14279 64.1424 4.00156 64.0638C3.98169 64.0527 3.96263 64.0402 3.94284 64.0288ZM6.60069 63.9763C6.55953 63.9841 6.51865 63.9928 6.47737 63.9996C6.51776 63.9931 6.55849 63.9863 6.59951 63.9786C6.62143 63.9745 6.64319 63.9691 6.66528 63.9646C6.64382 63.969 6.62218 63.9722 6.60069 63.9763ZM11.4677 63.5351C11.5091 63.3897 11.5414 63.2991 11.5441 63.2912V63.2889C11.5159 63.3717 11.491 63.4539 11.4677 63.5351ZM31.9554 63.4021C31.9524 63.3898 31.9503 63.3772 31.9472 63.3647L31.9448 63.3624C31.9482 63.3754 31.952 63.3885 31.9554 63.4021ZM6.74515 61.4578V61.4602C6.74585 61.4578 6.74679 61.4555 6.7475 61.4531C6.74701 61.4548 6.74563 61.4562 6.74515 61.4578ZM6.84146 61.1672C6.84273 61.1667 6.84371 61.1654 6.84498 61.1649C6.86492 61.1109 6.88441 61.0586 6.90488 61.0085C6.88306 61.0618 6.86092 61.1143 6.84146 61.1672ZM33.7571 60.7891C33.7493 60.8015 33.739 60.813 33.7312 60.8253C33.7295 60.8494 33.7297 60.8732 33.7277 60.8965C33.7801 60.7964 33.8281 60.6942 33.8733 60.5907C33.8365 60.6565 33.7983 60.723 33.7571 60.7891ZM0.857472 60.2639C0.868047 60.2799 0.882801 60.2973 0.897405 60.3188C0.860137 60.2645 0.825118 60.2107 0.791701 60.1577C0.812602 60.1912 0.833482 60.2277 0.857472 60.2639ZM5.13728 60.2791H5.13963L5.18074 60.2534L5.17957 60.2523L5.13728 60.2791ZM5.6564 59.9232C5.6627 59.9108 5.66903 59.8988 5.6752 59.887C5.68948 59.8596 5.70408 59.8334 5.71748 59.8088L5.7163 59.8076C5.69547 59.8459 5.67603 59.8847 5.6564 59.9232ZM5.10792 59.9208L4.8836 59.936L4.88594 59.6034L4.88242 59.9348V59.9372L5.1091 59.922L5.11849 59.6314L5.10792 59.9208ZM0.889183 59.8905C0.879057 59.817 0.872199 59.7454 0.865694 59.6758L0.864519 59.6734C0.871584 59.7487 0.879451 59.8211 0.889183 59.8905ZM33.6349 58.8227L33.595 58.7258H33.5926L33.6349 58.8227ZM0.166877 58.7071C0.166363 58.6923 0.166076 58.6775 0.165702 58.6628C0.161833 58.6463 0.158737 58.6299 0.155132 58.6138C0.158197 58.6439 0.162823 58.6749 0.166877 58.7071ZM0.405297 58.1855C0.415632 58.2119 0.428571 58.2486 0.446404 58.2905C0.448146 58.2946 0.451456 58.3006 0.454625 58.308C0.433289 58.2562 0.416888 58.2138 0.405297 58.1831V58.1855ZM2.53346 57.8855C2.57072 57.9204 2.60944 57.9567 2.65091 57.9929C2.61036 57.9575 2.57164 57.9212 2.53346 57.8855ZM30.8925 57.0885V57.0861C30.8606 57.0681 30.8246 57.0496 30.7856 57.0289C30.8214 57.0481 30.8567 57.0682 30.8925 57.0885ZM30.7704 56.3953C30.8115 56.4488 30.8595 56.5077 30.9136 56.5715C30.857 56.5028 30.808 56.441 30.7715 56.3929L30.7704 56.3953ZM32.5685 56.4023V56.4046H32.5708L32.5697 56.4011L32.5685 56.4023ZM30.7692 56.3941L30.7704 56.3917C30.7418 56.354 30.7184 56.327 30.7069 56.3112L30.7058 56.3101C30.7248 56.3361 30.7461 56.364 30.7692 56.3941ZM35.9322 56.3941C35.8939 56.383 35.8549 56.3722 35.8171 56.3602H35.8147C35.8538 56.3726 35.8936 56.383 35.9322 56.3941ZM39.0728 56.2762C39.0439 56.2947 39.0133 56.3133 38.9823 56.3334C38.9804 56.3346 38.9784 56.3357 38.9765 56.3369C38.9741 56.3392 38.9718 56.3416 38.9694 56.3439C38.9746 56.3416 38.98 56.3402 38.9847 56.3381C39.0487 56.3094 39.1063 56.2767 39.1608 56.2494C39.1319 56.259 39.1022 56.267 39.0728 56.2762ZM31.1145 55.9378L31.1156 56.0008L31.1168 55.9996V55.9366L31.1145 55.9378ZM31.1133 55.8304L31.1145 55.8292L31.1121 55.5935L31.1109 55.5923L31.1133 55.8304ZM37.3298 55.66C37.4295 55.6836 37.5284 55.7019 37.6258 55.7184C37.5208 55.7002 37.4226 55.678 37.331 55.6565C37.3307 55.6577 37.3301 55.6588 37.3298 55.66ZM37.3016 55.6519V55.6495C37.2859 55.6457 37.2699 55.644 37.2547 55.6402C37.2704 55.6442 37.286 55.6481 37.3016 55.6519ZM36.974 55.5597C37.0638 55.5878 37.1526 55.6141 37.2406 55.6367C37.1419 55.6116 37.053 55.5845 36.974 55.5597ZM31.939 55.1815L32.0047 55.1209L31.926 55.192L31.9296 55.1897L31.939 55.1815ZM3.98159 54.8198L3.98629 54.8186C4.00301 54.8123 4.02013 54.8072 4.03679 54.8011C4.01857 54.8078 3.99976 54.8129 3.98159 54.8198ZM1.24153 54.4825L1.28381 54.7427C1.26819 54.6629 1.25419 54.5683 1.23918 54.4615C1.24008 54.4684 1.24059 54.4755 1.24153 54.4825ZM0.893881 53.438C0.660782 53.8138 0.484955 54.2145 0.366539 54.6284C0.43034 54.4682 0.562277 54.1612 0.797574 53.7986C0.826185 53.6734 0.858411 53.553 0.893881 53.438ZM40.2884 53.6107C40.2387 53.6021 40.1906 53.5952 40.1462 53.5862C40.1927 53.5956 40.2396 53.6024 40.2884 53.6107ZM1.10059 53.1334C1.04851 53.2726 1.00097 53.4153 0.962001 53.5629C1.00151 53.5093 1.04362 53.4554 1.08767 53.4007C1.10139 53.3633 1.115 53.3287 1.12643 53.2968C1.15149 53.196 1.1795 53.0899 1.21451 52.9805C1.17473 53.0304 1.13808 53.0823 1.10059 53.1334ZM40.3353 52.76C40.3397 52.9045 40.3377 53.0614 40.3283 53.2279C40.3385 53.0788 40.3438 52.923 40.3389 52.7611C40.3377 52.7607 40.3365 52.7604 40.3353 52.76ZM40.3353 52.7576C40.3365 52.758 40.3377 52.7584 40.3389 52.7588C40.3385 52.7464 40.3393 52.7339 40.3389 52.7214C40.3373 52.7209 40.3357 52.7208 40.3342 52.7203C40.3346 52.7326 40.3349 52.7451 40.3353 52.7576ZM6.72636 51.95C6.76332 51.9706 6.82227 51.9998 6.89783 52.0376C6.84124 52.009 6.78317 51.9816 6.72636 51.95ZM38.159 51.6781C38.1926 51.7421 38.231 51.8116 38.2671 51.8894C38.234 51.8182 38.1979 51.7473 38.1602 51.6758C38.1427 51.6426 38.1259 51.6087 38.1073 51.5754C38.1248 51.6068 38.1401 51.6421 38.159 51.6781ZM39.7387 50.6266C39.8215 50.7748 39.9231 50.9757 40.0194 51.2218C40.0762 51.3669 40.131 51.5277 40.1791 51.7026C40.1359 51.5439 40.0863 51.3817 40.0217 51.2183C39.9447 51.0233 39.8507 50.8259 39.7387 50.6266ZM45.6945 48.7466C45.6871 48.6386 45.6783 48.5315 45.664 48.4256C45.6624 48.4255 45.6608 48.4258 45.6593 48.4256C45.6749 48.536 45.6862 48.6433 45.6945 48.7466ZM3.55761 48.7337L3.55996 48.7325C3.56135 48.7003 3.56147 48.6684 3.56348 48.6369C3.56115 48.6696 3.55916 48.7018 3.55761 48.7337ZM48.2607 48.505C48.2503 48.5218 48.2396 48.5385 48.229 48.5552C48.2535 48.5262 48.2776 48.4976 48.3007 48.4688C48.2912 48.4774 48.278 48.4898 48.2607 48.505ZM41.9455 48.2027C41.9728 48.2363 42.0017 48.2733 42.0325 48.3136C42.0044 48.2769 41.975 48.239 41.9455 48.2027ZM45.4056 47.4033C45.5073 47.685 45.5805 47.9624 45.6287 48.2261C45.6409 48.2927 45.6501 48.3586 45.6593 48.4233C45.6608 48.4234 45.6624 48.4231 45.664 48.4233C45.6549 48.357 45.644 48.2914 45.6322 48.2261C45.5812 47.942 45.5054 47.667 45.4056 47.4033ZM45.0192 46.8653C45.0137 46.8554 45.0094 46.8448 45.0039 46.835L44.8641 46.6016C44.9115 46.6765 44.9641 46.7647 45.0192 46.8653ZM6.29415 46.4452C6.31378 46.5015 6.33237 46.5581 6.35405 46.6132C6.33528 46.5654 6.31569 46.5005 6.28945 46.4253C6.29116 46.4318 6.29236 46.4385 6.29415 46.4452ZM10.4354 44.2453L10.4154 44.278L10.4377 44.2442L10.4354 44.2453ZM10.675 43.8544L10.7666 43.705L10.7654 43.7038L10.675 43.8544ZM10.7771 43.6151C10.7798 43.6154 10.7825 43.6157 10.7854 43.6163C10.7827 43.615 10.7799 43.614 10.7771 43.6128V43.6151ZM10.7724 43.614H10.7748L10.776 43.6116C10.7059 43.5814 10.6354 43.555 10.5657 43.5288C10.6388 43.5566 10.7075 43.5858 10.7724 43.614ZM48.1515 43.3199C48.2485 43.3488 48.3451 43.3717 48.4404 43.3934C48.3319 43.3673 48.2336 43.3408 48.1468 43.314C48.1482 43.3161 48.1501 43.3178 48.1515 43.3199ZM47.152 42.8869C47.3464 43.0003 47.5406 43.0953 47.7334 43.174C47.8728 43.231 48.012 43.2777 48.1492 43.3187C48.1478 43.3166 48.1458 43.3149 48.1445 43.3129C47.9863 43.264 47.8658 43.22 47.7909 43.1903C47.7758 43.1843 47.7613 43.1766 47.7463 43.1705C47.5273 43.0811 47.3296 42.9818 47.1567 42.8822L47.152 42.8869ZM46.8126 42.6675C46.9238 42.7455 47.0346 42.8181 47.1462 42.8834L47.1508 42.8787C47.0248 42.8059 46.9133 42.7318 46.8149 42.664C46.8141 42.6651 46.8135 42.6664 46.8126 42.6675ZM6.71109 42.2042C6.72237 42.2229 6.73588 42.2404 6.7475 42.259C6.73543 42.2398 6.72469 42.2192 6.71344 42.2007C6.71276 42.2019 6.71177 42.203 6.71109 42.2042ZM7.50386 41.56L7.50621 41.5623C7.51889 41.5504 7.53098 41.5379 7.5438 41.5262C7.53113 41.5378 7.51631 41.5483 7.50386 41.56ZM8.3953 41.0909C8.44231 41.0625 8.49272 41.0355 8.54446 41.0068L8.54211 41.0057L8.3953 41.0909ZM4.71095 35.614C4.75908 35.718 4.81397 35.8236 4.8742 35.9314C4.8676 35.8875 4.85943 35.845 4.85423 35.8031C4.82151 35.7239 4.79281 35.6535 4.77085 35.593C4.76845 35.5864 4.76617 35.5798 4.7638 35.5731C4.7253 35.5224 4.6904 35.471 4.65575 35.4214C4.67359 35.4867 4.69085 35.5511 4.71095 35.614ZM6.3012 35.8404C6.27857 35.884 6.26325 35.9154 6.25891 35.9244C6.2723 35.8966 6.2914 35.8616 6.31294 35.8194C6.30861 35.8276 6.30428 35.8345 6.3012 35.8404ZM51.3484 35.6525V35.6548L51.3496 35.6537V35.6513L51.3402 35.0386L51.3484 35.6525ZM52.7308 35.1483C52.7118 35.1314 52.6815 35.1044 52.6404 35.0702H52.6369C52.6679 35.0961 52.6999 35.1213 52.7308 35.1483ZM52.6333 35.0678H52.6369C52.6239 35.0571 52.6096 35.0461 52.5946 35.034C52.6078 35.0448 52.6201 35.0568 52.6333 35.0678ZM51.3884 34.8449C51.5888 34.9092 51.7877 34.9597 51.985 34.9955C51.7795 34.9572 51.5803 34.9064 51.3884 34.8449ZM56.9683 33.2543C56.8058 33.7891 56.6262 34.3532 56.4586 34.8449C56.703 34.3895 56.8911 33.8557 56.9683 33.2543ZM5.50255 34.6734C5.49993 34.6718 5.49693 34.6703 5.49433 34.6687L5.49198 34.6675C5.49521 34.6695 5.49913 34.6713 5.50255 34.6734ZM8.17684 34.4073C8.24467 34.3663 8.32201 34.3253 8.40587 34.2812L8.40352 34.2789C8.32577 34.32 8.25005 34.3631 8.17684 34.4073ZM8.40469 34.2777L8.40587 34.2812C8.42983 34.2687 8.45465 34.2543 8.47986 34.2416C8.45496 34.2542 8.42917 34.2648 8.40469 34.2777ZM3.93931 33.5273C4.00709 33.7771 4.0954 34.0174 4.20122 34.2474C4.19499 34.1723 4.19222 34.1039 4.18948 34.0432C4.08727 33.7715 3.98826 33.4997 3.90995 33.2753C3.90137 33.2507 3.89208 33.2263 3.88411 33.2041C3.89788 33.3068 3.91598 33.4147 3.93931 33.5273ZM8.86979 34.0642C8.75771 34.1088 8.64971 34.1588 8.54446 34.2101C8.64542 34.1611 8.7551 34.1115 8.87331 34.0642H8.86979ZM6.99531 32.2109L7.09867 32.0452L7.09749 32.0441L6.99531 32.2109ZM3.43663 31.7441L3.45778 31.7978L3.4566 31.7943C3.44878 31.7761 3.44305 31.7566 3.43546 31.7383C3.43589 31.7402 3.43621 31.7422 3.43663 31.7441ZM2.90929 28.2395C2.91249 28.2441 2.91688 28.2488 2.92104 28.2547C2.88837 28.2076 2.85971 28.1677 2.83882 28.1357C2.84572 28.1463 2.8719 28.1862 2.90929 28.2395ZM58.4047 26.5835C58.4051 26.5823 58.4056 26.5812 58.4059 26.58C58.4077 26.5247 58.4094 26.477 58.4094 26.4388C58.4094 26.4893 58.4061 26.5381 58.4047 26.5835ZM1.99672 25.3967C1.9969 25.3903 1.99649 25.3837 1.99672 25.3768C1.98551 25.3407 1.97468 25.3057 1.96501 25.2718C1.9741 25.3105 1.98467 25.3521 1.99672 25.3967ZM1.86988 24.4304C1.89531 24.641 1.94008 24.8753 2.01081 25.1271C2.01298 25.1001 2.01392 25.0719 2.01669 25.0431C1.99374 24.8489 1.97513 24.6599 1.95914 24.4782C1.91115 24.2634 1.8913 24.1159 1.88867 24.0978C1.88708 24.0868 1.88548 24.076 1.88397 24.0651C1.8736 24.1962 1.86919 24.3182 1.86988 24.4304ZM1.83347 21.7882L1.88632 22.024L1.82759 21.7474C1.83012 21.7613 1.83094 21.7751 1.83347 21.7882ZM2.64034 20.8709C2.66523 20.8329 2.6979 20.7835 2.73899 20.7251L2.74017 20.7227C2.69932 20.7808 2.66646 20.831 2.64034 20.8709ZM56.0605 19.6724C56.0379 19.6829 56.0153 19.6937 55.9923 19.7039L56.0605 19.6724ZM1.77592 16.323C1.77291 16.3458 1.77076 16.3663 1.76887 16.3825C1.77814 16.3093 1.7888 16.2339 1.80176 16.1585C1.78878 16.2338 1.78004 16.2918 1.77592 16.323ZM56.2554 15.7127C56.337 15.6221 56.4146 15.532 56.4868 15.4408L56.4845 15.4396C56.404 15.5432 56.3259 15.6339 56.2554 15.7127ZM56.4856 15.4373L56.488 15.4396C56.54 15.3739 56.5901 15.3085 56.6371 15.2424H56.6289C56.5805 15.3115 56.5327 15.3766 56.4856 15.4373ZM57.2162 14.1138C57.0527 14.5656 56.8391 14.9426 56.6301 15.2412H56.6383C56.9045 14.8662 57.091 14.4853 57.2209 14.1138H57.2162ZM57.2162 14.1138L57.222 14.1127C57.2414 14.0573 57.2581 14.0019 57.2749 13.947C57.2568 14.0035 57.2358 14.0594 57.2162 14.1138ZM58.5973 13.3681C58.6138 13.4118 58.6324 13.4572 58.649 13.5058C58.6417 13.4624 58.6349 13.417 58.6255 13.3704C58.613 13.3078 58.5939 13.2264 58.5692 13.13C58.5816 13.2114 58.5895 13.2909 58.5973 13.3681ZM58.4529 13.2036C58.4477 13.1918 58.4336 13.1585 58.4118 13.1125C58.4095 13.1077 58.4065 13.1023 58.4036 13.0962C58.4247 13.142 58.4423 13.1795 58.4529 13.2036ZM2.33967 12.312C2.28604 12.4277 2.24024 12.5426 2.19873 12.6551C2.1807 12.729 2.16385 12.8065 2.14823 12.8873C2.1947 12.7736 2.24151 12.6652 2.29151 12.564C2.29395 12.5591 2.29726 12.5538 2.29974 12.5489C2.33717 12.4187 2.37744 12.2827 2.42423 12.1451C2.39339 12.2051 2.36368 12.2602 2.33967 12.312ZM6.9084 10.5929C6.87011 10.789 6.84286 10.9961 6.82971 11.2138C6.8418 11.0191 6.86627 10.8106 6.9084 10.5929ZM44.0808 9.70831C44.0339 10.081 43.9461 10.424 43.8435 10.7271C43.8474 10.7282 43.8513 10.7295 43.8553 10.7306C43.9719 10.3885 44.0454 10.0456 44.0808 9.70831ZM6.92015 10.5427C6.93424 10.4739 6.95058 10.4043 6.9683 10.3338L6.96713 10.3315C6.94953 10.4003 6.93499 10.471 6.92015 10.5427ZM6.96713 10.3315L6.9683 10.3338C6.97191 10.3195 6.97511 10.3039 6.97887 10.2895C6.97525 10.3031 6.97065 10.3177 6.96713 10.3315ZM11.0813 10.1284C11.1156 10.1742 11.1472 10.2183 11.1765 10.2603C11.1766 10.2588 11.1764 10.2572 11.1765 10.2557C11.145 10.21 11.1135 10.1651 11.0813 10.1214C11.0811 10.1238 11.0816 10.1261 11.0813 10.1284ZM50.76 10.146C50.7984 10.115 50.8439 10.0819 50.8939 10.0444C50.8936 10.0432 50.8931 10.0421 50.8927 10.0409C50.8483 10.0747 50.8043 10.11 50.76 10.146ZM10.675 9.64996C10.813 9.79113 10.9144 9.9139 10.9815 9.99774C10.9817 9.99616 10.9824 9.99465 10.9827 9.99307C10.8824 9.86582 10.7784 9.74827 10.6726 9.63829L10.675 9.64996ZM41.8281 9.72815C41.8063 9.7964 41.7843 9.8623 41.7612 9.92538C41.7549 9.94657 41.7496 9.96812 41.7435 9.98957C41.8028 9.83799 41.8519 9.68809 41.8927 9.54026C41.8689 9.60109 41.85 9.66463 41.8281 9.72815ZM51.0583 9.92071V9.92305C51.1168 9.88295 51.1805 9.84169 51.2486 9.79934C51.2482 9.79817 51.2478 9.79702 51.2474 9.79584C51.1843 9.83549 51.1212 9.877 51.0583 9.92071ZM51.6879 9.55077C51.6184 9.58463 51.5483 9.6198 51.4788 9.65813C51.4795 9.66011 51.4805 9.66199 51.4812 9.66397C51.547 9.62782 51.6159 9.59181 51.6879 9.5566C51.747 9.5277 51.808 9.499 51.8711 9.47141C51.8105 9.4977 51.7485 9.52123 51.6879 9.55077ZM10.4307 9.41889C10.5211 9.49947 10.6036 9.57699 10.675 9.64996L10.6726 9.63829C10.5957 9.55833 10.5182 9.48094 10.4389 9.40956L10.4307 9.41889ZM40.4939 9.53676C40.5139 9.48842 40.5322 9.44011 40.5503 9.39205L40.5479 9.38855C40.5289 9.43929 40.5133 9.48957 40.4939 9.53676ZM51.9369 9.44107V9.4434C51.9791 9.42558 52.0329 9.40651 52.0954 9.38271C52.0947 9.38129 52.0949 9.37947 52.0942 9.37805C52.0417 9.3976 51.9895 9.41918 51.9369 9.44107ZM9.22213 8.63348C9.57138 8.79235 9.82741 8.95522 9.96793 9.05245C10.0191 9.08783 10.0672 9.1253 10.1147 9.16098C10.2288 9.24653 10.3335 9.33102 10.4272 9.41422L10.4342 9.40606C10.3308 9.31317 10.2257 9.22738 10.1194 9.14814C9.82534 8.92892 9.52242 8.76077 9.22331 8.63115L9.22213 8.63348ZM40.5479 9.38855L40.5503 9.39205C40.5776 9.31917 40.6048 9.2471 40.6278 9.17498C40.6038 9.24978 40.5735 9.32001 40.5479 9.38855ZM44.1195 9.21116L44.1183 9.21466C44.1528 9.15447 44.1878 9.09419 44.2252 9.03494C44.2047 9.06738 44.1673 9.12743 44.1195 9.21116ZM42.0512 8.4666C42.0427 8.67938 42.0199 8.86699 41.9949 9.02444C41.9992 9.01626 42.0034 9.00803 42.0078 8.99993C42.0344 8.81758 42.0471 8.63949 42.0512 8.4666ZM45.415 8.3569C45.4779 8.5648 45.5236 8.76639 45.5571 8.95675C45.5584 8.95499 45.5605 8.95383 45.5618 8.95208C45.5245 8.73963 45.473 8.54145 45.415 8.3569ZM44.668 7.98578C44.6802 8.02208 44.6951 8.058 44.7068 8.09548C44.6943 8.05348 44.6835 8.01548 44.6727 7.98228C44.6713 7.98359 44.6694 7.98447 44.668 7.98578ZM39.1315 7.0755C39.1101 7.47448 39.0517 7.77769 39.0176 7.92393C39.0881 7.63482 39.128 7.35823 39.1444 7.09651L39.1315 7.0755ZM36.8706 7.79672C36.8655 7.807 36.8617 7.81795 36.8565 7.82823C36.8619 7.81746 36.8665 7.80633 36.8718 7.79556C36.8746 7.78976 36.8772 7.78385 36.88 7.77805C36.877 7.78414 36.8736 7.79063 36.8706 7.79672ZM7.27602 7.53414C7.11375 7.60201 6.93687 7.68821 6.75102 7.79439C6.82122 7.76753 6.89084 7.74105 6.96008 7.7162C7.07271 7.64584 7.1788 7.58515 7.27602 7.53414ZM44.5552 7.67535C44.5691 7.70964 44.5828 7.74465 44.5964 7.78039L44.5975 7.77922C44.5839 7.74302 44.5715 7.70733 44.5576 7.67302L44.5552 7.67535ZM44.3568 7.24239C44.4218 7.36857 44.49 7.51384 44.5552 7.67535C44.5564 7.67449 44.5565 7.67388 44.5576 7.67302C44.4894 7.50415 44.4198 7.35869 44.3579 7.24122L44.3568 7.24239ZM35.7772 7.65785L35.7795 7.65902C35.7894 7.63678 35.7999 7.61475 35.8101 7.59249C35.7999 7.61459 35.7874 7.63604 35.7772 7.65785ZM52.9728 7.63451C52.9751 7.63489 52.9774 7.63529 52.9798 7.63567C52.9728 7.63275 52.9656 7.6304 52.9587 7.62751C52.9632 7.63014 52.9682 7.63186 52.9728 7.63451ZM35.5705 7.56449C35.5717 7.5651 35.5727 7.56621 35.574 7.56682C35.5757 7.56282 35.5781 7.55913 35.5799 7.55515L35.5752 7.55282C35.5735 7.55665 35.5721 7.56063 35.5705 7.56449ZM43.5616 7.56098C43.5579 7.54939 43.5557 7.53653 43.5522 7.52597C43.5373 7.48043 43.5186 7.43725 43.5029 7.3941C43.523 7.44819 43.5425 7.50384 43.5616 7.56098ZM35.5752 7.55282L35.5799 7.55515C35.6016 7.50482 35.625 7.45582 35.6468 7.40927L35.6444 7.40694C35.6225 7.45292 35.5975 7.50156 35.5752 7.55282ZM52.6838 7.37309C52.8635 7.41281 53.0592 7.46718 53.2652 7.53764C53.046 7.45927 52.8315 7.39875 52.6239 7.35559C52.6439 7.36166 52.664 7.36679 52.6838 7.37309ZM8.90385 7.17236C8.69612 7.18078 8.44705 7.20737 8.16862 7.26339C8.09588 7.28786 8.02172 7.31436 7.94664 7.34392C7.85901 7.37842 7.72015 7.43637 7.54967 7.52247C7.74123 7.46428 7.92009 7.41403 8.07819 7.37193C8.34715 7.3003 8.62994 7.2336 8.91912 7.1712C8.91409 7.17138 8.90888 7.17216 8.90385 7.17236ZM51.3484 7.45479C51.3261 7.44502 51.3063 7.43543 51.2885 7.42794C51.2711 7.42061 51.2534 7.41485 51.2369 7.4081C51.2732 7.42326 51.3107 7.43799 51.3484 7.45479ZM35.6444 7.40694L35.6468 7.40927C35.6861 7.32558 35.7264 7.24766 35.7642 7.17703C35.7277 7.24367 35.686 7.31997 35.6444 7.40694ZM43.4595 7.27973C43.4445 7.24162 43.4323 7.20352 43.4172 7.1677C43.3931 7.11611 43.3705 7.0636 43.3444 7.01248C43.3829 7.0959 43.4218 7.18499 43.4595 7.27973ZM50.5298 7.1677C50.5336 7.16867 50.5377 7.17018 50.5416 7.1712C50.5697 7.16777 50.5973 7.16359 50.625 7.16069C50.5772 7.15884 50.5294 7.15648 50.4817 7.15603C50.498 7.16009 50.5141 7.16364 50.5298 7.1677ZM9.62615 7.02299C9.39178 7.02299 9.05271 7.04104 8.65133 7.12918C8.74054 7.12197 8.81394 7.11734 8.86744 7.11518H8.86979C8.93631 7.11253 9.04979 7.10823 9.19982 7.11168C9.3566 7.08037 9.51478 7.05142 9.67313 7.02415L9.62615 7.02299ZM13.6699 7.12452L13.6687 7.12218C13.6582 7.11752 13.6474 7.11384 13.637 7.10935C13.6482 7.11422 13.659 7.11964 13.6699 7.12452ZM39.1374 6.91912C39.136 6.97148 39.1341 7.02245 39.1315 7.072L39.1444 7.09301C39.1482 7.03223 39.1513 6.97237 39.1526 6.91328L39.1374 6.91912ZM34.7201 7.09184C34.7292 7.07308 34.7395 7.05485 34.7483 7.03699L34.7471 7.03582C34.7378 7.0544 34.7292 7.07325 34.7201 7.09184ZM39.1244 6.38929C39.1374 6.57644 39.1416 6.75482 39.1374 6.91912L39.1526 6.91328C39.1567 6.73668 39.1498 6.56685 39.1362 6.40679L39.1244 6.38929ZM35.1864 6.71956L35.1876 6.72073C35.2003 6.69998 35.212 6.67849 35.2252 6.65771C35.2127 6.67743 35.1994 6.69829 35.1864 6.71956ZM45.3844 6.19206C45.4123 6.19933 45.4393 6.20759 45.4655 6.21424C45.4719 6.21587 45.4782 6.21737 45.4843 6.2189C45.581 6.24328 45.6338 6.2547 45.651 6.25858C45.8467 6.28963 46.0824 6.33715 46.3322 6.40446C46.3457 6.4043 46.3598 6.40568 46.3745 6.40563C46.1862 6.32321 46.0362 6.27188 45.9576 6.24691C45.7857 6.19237 45.6356 6.1576 45.5007 6.13371C45.4828 6.13053 45.4473 6.12709 45.3973 6.11971L45.3844 6.19206ZM39.1221 6.35428C39.1229 6.36443 39.1237 6.37452 39.1244 6.38462L39.1362 6.40096C39.1346 6.38295 39.1332 6.36506 39.1315 6.34728C39.1284 6.34969 39.1252 6.35186 39.1221 6.35428ZM18.0895 6.31227C18.0793 6.30742 18.0713 6.30249 18.0648 6.29943C18.006 6.27187 17.9614 6.25206 17.9438 6.24458C17.981 6.26041 18.0296 6.28452 18.0895 6.31227ZM39.1103 6.20607C39.1119 6.20489 39.1135 6.20374 39.115 6.20256C39.1064 6.13569 39.0953 6.07087 39.0845 6.00767C39.0941 6.07477 39.1036 6.14076 39.1103 6.20607ZM45.3833 6.19089L45.3973 6.11971C45.3027 6.10575 45.1543 6.08543 44.9687 6.07769C45.1144 6.11906 45.257 6.15798 45.3833 6.19089ZM22.3094 6.06369C22.2993 6.05543 22.2905 6.0469 22.2824 6.04035C22.2711 6.03124 22.2592 6.02333 22.2483 6.01467C22.2686 6.03076 22.289 6.04696 22.3094 6.06369ZM38.5501 5.49068V5.49301C38.6612 5.43672 38.7833 5.3803 38.9154 5.32613C38.915 5.32496 38.9146 5.32379 38.9142 5.32263C38.7952 5.37146 38.6735 5.42743 38.5501 5.49068ZM38.9377 5.31329C38.938 5.31447 38.9385 5.31561 38.9389 5.31679C39.0267 5.28126 39.1188 5.2468 39.2149 5.21409C39.125 5.24419 39.0318 5.27526 38.9377 5.31329ZM39.3946 5.15691C39.412 5.15166 39.4297 5.14685 39.4474 5.14174L39.4486 5.1394C39.4305 5.14445 39.4129 5.15156 39.3946 5.15691ZM39.4498 5.13824L39.4474 5.14174C39.4719 5.13466 39.4977 5.12753 39.5226 5.12073C39.4988 5.12699 39.4741 5.13144 39.4498 5.13824ZM19.7478 4.52204C19.4947 4.61998 19.2633 4.73454 19.0537 4.85698C19.1805 4.80841 19.3232 4.75454 19.4789 4.69126C19.6743 4.61181 19.876 4.52579 20.079 4.43802C19.975 4.46032 19.8642 4.48872 19.7478 4.52204ZM36.9458 2.73999C37.0123 2.78164 37.0768 2.82411 37.1396 2.8672C37.0984 2.82388 37.0588 2.77815 37.0151 2.73533C37.004 2.7245 36.9921 2.71449 36.981 2.70382L36.9458 2.73999ZM29.1073 2.83569C29.1012 2.83083 29.096 2.82582 29.0908 2.82169C29.0867 2.81837 29.082 2.81559 29.0779 2.81235C29.0878 2.82005 29.0975 2.82789 29.1073 2.83569ZM35.3814 1.7772C35.7536 1.9543 36.1027 2.18123 36.4208 2.4494C36.4997 2.48729 36.5797 2.52723 36.6592 2.57077C36.7561 2.62391 36.849 2.67933 36.9387 2.73533L36.9751 2.69798C36.3561 2.10398 35.7013 1.75709 35.076 1.56713C35.1779 1.63154 35.2797 1.70176 35.3814 1.7772ZM31.2225 0.125852C31.4081 0.165271 31.5924 0.212061 31.7722 0.269397C31.8385 0.290545 31.9158 0.319133 32.0024 0.351089C32.0112 0.352346 32.0204 0.352097 32.0294 0.353423C32.1401 0.36974 32.7948 0.457153 33.528 0.828403C33.6137 0.871787 33.72 0.931593 33.8428 1.00579C33.8847 1.01832 33.9228 1.02783 33.9555 1.03847C33.9761 1.04513 33.9954 1.05499 34.0154 1.06181C33.9336 1.00097 33.8698 0.951337 33.824 0.920598C33.4329 0.658374 33.0895 0.51433 32.9243 0.449119L32.9255 0.447952C32.3948 0.238312 31.9174 0.161687 31.5584 0.136356L31.2413 0.124685C31.2352 0.124685 31.2288 0.125827 31.2225 0.125852ZM30.8725 0.2799C30.9422 0.285072 31.0148 0.290352 31.0804 0.293904C31.1298 0.296575 31.1647 0.297976 31.1826 0.298572H31.0933L31.2413 0.300907C31.3196 0.301144 31.4169 0.299397 31.5208 0.304408C31.5301 0.304853 31.5402 0.306147 31.5514 0.306742C31.3271 0.236388 31.1088 0.187417 30.889 0.158529L30.8725 0.2799ZM30.4732 0.128186C30.2047 0.120461 29.8275 0.130979 29.3974 0.220382C29.3189 0.236704 29.2204 0.262102 29.1049 0.293904C29.3816 0.258991 29.6551 0.241301 29.9365 0.239054C30.1539 0.182764 30.3391 0.147537 30.4732 0.128186ZM30.7563 0.156195C30.5957 0.173566 30.4168 0.198336 30.2242 0.242555C30.392 0.247337 30.5635 0.255655 30.741 0.270564C30.7494 0.271273 30.7584 0.271 30.7668 0.271731C30.7993 0.274524 30.8337 0.277271 30.869 0.2799L30.8854 0.158529C30.8705 0.156583 30.8437 0.154589 30.8068 0.15036C30.7901 0.151974 30.7733 0.154347 30.7563 0.156195ZM45.7086 49.0593L45.7015 48.8166C45.7005 48.7963 45.697 48.7761 45.6957 48.7559C45.7039 48.8615 45.7086 48.9629 45.7086 49.0593ZM45.1895 47.2072C45.1408 47.0995 45.088 46.992 45.0297 46.8851C45.082 46.9816 45.1363 47.089 45.1895 47.2072Z" fill="#062A12" fill-opacity="0.5"/>
</svg>
