<svg width="73" height="73" viewBox="0 0 73 73" fill="none" xmlns="http://www.w3.org/2000/svg">
<path d="M35.619 0.173875C36.6189 -0.0751355 37.6531 0.00744045 38.0053 0.0374051C38.3663 0.06812 39.1241 0.146992 39.888 0.396776L40.2157 0.51505L41.1517 0.929009L42.4503 1.53403L44.9033 2.68037C45.6057 3.00493 46.1489 3.25192 46.4006 3.36121C47.0731 3.65304 47.1851 3.70039 47.7387 3.92528L48.5988 4.27555L48.6004 4.27707C48.603 4.27813 48.6134 4.28184 48.6322 4.2892C48.6562 4.29856 48.6886 4.3102 48.7293 4.32559C48.8113 4.35659 48.9158 4.39562 49.0403 4.44083C49.2898 4.53143 49.5981 4.64045 49.9247 4.7532C50.1571 4.83339 50.5533 4.97065 50.8061 5.05798L51.9545 5.44465C52.242 5.53291 52.5929 5.63143 53.5611 5.90258C54.0356 6.03546 54.8041 6.22096 55.8867 6.45452C56.5723 6.60244 57.5621 6.85295 58.5309 7.43407C59.4982 8.01429 60.1488 8.73751 60.6123 9.40986L60.8004 9.69493L61.0037 10.0422C61.4457 10.8515 61.6528 11.6495 61.7713 12.3561C61.8938 13.0869 61.9542 13.9402 62.0034 14.8626C62.2144 18.8141 61.9095 23.5105 61.1675 26.9569C60.7079 29.0918 60.1351 30.9656 59.3668 32.7917C59.776 32.7788 60.1973 32.7986 60.6305 32.8554L61.0598 32.9236L61.5225 33.0237C61.664 33.0579 61.8036 33.095 61.9412 33.1359C62.3891 32.9604 63.0029 32.7519 63.6282 32.6552C64.2903 32.5531 65.1587 32.5514 65.6625 32.5703L66.3073 32.6097C66.5653 32.6332 66.859 32.6703 67.1644 32.7356C67.692 32.8485 68.1246 33.0127 68.4509 33.1556L68.7421 33.2891L69.1123 33.4771C72.288 35.1995 73.5522 38.6847 72.7775 41.8821C72.8001 41.9697 72.8222 42.0596 72.8412 42.152C72.9933 42.891 72.9762 43.6251 72.9762 43.867C72.9762 44.1951 72.9974 45.0389 72.7456 45.9762C72.5333 46.7665 72.1547 47.496 71.978 47.8534C71.5087 48.8025 70.521 50.1534 69.7449 51.1348C68.3383 52.9133 68.0988 53.2247 67.6559 53.6852C67.708 53.6311 67.7434 53.5924 67.7485 53.5867L67.6893 53.6564C67.6217 53.7382 67.5349 53.8449 67.4527 53.9491C67.3195 54.1178 66.9029 54.6469 66.597 54.9499C66.661 54.8865 66.7071 54.8362 66.7184 54.824C66.736 54.8051 66.7486 54.7927 66.7518 54.7891C66.7494 54.7919 66.7451 54.7966 66.7396 54.8028C66.7105 54.8362 66.6636 54.8903 66.6001 54.965C66.4739 55.1134 66.3062 55.3126 66.1313 55.523C65.8305 55.8852 65.28 56.5402 64.9814 56.8347L65.0178 56.7983C65.0068 56.81 64.9876 56.8318 64.9617 56.8605C64.9083 56.9194 64.8518 56.9842 64.81 57.0333C63.7881 58.2323 62.6078 59.5056 61.6287 60.4951C61.1445 60.9844 60.6619 61.4526 60.2452 61.8219C60.0471 61.9973 59.7879 62.2183 59.5094 62.4208C59.4124 62.4914 59.2583 62.5929 59.068 62.7074C58.8884 62.8402 58.7092 62.9633 58.5597 63.0592C58.4427 63.1343 58.3027 63.2181 58.1547 63.3033C57.8933 63.4925 57.6348 63.6448 57.3977 63.7643C57.351 63.7937 57.3206 63.8181 57.3067 63.8265C57.2339 63.8703 57.1666 63.9079 57.117 63.9357C57.0162 63.9923 56.9093 64.0504 56.8106 64.1025C56.6091 64.2088 56.3674 64.3323 56.1264 64.4512C55.9541 64.5362 55.8049 64.6114 55.7092 64.662C55.6877 64.6754 55.6705 64.6897 55.6561 64.6984C55.5392 64.7693 55.437 64.825 55.3846 64.853C55.2677 64.9156 55.1478 64.9754 55.0508 65.0229C54.8459 65.1233 54.5966 65.2407 54.3439 65.3549C53.9062 65.5528 53.17 65.8862 52.71 66.0949C51.8659 66.4781 51.59 66.5988 50.882 66.8986C50.7137 66.9698 50.4516 67.082 50.307 67.1442C50.0874 67.2387 49.6394 67.4202 49.3027 67.5536L49.3012 67.5551C49.1477 67.616 48.9818 67.6827 48.84 67.7401C48.7692 67.7688 48.7063 67.794 48.6565 67.8144C48.6319 67.8245 48.6112 67.8323 48.5958 67.8387C48.5801 67.8453 48.5731 67.8493 48.5731 67.8493C48.3657 67.9378 48 68.0833 47.7417 68.1829C47.536 68.2623 47.2352 68.3813 47.1061 68.4361C46.8949 68.5259 46.6701 68.612 46.4507 68.6833C46.372 68.7089 46.2683 68.7361 46.1503 68.7682C45.8097 68.9097 45.4194 69.0447 45.049 69.1336L44.9777 69.1549C44.9092 69.1748 44.846 69.1937 44.8123 69.2049C44.3586 69.3552 43.6259 69.5302 43.1633 69.6295C42.0981 69.858 40.7659 69.9148 39.6968 69.9146C38.5538 69.9143 37.2559 69.8461 36.1424 69.681C33.3832 69.2719 31.325 68.9083 28.8667 68.3906C28.6015 68.3348 27.9145 68.2097 27.386 68.1268C26.7808 68.032 25.9129 67.885 25.4245 67.7932C25.3496 67.7791 25.2552 67.7672 25.1211 67.7553C24.8211 68.2013 24.468 68.5903 24.0804 68.9214C23.4489 69.4606 22.7721 69.8096 22.3343 70.0222C21.8581 70.2534 21.2942 70.4938 20.7171 70.7364C20.2572 70.9298 19.8121 71.1183 19.4671 71.2641C19.2947 71.3369 19.148 71.3977 19.0377 71.4445C18.9824 71.468 18.9379 71.4878 18.9042 71.5022C18.8739 71.5151 18.86 71.5207 18.8572 71.5219C18.6839 71.5976 18.3636 71.7324 18.1321 71.8282C17.915 71.9179 17.6655 72.0198 17.5753 72.0571C17.5822 72.0543 17.5692 72.0612 17.5222 72.0814C17.4817 72.0988 17.4291 72.1214 17.3675 72.1481L16.9442 72.3331C16.621 72.4749 16.1177 72.6853 15.4894 72.8214C15.0157 72.9239 14.5905 72.9588 14.2575 72.9715L13.9572 72.9775C13.8574 72.9787 13.0317 73.016 12.2004 72.8047C11.0407 72.5098 10.2851 71.8795 10.113 71.7433C9.51744 71.272 8.98048 70.6247 8.7628 70.3558C8.60729 70.1637 8.4241 69.926 8.2561 69.6795C8.21509 69.6194 8.16019 69.5365 8.09833 69.4369C8.08853 69.4239 8.07797 69.4119 8.06951 69.4005C7.9082 69.1836 7.7603 68.9571 7.63563 68.747C7.33925 68.2472 6.79344 67.1927 6.38711 66.3891C6.1683 65.9563 5.95497 65.5261 5.79091 65.1851C5.71145 65.02 5.62922 64.8453 5.56032 64.6908C5.52871 64.6199 5.47734 64.5034 5.42682 64.3739C5.4165 64.3474 5.40366 64.3075 5.38586 64.2586C5.20866 63.8973 4.97148 63.367 4.81545 62.997L4.3664 61.9447C4.25814 61.6981 4.08759 61.2948 3.92343 60.9L3.51989 59.9052C3.51716 59.8984 3.51002 59.8805 3.49714 59.8491C3.47865 59.8041 3.45401 59.7461 3.42584 59.6793C3.36936 59.5454 3.30343 59.3923 3.24379 59.2563C3.12781 58.9917 2.8936 58.4295 2.74772 57.9537C2.74634 57.9505 2.74404 57.9482 2.74317 57.9461C2.74036 57.9395 2.73862 57.934 2.73862 57.934C2.73862 57.934 2.74038 57.9366 2.74165 57.9401C2.74095 57.9381 2.73885 57.9347 2.7371 57.9295C2.73975 57.9354 2.74049 57.9401 2.74317 57.9461C2.72802 57.8965 2.71206 57.8479 2.69917 57.8006C2.71021 57.8411 2.71953 57.8723 2.72496 57.89C2.73045 57.908 2.73477 57.9224 2.7371 57.9295C2.51272 57.4233 2.392 57.0755 1.80108 55.4063C1.18617 53.6692 0.55817 51.6522 0.311347 50.4524C0.144336 49.6407 -0.24514 48.0997 0.221841 46.4584C0.420785 45.7593 0.779151 44.9702 1.43092 44.2264C2.01613 43.5586 2.66613 43.126 3.15884 42.8435C4.04284 42.3366 5.24371 41.8668 6.55398 41.3681C7.16768 41.1345 7.68443 40.9354 8.08923 40.7767C8.79478 40.5001 9.49842 40.2574 10.1448 40.0777C10.6517 39.9368 11.5772 39.6989 12.5357 39.7183C13.085 39.7296 13.6019 39.8192 14.08 39.9609C14.4892 39.7676 15.017 39.5224 15.4393 39.3423L15.8383 39.18C16.0141 39.1143 16.3496 38.9891 16.5847 38.901L16.9093 38.7858C17.0187 38.7489 17.1288 38.7142 17.2355 38.6827C17.3392 38.652 17.4813 38.6117 17.6405 38.575C17.6525 38.5721 17.772 38.542 17.9591 38.5113C17.98 38.5054 18.0042 38.5006 18.0289 38.4931C18.1804 38.4474 18.3336 38.4073 18.487 38.3673C18.3955 38.2344 18.3151 38.1188 18.2595 38.0367C18.1121 37.8194 17.9609 37.592 17.8393 37.4044C17.7819 37.3159 17.7105 37.2048 17.6451 37.0966C17.6389 37.0864 17.6312 37.0736 17.6223 37.0587C17.5888 37.0111 17.5656 36.978 17.5556 36.9631C17.4788 36.8496 17.4129 36.743 17.3659 36.6659C17.27 36.5082 17.1717 36.3385 17.0853 36.1837C16.9083 35.8667 16.7065 35.4875 16.5194 35.1269C16.3331 34.7677 16.1424 34.3886 15.99 34.07C15.9169 33.9171 15.8313 33.735 15.7564 33.559C15.7446 33.5312 15.7316 33.4956 15.7154 33.4559C15.7052 33.4365 15.6954 33.4184 15.6866 33.4013C15.612 33.2556 15.5439 33.1077 15.4833 32.9615L15.327 32.54C15.327 32.54 15.3249 32.5379 15.324 32.5354C15.32 32.5246 15.3149 32.51 15.3088 32.4945L15.3013 32.4733C14.9872 31.7887 14.6558 30.7772 14.4183 30.0017C14.1488 29.1213 13.8647 28.097 13.6856 27.2798C13.5975 26.8778 13.4697 26.2898 13.4004 25.9728L13.3989 25.9712C13.2965 25.5024 13.1831 24.8195 13.1258 24.3412C13.0896 24.0393 13.0055 23.3942 12.9407 22.9234L12.8967 22.5458C12.8019 21.5791 12.7527 20.0378 12.7283 18.7141C12.6989 17.1081 12.6997 15.2835 12.7602 14.1666C12.8022 13.3909 12.8674 12.356 13.1562 11.3841C13.5486 10.0636 14.2432 9.14143 14.9978 8.43637L15.233 8.22712C15.7868 7.76039 16.3723 7.42645 16.7804 7.22179C17.0494 7.08685 17.3703 6.94404 17.7194 6.82299C17.9105 6.75677 18.3298 6.61741 18.8739 6.5455C18.9095 6.53691 18.952 6.52691 18.9953 6.51518C19.3298 6.42445 19.913 6.27433 20.3136 6.17552C20.6473 6.09319 21.1301 5.9667 21.3497 5.9041C22.1085 5.68767 22.7634 5.49569 23.246 5.35063C23.4888 5.27764 23.6758 5.22025 23.8043 5.17929C23.8688 5.15872 23.906 5.14652 23.9211 5.14138C23.9592 5.12837 23.8857 5.15165 23.7709 5.199C24.0442 5.08627 24.4334 4.94692 24.7752 4.85479C24.6649 4.88454 24.6631 4.89032 24.8996 4.80779C25.0775 4.74569 25.3148 4.65966 25.5883 4.55911C26.1357 4.35793 26.7811 4.11379 27.3162 3.90254C27.8135 3.70619 28.1626 3.55924 28.6619 3.33846C28.9086 3.22935 29.399 3.0146 29.7526 2.8593C30.0648 2.72225 30.6786 2.43536 31.2575 2.15724C31.5401 2.02148 31.7902 1.89859 31.9675 1.81C32.0109 1.78828 32.0455 1.77051 32.0722 1.75693C32.0961 1.7426 32.1131 1.73196 32.1222 1.7266C32.2152 1.67218 32.3012 1.62501 32.3634 1.59165C32.4905 1.52357 32.626 1.45411 32.7488 1.39301C33.0003 1.26778 33.3004 1.12548 33.5877 0.991178C33.8753 0.856695 34.1791 0.718316 34.4388 0.604513C34.5658 0.548819 34.705 0.488402 34.8377 0.434684C34.8578 0.426569 35.2179 0.273808 35.619 0.173875ZM56.0308 64.4421C56.0409 64.4347 56.0523 64.4287 56.0627 64.4209C56.0862 64.4033 56.1144 64.3785 56.1492 64.3511C56.1023 64.3885 56.0623 64.4189 56.0308 64.4421ZM5.45109 64.3966L5.45564 64.4042L5.42985 64.3511C5.4414 64.3777 5.44918 64.3926 5.45109 64.3966ZM56.3039 64.2253C56.313 64.2175 56.3234 64.2107 56.3327 64.2025C56.3916 64.1511 56.4698 64.0806 56.5573 63.9933L56.3039 64.2253ZM57.4204 63.7491C57.4349 63.7407 57.4585 63.7293 57.4872 63.7112C57.5065 63.6991 57.5341 63.6801 57.5691 63.6567C57.6005 63.6356 57.6502 63.6005 57.7117 63.5551C57.6011 63.6368 57.4959 63.7011 57.4204 63.7491ZM5.16285 63.4368C5.16625 63.4559 5.17152 63.4747 5.17499 63.4929C5.16746 63.4528 5.15867 63.4073 5.15071 63.3564C5.15564 63.3871 5.15883 63.4142 5.16285 63.4368ZM5.09762 62.8773C5.09879 62.899 5.10228 62.9201 5.10369 62.9409C5.10224 62.9196 5.10184 62.8978 5.10065 62.8757L5.09762 62.8773ZM5.09762 62.8773L5.10065 62.8757C5.09629 62.7939 5.09133 62.7063 5.09155 62.6164C5.09133 62.708 5.09328 62.7964 5.09762 62.8773ZM60.0495 60.4663C60.0551 60.4411 60.0609 60.4159 60.0662 60.3905L60.0631 60.389C60.0578 60.4148 60.0551 60.441 60.0495 60.4663ZM60.0647 60.3799L60.0677 60.3814C60.081 60.3165 60.0935 60.2509 60.1041 60.1842C60.0934 60.2514 60.0777 60.3161 60.0647 60.3799Z" fill="#062A12" fill-opacity="0.5"/>
</svg>
