<svg width="65" height="61" viewBox="0 0 65 61" fill="none" xmlns="http://www.w3.org/2000/svg">
<path d="M51.2107 0.00360946C51.5332 -0.00544041 51.7998 0.0276942 51.9783 0.0595561C52.8366 0.212777 53.4675 0.62625 53.8744 0.990797C53.8838 0.997253 53.893 1.00404 53.9023 1.01065C54.0131 1.08224 54.1033 1.14397 54.1633 1.18932C54.1957 1.21378 54.2256 1.24105 54.2569 1.26602C54.7742 1.58105 55.1761 2.01263 55.4682 2.48782C55.49 2.5172 55.514 2.54472 55.5348 2.57445C55.5778 2.63589 55.6594 2.75674 55.7535 2.92818C55.8767 3.12007 55.9468 3.26225 55.9677 3.30356C55.9933 3.35432 56.017 3.40716 56.0415 3.46057C56.0635 3.49142 56.0857 3.52121 56.1054 3.55081C56.5657 4.2434 56.7353 4.99213 56.7353 5.64249C56.7353 5.66137 56.7329 5.6803 56.7326 5.69934C56.9009 6.15253 56.9711 6.60518 56.9711 7.0186C56.9711 7.22384 56.9511 7.43841 56.9135 7.65838C56.9387 7.84459 56.9503 8.0076 56.9549 8.09241C56.9628 8.24029 56.9664 8.404 56.9684 8.57157C57.2547 8.53098 57.5257 8.5251 57.781 8.5454C58.0651 8.52583 58.3751 8.53685 58.7061 8.59774C58.7579 8.60726 58.8081 8.62078 58.8582 8.63203C59.0002 8.61826 59.1302 8.61128 59.2452 8.61127L59.508 8.61939C59.7903 8.63788 60.1294 8.69054 60.4943 8.8125C60.6115 8.8517 60.7895 8.91694 60.9992 9.02275C61.0569 9.03954 61.1196 9.06094 61.1863 9.08321C61.28 9.1066 61.3763 9.13348 61.4743 9.16623C61.5583 9.19429 61.6725 9.23783 61.8082 9.29797C62.6279 9.54686 63.4296 10.0807 63.9419 10.8888C63.9955 10.9444 64.0423 10.9957 64.0814 11.0413C64.4438 11.4646 64.622 11.8687 64.6889 12.0294C64.8355 12.3817 64.8931 12.6787 64.9084 12.7567C64.9509 12.9737 64.9673 13.156 64.9723 13.2151C64.9858 13.3745 64.991 13.5331 64.9939 13.6411C65.0004 13.8794 65.0009 14.1646 64.9984 14.427C64.996 14.6901 64.9903 14.9761 64.9795 15.2166C64.9745 15.3282 64.9664 15.4809 64.9516 15.6326C64.9454 15.6962 64.9301 15.8461 64.8967 16.0233C64.8821 16.1009 64.8434 16.2969 64.7635 16.5349C64.7242 16.6523 64.6442 16.873 64.5044 17.1305C64.5021 17.1346 64.4996 17.1387 64.4972 17.1431C64.4143 17.3331 64.3141 17.5227 64.1921 17.708C64.1491 17.7732 64.0991 17.8418 64.0445 17.9129C64.0152 17.9616 63.9833 18.0164 63.9446 18.0735C63.9004 18.1469 63.8606 18.2113 63.8249 18.2639C63.7523 18.3706 63.6743 18.4725 63.5936 18.5707C63.5547 18.6276 63.5179 18.6776 63.4856 18.7205C63.2172 19.2636 62.8212 19.7309 62.3364 20.0849C62.2437 20.181 62.146 20.2825 62.0476 20.379C61.9651 20.4599 61.8979 20.5249 61.8433 20.5784C61.5822 20.9908 61.1959 21.4287 60.6734 21.7651C60.5086 21.983 60.3122 22.1985 60.0722 22.3958C60.0597 22.4061 60.0462 22.4155 60.0335 22.4256C59.8286 22.6847 59.5214 23.008 59.0931 23.281C58.7601 23.7199 58.3396 24.0736 57.8638 24.3242C57.808 24.3738 57.7296 24.4435 57.6379 24.5155C57.6126 24.5353 57.5693 24.5688 57.5119 24.6102C57.4126 24.6989 57.3059 24.7907 57.1916 24.8773C57.1472 24.9109 57.0831 24.9565 57.0044 25.01C56.9534 25.0502 56.9037 25.0919 56.8514 25.1291C56.8257 25.1474 56.7862 25.1714 56.7371 25.204C56.6808 25.2493 56.6223 25.2934 56.5625 25.3366C56.5501 25.3456 56.536 25.3538 56.522 25.3637C56.4673 25.4085 56.4124 25.4518 56.3564 25.4927C56.2897 25.5415 56.1882 25.6127 56.055 25.6921C55.8998 25.7948 55.7718 25.8643 55.6941 25.9033C55.6743 25.9132 55.6536 25.9209 55.6338 25.9304C55.1475 26.3166 54.564 26.5844 53.9248 26.6884C53.4151 26.862 52.9674 26.895 52.6766 26.895C52.4858 26.895 52.2121 26.8794 51.891 26.8129C51.7552 26.8148 51.6108 26.8165 51.4617 26.8165C51.2963 26.8165 51.1361 26.8144 50.9875 26.812C50.7277 26.862 50.4626 26.8839 50.1964 26.8779C49.9431 26.8828 49.6885 26.8624 49.436 26.8147C49.2889 26.8112 49.0308 26.7955 48.7206 26.7317C48.5308 26.7219 48.3344 26.698 48.1347 26.6559C48.063 26.6534 47.9888 26.6494 47.9124 26.6423C47.8088 26.7417 47.6616 26.8783 47.5111 27.0006C47.3704 27.1813 47.2206 27.3437 47.0656 27.4824C46.8829 27.646 46.6962 27.7758 46.5184 27.884C46.4281 27.9664 46.3039 28.0834 46.1468 28.2377C46.029 28.3534 45.8688 28.5042 45.6923 28.6745C46.4894 32.4789 46.8008 36.7799 46.4618 40.2004C46.2381 42.4567 45.7807 44.471 44.9904 46.3536L44.8275 46.7281C43.5598 49.5599 41.7121 52.2244 39.4495 54.5426C37.4036 56.6388 35.1131 58.4715 32.926 59.3107C31.0418 60.0334 28.9114 60.475 26.523 60.7193C25.7346 60.7999 25.0565 60.8086 23.3058 60.8086C21.3682 60.8086 20.8816 60.8178 20.0048 60.6642C17.2616 60.1836 14.7851 59.0777 12.2331 57.3552C9.35415 55.4121 6.25355 52.372 4.46314 49.6527C2.65156 46.9012 1.26381 43.1064 0.570958 39.3901C0.132367 37.0372 -0.0314823 35.0259 0.00490466 32.5375C0.028673 30.912 0.0710988 30.3221 0.30368 28.9768L0.42877 28.3153C1.11266 25.01 2.62972 21.7317 4.72231 18.9082C6.08521 17.0692 8.04485 15.0426 9.7331 13.7999L10.3711 13.3324C10.9246 12.931 11.2589 12.7051 11.6868 12.4499C13.8594 11.1548 16.5881 10.2452 19.2462 9.85112C22.6279 9.34983 26.427 9.62567 29.5684 10.6551C33.0286 11.7891 36.3294 13.9235 39.0536 16.6667C39.053 16.652 39.0531 16.6372 39.0527 16.6225C39.0127 16.4328 38.9872 16.2378 38.9771 16.0386L38.9717 15.8464L38.9735 15.758C38.9511 15.6111 38.9346 15.4643 38.9249 15.3303C38.7715 14.9421 38.6908 14.5532 38.6666 14.187L38.6585 13.9388L38.6666 13.6907C38.6779 13.5196 38.7005 13.3434 38.7377 13.1646C38.7377 13.154 38.7368 13.1434 38.7368 13.133C38.7368 12.9432 38.7412 12.7097 38.7602 12.4815C38.7677 12.3912 38.7874 12.162 38.8466 11.8941C38.8504 11.8767 38.8583 11.853 38.8655 11.8228C38.8736 11.7687 38.8816 11.7131 38.8925 11.6568C38.8939 11.6496 38.8953 11.6417 38.897 11.6333C38.9143 11.0078 39.088 10.3015 39.5242 9.64538C39.6057 9.52287 39.7069 9.38847 39.8284 9.25105C39.9391 8.99127 40.2382 8.38013 40.8696 7.85509C40.9154 7.79565 40.9551 7.74624 40.9866 7.70891C41.0152 7.67505 41.044 7.64199 41.073 7.60965C41.1303 7.49326 41.1937 7.37611 41.2656 7.25953C41.3771 7.07851 41.6145 6.73335 42.0008 6.39416C42.1946 6.11424 42.4403 5.83884 42.7523 5.59286C42.7629 5.58446 42.7739 5.57585 42.7847 5.56759C42.8311 5.48454 42.8815 5.4021 42.9358 5.32035C43.0668 5.12332 43.2498 4.89636 43.4848 4.67425C43.5515 4.59506 43.6219 4.51427 43.6999 4.43603C43.7383 4.39751 43.7886 4.35189 43.8475 4.29887C44.0095 4.1084 44.1931 3.93202 44.3973 3.77459C44.6577 3.46611 45.0219 3.13539 45.4916 2.87945C45.5702 2.80487 45.6485 2.73143 45.7265 2.66288C45.7857 2.61087 45.8725 2.53782 45.9767 2.45624C45.9875 2.4452 45.998 2.43405 46.0082 2.42375C46.1048 2.32662 46.2353 2.20067 46.3817 2.07634C46.4414 2.02559 46.5593 1.92974 46.711 1.82368C46.8129 1.73877 46.9192 1.657 47.0305 1.58094C47.082 1.54576 47.1451 1.50712 47.2168 1.46364C47.2913 1.41285 47.3604 1.37138 47.4202 1.3364C47.4287 1.33059 47.4369 1.32408 47.4454 1.31836C47.4538 1.31269 47.4636 1.30765 47.4733 1.30121C47.4978 1.28232 47.5223 1.2634 47.5471 1.24526C47.6262 1.18733 47.7547 1.09878 47.9268 1.00163C48.1814 0.845389 48.3981 0.752374 48.5127 0.706552C48.6675 0.602814 48.8304 0.510335 49.0004 0.430428C49.5187 0.156219 50.1088 6.91867e-05 50.7355 0C50.8027 0 50.8699 0.00189147 50.9362 0.00541419C50.9963 0.00258522 51.0537 5.80209e-06 51.1081 0C51.1411 0 51.1755 0.00261942 51.2107 0.00360946ZM41.8865 27.2009L42.0017 27.3227C41.9616 27.2825 41.9244 27.2403 41.8874 27.1991L41.8865 27.2009ZM47.0494 27.1098L47.0467 27.1116C47.1337 27.0781 47.2102 27.0435 47.2753 27.0132C47.2019 27.0471 47.1269 27.0799 47.0494 27.1098ZM47.3734 26.9654C47.3931 26.9554 47.4116 26.9475 47.4274 26.9392C47.438 26.9336 47.4478 26.9266 47.458 26.9212C47.43 26.936 47.402 26.9511 47.3734 26.9654ZM50.0705 26.7858C50.1128 26.7883 50.1551 26.7893 50.1973 26.7903C50.2469 26.7893 50.2964 26.7879 50.3458 26.7849C50.2945 26.7807 50.2402 26.7759 50.1847 26.7696C50.1453 26.7756 50.1072 26.7813 50.0705 26.7858ZM52.7603 26.7678C52.7282 26.7716 52.6961 26.7728 52.6649 26.7759C52.8195 26.7741 52.9905 26.7618 53.1743 26.7335C53.126 26.7316 53.0781 26.7282 53.0303 26.7245C52.8984 26.7493 52.8001 26.763 52.7603 26.7678ZM53.4938 26.6541C53.5224 26.6528 53.5508 26.6506 53.5793 26.6487C53.6372 26.6328 53.6949 26.616 53.752 26.5972C53.6503 26.6241 53.5621 26.6409 53.4938 26.6541ZM48.0816 26.5503C48.0912 26.5515 48.1008 26.5528 48.1104 26.5539C48.1062 26.5523 48.1021 26.5502 48.0978 26.5485C48.0924 26.5492 48.087 26.5496 48.0816 26.5503ZM55.0434 26.1821C55.0298 26.1867 55.0156 26.1904 55.002 26.1948C54.899 26.2413 54.8019 26.279 54.715 26.3103C54.586 26.3912 54.4636 26.4562 54.3541 26.5097C54.6743 26.4153 54.9762 26.2789 55.2531 26.1054C55.1712 26.1383 55.1002 26.1632 55.0434 26.1821ZM54.7348 26.045C54.7633 26.0418 54.7916 26.0406 54.8194 26.0369L54.8239 26.0332C54.7945 26.0372 54.7649 26.0417 54.7348 26.045ZM55.3332 25.3222C55.4032 25.3222 55.471 25.3195 55.5366 25.3159L55.5384 25.3132C55.4717 25.317 55.4033 25.3222 55.3332 25.3222ZM55.7895 25.2897L55.7877 25.2924C55.8228 25.288 55.8571 25.284 55.8903 25.2789L55.8912 25.278C55.858 25.2831 55.8239 25.2853 55.7895 25.2897ZM56.9648 24.9369C56.9709 24.9338 56.9772 24.9325 56.9828 24.9296C56.9883 24.9268 56.9935 24.9225 56.999 24.9197C56.9878 24.9254 56.9764 24.9311 56.9648 24.9369ZM56.0937 24.7663L56.0928 24.7681C56.1298 24.7669 56.1661 24.765 56.2016 24.7627C56.1655 24.765 56.1295 24.7651 56.0937 24.7663ZM50.6032 23.0978C50.5494 23.7811 50.319 24.3218 50.0939 24.7004L50.0957 24.7032C50.351 24.2833 50.5545 23.7518 50.6032 23.0978ZM57.4039 23.8378C57.335 24.0417 57.2536 24.2292 57.1619 24.3991C57.2558 24.2277 57.341 24.0416 57.4093 23.8378H57.4039ZM57.5533 23.2332C57.5217 23.4377 57.4733 23.6286 57.4147 23.8071L57.4192 23.8062C57.4771 23.6278 57.5227 23.4373 57.5533 23.2332ZM56.7065 23.3794C56.712 23.333 56.7198 23.2863 56.7236 23.2386L56.7245 23.2188C56.7204 23.2732 56.7127 23.3266 56.7065 23.3794ZM57.5578 23.1917H57.5605C57.5713 23.1141 57.5796 23.0348 57.5857 22.9535C57.5793 23.0348 57.569 23.114 57.5578 23.1917ZM54.5782 22.8524C54.6345 22.9046 54.6918 22.9545 54.7501 23.0022C54.7765 23.0238 54.8034 23.0447 54.8302 23.0654C54.8031 23.0444 54.7784 23.0223 54.7537 23.0022C54.6865 22.9474 54.6275 22.8979 54.5782 22.8524ZM53.5127 22.8073C53.5159 22.8712 53.5199 22.936 53.5199 23.0022C53.5199 22.9361 53.5176 22.8711 53.5145 22.8073L53.5136 22.8046L53.5127 22.8073ZM42.0908 19.6662C42.2224 19.6923 42.3596 19.713 42.503 19.7248C42.5125 19.7256 42.5222 19.725 42.5318 19.7257L42.5327 19.7248C42.5231 19.7241 42.5135 19.7247 42.5039 19.7239C42.37 19.7126 42.2328 19.6912 42.0926 19.6634C42.0477 19.6546 42.0021 19.6471 41.9567 19.6364C42.0008 19.6469 42.0454 19.6571 42.0908 19.6662ZM63.0636 19.252C62.9926 19.3387 62.9194 19.4212 62.8476 19.4983C62.8089 19.5503 62.7751 19.5938 62.7495 19.6255C62.8918 19.4802 63.0216 19.3229 63.1383 19.1554C63.1086 19.1938 63.0841 19.2269 63.0636 19.252ZM59.2056 18.9127C59.3001 19.0521 59.3849 19.1978 59.4603 19.3485C59.3906 19.2018 59.3103 19.054 59.2137 18.9091L59.2056 18.9127ZM62.9754 19.2971C62.9792 19.2934 62.983 19.2893 62.9871 19.2854H62.9853C62.9816 19.2889 62.979 19.2936 62.9754 19.2971ZM61.1179 18.1763C61.2402 18.4958 61.3042 18.796 61.3357 19.0543C61.2998 18.7398 61.228 18.4458 61.1242 18.1736L61.1179 18.1763ZM58.7988 18.4155C58.8364 18.4543 58.8756 18.4914 58.9113 18.5319C59.0174 18.6521 59.1149 18.7794 59.2047 18.9118L59.2137 18.9091C59.1279 18.7804 59.0303 18.6538 58.9203 18.5301C58.8835 18.4887 58.8431 18.4497 58.8033 18.4092C58.8017 18.4112 58.8004 18.4134 58.7988 18.4155ZM63.1266 18.8441C63.1863 18.8009 63.2427 18.7556 63.2976 18.7105L63.2985 18.7087C63.2419 18.7546 63.1858 18.8013 63.1266 18.8441ZM63.3066 18.7024L63.3057 18.7042C63.3104 18.7003 63.3153 18.6965 63.3201 18.6925C63.3158 18.696 63.3109 18.6989 63.3066 18.7024ZM62.3436 18.5968L62.3382 18.3992C62.3372 18.3784 62.3343 18.3577 62.3328 18.337C62.3397 18.4326 62.3436 18.5197 62.3436 18.5968ZM63.4038 18.3749C63.4118 18.3691 63.4201 18.3635 63.4281 18.3577V18.3559C63.4198 18.3619 63.4121 18.3689 63.4038 18.3749ZM63.4416 18.318C63.4439 18.3103 63.4473 18.3024 63.4496 18.2946C63.4539 18.2799 63.4577 18.2641 63.4622 18.2476C63.4557 18.2717 63.4483 18.295 63.4416 18.318ZM60.6158 17.2722C60.7036 17.3888 60.7867 17.5117 60.8624 17.6421C60.9673 17.8231 61.0506 18.0021 61.117 18.1754L61.1242 18.1736C60.9969 17.8399 60.8236 17.5383 60.6158 17.2722ZM63.4811 18.1754C63.4991 18.1056 63.5181 18.024 63.5351 17.9318L63.5378 17.9147C63.5213 18.0065 63.5019 18.0936 63.4811 18.1754ZM63.7214 18.1177L63.7205 18.1195C63.7407 18.1013 63.7601 18.0832 63.779 18.0654C63.7603 18.0829 63.741 18.1002 63.7214 18.1177ZM62.277 17.9047C62.2749 17.8934 62.2739 17.8818 62.2716 17.8704C62.266 17.8416 62.2582 17.8133 62.2519 17.7847C62.2609 17.8254 62.2696 17.8654 62.277 17.9047ZM63.8195 17.8019C63.8206 17.7979 63.822 17.7941 63.8231 17.7901C63.8287 17.7696 63.8334 17.7468 63.8393 17.7234C63.8327 17.7502 63.8264 17.7764 63.8195 17.8019ZM41.1675 17.671L41.3763 17.7477L41.3691 17.745C41.2763 17.7138 41.1878 17.6782 41.1027 17.6421C41.1243 17.6513 41.1454 17.6622 41.1675 17.671ZM62.1214 17.3326C62.0953 17.2608 62.0681 17.1899 62.0377 17.1206C62.0686 17.192 62.0962 17.2629 62.1214 17.3326ZM41.7083 17.2234H41.7101C41.8019 17.2421 41.8961 17.2593 41.9936 17.2713C41.8978 17.2592 41.8051 17.2421 41.7146 17.2234H41.7128C41.6975 17.2203 41.6822 17.2169 41.667 17.2135C41.6811 17.2166 41.6941 17.2205 41.7083 17.2234ZM40.5852 16.7858C40.7439 16.8816 40.919 16.9695 41.1108 17.0457C41.0689 17.05 41.0281 17.0546 40.9884 17.0601C41.0292 17.0546 41.071 17.0509 41.1135 17.0466C41.2574 17.1036 41.4104 17.1529 41.5734 17.1928C41.4119 17.1527 41.26 17.1021 41.1171 17.0457C41.1314 17.0442 41.1458 17.0425 41.1603 17.0412C41.1452 17.0425 41.1301 17.0433 41.1153 17.0448C40.9212 16.968 40.7443 16.8804 40.5852 16.7858ZM40.2982 17.1738C40.3113 17.1839 40.3252 17.1944 40.3387 17.2045C40.3255 17.1947 40.3136 17.1836 40.3009 17.1738C40.2583 17.1412 40.2162 17.1096 40.1776 17.0773C40.2161 17.1096 40.2564 17.1416 40.2982 17.1738ZM41.1171 17.0457L41.1135 17.0466L41.1108 17.0457L41.1153 17.0448L41.1171 17.0457ZM40.0759 16.9888L40.0804 16.9924L40.0768 16.9879L40.0759 16.9888ZM42.7757 16.0116L42.7775 16.0125H42.7802C42.7769 16.0123 42.7735 16.0118 42.7703 16.0116C42.764 16.0112 42.7577 16.011 42.7514 16.0107C42.7594 16.0112 42.7675 16.011 42.7757 16.0116ZM42.7775 16.0125L42.7757 16.0116H42.7703L42.7775 16.0125ZM41.8595 15.6966C41.8212 15.7086 41.7833 15.7206 41.7461 15.7336C41.7832 15.7207 41.8214 15.7103 41.8595 15.6985C41.8967 15.6869 41.9338 15.6738 41.972 15.6633C41.934 15.6738 41.8965 15.6851 41.8595 15.6966ZM42.1412 15.6208C42.0973 15.6307 42.0542 15.6421 42.0116 15.6533C42.0546 15.642 42.0987 15.6334 42.143 15.6236C42.189 15.6133 42.2351 15.6006 42.2825 15.592C42.2346 15.6007 42.1876 15.6105 42.1412 15.6208ZM38.7368 13.9388L38.744 14.1753C38.7623 14.4536 38.8162 14.7469 38.9114 15.0442C38.9097 14.9968 38.9077 14.9543 38.9069 14.9179C38.8772 14.7695 38.8609 14.6509 38.8529 14.584C38.8395 14.4734 38.8318 14.3647 38.8259 14.261C38.7839 14.0413 38.7666 13.861 38.7602 13.7836C38.7558 13.7311 38.7541 13.6782 38.7512 13.6257C38.7419 13.7324 38.7368 13.837 38.7368 13.9388ZM41.1549 13.7511L41.1567 13.752C41.1862 13.7353 41.2154 13.7176 41.2458 13.7015C41.2149 13.7178 41.1846 13.7344 41.1549 13.7511ZM64.7356 13.2909L64.7302 13.0978C64.7296 13.0854 64.7283 13.0731 64.7275 13.0608C64.7321 13.1349 64.7356 13.2119 64.7356 13.2909ZM63.7943 12.6304L63.7889 12.4391C63.7876 12.4124 63.7854 12.386 63.7835 12.3597C63.7898 12.4477 63.7943 12.5379 63.7943 12.6304ZM59.9525 12.4535C59.9647 12.4506 59.9772 12.4492 59.9894 12.4463V12.4445C59.9771 12.4474 59.9648 12.4505 59.9525 12.4535ZM57.7126 12.4355C57.7147 12.4355 57.7168 12.4355 57.7189 12.4355C57.7305 12.397 57.7412 12.3582 57.754 12.32C57.754 12.3146 57.7541 12.3092 57.754 12.3038C57.7391 12.3481 57.7253 12.392 57.7126 12.4355ZM42.197 12.2243C42.2011 12.2275 42.2055 12.2303 42.2096 12.2334C42.2058 12.2304 42.2027 12.2264 42.1988 12.2234L42.197 12.2243ZM42.044 12.0989C42.0675 12.1192 42.0908 12.1382 42.1133 12.1567L42.1178 12.1558C42.095 12.1368 42.0721 12.1178 42.0494 12.098L42.044 12.0989ZM57.9835 11.7677C57.9238 11.8814 57.8723 11.9942 57.8278 12.1052C57.828 12.1103 57.8276 12.1155 57.8278 12.1206C57.8744 12.003 57.9262 11.8868 57.9844 11.7732L57.9835 11.7677ZM41.6472 11.6965C41.756 11.8249 41.8581 11.926 41.9378 12.0006C41.9475 12.0096 41.9567 12.0185 41.9657 12.0267C41.9772 12.0372 41.9878 12.0473 41.9981 12.0565H41.9999C41.9889 12.0466 41.9767 12.0369 41.9657 12.0267C41.9562 12.018 41.9482 12.0086 41.9387 11.9997C41.8394 11.906 41.7443 11.8036 41.6517 11.6956L41.6472 11.6965ZM57.3634 11.9744L57.3581 11.7858C57.3576 11.7761 57.3568 11.7665 57.3563 11.7569C57.3605 11.8305 57.3634 11.9032 57.3634 11.9744ZM58.0429 11.6577L58.0438 11.6613C58.0625 11.6275 58.0825 11.5944 58.1023 11.5611C58.0823 11.5936 58.0614 11.6252 58.0429 11.6577ZM57.3428 11.6071C57.3443 11.6229 57.3468 11.6384 57.3482 11.654C57.3467 11.6376 57.3453 11.6214 57.3437 11.6053L57.3428 11.6071ZM41.5311 11.5548C41.555 11.5861 41.5803 11.6152 41.604 11.6441L41.6076 11.6432C41.574 11.6027 41.5392 11.5628 41.5068 11.5205C41.5157 11.5324 41.5231 11.5444 41.5311 11.5548ZM39.5791 9.7284C39.2609 10.2071 39.089 10.7105 39.0158 11.1839C39.0229 11.1621 39.0304 11.1398 39.0383 11.1171C39.0614 11.0241 39.0879 10.927 39.1202 10.8275C39.1478 10.7423 39.2043 10.5803 39.2974 10.3799C39.3318 10.2962 39.3696 10.2118 39.4117 10.1272C39.4226 10.1055 39.4376 10.0805 39.4531 10.0514C39.4658 10.0245 39.4766 9.99631 39.49 9.96933C39.5003 9.94869 39.5142 9.9253 39.5287 9.89805C39.542 9.86975 39.5542 9.8407 39.5683 9.81232C39.579 9.79099 39.5936 9.76672 39.6088 9.73833C39.6216 9.711 39.633 9.68271 39.6466 9.65531C39.6592 9.63012 39.6763 9.59998 39.6952 9.56507C39.6527 9.62137 39.6139 9.67606 39.5791 9.7284ZM41.8667 10.3384C41.9271 10.4447 41.993 10.5464 42.0629 10.6443C41.9918 10.542 41.9281 10.4396 41.8712 10.3375L41.8667 10.3384ZM62.8503 9.94046C62.9442 10.0043 63.0181 10.0591 63.0663 10.0966C63.21 10.2084 63.3324 10.3212 63.4308 10.4151C63.2032 10.1745 62.9464 9.9712 62.6739 9.8042C62.7341 9.84842 62.7931 9.89358 62.8503 9.94046ZM39.9022 10.0054C39.8982 10.0378 39.8956 10.0709 39.8923 10.1047C39.8956 10.0704 39.9007 10.0369 39.9049 10.0036L39.9022 10.0054ZM39.9031 9.99911L39.9058 9.99731C39.9112 9.95467 39.9154 9.91271 39.922 9.87188C39.9153 9.91294 39.9086 9.95531 39.9031 9.99911ZM40.084 9.8421C40.0828 9.85519 40.0823 9.86847 40.0813 9.8818C40.0824 9.86784 40.0846 9.85407 40.0858 9.84029L40.084 9.8421ZM41.4447 9.10667C41.4785 9.33408 41.533 9.55128 41.604 9.75638C41.6155 9.78977 41.6275 9.82285 41.64 9.85564C41.6888 9.98406 41.7446 10.1076 41.8064 10.2265H41.8109C41.7463 10.1006 41.6916 9.97589 41.6454 9.85383C41.633 9.82118 41.6215 9.78862 41.6103 9.75638C41.4839 9.39233 41.4319 9.05589 41.4132 8.78633H41.4114C41.4183 8.89535 41.4291 9.00218 41.4447 9.10667ZM54.7294 9.59575C54.7851 9.55037 54.8401 9.50898 54.8932 9.47033V9.46852C54.8418 9.50562 54.7874 9.54857 54.7294 9.59575ZM40.5483 8.25574C40.2438 8.57834 40.0494 8.90936 39.9364 9.13374C39.9672 9.10165 39.9997 9.07016 40.0327 9.03809C40.0436 9.02282 40.0537 9.00723 40.0642 8.99297C40.0675 8.98847 40.0708 8.98393 40.0741 8.97944C40.0933 8.94902 40.1089 8.92127 40.1236 8.89913C40.17 8.8293 40.2204 8.76044 40.273 8.69158C40.3071 8.63956 40.3368 8.59319 40.3639 8.55533C40.4167 8.48154 40.4726 8.41096 40.5285 8.34237C40.5361 8.33118 40.5424 8.31994 40.5492 8.30988C40.5837 8.25951 40.6195 8.2107 40.6554 8.1628C40.6643 8.1488 40.6728 8.13482 40.6815 8.12129C40.6281 8.17228 40.5839 8.21809 40.5483 8.25574ZM60.6554 9.05343C60.6451 9.05271 60.635 9.05135 60.6248 9.05072L60.4061 9.04351C60.4917 9.04351 60.5748 9.04795 60.6554 9.05343ZM60.4106 8.97042C60.4021 8.96993 60.3937 8.96902 60.3854 8.96861L60.2252 8.965C60.2832 8.965 60.3454 8.96741 60.4106 8.97042ZM59.1057 8.69429C59.1762 8.70924 59.247 8.72627 59.3181 8.74573C59.4264 8.749 59.5466 8.75268 59.6592 8.76016C59.7159 8.76394 59.8593 8.7739 60.0245 8.79806C60.0508 8.8019 60.1125 8.81124 60.1982 8.82784C59.9174 8.74584 59.6657 8.71029 59.4603 8.697L59.2452 8.68978C59.2021 8.68978 59.1555 8.6922 59.1057 8.69429ZM59.7861 8.8125C59.7764 8.812 59.7668 8.81111 59.7573 8.8107L59.607 8.80799C59.6674 8.80799 59.7272 8.80978 59.7861 8.8125ZM41.4114 8.78633L41.4132 8.78453C41.4068 8.69253 41.4033 8.60845 41.4033 8.53367C41.4033 8.61887 41.4062 8.70368 41.4114 8.78633ZM57.7441 8.73851C57.851 8.73713 57.9612 8.7355 58.0717 8.7349C58.0205 8.72689 57.9685 8.72094 57.916 8.71504C57.8592 8.72156 57.8019 8.72906 57.7441 8.73851ZM55.2918 8.60586C55.3205 8.62037 55.3485 8.63591 55.3764 8.65098C55.3489 8.63591 55.3219 8.61948 55.2936 8.60496L55.2918 8.60586ZM53.9662 8.23138C54.4281 8.27036 54.8337 8.39205 55.1865 8.55623L55.1901 8.55352C54.8424 8.3897 54.4363 8.26994 53.9662 8.23138ZM40.74 8.28191C40.7727 8.25505 40.8054 8.22837 40.839 8.2025L40.8408 8.19979C40.8063 8.22657 40.773 8.25433 40.74 8.28191ZM53.9176 8.22777C53.8905 8.22589 53.8633 8.22369 53.8357 8.22235L53.6378 8.21784C53.7332 8.21784 53.8265 8.22124 53.9176 8.22777ZM41.2683 8.0112C41.2609 8.04216 41.2549 8.07546 41.2476 8.11046C41.2547 8.07637 41.2624 8.04305 41.2701 8.0103L41.2683 8.0112ZM41.2728 7.99135L41.2755 7.99045C41.2817 7.96453 41.2869 7.93877 41.2935 7.91374C41.2871 7.93784 41.2795 7.96359 41.2728 7.99135ZM41.7641 7.91284C41.7668 7.87358 41.7715 7.83236 41.7758 7.78922C41.7718 7.82947 41.767 7.87066 41.7641 7.91284ZM54.6367 7.85148L54.5971 7.83795C54.5516 7.82344 54.5048 7.81118 54.4576 7.79824C54.5186 7.81501 54.5784 7.83241 54.6367 7.85148ZM41.8073 7.54648C41.8051 7.55985 41.8032 7.57342 41.801 7.58709C41.803 7.57425 41.8061 7.56135 41.8082 7.54829C41.8146 7.50919 41.8218 7.46921 41.8298 7.42827C41.8222 7.46622 41.8142 7.50556 41.8073 7.54648ZM56.7875 6.32017C56.7975 6.42602 56.8032 6.53144 56.8073 6.63239C56.8428 6.8203 56.8585 6.96903 56.8649 7.03665C56.8729 7.12138 56.877 7.20593 56.8811 7.2875C56.8819 7.27662 56.884 7.26586 56.8847 7.25502L56.8928 7.0186L56.8847 6.78218C56.8678 6.52586 56.8211 6.25677 56.7398 5.98359C56.7662 6.13742 56.7817 6.25939 56.7875 6.32017ZM46.7371 6.28046C46.6798 6.23547 46.6223 6.19271 46.5643 6.15233C46.6266 6.19576 46.6842 6.2388 46.7371 6.28046ZM53.357 5.85906H53.3237C53.3347 5.85906 53.346 5.85897 53.357 5.85906C53.344 5.88225 53.3322 5.90643 53.3192 5.92854C53.3326 5.90623 53.3447 5.88293 53.3579 5.85996C53.4207 5.8605 53.4825 5.86375 53.5433 5.86718L53.5442 5.86538C53.4831 5.86194 53.421 5.8605 53.3579 5.85996C53.3778 5.82509 53.3981 5.78897 53.4173 5.75258C53.398 5.7897 53.3764 5.82433 53.357 5.85906ZM53.6837 5.87711C53.6858 5.8773 53.6878 5.87781 53.69 5.87801L53.6909 5.87711C53.6887 5.87691 53.6867 5.8764 53.6846 5.8762L53.6837 5.87711ZM53.5478 5.86718C53.5637 5.8681 53.5797 5.86787 53.5955 5.86898C53.5796 5.86788 53.5647 5.86629 53.5487 5.86538L53.5478 5.86718ZM53.5514 5.46473C53.5108 5.56251 53.4684 5.65443 53.4245 5.73995C53.4705 5.65196 53.5145 5.55978 53.555 5.46292L53.5514 5.46473ZM44.2812 5.62444C44.2629 5.62521 44.2424 5.62758 44.22 5.62896C44.2751 5.62627 44.3308 5.62332 44.3874 5.62264L44.2812 5.62444ZM53.7062 5.01354C53.6621 5.17546 53.6087 5.32643 53.5514 5.46473L53.555 5.46292C53.6138 5.32207 53.6648 5.17073 53.7071 5.01084L53.7062 5.01354ZM56.6102 5.41058L56.6111 5.41239C56.6102 5.39716 56.6104 5.38208 56.6093 5.36727C56.6102 5.38182 56.6095 5.3963 56.6102 5.41058ZM52.9322 4.56146C52.9322 4.7404 52.9162 4.91116 52.8944 5.0749C52.8817 5.17084 52.8648 5.26392 52.8458 5.35464C52.8463 5.35699 52.8463 5.35937 52.8467 5.36186C52.8672 5.26884 52.8849 5.17302 52.898 5.074C52.9196 4.91116 52.9322 4.74043 52.9322 4.56146ZM56.3654 4.22217C56.4613 4.47502 56.5233 4.71816 56.5616 4.94316C56.5706 4.98033 56.5802 5.01254 56.5859 5.03881C56.6133 5.16382 56.6315 5.27709 56.6444 5.36095C56.6159 4.99741 56.5304 4.60925 56.3654 4.22217ZM54.265 5.08212C54.2557 5.10944 54.2469 5.13665 54.2371 5.16333C54.2472 5.13584 54.2582 5.10848 54.2677 5.08032L54.265 5.08212ZM43.4416 4.85563C43.3803 4.9358 43.3219 5.01942 43.2661 5.10649C43.2926 5.08134 43.3188 5.05724 43.3417 5.0352C43.3523 5.02501 43.3616 5.01586 43.3696 5.00813C43.4019 4.94712 43.4356 4.88653 43.4713 4.82675C43.4614 4.83648 43.4513 4.84589 43.4416 4.85563ZM54.3811 4.66162C54.3502 4.8087 54.3108 4.94807 54.2659 5.08032L54.2686 5.07851C54.3131 4.94687 54.3507 4.80794 54.3811 4.66162ZM44.7546 4.91248C44.7564 4.89423 44.7598 4.87629 44.7618 4.85834H44.7582C44.7562 4.87623 44.7563 4.89441 44.7546 4.91248ZM44.8185 4.49107C44.7965 4.59302 44.779 4.6984 44.7654 4.8069H44.7681C44.7823 4.69497 44.8 4.58911 44.8212 4.49017L44.8185 4.49107ZM43.7521 4.5759C43.7126 4.62946 43.675 4.6841 43.6387 4.73922C43.7206 4.65696 43.8217 4.5549 43.9438 4.43242C43.8772 4.4794 43.8129 4.52682 43.7521 4.5759ZM53.9995 4.68689C53.9987 4.69106 53.9985 4.69535 53.9977 4.69952C54.0014 4.68132 54.0043 4.6629 54.0076 4.64447C54.0051 4.6587 54.0022 4.67279 53.9995 4.68689ZM56.0694 4.51273L56.0658 4.3873L56.0622 4.38369C56.064 4.42727 56.0694 4.47019 56.0694 4.51273ZM44.8221 4.47573H44.8248C44.8305 4.44977 44.835 4.42401 44.841 4.39903C44.8348 4.42447 44.8278 4.44987 44.8221 4.47573ZM53.5082 4.45317C53.5091 4.44029 53.51 4.42736 53.5109 4.41437L53.5091 4.41347C53.5083 4.42672 53.5091 4.44001 53.5082 4.45317ZM53.5091 4.41347L53.5109 4.41437C53.5159 4.33558 53.5199 4.25412 53.5199 4.17164C53.5199 4.25396 53.5139 4.33441 53.5091 4.41347ZM56.0424 4.13013C56.0432 4.13737 56.0443 4.14456 56.0451 4.15178C56.0534 4.22637 56.0589 4.29972 56.0622 4.37196L56.0649 4.37647C56.0619 4.29853 56.0577 4.22326 56.0505 4.15088C56.0497 4.14302 56.0486 4.13522 56.0478 4.12742L56.0424 4.13013ZM44.0419 4.2348C44.0557 4.22585 44.07 4.21745 44.0842 4.20863C44.0881 4.20232 44.0919 4.19599 44.0958 4.18968C44.0775 4.20406 44.0601 4.21988 44.0419 4.2348ZM55.1388 4.15359C55.1528 4.16244 55.1675 4.16994 55.1811 4.17885C55.1673 4.1696 55.153 4.16093 55.1388 4.15178V4.15359ZM55.8858 3.41094C55.9625 3.65361 56.0149 3.89445 56.0424 4.12652L56.0478 4.12381C56.0177 3.84509 55.9579 3.61073 55.9011 3.42989C55.8961 3.42352 55.8908 3.41735 55.8858 3.41094ZM44.3163 4.02906C44.2971 4.05462 44.279 4.08005 44.2614 4.10486C44.2673 4.10163 44.2735 4.09904 44.2794 4.09584C44.3165 4.05871 44.3542 4.01992 44.3937 3.98033C44.3682 3.99649 44.3419 4.01197 44.3163 4.02906ZM46.4618 4.04621C46.4618 3.96318 46.4667 3.88208 46.4717 3.80257H46.4699C46.4647 3.88191 46.4618 3.96312 46.4618 4.04621ZM54.841 3.98124C54.88 4.00123 54.918 4.02186 54.9552 4.0426V4.03989C54.9179 4.01877 54.8799 3.99783 54.841 3.97763V3.98124ZM54.4594 3.81159C54.5553 3.84773 54.647 3.88741 54.7348 3.9289V3.92439C54.6468 3.88249 54.5553 3.84214 54.4594 3.80618V3.81159ZM44.4963 3.82603C44.5294 3.80714 44.5664 3.78817 44.6061 3.76738L44.6097 3.76467L44.6619 3.71233C44.6635 3.71069 44.6647 3.70861 44.6664 3.70692C44.608 3.74496 44.5516 3.78498 44.4963 3.82603ZM54.3028 3.75655C54.3292 3.76516 54.3552 3.77454 54.3811 3.78362V3.7782C54.3553 3.76922 54.3292 3.76052 54.3028 3.75204V3.75655ZM53.7143 3.62029C53.8935 3.64699 54.0636 3.68408 54.2236 3.73218V3.72677C54.0644 3.6797 53.8951 3.64328 53.7161 3.61758L53.7143 3.62029ZM53.2454 3.58059C53.4076 3.58393 53.5632 3.59723 53.7125 3.61939L53.7143 3.61758C53.565 3.59623 53.4088 3.58375 53.2454 3.58059ZM45.1326 3.23227C45.0031 3.32538 44.8837 3.42194 44.7762 3.52103C44.8269 3.49164 44.8791 3.46419 44.9319 3.43711C44.9952 3.37262 45.0632 3.30307 45.1326 3.23227ZM46.7776 3.19889C46.7811 3.18254 46.7848 3.16632 46.7884 3.15016H46.7866C46.783 3.1662 46.781 3.18266 46.7776 3.19889ZM55.7994 3.15557C55.8017 3.15814 55.8034 3.16113 55.8057 3.16369C55.8002 3.15018 55.7959 3.13633 55.7904 3.12309C55.7882 3.12002 55.7855 3.11721 55.7832 3.11406C55.7887 3.12787 55.794 3.14175 55.7994 3.15557ZM55.7706 3.08519C55.7729 3.08829 55.7755 3.09118 55.7778 3.09421C55.761 3.05506 55.7438 3.01723 55.7265 2.98051C55.7419 3.01528 55.7563 3.05028 55.7706 3.08519ZM46.4807 2.63671C46.4197 2.76821 46.3644 2.90708 46.3178 3.05451C46.3657 2.90306 46.4248 2.76423 46.4834 2.63581L46.4807 2.63671ZM46.5418 2.50587H46.5445C46.5495 2.49608 46.5531 2.48572 46.558 2.47609C46.5528 2.48606 46.547 2.4958 46.5418 2.50587ZM53.1482 1.81736L53.1401 1.81646L52.8926 1.80834L53.1482 1.81736ZM47.7675 1.66125C47.793 1.6572 47.8188 1.65403 47.8449 1.65043L47.8467 1.64862C47.8206 1.65235 47.7942 1.65682 47.7675 1.66125ZM47.8503 1.64772L47.8494 1.64952C47.8788 1.6455 47.9084 1.64028 47.9385 1.63689C47.9095 1.64026 47.8801 1.6435 47.8503 1.64772ZM48.0879 1.22271L48.0861 1.22451C48.1319 1.21477 48.1788 1.20405 48.2274 1.19563C48.1787 1.20411 48.1322 1.21321 48.0879 1.22271ZM48.2391 1.19293C48.2468 1.19162 48.2547 1.19149 48.2625 1.19022L48.2643 1.18842C48.2558 1.1898 48.2475 1.1915 48.2391 1.19293ZM48.2706 1.18751L48.2688 1.18932C48.307 1.18315 48.3461 1.17912 48.3858 1.17398L48.3894 1.17127C48.3486 1.17651 48.3089 1.18131 48.2706 1.18751ZM49.7537 0.252662C49.5008 0.311353 49.2581 0.396023 49.0283 0.504422C49.0149 0.511553 49.0011 0.517884 48.9878 0.525177C49.0347 0.509185 49.0756 0.495131 49.1102 0.48457C49.1565 0.470473 49.2027 0.458636 49.2479 0.446671C49.3256 0.420706 49.397 0.398219 49.4612 0.380798C49.5596 0.332768 49.657 0.289871 49.7537 0.252662ZM52.1592 0.283343C52.2496 0.305487 52.3498 0.333018 52.4562 0.368165C52.5066 0.381521 52.5575 0.396382 52.6091 0.412381C52.4917 0.358864 52.3672 0.307074 52.2339 0.263491C52.2143 0.259058 52.1952 0.252311 52.1754 0.24815C52.1137 0.235209 52.048 0.22396 51.9792 0.213861C52.04 0.235436 52.0999 0.258741 52.1592 0.283343ZM51.6237 0.189497C51.6091 0.185815 51.5944 0.182171 51.5796 0.178668C51.5473 0.177496 51.5147 0.176312 51.4815 0.175961C51.5277 0.179664 51.5752 0.184141 51.6237 0.189497ZM62.2411 17.736C62.2275 17.6785 62.2131 17.6216 62.197 17.5654C62.2136 17.6232 62.2278 17.6802 62.2411 17.736ZM62.1916 17.5474C62.1713 17.4781 62.1491 17.4098 62.125 17.3426C62.1498 17.4119 62.1719 17.4803 62.1916 17.5474Z" fill="#062A12" fill-opacity="0.5"/>
</svg>
