<svg width="70" height="71" viewBox="0 0 70 71" fill="none" xmlns="http://www.w3.org/2000/svg">
<path d="M46.958 0.0132986C47.4854 -0.0119924 48.014 0.000574738 48.4847 0.0359201C49.0042 0.0749471 49.8983 0.171584 50.7181 0.482696C51.3218 0.711977 52.0516 1.076 52.739 1.71133C53.2598 2.19262 53.6332 2.71478 53.9082 3.20576L54.1526 3.68223L54.3569 4.12194L54.7627 4.99287L54.7862 8.52183C57.856 9.53115 60.1963 11.9845 61.078 15.215C62.2741 15.2275 63.2386 15.2455 63.9533 15.3394C64.4639 15.4065 65.12 15.5385 65.8113 15.8696C66.5162 16.2073 66.9936 16.6309 67.2069 16.8225C67.5648 17.1441 68.5732 18.0206 69.0138 19.6248C69.29 20.6304 69.2619 21.7714 69.2623 22.3097C69.2627 22.8668 69.2596 23.4081 69.225 23.8536C69.1854 24.3651 69.0809 25.1742 68.6232 26.0408C67.9985 27.2233 67.062 28.2078 65.7672 28.8346L65.4759 28.9745C66.0686 29.2166 66.5106 29.5167 66.8287 29.7649C67.4053 30.2148 67.9445 30.84 68.2947 31.3908C68.3401 31.4623 68.5598 31.7978 68.746 32.2349C68.9585 32.7336 69.0637 33.1978 69.1201 33.5922C69.1991 34.1443 69.2046 34.826 69.214 35.3057L69.225 36.1159C69.2244 36.3917 69.2169 36.6672 69.1961 36.9203C69.1292 37.7314 68.935 38.3191 68.7295 38.8078C68.1409 40.207 67.2011 41.1774 66.0336 41.8533C65.937 41.9092 65.7569 42.0085 65.509 42.1176C65.6066 42.1605 65.7054 42.2082 65.8044 42.259C66.3109 42.5191 66.7014 42.8256 66.9377 43.0282L67.1213 43.1908L67.396 43.4523C68.0297 44.0914 68.6008 44.9336 68.9131 46.0849C69.1788 47.0647 69.1899 48.0737 69.1891 48.7698C69.1887 49.2229 69.1893 49.8016 69.1312 50.3137C69.0398 51.1182 68.8219 51.7087 68.5942 52.1941C67.8447 53.7912 66.6025 54.7306 65.3655 55.2678C64.5846 55.607 63.9177 55.7063 63.1789 55.7471C62.7311 55.7719 62.0901 55.7804 61.1732 55.7895C61.153 55.8698 61.136 55.9502 61.1139 56.0271C60.7344 57.3469 59.9863 58.4587 59.2945 59.2591C58.5749 60.0917 57.6417 60.9042 56.5669 61.4859C56.0199 61.7819 55.4131 62.0818 54.7033 62.313C54.6928 63.3462 54.6827 64.0771 54.6605 64.5964C54.6388 65.1048 54.5997 65.8996 54.3251 66.7157L54.3265 66.7172C53.9512 67.8313 53.2126 69.1391 51.7369 70.0072C50.5107 70.7283 49.2166 70.8638 48.3936 70.912C47.4304 70.9686 46.0978 70.9955 44.8142 70.5473C43.259 70.0039 42.2183 68.9466 41.5703 67.7464L41.4461 67.5047L41.2169 67.0353L41.1893 66.9801L41.0223 67.3378C40.8451 67.7146 40.6374 68.0578 40.4453 68.336C40.2962 68.5518 39.9643 69.0125 39.4804 69.4289C38.9818 69.8581 38.1925 70.4539 36.9694 70.7311C36.153 70.9161 35.2688 70.9127 34.7056 70.9149C34.2233 70.9167 33.5805 70.9258 33.0367 70.8597C32.1366 70.7504 31.5237 70.4607 31.1911 70.3027C30.6934 70.0663 29.9977 69.6783 29.3497 68.9864C28.7157 68.3094 28.3661 67.5961 28.1584 67.1102C28.1247 67.0314 28.095 66.9524 28.0659 66.8755C27.9955 67.076 27.9108 67.2832 27.8064 67.4934C27.4724 68.1656 27.0162 68.6787 27.0003 68.698C26.5084 69.2944 25.8363 69.8261 25.2292 70.1585C24.6425 70.4796 23.9997 70.7154 23.1448 70.7989C22.6577 70.8465 22.0428 70.8442 21.4566 70.8442H18.6945L17.6164 70.0934L17.2782 69.8587L17.2768 69.8573C17.0731 69.7155 16.3861 69.2542 15.8067 68.4717C15.1617 67.6006 14.8907 66.6917 14.7603 65.9664C14.5918 65.0278 14.5747 63.7641 14.5726 62.3314C12.0474 61.5456 9.77579 59.7906 8.59552 57.185C8.40493 56.7642 8.22244 56.3099 8.07235 55.7895C7.1058 55.7802 6.43716 55.7724 5.97554 55.7443C5.6598 55.725 5.25833 55.6883 4.82153 55.5874C4.34144 55.4764 3.98098 55.3235 3.83869 55.2636C2.70379 54.7858 1.44376 53.9003 0.696922 52.2578C0.105316 50.9564 0.0517812 49.5955 0.0467582 48.7104C0.0414275 47.7703 0.0924142 46.3709 0.696922 45.0401C1.38836 43.5179 2.53573 42.6065 3.71446 42.1063C3.62682 42.0666 3.56445 42.0401 3.53777 42.0272C2.21822 41.3888 1.25963 40.3969 0.648609 39.1005L0.531275 38.8361C-0.0123114 37.5489 0.0343242 36.3238 0.0343347 35.4641C0.0343347 34.9801 0.0278566 34.3056 0.0964523 33.7463C0.21937 32.7441 0.556391 32.0794 0.734193 31.7344L0.86671 31.4883C1.51253 30.3544 2.47152 29.4532 3.73792 28.9307L3.53777 28.8416C2.93773 28.5513 2.26699 28.1221 1.65905 27.4462C1.06794 26.7889 0.713692 26.0957 0.482962 25.5304C0.306013 25.0968 0.103625 24.5158 0.0315739 23.6995C-0.0143654 23.1788 0.00037891 22.5852 0.0108681 22.1089C0.0210423 21.6452 0.030799 21.0203 0.107495 20.4801C0.234361 19.5873 0.515875 18.9755 0.72591 18.5658C1.13579 17.7663 1.74101 16.9948 2.6129 16.3913C3.42555 15.8289 4.25613 15.562 4.90711 15.4143L5.29915 15.338C6.02737 15.2185 6.87541 15.1935 8.03646 15.1881C8.11842 14.8461 8.21989 14.5036 8.34567 14.1631C8.87054 12.7421 9.68112 11.7153 10.5432 10.8702L10.9339 10.5153C11.3426 10.1692 11.7839 9.85755 12.0865 9.65432C12.3206 9.4971 12.5934 9.32358 12.8637 9.1722C12.9925 9.10009 13.187 8.99528 13.4131 8.89649C13.5251 8.84753 13.7047 8.77362 13.9266 8.70563C13.9376 8.70225 13.95 8.69845 13.9639 8.69431C14.1974 8.59637 14.4195 8.52499 14.6044 8.47234C14.6157 7.77927 14.6283 7.18354 14.6458 6.70503C14.6574 6.38757 14.6721 6.09144 14.6899 5.83976C14.6967 5.74428 14.7261 5.21104 14.857 4.69879C15.3388 2.81217 16.7074 1.36457 18.1934 0.645288C18.5287 0.483042 19.1585 0.184438 20.0831 0.0839909C20.6268 0.0249884 21.2651 0.0449905 21.7148 0.0543001C22.5567 0.0717246 23.7386 0.0472484 25.018 0.676393C25.7448 1.03401 26.3611 1.52103 26.8332 2.01106C27.1826 2.37374 27.7323 3.02844 28.0922 3.94238C28.7393 2.29753 30.0309 1.05307 31.5845 0.445936C32.3786 0.135882 33.2164 0.0872028 33.4495 0.0712663C33.8809 0.041743 34.3428 0.0350719 34.7663 0.0429894C35.187 0.0508549 35.6489 0.0745319 36.0777 0.122165C36.288 0.14553 36.5523 0.18101 36.8286 0.239514C36.9559 0.266462 37.4162 0.362291 37.9481 0.614183C38.2334 0.718381 38.4437 0.82645 38.561 0.891297C38.9037 1.08074 39.1598 1.2819 39.3106 1.40876C39.6179 1.6673 39.8543 1.93022 40.0077 2.11286C40.3232 2.48857 40.6387 2.94749 40.8939 3.43763L40.8925 3.43905L41.0761 3.78968L41.21 4.04842C41.2933 3.8145 41.3734 3.63473 41.4281 3.51822L41.6117 3.15769C42.0687 2.32594 42.7249 1.57371 43.6036 1.00865C44.5676 0.388769 45.5738 0.139121 46.4334 0.0528863L46.958 0.0132986Z" fill="#062A12" fill-opacity="0.5"/>
</svg>
