<svg width="72" height="69" viewBox="0 0 72 69" fill="none" xmlns="http://www.w3.org/2000/svg">
<path d="M34.6971 0.0890362C35.4578 -0.032982 36.2153 -0.0176712 36.8645 0.0633242C37.4785 0.139934 38.3035 0.313589 39.0992 0.717003C40.9423 1.65141 42.0558 3.11311 42.699 4.88136L43.1254 6.05423L43.1303 14.5392C43.244 14.5654 43.3571 14.5885 43.4676 14.6153C43.5348 14.6317 43.6022 14.6509 43.6694 14.6678C43.7933 14.3544 43.9267 14.0605 44.0552 13.7886C45.1659 11.4386 45.8901 9.93233 46.4235 8.94287C46.9738 7.92202 47.5022 7.09746 48.3169 6.35783C49.0833 5.66215 50.0404 5.12604 50.969 4.81313L51.3132 4.70731C54.8756 3.71422 58.4822 5.87246 59.6218 9.15945C60.014 10.2908 60.009 11.4553 59.9305 12.2617C59.8583 13.0029 59.6783 13.9055 59.3003 14.7706L59.1252 15.1385C59.1262 15.1367 59.1236 15.1427 59.1153 15.1592C59.1072 15.1755 59.0956 15.1974 59.0817 15.2255C59.0539 15.282 59.0179 15.3566 58.9729 15.449C58.8831 15.6336 58.7647 15.8797 58.6207 16.1788C58.474 16.4836 58.3028 16.841 58.1113 17.2409C58.4212 16.9612 58.8042 16.6287 59.1084 16.3736C59.2733 16.2353 59.4193 16.1067 59.518 16.0176C59.825 15.6777 60.1534 15.4249 60.4488 15.2423C60.4749 15.2227 60.4972 15.2044 60.5171 15.1899C60.7904 14.9911 61.0634 14.8352 61.255 14.731C61.6601 14.5109 62.152 14.2839 62.639 14.107C63.2884 13.8711 64.1295 13.6843 64.9399 13.6788C66.0105 13.6719 67.0036 13.9523 67.7652 14.2791C68.463 14.5785 69.3264 15.071 70.0503 15.8337L70.1938 15.9909L70.4193 16.2619C71.5109 17.6529 72.0529 19.5397 71.8933 21.253C71.7953 22.3036 71.5012 23.3639 70.817 24.4274C70.228 25.3428 69.4513 26.0915 68.7327 26.7306C68.4703 26.9641 68.2158 27.1935 68.0174 27.3725C67.918 27.4622 67.8359 27.5363 67.7761 27.591C67.696 27.6642 67.699 27.6623 67.7335 27.6286L67.7325 27.6296C67.3285 28.024 66.7784 28.5092 65.9687 29.2039L65.9678 29.2049C65.7681 29.3762 65.5882 29.5354 65.4642 29.648C65.4441 29.6663 65.4258 29.6816 65.4108 29.6954C65.4044 29.7023 65.3984 29.7094 65.392 29.7162C65.4067 29.734 65.4197 29.7504 65.4316 29.7647C65.8726 30.2961 66.8533 31.6909 67.2172 32.2914C67.8212 33.2882 68.6149 34.6936 68.6149 36.4241C68.6149 37.251 68.386 38.0374 68.2766 38.3841C68.2 38.6271 68.1002 38.9043 67.9779 39.1812C67.9332 39.2824 67.8091 39.5649 67.5941 39.9021C67.5327 40.022 67.4795 40.1222 67.4417 40.1869C67.3276 40.3823 67.1989 40.58 67.0886 40.7447C66.8582 41.0884 66.5655 41.4994 66.2675 41.9047C65.698 42.6792 64.941 43.6623 64.4077 44.2534C63.8473 44.8746 61.0286 47.7126 60.4478 48.2348C59.807 48.811 58.3275 49.9906 57.4495 50.6399C57.2497 50.7876 57.0306 50.9506 56.8342 51.0968C56.8445 51.1137 56.8557 51.1301 56.8658 51.1472C56.9753 51.3316 57.158 51.6257 57.2496 51.7672C57.3189 51.8742 57.5018 52.1594 57.6602 52.4486C57.6706 52.4649 57.6835 52.4866 57.6997 52.5109L57.7541 52.591C59.1417 54.5932 60.3395 57.3027 59.2944 60.2483L59.1856 60.5341C59.0877 60.7771 58.967 61.0458 58.8314 61.2995C58.7722 61.4102 58.656 61.622 58.4911 61.8533C58.4859 61.8615 58.4817 61.8686 58.4783 61.874C58.291 62.172 58.0998 62.3978 57.9846 62.5267C57.7419 62.7986 57.487 63.0295 57.2872 63.1982C56.9327 63.4977 56.3361 63.9518 55.6599 64.2672C55.2822 64.4434 54.7836 64.641 54.1326 64.7469C53.6101 64.8318 53.1136 64.8339 52.7991 64.8339C52.5259 64.8339 51.9315 64.8416 51.3123 64.7202C50.7585 64.6116 50.3086 64.428 50.0104 64.29L49.7641 64.1713C49.5366 64.0588 49.2867 63.9231 49.0528 63.7757C48.9704 63.7238 48.8322 63.6307 48.673 63.5097C48.4452 63.3591 48.2706 63.2155 48.1695 63.128C47.9247 62.9162 47.714 62.6958 47.5621 62.5277C47.2494 62.182 46.9042 61.7469 46.6124 61.3024C46.5589 61.2209 46.5101 61.1501 46.4779 61.1037C46.4538 61.0728 46.4393 61.0562 46.4393 61.0562C46.3713 60.967 46.3182 60.8905 46.2889 60.8475C46.2269 60.7563 46.1724 60.6689 46.1336 60.6062C46.0516 60.4739 45.9634 60.3244 45.8814 60.179C45.87 60.1588 45.8561 60.1344 45.8408 60.1088C45.8306 60.0918 45.8212 60.0763 45.8131 60.0633C45.5912 59.769 45.4159 59.4814 45.3234 59.3226C45.2906 59.2662 45.2373 59.1719 45.1731 59.0517C45.1682 59.0448 45.1632 59.0386 45.1592 59.0329C45.0237 58.84 44.9185 58.6593 44.8634 58.5621C44.7373 58.3397 44.6124 58.0932 44.5083 57.8788C44.4349 57.7275 44.3312 57.5068 44.2234 57.2587C43.9542 57.3266 43.6885 57.3917 43.4281 57.4496C43.2968 57.4788 43.1722 57.5047 43.0541 57.5307C43.0835 57.9149 43.0925 58.3236 43.0897 58.7926L43.0739 60.0999C43.0615 61.1372 43.0496 61.8713 43.0165 62.3804C42.9754 63.0122 42.8824 63.6582 42.5684 64.3918C42.244 65.1499 41.7921 65.9636 41.0856 66.7079C40.3692 67.4626 39.5705 67.9576 38.8004 68.3149C37.6652 68.8414 36.7187 68.8608 35.9386 68.8608C35.6621 68.8608 35.0558 68.8696 34.4409 68.753C33.6742 68.6076 33.1058 68.3175 32.8551 68.1923C32.0674 67.7988 31.2774 67.2523 30.5967 66.4468C29.9308 65.6587 29.5264 64.8086 29.2533 64.024C28.8202 62.7792 28.8622 61.7645 28.8606 60.0129C28.8596 58.97 28.8535 58.2401 28.9111 57.5841C28.6278 57.5215 28.3631 57.4589 28.1256 57.3913C28.061 57.3729 28.0015 57.3578 27.9574 57.3468C27.8555 57.3306 27.771 57.3147 27.7171 57.3032C27.7105 57.3018 27.7038 57.2997 27.6973 57.2983C27.4071 58.0203 27.0827 58.5592 26.5468 59.4126C26.4714 59.5327 26.3885 59.6695 26.3183 59.7874C26.2835 59.8459 26.256 59.8942 26.2362 59.9288C26.2346 59.9316 26.2326 59.9343 26.2312 59.9367L26.1303 60.1197C26.0433 60.2712 25.9398 60.4303 25.8227 60.5914C25.7865 60.6553 25.7544 60.7123 25.7257 60.7595C25.5576 61.037 25.368 61.3073 25.1995 61.5329C24.8964 61.9386 24.4114 62.5368 23.8986 62.9975C23.3881 63.4561 22.6878 64.0078 21.7391 64.381C20.7786 64.7588 19.8854 64.8279 19.1859 64.8309C18.4801 64.834 17.5103 64.7811 16.4774 64.3602C15.5665 63.989 14.8943 63.4489 14.403 62.9816L14.2031 62.7868C13.635 62.2175 13.0811 61.5051 12.6926 60.5983C12.2991 59.6799 12.1652 58.7714 12.1653 57.9302C12.1654 57.1327 12.356 56.328 12.4819 55.8723C12.5591 55.5925 12.6575 55.2816 12.7776 54.9763C12.8411 54.815 13.0123 54.38 13.3227 53.9152C13.4222 53.7197 13.543 53.4986 13.662 53.311C13.7215 53.2171 13.8988 52.9401 14.0547 52.6958C14.1004 52.6244 14.1387 52.5592 14.1685 52.5109C14.1935 52.4617 14.2131 52.4218 14.2269 52.3962C14.2902 52.2788 14.3571 52.1655 14.4059 52.0837C14.5106 51.9084 14.6368 51.7073 14.7541 51.524C14.8237 51.4152 14.8989 51.3017 14.9718 51.1917C14.2554 50.6801 13.4239 50.0643 12.8667 49.5728L12.6283 49.3543C12.6752 49.3996 12.6874 49.4091 12.6065 49.3375C12.5481 49.2858 12.4678 49.2143 12.3681 49.1278C12.1696 48.9557 11.9156 48.7382 11.6578 48.5196C10.0126 47.1244 7.32991 44.2567 5.84608 42.3359L5.56613 41.965C5.42545 41.774 5.15524 41.4075 4.96666 41.1511C4.63901 40.7057 4.23603 40.0422 3.98138 39.561L3.98039 39.5619C3.87734 39.3672 3.53945 38.7663 3.35519 38.0459C3.1635 37.2963 3.1827 36.5995 3.18307 36.3835C3.1835 36.1126 3.18226 35.5572 3.30573 34.9565C3.45135 34.2484 3.71318 33.7235 3.86366 33.4346L4.03381 33.124C4.58648 32.1494 5.48745 30.8859 6.46238 29.6529C6.43182 29.6271 6.39698 29.5968 6.35851 29.5659C6.0227 29.2964 5.52675 28.874 5.20902 28.5859C4.4658 27.9122 4.28725 27.7536 3.42147 27.0026C2.92533 26.5722 2.43139 26.0976 2.03753 25.6784C1.84698 25.4756 1.62799 25.2305 1.43113 24.9763C1.33821 24.8563 1.19035 24.6573 1.04533 24.4116C1.00607 24.3451 0.955266 24.2545 0.899915 24.1446C0.803347 23.9887 0.740422 23.8681 0.710972 23.8104C0.612659 23.6177 0.536965 23.439 0.482459 23.2991C0.373585 23.0195 0.278121 22.7134 0.205473 22.4081L0.13227 22.0679C-0.536133 18.5607 1.37275 15.1834 4.8618 14.0378C6.86136 13.3814 8.95446 13.7523 10.5954 14.643L10.9169 14.828L11.2819 15.0613C11.3376 15.0989 11.4171 15.1534 11.5035 15.2176C11.5454 15.2488 11.6156 15.3009 11.6964 15.3679C11.7154 15.3837 11.7789 15.436 11.8666 15.5172L11.8675 15.5182C11.8807 15.5295 11.8972 15.544 11.917 15.5608C11.9567 15.5943 12.0058 15.635 12.0614 15.6814C12.1168 15.7276 12.1769 15.7781 12.2395 15.8297C12.7568 16.256 13.3739 16.803 13.9855 17.3636C13.8274 17.0359 13.6554 16.684 13.4731 16.3044C13.2971 15.9381 13.0712 15.4572 12.9696 15.2285L12.9686 15.2265C12.8937 15.0578 12.7552 14.746 12.6609 14.5342L12.6599 14.5333C12.1347 13.3528 12.1381 12.3952 12.1356 11.5428C12.1347 11.2091 12.1242 10.5913 12.2128 10.0208C12.346 9.16289 12.6571 8.56258 12.8004 8.28425L12.9636 7.98658C13.36 7.30672 13.8581 6.73156 14.3357 6.28662C14.8514 5.80618 15.6362 5.20432 16.6297 4.85664L16.8741 4.77654C19.3272 4.02441 22.0956 4.7412 23.8976 6.49034L24.0747 6.66835L24.4605 7.08271C24.5978 7.23601 24.7398 7.40342 24.874 7.58014C25.1957 8.00397 25.3975 8.37903 25.5467 8.67487C25.7057 8.90051 25.8136 9.0918 25.8711 9.20098C25.9567 9.36327 26.0506 9.5642 26.1363 9.79533C26.1603 9.84998 26.1987 9.93461 26.251 10.0485C26.3603 10.2865 26.5088 10.6044 26.6695 10.9385L27.4371 12.5455C27.6679 13.0325 27.8761 13.4762 28.0692 13.8924C28.1761 14.1228 28.2768 14.3637 28.3709 14.6124C28.4008 14.6055 28.4298 14.5978 28.458 14.5916C28.5731 14.5664 28.6915 14.5424 28.8121 14.5174C28.7904 14.097 28.7807 13.6038 28.7696 13.0439C28.7403 11.5629 28.7577 9.94506 28.8072 8.61455C28.8319 7.9516 28.866 7.32689 28.9091 6.80877C28.9304 6.55213 28.957 6.28709 28.9912 6.03939C29.0143 5.87153 29.0753 5.43393 29.2276 4.97927L29.378 4.57084C30.2005 2.52868 32.0616 0.511882 34.6971 0.0890362ZM46.6678 61.3292C46.6963 61.3608 46.7381 61.4065 46.7905 61.4597C46.7347 61.4032 46.6858 61.3483 46.6421 61.2995C46.6504 61.3089 46.6587 61.319 46.6678 61.3292ZM47.0892 60.988C47.1006 61.0479 47.1139 61.1078 47.1278 61.166C47.1142 61.1085 47.1028 61.049 47.0912 60.988L47.0902 60.987C47.0862 60.9661 47.082 60.945 47.0783 60.9237C47.0821 60.9452 47.0852 60.9667 47.0892 60.988ZM48.3 60.8011L48.5256 60.807L48.304 60.8011C48.2723 60.7993 48.2411 60.7956 48.21 60.7932C48.2398 60.7955 48.2697 60.7994 48.3 60.8011ZM47.0299 60.5509C47.0291 60.541 47.0296 60.5311 47.0289 60.5212L47.0269 60.5202C47.0276 60.5305 47.0291 60.5407 47.0299 60.5509ZM47.0269 60.5153L47.0289 60.5163C47.0224 60.4238 47.017 60.3285 47.017 60.2305C47.017 60.3272 47.0205 60.4222 47.0269 60.5153ZM45.8458 60.1068C45.8575 60.1229 45.8744 60.1453 45.8952 60.1721L45.9833 60.2809C45.93 60.2176 45.881 60.1514 45.8319 60.0871C45.8362 60.0931 45.8406 60.0999 45.8458 60.1068ZM28.272 57.3853C28.3079 57.3885 28.3636 57.392 28.4342 57.3952C28.3729 57.3925 28.3158 57.3887 28.2641 57.3843C28.2666 57.3846 28.2695 57.3851 28.272 57.3853ZM57.7383 52.6009C57.7583 52.6402 57.7799 52.6777 57.7977 52.7156L57.7997 52.7196C57.7767 52.6705 57.7556 52.6299 57.7403 52.5999C57.7362 52.592 57.7327 52.5845 57.7294 52.5782C57.7128 52.5463 57.6995 52.5204 57.6898 52.503C57.6855 52.4951 57.6807 52.4879 57.677 52.4812C57.6985 52.5211 57.7183 52.5615 57.7383 52.6009ZM65.579 29.5026C65.6022 29.4747 65.631 29.4415 65.6611 29.4027C65.6698 29.3916 65.6789 29.3792 65.6888 29.3661C65.6532 29.4135 65.6155 29.458 65.579 29.5026ZM65.7106 29.3355C65.7233 29.3184 65.7381 29.3006 65.7521 29.2811C65.7858 29.2342 65.8282 29.1718 65.8758 29.0971C65.8227 29.1805 65.7667 29.2594 65.7106 29.3355ZM5.77981 27.9569C5.85166 28.2912 5.96195 28.5907 6.09537 28.8578C6.14417 28.9555 6.19642 29.0486 6.25068 29.1377C6.20955 29.068 6.15539 28.9742 6.09834 28.8568C5.98944 28.6329 5.86839 28.3256 5.78574 27.95L5.77981 27.9569ZM66.1458 27.8818C66.1163 28.0308 66.0811 28.172 66.04 28.304C66.0827 28.1692 66.117 28.0283 66.1458 27.8818ZM5.71353 27.5208C5.72928 27.6718 5.74997 27.8179 5.77981 27.9569L5.78574 27.95C5.75612 27.8154 5.73111 27.6722 5.71353 27.5208ZM66.2002 27.5208C66.204 27.4844 66.2103 27.448 66.2131 27.411L66.2151 27.3655C66.2116 27.4181 66.2056 27.4698 66.2002 27.5208ZM58.8087 17.8303C58.7903 17.9303 58.7754 18.0332 58.7642 18.1389C58.7761 18.0306 58.7912 17.9263 58.8097 17.8264L58.8087 17.8303ZM59.2251 16.3806C59.2191 16.3889 59.2133 16.3985 59.2063 16.4083C59.2301 16.3746 59.2542 16.3417 59.2786 16.3094C59.2619 16.3312 59.2439 16.3549 59.2251 16.3806ZM11.9012 15.5509C11.9815 15.627 12.0776 15.7237 12.1762 15.8367C12.137 15.7917 12.1045 15.7547 12.0802 15.7289C12.0553 15.7023 12.0337 15.6797 12.0169 15.6626C11.9998 15.6452 11.9846 15.6301 11.9724 15.6181C11.9602 15.6061 11.9488 15.5962 11.9398 15.5875C11.9243 15.5726 11.9111 15.5601 11.9012 15.5509Z" fill="#062A12" fill-opacity="0.5"/>
</svg>
