<svg width="72" height="72" viewBox="0 0 72 72" fill="none" xmlns="http://www.w3.org/2000/svg">
<path d="M35.2431 0.0139209C37.1802 -0.122519 38.7413 0.763979 39.6977 1.7962C40.1305 2.26355 40.412 2.7384 40.4999 2.8874C40.6403 3.12547 40.7656 3.36424 40.8688 3.57848C40.9696 3.78799 41.0842 4.048 41.188 4.32744C41.2389 4.46451 41.3107 4.66638 41.3749 4.9061C41.395 4.98096 41.4405 5.15556 41.4824 5.39879L41.4857 5.41037C41.5905 5.75722 41.7468 6.3287 41.848 6.72641L42.116 7.74816L42.1176 7.74982C42.2045 8.06635 42.3452 8.61 42.4385 8.9865L42.9976 11.1672C43.0806 11.4837 43.2208 12.0285 43.3119 12.3923L43.5964 13.5001L43.6791 13.8159C43.6927 13.8057 43.7059 13.7957 43.7188 13.7861C43.942 13.6211 44.2175 13.4253 44.4995 13.2306L46.4001 11.9162C46.9314 11.5487 47.5072 11.154 47.6506 11.0581L47.6523 11.0565C47.7449 10.9946 48.4828 10.4993 49.2998 9.95039C50.0775 9.42785 50.781 8.97541 51.3674 8.63765C51.6531 8.47313 51.9987 8.2858 52.3599 8.12347C52.4556 8.08047 53.4658 7.58348 54.7385 7.58118C56.6528 7.57801 58.475 8.58115 59.456 10.3406C60.2013 11.6772 60.1907 12.9698 60.1557 13.5513C60.0786 14.8314 59.6341 16.0235 59.2526 16.8695L57.9458 19.7298C57.1826 21.3835 56.8712 22.0501 56.4555 22.9174C56.2135 23.4221 55.9998 23.8707 55.8104 24.2731C56.951 24.3096 58.3222 24.3561 59.3982 24.3839L62.0844 24.4781C62.9736 24.5171 63.7872 24.5607 64.3158 24.6005C64.9973 24.6518 65.6348 24.7015 66.1238 24.7741C66.6284 24.849 67.5358 25.0174 68.4892 25.6123L68.8994 25.8934C69.7106 26.5052 71.0278 27.8571 71.1357 30.0449C71.2356 32.0729 70.2116 33.4668 69.6917 34.0575C69.4823 34.2954 69.2292 34.5477 68.9424 34.785C68.8074 34.8966 68.5724 35.082 68.2625 35.2694C68.2501 35.2769 68.235 35.2827 68.2212 35.2909C68.1746 35.322 68.1388 35.352 68.1104 35.3702C67.9238 35.4898 67.7292 35.6026 67.5761 35.6893C67.2505 35.8737 66.8335 36.0977 66.3785 36.3358C65.4557 36.8186 64.2346 37.4355 62.9611 38.0569C61.489 38.7751 59.5018 39.7314 58.3693 40.2723C58.3951 40.2985 58.4209 40.3252 58.447 40.3517C62.7096 44.6742 64.8798 46.9194 65.6987 47.9322C66.4243 48.8298 66.9463 49.9952 67.0435 51.2917C67.1251 52.3832 66.904 55.0746 64.243 56.5195C63.4871 56.93 62.8006 57.0563 62.5559 57.0982C62.2238 57.155 61.9331 57.1755 61.7304 57.1842C61.3198 57.2016 60.9266 57.184 60.609 57.1594C59.9738 57.11 59.2283 56.9995 58.5248 56.8221C57.3111 56.5161 56.6223 56.3365 56.0469 56.1591L55.1537 55.8979C54.8047 55.8005 54.3036 55.6553 54.014 55.5672L53.1026 55.3043C52.7535 55.207 52.2508 55.0618 51.9613 54.9737C51.7682 54.9149 51.3465 54.7914 51.0515 54.7091C50.8902 54.6641 50.6957 54.6052 50.5056 54.5504C50.5206 54.7066 50.5378 54.8656 50.5519 55.0216L50.633 55.9971C50.6589 56.3588 50.7321 57.1759 50.7934 57.781C51.0139 59.9576 51.1696 61.7969 51.2483 63.1758C51.2872 63.8569 51.3103 64.4905 51.3079 65.0242C51.3067 65.2865 51.2986 65.5959 51.2715 65.9104C51.2573 66.075 51.2041 66.7994 50.8977 67.5852C50.5225 68.5471 49.7115 69.8165 48.1568 70.5579C46.6075 71.2967 45.1193 71.1294 44.1472 70.8224C42.45 70.2865 41.3961 69.0884 40.9134 68.4681C40.4495 67.8719 39.9452 67.1518 39.5157 66.4725L39.1154 65.8129C39.1213 65.8231 39.1144 65.8123 39.0906 65.7732C39.0693 65.7382 39.0418 65.6926 39.0095 65.6409C38.9443 65.5362 38.8723 65.4235 38.8127 65.3317C38.7236 65.1945 38.6151 65.0231 38.51 64.8539L38.2271 64.3844C38.1862 64.313 38.155 64.2592 38.1312 64.2191C38.107 64.1783 38.0941 64.1587 38.0915 64.1546C38.0915 64.1546 38.0948 64.1585 38.0998 64.1661C38.1058 64.1752 38.1166 64.1914 38.1312 64.2124C38.1458 64.2335 38.1653 64.2627 38.1908 64.2968C38.216 64.3307 38.2483 64.3719 38.2867 64.4191C38.0957 64.1838 37.9454 63.9508 37.936 63.9363C37.8837 63.8568 37.8318 63.7745 37.7871 63.7032C37.696 63.5576 37.592 63.3881 37.4927 63.2204C37.359 62.9947 37.0962 62.5644 36.927 62.2962C36.8344 62.1494 36.7435 61.9938 36.6557 61.8432C36.4367 61.5496 36.2622 61.2602 36.1281 60.9984C36.1614 61.0633 36.1878 61.1114 36.1959 61.1257C36.1921 61.1191 36.1789 61.0974 36.1562 61.0596C36.1112 60.9846 36.0486 60.8823 35.9776 60.7686C35.907 60.6556 35.835 60.5422 35.7741 60.4478L35.6798 60.3023C35.6701 60.2884 35.6602 60.2719 35.6484 60.2544C35.53 60.444 35.4246 60.6184 35.3291 60.7686C35.2292 60.9257 35.1342 61.0747 35.0512 61.2001C35.0512 61.2001 35.0385 61.2165 35.0198 61.2447C34.9738 61.3276 34.9342 61.4024 34.9024 61.4564L34.5782 61.9805C34.1461 62.6551 33.8895 63.0582 33.7412 63.2982C33.5835 63.6342 33.4183 63.9006 33.2896 64.0851C33.241 64.1549 33.1876 64.2211 33.1358 64.2885C33.0429 64.4463 32.9402 64.6114 32.8215 64.7746C32.8186 64.7786 32.8146 64.782 32.8116 64.7861C32.7485 64.8898 32.6843 64.9906 32.618 65.0871C32.6342 65.0635 32.6305 65.0721 32.585 65.1416C32.548 65.1981 32.498 65.2741 32.4394 65.3648C32.3225 65.5457 32.1779 65.7723 32.0341 65.998C31.743 66.4554 31.4094 66.9777 31.303 67.1388C31.2748 67.1815 31.2393 67.2336 31.2087 67.281C31.1936 67.3044 31.1814 67.3246 31.1723 67.3389C31.1711 67.3408 31.169 67.3438 31.169 67.3438L31.1674 67.3455C30.7761 67.9778 29.9518 69.2812 28.6713 70.1396C27.9327 70.6347 26.3698 71.4246 24.3673 70.9762C22.3674 70.5282 21.2943 69.1499 20.8408 68.3953C20.0905 67.1471 19.9749 65.832 19.9641 65.0804L19.969 64.5398C19.9683 63.7515 20.0499 62.5045 20.1444 61.6415C20.2221 60.9318 20.3533 59.6503 20.4338 58.811C20.5164 57.9507 20.6472 56.5932 20.725 55.7937C20.7718 55.3121 20.8364 54.6003 20.9003 53.9122C20.6103 53.9895 20.2708 54.082 20.0187 54.147C18.8676 54.4436 18.3958 54.5723 18.0337 54.6827C17.8517 54.7382 17.6608 54.7943 17.4879 54.8398C17.406 54.8613 17.2923 54.8901 17.1686 54.9175C17.1305 54.9259 17.0727 54.9355 17.0032 54.9489C16.9732 54.9572 16.9362 54.9683 16.8957 54.9803C16.1847 55.1905 15.3137 55.4273 14.4956 55.6334C14.3626 55.6669 14.2036 55.7082 14.0605 55.7474C13.9899 55.7668 13.9286 55.7836 13.8819 55.797C13.8564 55.8044 13.8404 55.8095 13.8323 55.8119C13.4647 55.9279 12.9558 56.0555 12.5305 56.1277L12.5321 56.1293C12.5749 56.1221 12.6045 56.1169 12.6165 56.1145L12.5751 56.1244C12.5444 56.1321 12.511 56.1405 12.4792 56.1492C12.4465 56.1581 12.4239 56.1657 12.413 56.169L12.4114 56.1674C11.6864 56.3868 10.9329 56.5009 10.3537 56.5509C10.0461 56.5775 9.679 56.5953 9.29504 56.584C9.09619 56.5782 8.22006 56.5624 7.27371 56.1905C7.03601 56.0971 5.46393 55.5215 4.51299 53.7882C4.09476 53.0259 3.9569 52.3281 3.90263 51.9249C3.87677 51.7328 3.86467 51.5561 3.85797 51.4124L3.84969 51.0966L3.85797 50.8123C3.92855 49.4184 4.50276 48.3808 4.82231 47.8677C5.19713 47.2659 5.6551 46.7163 6.06455 46.2574C6.89934 45.3217 8.17857 44.0518 9.97819 42.3125C11.1561 41.1741 12.2079 40.156 12.337 40.0293C12.3819 39.9851 12.4603 39.9092 12.5619 39.8111C11.9781 39.5214 11.2828 39.1759 10.4463 38.7612C8.19262 37.6438 3.73665 35.3989 3.26579 35.1255C2.87 34.8956 2.4056 34.5906 1.96401 34.203C1.74418 34.01 1.4525 33.7278 1.16341 33.3581C0.945214 33.0791 0.545846 32.5221 0.278463 31.723L0.1726 31.3659C-0.306327 29.5076 0.297154 27.9203 0.9368 26.9631C1.59672 25.9756 2.53235 25.2471 3.5718 24.8303C4.35285 24.5171 5.11614 24.4301 5.39795 24.3971C5.81848 24.3479 6.29716 24.3143 6.80725 24.288C7.83776 24.2349 9.31554 24.195 11.366 24.1574C12.9555 24.1282 14.3166 24.0979 15.4814 24.0714C15.4524 24.0055 15.4187 23.9275 15.3805 23.8416C15.2808 23.6172 15.1572 23.3426 15.0315 23.0629C14.7712 22.4839 14.5268 21.9454 14.4443 21.77C14.3571 21.5845 14.1566 21.1476 13.996 20.7978C13.8426 20.4637 13.536 19.8064 13.3195 19.3429C13.0793 18.8287 12.7208 18.0276 12.5057 17.5276L11.9549 16.2777C11.6955 15.709 11.4427 15.1017 11.2585 14.5218C11.1686 14.2388 11.057 13.8451 10.9855 13.3976C10.942 13.1246 10.77 12.0684 11.1526 10.8448C12.2854 7.22721 15.8383 6.78441 17.5391 7.10833C18.2058 7.23514 18.7251 7.48036 18.7731 7.50182C18.9542 7.58282 19.1154 7.6642 19.2313 7.72502C19.4711 7.85084 19.7163 7.99241 19.9293 8.12016C20.1435 8.24859 20.3815 8.39755 20.6042 8.54837C20.619 8.55833 20.8529 8.71269 21.1517 8.95674C21.1943 8.98699 21.2544 9.03 21.3238 9.07744C21.8353 9.42716 22.6003 10.0022 23.1201 10.4381C23.1797 10.4787 23.2312 10.5132 23.2673 10.539C23.402 10.635 23.5481 10.7449 23.6842 10.8498L25.3912 12.1427L25.5335 12.2469C25.5827 12.2823 25.6278 12.3143 25.6641 12.3394C25.6733 12.3458 25.6819 12.3511 25.689 12.356C25.9632 12.5166 26.2502 12.7143 26.5309 12.9545C26.7136 13.0778 26.9085 13.2121 27.0933 13.348C27.2388 13.4549 27.4134 13.582 27.5862 13.7084C27.6997 13.2729 27.8009 12.8929 27.8972 12.5163C27.9902 12.1526 28.127 11.6281 28.2065 11.3342C28.2705 11.0974 28.3956 10.6218 28.4795 10.2926C28.761 9.18756 28.9319 8.52877 29.0849 7.95979C29.1591 7.68325 29.2892 7.19144 29.3727 6.87356C29.5778 6.0922 29.8035 5.32936 30.0178 4.69117C30.1235 4.37637 30.2418 4.04474 30.3684 3.73555C30.4322 3.57987 30.6928 2.92446 31.1442 2.30543C31.9353 1.2208 33.3271 0.148928 35.2431 0.0139209ZM31.9994 65.6674C31.817 65.8264 31.5485 66.0441 31.1939 66.2493C30.8602 66.4424 30.1188 66.8245 29.0898 66.9173C30.3286 66.8201 31.2881 66.335 31.9994 65.6674ZM40.4883 63.9562L40.8158 63.9661L40.4255 63.9496C40.4464 63.9511 40.4672 63.9548 40.4883 63.9562ZM34.1415 62.0598C34.1434 62.0499 34.1479 62.0401 34.1498 62.0301C34.1527 62.0143 34.1534 61.9975 34.1564 61.9805C34.1517 62.0073 34.1464 62.0336 34.1415 62.0598ZM23.5138 61.415C23.4975 61.5708 23.4857 61.7469 23.4857 61.9375C23.4857 61.77 23.5001 61.5937 23.5221 61.4117C23.5194 61.413 23.5165 61.4137 23.5138 61.415ZM35.3358 60.5768C35.3385 60.57 35.3429 60.5638 35.3457 60.5569C35.3494 60.5475 35.3517 60.5372 35.3556 60.5272C35.349 60.5443 35.3421 60.5607 35.3358 60.5768ZM16.3035 55.0382C16.3137 55.0375 16.3241 55.0388 16.3333 55.0382C16.3902 55.0344 16.4412 55.0276 16.4855 55.0233C16.4291 55.0285 16.3683 55.0344 16.3035 55.0382ZM10.7606 46.1267C10.7486 46.1291 10.7407 46.1317 10.7407 46.1317C10.7407 46.1317 10.7494 46.1303 10.7639 46.1267L10.7689 46.1251C10.7659 46.1257 10.7628 46.1263 10.7606 46.1267ZM15.6121 23.8714C15.6155 23.8983 15.6218 23.924 15.6253 23.9491C15.6204 23.9139 15.6136 23.876 15.6088 23.835C15.6103 23.8477 15.6107 23.8599 15.6121 23.8714ZM31.5296 16.9291C31.6199 17.0563 31.736 17.236 31.8572 17.4581C31.8601 17.4471 31.8625 17.436 31.8654 17.4251C31.7691 17.2525 31.6652 17.0882 31.5511 16.934C31.5441 16.9322 31.5368 16.9309 31.5296 16.9291ZM25.6426 12.3295C25.6279 12.3207 25.6094 12.3104 25.5881 12.2981C25.5604 12.2823 25.5183 12.2583 25.4657 12.2303C25.5241 12.2612 25.5827 12.2951 25.6426 12.3295ZM22.566 10.1058C22.5565 10.1008 22.5476 10.0944 22.5379 10.0893C22.4783 10.0581 22.3851 10.0119 22.2666 9.95866C22.3896 10.0136 22.4916 10.0667 22.566 10.1058ZM21.3684 9.65279C21.3626 9.6514 21.3561 9.64922 21.3502 9.64783C21.3401 9.64545 21.3295 9.64367 21.3188 9.64122C21.3358 9.64509 21.3524 9.64898 21.3684 9.65279ZM20.6406 9.53541C20.6119 9.53284 20.5827 9.52928 20.5529 9.52714L20.189 9.51391C20.3486 9.51391 20.5002 9.52286 20.6406 9.53541ZM21.5355 9.29237C21.5276 9.28483 21.5206 9.27713 21.514 9.27087C21.4879 9.2462 21.463 9.22459 21.4412 9.20474C21.4724 9.23341 21.5042 9.26229 21.5355 9.29237ZM21.2923 9.07413C21.2657 9.05176 21.2452 9.03259 21.2311 9.02122C21.2175 9.01023 21.2045 9.00054 21.1931 8.99146C21.2254 9.01829 21.2589 9.04533 21.2923 9.07413ZM41.5188 5.67324C41.5163 5.6542 41.516 5.63688 41.5139 5.62199C41.512 5.60891 41.5091 5.59615 41.5073 5.58396C41.5113 5.61307 41.5151 5.64279 41.5188 5.67324Z" fill="#062A12" fill-opacity="0.5"/>
</svg>
