<svg width="75" height="67" viewBox="0 0 75 67" fill="none" xmlns="http://www.w3.org/2000/svg">
<path d="M37.3078 0.00169025C42.6662 0.0100344 45.3205 0.00381258 46.7492 0.0710262C47.4802 0.105423 48.1909 0.167318 48.8996 0.361065C49.5193 0.530497 50.2013 0.853253 50.2013 0.853253C51.0985 1.23393 51.9009 1.79945 52.5129 2.33274C53.097 2.84178 53.8276 3.59944 54.3244 4.53978C54.3674 4.62124 54.4437 4.76264 54.4855 4.8386L54.4865 4.84056C55.4429 6.58096 55.5997 8.15526 55.6632 10.6286L60.2443 10.6433C64.4459 10.6563 66.6319 10.6626 67.8029 10.6911C68.3526 10.7045 68.8721 10.7253 69.3214 10.7888C70.0269 10.8885 70.4958 11.0816 70.8214 11.2331C71.5296 11.5624 72.3473 12.0635 73.0519 12.9226C73.709 13.7236 74.0524 14.5788 74.2687 15.2283C74.6618 16.4084 74.6795 17.4746 74.7375 19.3406C74.7781 20.6488 74.8526 22.7961 74.9035 24.1042C74.9567 25.4737 74.9998 27.6731 75.0002 29.032C75.0005 30.3867 74.9779 31.5362 74.8273 32.5456C74.6653 33.6314 74.3706 34.4701 73.9816 35.2868L74.0324 39.0788C74.0672 41.6882 74.1365 46.4799 74.1867 49.7253C74.245 53.499 74.2594 55.9173 74.1242 57.5867C73.9676 59.5202 73.5876 60.7567 72.842 62.0935C72.388 62.9072 71.8112 63.7372 70.9728 64.4704C70.1364 65.202 69.2376 65.6626 68.3732 66.0066C67.6141 66.3087 67.1931 66.4077 66.1574 66.6384L65.131 66.8669C64.8471 66.9302 64.5566 66.9623 64.2658 66.9626L39.1359 66.9939C23.8893 67.0125 13.245 66.9928 12.0246 66.9343C10.1099 66.8424 8.68118 66.6735 7.21696 66.1833L6.92301 66.0808C5.89906 65.7089 4.53166 64.9937 3.61247 64.0749C3.11523 63.5778 2.627 62.8231 2.43766 62.5261C2.29507 62.3024 2.14075 62.0479 2.00797 61.8064C1.94522 61.6922 1.85499 61.5233 1.76969 61.3327C1.72831 61.2403 1.66132 61.0823 1.59684 60.8865C1.58905 60.8628 1.57338 60.8161 1.55387 60.7497C1.38067 60.3427 1.28253 59.9678 1.23454 59.7761C1.15618 59.4632 1.08975 59.1305 1.03434 58.8093C0.9229 58.1633 0.829196 57.4126 0.770669 56.6736C0.697108 55.7441 0.741933 51.5448 0.85856 44.7097L1.02165 35.0974C0.459948 33.8712 0.228527 32.7319 0.0714504 31.3152C-0.0178561 30.5096 -0.00994346 28.6296 0.0226223 26.6648C0.0578692 24.5383 0.133896 21.8867 0.240396 19.2585C0.320937 17.2721 0.345007 16.2882 0.760904 15.0671C0.886432 14.6985 1.08597 14.1659 1.44743 13.6042C1.80952 13.0416 2.21178 12.6401 2.49626 12.3728L2.73063 12.1628C2.96893 11.9575 3.21935 11.7683 3.46989 11.6023C3.73958 11.4235 4.26504 11.0975 4.93083 10.8992C5.39844 10.7599 5.83518 10.7281 5.91032 10.7214C6.09469 10.705 6.29254 10.6934 6.48454 10.6853C6.87465 10.6689 7.40012 10.6577 8.0695 10.6492C9.41698 10.632 11.4859 10.6257 14.5256 10.6257H18.6232C18.6386 9.3847 18.6893 8.64343 18.8507 7.72142C18.9153 7.35248 18.9963 6.97486 19.0822 6.64329C19.1244 6.48045 19.1783 6.28756 19.2433 6.09349C19.2562 6.05502 19.3311 5.82565 19.4728 5.52806C19.4848 5.49466 19.4925 5.47313 19.4953 5.46556C19.5645 5.27712 19.6358 5.12654 19.6769 5.04173C19.7634 4.86345 19.8534 4.70437 19.9191 4.59251C20.0582 4.35575 20.2236 4.09998 20.3898 3.86107C21.2263 2.65827 22.2953 1.733 23.5881 1.06712C24.408 0.644804 25.0858 0.456741 26.1076 0.188214C26.3523 0.123887 26.5507 0.097407 26.6017 0.0905574C26.6844 0.079451 26.753 0.0726838 26.7931 0.0690731C26.8744 0.0617689 26.9453 0.0577167 26.9884 0.0554012C27.0797 0.0505046 27.1772 0.0471815 27.2638 0.044659C27.4436 0.039429 27.6794 0.0348888 27.9533 0.0309871C28.506 0.0231131 29.2767 0.0164513 30.2033 0.0114559C32.0595 0.00145026 34.5765 -0.00258168 37.3078 0.00169025ZM19.2472 6.66771L19.2414 6.88157C19.2414 6.79595 19.244 6.71223 19.2492 6.63157C19.2484 6.64347 19.2479 6.65552 19.2472 6.66771Z" fill="#062A12" fill-opacity="0.5"/>
</svg>
